G04*
G04 #@! TF.GenerationSoftware,Altium Limited,Altium Designer,19.0.12 (326)*
G04*
G04 Layer_Color=255*
%FSLAX25Y25*%
%MOIN*%
G70*
G01*
G75*
%ADD19R,0.03937X0.10630*%
%ADD20R,0.02362X0.06693*%
%ADD21R,0.06693X0.02362*%
%ADD22R,0.10630X0.03937*%
%ADD23R,0.02000X0.02362*%
%ADD24R,0.02362X0.02000*%
%ADD25R,0.04331X0.04331*%
%ADD26O,0.01181X0.05709*%
%ADD27O,0.05709X0.01181*%
%ADD28R,0.02953X0.07087*%
%ADD29R,0.03000X0.03000*%
%ADD30R,0.03000X0.03000*%
%ADD31O,0.05709X0.02362*%
%ADD32R,0.07480X0.07284*%
%ADD33R,0.06693X0.09449*%
%ADD60R,0.05906X0.05906*%
%ADD61C,0.05906*%
%ADD62R,0.05906X0.05906*%
%ADD63C,0.09843*%
%ADD64C,0.07874*%
%ADD65C,0.15748*%
D19*
X201673Y122146D02*
D03*
X182185D02*
D03*
D20*
X189469Y134744D02*
D03*
X194390D02*
D03*
D21*
X211202Y283050D02*
D03*
Y287971D02*
D03*
Y297813D02*
D03*
Y292892D02*
D03*
Y244106D02*
D03*
Y249027D02*
D03*
Y258870D02*
D03*
Y253948D02*
D03*
Y166219D02*
D03*
Y171140D02*
D03*
Y180983D02*
D03*
Y176061D02*
D03*
Y127274D02*
D03*
Y132195D02*
D03*
Y142038D02*
D03*
Y137117D02*
D03*
X18898Y160683D02*
D03*
Y155761D02*
D03*
Y145919D02*
D03*
Y150840D02*
D03*
X211202Y205163D02*
D03*
Y210084D02*
D03*
Y219926D02*
D03*
Y215005D02*
D03*
D22*
X223800Y275766D02*
D03*
Y305097D02*
D03*
Y236823D02*
D03*
Y266153D02*
D03*
Y158935D02*
D03*
Y188266D02*
D03*
Y119991D02*
D03*
Y149321D02*
D03*
X6300Y167966D02*
D03*
Y138635D02*
D03*
X223800Y197879D02*
D03*
Y227210D02*
D03*
D23*
X162500Y261561D02*
D03*
X166300D02*
D03*
X154587Y173819D02*
D03*
X150787D02*
D03*
X105654Y173466D02*
D03*
X101854D02*
D03*
X128800Y169466D02*
D03*
X125000D02*
D03*
X158533Y298043D02*
D03*
X154733D02*
D03*
X74300Y312176D02*
D03*
X78100D02*
D03*
X74300Y292954D02*
D03*
X78100D02*
D03*
X158533Y307654D02*
D03*
X154733D02*
D03*
X74300Y307371D02*
D03*
X78100D02*
D03*
X74300Y302565D02*
D03*
X78100D02*
D03*
X64200Y204734D02*
D03*
X60400D02*
D03*
X158533Y302849D02*
D03*
X154733D02*
D03*
X78100Y297760D02*
D03*
X74300D02*
D03*
X158533Y312460D02*
D03*
X154733D02*
D03*
X60400Y195466D02*
D03*
X64200D02*
D03*
X158533Y293237D02*
D03*
X154733D02*
D03*
X155009Y331966D02*
D03*
X158809D02*
D03*
X107800Y299288D02*
D03*
X111600D02*
D03*
X71200Y328966D02*
D03*
X67400D02*
D03*
X105457Y279773D02*
D03*
X109257D02*
D03*
X81200Y328966D02*
D03*
X77400D02*
D03*
X100700Y279466D02*
D03*
X96900D02*
D03*
X37900Y342616D02*
D03*
X41700D02*
D03*
X49100Y309585D02*
D03*
X45300D02*
D03*
X14000Y342616D02*
D03*
X17800D02*
D03*
X163209Y331966D02*
D03*
X167009D02*
D03*
X60400Y200115D02*
D03*
X64200D02*
D03*
D24*
X169021Y213466D02*
D03*
Y209666D02*
D03*
X67800Y226387D02*
D03*
Y230187D02*
D03*
X69300Y184666D02*
D03*
Y188466D02*
D03*
X69931Y205166D02*
D03*
Y208966D02*
D03*
X167175Y232939D02*
D03*
Y229139D02*
D03*
X22800Y338666D02*
D03*
Y342466D02*
D03*
X33300Y338566D02*
D03*
Y342366D02*
D03*
X45800Y323966D02*
D03*
Y320166D02*
D03*
X132491Y289412D02*
D03*
Y285612D02*
D03*
X10300Y318766D02*
D03*
Y314966D02*
D03*
X67800Y253027D02*
D03*
Y256827D02*
D03*
X75800Y127724D02*
D03*
Y123924D02*
D03*
X65564Y275361D02*
D03*
Y271561D02*
D03*
X209670Y362214D02*
D03*
Y358414D02*
D03*
X74884Y275390D02*
D03*
Y271590D02*
D03*
X70200Y275390D02*
D03*
Y271590D02*
D03*
X10300Y309866D02*
D03*
Y306066D02*
D03*
X79580Y275361D02*
D03*
Y271561D02*
D03*
D25*
X166009Y337868D02*
D03*
X156009Y368064D02*
D03*
Y337868D02*
D03*
X166009Y368064D02*
D03*
D26*
X152249Y263690D02*
D03*
X150280D02*
D03*
X148312D02*
D03*
X146343D02*
D03*
X144375D02*
D03*
X142406D02*
D03*
X140438D02*
D03*
X138469D02*
D03*
X136501D02*
D03*
X134532D02*
D03*
X132564D02*
D03*
X130595D02*
D03*
X128627D02*
D03*
X126658D02*
D03*
X124690D02*
D03*
X122721D02*
D03*
X120753D02*
D03*
X118784D02*
D03*
X116816D02*
D03*
X114847D02*
D03*
X112879D02*
D03*
X110910D02*
D03*
X108942D02*
D03*
X106973D02*
D03*
X105005D02*
D03*
X103036D02*
D03*
X101068D02*
D03*
X99099D02*
D03*
X97131D02*
D03*
X95162D02*
D03*
X93194D02*
D03*
X91225D02*
D03*
X89257D02*
D03*
X87288D02*
D03*
X85320D02*
D03*
X83351D02*
D03*
Y179242D02*
D03*
X85320D02*
D03*
X87288D02*
D03*
X89257D02*
D03*
X91225D02*
D03*
X93194D02*
D03*
X95162D02*
D03*
X97131D02*
D03*
X99099D02*
D03*
X101068D02*
D03*
X103036D02*
D03*
X105005D02*
D03*
X106973D02*
D03*
X108942D02*
D03*
X110910D02*
D03*
X112879D02*
D03*
X114847D02*
D03*
X116816D02*
D03*
X118784D02*
D03*
X120753D02*
D03*
X122721D02*
D03*
X124690D02*
D03*
X126658D02*
D03*
X128627D02*
D03*
X130595D02*
D03*
X132564D02*
D03*
X134532D02*
D03*
X136501D02*
D03*
X138469D02*
D03*
X140438D02*
D03*
X142406D02*
D03*
X144375D02*
D03*
X146343D02*
D03*
X148312D02*
D03*
X150280D02*
D03*
X152249D02*
D03*
D27*
X75576Y255915D02*
D03*
Y253946D02*
D03*
Y251978D02*
D03*
Y250009D02*
D03*
Y248041D02*
D03*
Y246072D02*
D03*
Y244104D02*
D03*
Y242135D02*
D03*
Y240167D02*
D03*
Y238198D02*
D03*
Y236230D02*
D03*
Y234261D02*
D03*
Y232293D02*
D03*
Y230324D02*
D03*
Y228356D02*
D03*
Y226387D02*
D03*
Y224419D02*
D03*
Y222450D02*
D03*
Y220482D02*
D03*
Y218513D02*
D03*
Y216545D02*
D03*
Y214576D02*
D03*
Y212608D02*
D03*
Y210639D02*
D03*
Y208671D02*
D03*
Y206702D02*
D03*
Y204734D02*
D03*
Y202765D02*
D03*
Y200797D02*
D03*
Y198828D02*
D03*
Y196860D02*
D03*
Y194891D02*
D03*
Y192923D02*
D03*
Y190954D02*
D03*
Y188986D02*
D03*
Y187017D02*
D03*
X160024D02*
D03*
Y188986D02*
D03*
Y190954D02*
D03*
Y192923D02*
D03*
Y194891D02*
D03*
Y196860D02*
D03*
Y198828D02*
D03*
Y200797D02*
D03*
Y202765D02*
D03*
Y204734D02*
D03*
Y206702D02*
D03*
Y208671D02*
D03*
Y210639D02*
D03*
Y212608D02*
D03*
Y214576D02*
D03*
Y216545D02*
D03*
Y218513D02*
D03*
Y220482D02*
D03*
Y222450D02*
D03*
Y224419D02*
D03*
Y226387D02*
D03*
Y228356D02*
D03*
Y230324D02*
D03*
Y232293D02*
D03*
Y234261D02*
D03*
Y236230D02*
D03*
Y238198D02*
D03*
Y240167D02*
D03*
Y242135D02*
D03*
Y244104D02*
D03*
Y246072D02*
D03*
Y248041D02*
D03*
Y250009D02*
D03*
Y251978D02*
D03*
Y253946D02*
D03*
Y255915D02*
D03*
D28*
X54654Y185773D02*
D03*
Y199159D02*
D03*
X48946D02*
D03*
Y185773D02*
D03*
D29*
X163792Y312460D02*
D03*
X169242Y312453D02*
D03*
X163792Y306711D02*
D03*
X169242Y306705D02*
D03*
X63650Y312058D02*
D03*
X69100Y312051D02*
D03*
Y300731D02*
D03*
X63650Y300738D02*
D03*
X112517Y312466D02*
D03*
X117967Y312460D02*
D03*
X69100Y289412D02*
D03*
X63650Y289418D02*
D03*
X69100Y295072D02*
D03*
X63650Y295078D02*
D03*
X163792Y300963D02*
D03*
X169242Y300957D02*
D03*
X163792Y295215D02*
D03*
X169242Y295208D02*
D03*
X163792Y289466D02*
D03*
X169242Y289460D02*
D03*
X69100Y306392D02*
D03*
X63650Y306398D02*
D03*
D30*
X167015Y223963D02*
D03*
X167009Y218513D02*
D03*
D31*
X39028Y297466D02*
D03*
Y302466D02*
D03*
Y307466D02*
D03*
Y312466D02*
D03*
Y317466D02*
D03*
Y322466D02*
D03*
Y327466D02*
D03*
X17572Y297466D02*
D03*
Y302466D02*
D03*
Y307466D02*
D03*
Y312466D02*
D03*
Y317466D02*
D03*
Y322466D02*
D03*
Y327466D02*
D03*
D32*
X60583Y337029D02*
D03*
X78300Y365966D02*
D03*
Y337029D02*
D03*
X60583Y365966D02*
D03*
D33*
X112741Y289466D02*
D03*
X98174D02*
D03*
D60*
X197469Y201561D02*
D03*
X41300Y210966D02*
D03*
X26266Y199417D02*
D03*
X177469Y271561D02*
D03*
X187469Y201561D02*
D03*
X16028Y199466D02*
D03*
X6266Y199417D02*
D03*
X223154Y322824D02*
D03*
D61*
X197469Y211561D02*
D03*
Y221561D02*
D03*
Y231561D02*
D03*
Y241561D02*
D03*
Y251561D02*
D03*
Y261561D02*
D03*
Y271561D02*
D03*
X13300Y360966D02*
D03*
X23300D02*
D03*
X33300D02*
D03*
X41300Y220966D02*
D03*
Y230966D02*
D03*
Y240966D02*
D03*
Y250966D02*
D03*
Y260966D02*
D03*
X13300Y350966D02*
D03*
X23300D02*
D03*
X33300D02*
D03*
X80300Y151466D02*
D03*
X90300Y141466D02*
D03*
Y151466D02*
D03*
X100300Y141466D02*
D03*
Y151466D02*
D03*
X110300Y141466D02*
D03*
Y151466D02*
D03*
X120300Y141466D02*
D03*
Y151466D02*
D03*
X130300Y141466D02*
D03*
Y151466D02*
D03*
X140300Y141466D02*
D03*
Y151466D02*
D03*
X150300Y141466D02*
D03*
Y151466D02*
D03*
X26266Y269417D02*
D03*
Y259417D02*
D03*
Y249417D02*
D03*
Y239417D02*
D03*
Y229417D02*
D03*
Y219417D02*
D03*
Y209417D02*
D03*
X177469Y261561D02*
D03*
Y251561D02*
D03*
Y241561D02*
D03*
Y231561D02*
D03*
Y221561D02*
D03*
Y211561D02*
D03*
Y201561D02*
D03*
X187469Y211561D02*
D03*
Y221561D02*
D03*
Y231561D02*
D03*
Y241561D02*
D03*
Y251561D02*
D03*
Y261561D02*
D03*
Y271561D02*
D03*
X16028Y209466D02*
D03*
Y219466D02*
D03*
Y229466D02*
D03*
Y239466D02*
D03*
Y249466D02*
D03*
Y259466D02*
D03*
Y269466D02*
D03*
X105800Y125966D02*
D03*
X95800D02*
D03*
X115800D02*
D03*
X125800D02*
D03*
X135800D02*
D03*
X145800D02*
D03*
X6266Y209417D02*
D03*
Y219417D02*
D03*
Y229417D02*
D03*
Y239417D02*
D03*
Y249417D02*
D03*
Y259417D02*
D03*
Y269417D02*
D03*
X223154Y352824D02*
D03*
Y342824D02*
D03*
Y332824D02*
D03*
D62*
X43300Y360966D02*
D03*
Y350966D02*
D03*
X80300Y141466D02*
D03*
X85800Y125966D02*
D03*
D63*
X125143Y321281D02*
D03*
X105457D02*
D03*
D64*
X136954Y360651D02*
D03*
X93646D02*
D03*
D65*
X200615Y373927D02*
D03*
X201009Y29045D02*
D03*
X28961D02*
D03*
X28961Y373927D02*
D03*
M02*
