G04*
G04 #@! TF.GenerationSoftware,Altium Limited,Altium Designer,19.0.12 (326)*
G04*
G04 Layer_Color=255*
%FSLAX25Y25*%
%MOIN*%
G70*
G01*
G75*
%ADD23R,0.02000X0.02362*%
%ADD24R,0.02362X0.02000*%
%ADD60R,0.05906X0.05906*%
%ADD61C,0.05906*%
%ADD62R,0.05906X0.05906*%
%ADD63C,0.09843*%
%ADD64C,0.07874*%
%ADD65C,0.15748*%
%ADD67R,0.05984X0.06787*%
%ADD68R,0.11811X0.11811*%
%ADD69O,0.02362X0.05709*%
%ADD70R,0.05000X0.03937*%
%ADD71R,0.03543X0.03740*%
%ADD72R,0.03543X0.03740*%
%ADD73R,0.12795X0.08465*%
%ADD74R,0.03543X0.08465*%
D23*
X190300Y134466D02*
D03*
X186500D02*
D03*
X119700Y333966D02*
D03*
X115900D02*
D03*
X32150Y186828D02*
D03*
X35950D02*
D03*
X135300Y346766D02*
D03*
X131500D02*
D03*
X193800Y143466D02*
D03*
X197600D02*
D03*
X190000Y148466D02*
D03*
X193800D02*
D03*
X102743Y312366D02*
D03*
X106543D02*
D03*
X68100Y188828D02*
D03*
X64300D02*
D03*
X67800Y183966D02*
D03*
X64000D02*
D03*
D24*
X177290Y156166D02*
D03*
Y159966D02*
D03*
X104406Y336266D02*
D03*
Y332466D02*
D03*
X180800Y141566D02*
D03*
Y145366D02*
D03*
X109800Y336266D02*
D03*
Y332466D02*
D03*
X186800Y143766D02*
D03*
Y139966D02*
D03*
D60*
X197469Y201561D02*
D03*
X41300Y210966D02*
D03*
X26266Y199417D02*
D03*
X177469Y271561D02*
D03*
X187469Y201561D02*
D03*
X16028Y199466D02*
D03*
X6266Y199417D02*
D03*
X223154Y322824D02*
D03*
D61*
X197469Y211561D02*
D03*
Y221561D02*
D03*
Y231561D02*
D03*
Y241561D02*
D03*
Y251561D02*
D03*
Y261561D02*
D03*
Y271561D02*
D03*
X13300Y360966D02*
D03*
X23300D02*
D03*
X33300D02*
D03*
X41300Y220966D02*
D03*
Y230966D02*
D03*
Y240966D02*
D03*
Y250966D02*
D03*
Y260966D02*
D03*
X13300Y350966D02*
D03*
X23300D02*
D03*
X33300D02*
D03*
X80300Y151466D02*
D03*
X90300Y141466D02*
D03*
Y151466D02*
D03*
X100300Y141466D02*
D03*
Y151466D02*
D03*
X110300Y141466D02*
D03*
Y151466D02*
D03*
X120300Y141466D02*
D03*
Y151466D02*
D03*
X130300Y141466D02*
D03*
Y151466D02*
D03*
X140300Y141466D02*
D03*
Y151466D02*
D03*
X150300Y141466D02*
D03*
Y151466D02*
D03*
X26266Y269417D02*
D03*
Y259417D02*
D03*
Y249417D02*
D03*
Y239417D02*
D03*
Y229417D02*
D03*
Y219417D02*
D03*
Y209417D02*
D03*
X177469Y261561D02*
D03*
Y251561D02*
D03*
Y241561D02*
D03*
Y231561D02*
D03*
Y221561D02*
D03*
Y211561D02*
D03*
Y201561D02*
D03*
X187469Y211561D02*
D03*
Y221561D02*
D03*
Y231561D02*
D03*
Y241561D02*
D03*
Y251561D02*
D03*
Y261561D02*
D03*
Y271561D02*
D03*
X16028Y209466D02*
D03*
Y219466D02*
D03*
Y229466D02*
D03*
Y239466D02*
D03*
Y249466D02*
D03*
Y259466D02*
D03*
Y269466D02*
D03*
X105800Y125966D02*
D03*
X95800D02*
D03*
X115800D02*
D03*
X125800D02*
D03*
X135800D02*
D03*
X145800D02*
D03*
X6266Y209417D02*
D03*
Y219417D02*
D03*
Y229417D02*
D03*
Y239417D02*
D03*
Y249417D02*
D03*
Y259417D02*
D03*
Y269417D02*
D03*
X223154Y352824D02*
D03*
Y342824D02*
D03*
Y332824D02*
D03*
D62*
X43300Y360966D02*
D03*
Y350966D02*
D03*
X80300Y141466D02*
D03*
X85800Y125966D02*
D03*
D63*
X125143Y321281D02*
D03*
X105457D02*
D03*
D64*
X136954Y360651D02*
D03*
X93646D02*
D03*
D65*
X200615Y373927D02*
D03*
X201009Y29045D02*
D03*
X28961D02*
D03*
X28961Y373927D02*
D03*
D67*
X43800Y178966D02*
D03*
X26083D02*
D03*
D68*
X50800Y161966D02*
D03*
X26300D02*
D03*
Y137466D02*
D03*
X50800D02*
D03*
D69*
X183800Y177194D02*
D03*
X188800D02*
D03*
X193800D02*
D03*
X198800D02*
D03*
X183800Y155738D02*
D03*
X188800D02*
D03*
X193800D02*
D03*
X198800D02*
D03*
D70*
X92300Y331966D02*
D03*
Y339166D02*
D03*
D71*
X65300Y168466D02*
D03*
X61560Y177718D02*
D03*
D72*
X69040D02*
D03*
D73*
X114800Y368002D02*
D03*
D74*
X105745Y344931D02*
D03*
X114800D02*
D03*
X123855D02*
D03*
M02*
