G04*
G04 #@! TF.GenerationSoftware,Altium Limited,Altium Designer,19.0.12 (326)*
G04*
G04 Layer_Physical_Order=1*
G04 Layer_Color=255*
%FSLAX25Y25*%
%MOIN*%
G70*
G01*
G75*
%ADD13C,0.01000*%
%ADD18R,0.03150X0.03937*%
G04:AMPARAMS|DCode=19|XSize=150mil|YSize=65mil|CornerRadius=0mil|HoleSize=0mil|Usage=FLASHONLY|Rotation=0.000|XOffset=0mil|YOffset=0mil|HoleType=Round|Shape=Octagon|*
%AMOCTAGOND19*
4,1,8,0.07500,-0.01625,0.07500,0.01625,0.05875,0.03250,-0.05875,0.03250,-0.07500,0.01625,-0.07500,-0.01625,-0.05875,-0.03250,0.05875,-0.03250,0.07500,-0.01625,0.0*
%
%ADD19OCTAGOND19*%

%ADD20O,0.15000X0.06500*%
%ADD21R,0.10000X0.10000*%
%ADD22O,0.05709X0.01181*%
%ADD23O,0.01181X0.05709*%
%ADD24R,0.03937X0.03150*%
%ADD25R,0.05000X0.05000*%
%ADD26R,0.05000X0.03500*%
G04:AMPARAMS|DCode=27|XSize=50mil|YSize=35mil|CornerRadius=0mil|HoleSize=0mil|Usage=FLASHONLY|Rotation=180.000|XOffset=0mil|YOffset=0mil|HoleType=Round|Shape=Octagon|*
%AMOCTAGOND27*
4,1,8,-0.02500,0.00875,-0.02500,-0.00875,-0.01625,-0.01750,0.01625,-0.01750,0.02500,-0.00875,0.02500,0.00875,0.01625,0.01750,-0.01625,0.01750,-0.02500,0.00875,0.0*
%
%ADD27OCTAGOND27*%

%ADD28O,0.03937X0.10630*%
%ADD29R,0.03937X0.10630*%
%ADD30R,0.05118X0.07480*%
%ADD56C,0.02000*%
%ADD57C,0.05906*%
%ADD58R,0.05906X0.05906*%
%ADD59C,0.06693*%
%ADD60R,0.06693X0.06693*%
%ADD61C,0.05000*%
%ADD62R,0.05906X0.05906*%
%ADD63R,0.19685X0.19685*%
%ADD64C,0.19685*%
%ADD65C,0.11024*%
%ADD66C,0.06299*%
%ADD67R,0.06299X0.06299*%
%ADD68C,0.07874*%
G36*
X209379Y1122D02*
X35167D01*
X34969Y1539D01*
X34969Y1622D01*
Y7354D01*
X32000D01*
X30055D01*
Y5957D01*
X30036Y6127D01*
X29979Y6280D01*
X29884Y6414D01*
X29750Y6531D01*
X29578Y6630D01*
X29368Y6711D01*
X29120Y6774D01*
X29032Y6787D01*
Y1622D01*
X29032Y1539D01*
X28833Y1122D01*
X24526D01*
X24414Y1590D01*
X25265Y1943D01*
X25996Y2504D01*
X26557Y3235D01*
X26910Y4086D01*
X26964Y4500D01*
X20036D01*
X20090Y4086D01*
X20443Y3235D01*
X21004Y2504D01*
X21735Y1943D01*
X22586Y1590D01*
X22474Y1122D01*
X11668D01*
X11498Y1622D01*
X11996Y2004D01*
X12557Y2735D01*
X12910Y3586D01*
X12964Y4000D01*
X6036D01*
X6090Y3586D01*
X6443Y2735D01*
X7004Y2004D01*
X7502Y1622D01*
X7332Y1122D01*
X1122D01*
X1122Y157878D01*
X209378D01*
X209379Y1122D01*
D02*
G37*
%LPC*%
G36*
X160500Y154122D02*
X160500Y154122D01*
X127700D01*
X127700Y154122D01*
X127271Y154036D01*
X126907Y153793D01*
X121275Y148161D01*
X120851Y148444D01*
X120910Y148586D01*
X120964Y149000D01*
X118000D01*
Y146036D01*
X118414Y146090D01*
X118556Y146149D01*
X118839Y145725D01*
X112907Y139793D01*
X112664Y139429D01*
X112646Y139340D01*
X107577D01*
X107548Y139361D01*
X107470Y139348D01*
X107397Y139378D01*
X107309Y139340D01*
X106790D01*
Y139169D01*
X106563Y139151D01*
X106394Y139149D01*
X106329Y139122D01*
X102614D01*
X100861Y140875D01*
X100833Y140943D01*
X100451Y141321D01*
X100443Y141324D01*
X100440Y141332D01*
X100248Y141514D01*
X99927Y141848D01*
Y142069D01*
X99516Y142083D01*
X99485Y142080D01*
X99118Y142153D01*
X98693Y142069D01*
X97461D01*
X97269Y142530D01*
X97470Y142731D01*
X97470Y142731D01*
X97713Y143095D01*
X97799Y143524D01*
X97799Y143524D01*
Y145464D01*
X97826Y145526D01*
X97831Y145696D01*
X97842Y145821D01*
X97857Y145915D01*
X97862Y145931D01*
X99927D01*
Y147317D01*
X99935Y147319D01*
X100031Y147335D01*
X100159Y147346D01*
X100332Y147351D01*
X100394Y147378D01*
X106323D01*
X106385Y147351D01*
X106557Y147346D01*
X106685Y147335D01*
X106781Y147319D01*
X106790Y147317D01*
Y143258D01*
X113108D01*
Y151939D01*
X106790D01*
Y149683D01*
X106781Y149681D01*
X106685Y149665D01*
X106557Y149654D01*
X106385Y149649D01*
X106323Y149622D01*
X100394D01*
X100332Y149649D01*
X100159Y149654D01*
X100031Y149665D01*
X99935Y149681D01*
X99927Y149683D01*
Y151068D01*
X95577D01*
Y147534D01*
X95556Y147425D01*
X95556Y147425D01*
Y146588D01*
X95540Y146551D01*
X95528Y145551D01*
X95529Y145547D01*
X95528Y145544D01*
X95556Y145476D01*
Y143989D01*
X94383Y142816D01*
X94028Y142469D01*
X92501D01*
X92503Y142437D01*
X92543Y142176D01*
X92593Y141956D01*
X92655Y141777D01*
X92729Y141637D01*
X92813Y141536D01*
X92909Y141477D01*
X93015Y141456D01*
X91953D01*
Y139500D01*
Y138309D01*
X92718Y137543D01*
X92563Y137657D01*
X92379Y137713D01*
X92167D01*
X91953Y137663D01*
Y136531D01*
X93956D01*
Y134923D01*
X93956Y134923D01*
X93891Y134844D01*
X88400D01*
Y128644D01*
X93490D01*
X93978Y128556D01*
X94064Y128127D01*
X94307Y127763D01*
X100617Y121453D01*
X100500Y121216D01*
Y118000D01*
X103716D01*
X103953Y118117D01*
X110978Y111092D01*
Y102981D01*
X110517Y102790D01*
X109662Y103644D01*
X109640Y103706D01*
X109288Y104084D01*
X109175Y104225D01*
X109091Y104347D01*
X109069Y104386D01*
Y104588D01*
X109106Y104678D01*
X109086Y104727D01*
X109098Y104779D01*
X109069Y104828D01*
Y107002D01*
X104847D01*
X104291Y107547D01*
X104225Y107573D01*
X95154Y116645D01*
X95135Y116702D01*
X95035Y116815D01*
X94965Y116918D01*
X94899Y117044D01*
X94836Y117197D01*
X94780Y117378D01*
X94733Y117586D01*
X94696Y117812D01*
X94652Y118377D01*
X94649Y118694D01*
X94620Y118762D01*
X94520Y119522D01*
X94208Y120276D01*
X93711Y120924D01*
X93063Y121420D01*
X92309Y121733D01*
X91500Y121839D01*
X90691Y121733D01*
X89937Y121420D01*
X89289Y120924D01*
X88792Y120276D01*
X88480Y119522D01*
X88373Y118713D01*
X88480Y117903D01*
X88792Y117149D01*
X89289Y116502D01*
X89937Y116005D01*
X90691Y115692D01*
X91437Y115594D01*
X91505Y115564D01*
X92138Y115544D01*
X92392Y115518D01*
X92627Y115480D01*
X92835Y115432D01*
X93015Y115376D01*
X93168Y115314D01*
X93295Y115247D01*
X93397Y115178D01*
X93511Y115078D01*
X93568Y115059D01*
X95182Y113445D01*
X95000Y113076D01*
Y110000D01*
X98076D01*
X98445Y110182D01*
X103341Y105285D01*
X103366Y105221D01*
X103490Y105091D01*
X103587Y104977D01*
X103671Y104867D01*
X103739Y104762D01*
X103794Y104664D01*
X103837Y104571D01*
X103868Y104484D01*
X103889Y104403D01*
X103901Y104326D01*
X103907Y104218D01*
X103931Y104168D01*
Y102652D01*
X106893D01*
X106941Y102622D01*
X106993Y102635D01*
X107042Y102614D01*
X107133Y102652D01*
X107335D01*
X107374Y102629D01*
X107488Y102550D01*
X107816Y102273D01*
X108005Y102090D01*
X108070Y102064D01*
X108570Y101564D01*
X108379Y101102D01*
X107000D01*
Y98527D01*
Y95953D01*
X109378D01*
Y91324D01*
X104431D01*
Y90333D01*
X104423Y90330D01*
X104327Y90314D01*
X104199Y90303D01*
X104027Y90299D01*
X103964Y90271D01*
X102315D01*
X95154Y97432D01*
X95135Y97489D01*
X95035Y97602D01*
X94965Y97705D01*
X94899Y97832D01*
X94836Y97985D01*
X94780Y98165D01*
X94733Y98373D01*
X94696Y98599D01*
X94652Y99164D01*
X94649Y99481D01*
X94620Y99550D01*
X94520Y100309D01*
X94208Y101063D01*
X93711Y101711D01*
X93063Y102208D01*
X92309Y102520D01*
X91500Y102627D01*
X90691Y102520D01*
X89937Y102208D01*
X89289Y101711D01*
X88792Y101063D01*
X88480Y100309D01*
X88373Y99500D01*
X88480Y98691D01*
X88792Y97937D01*
X89289Y97289D01*
X89937Y96792D01*
X90691Y96480D01*
X91437Y96381D01*
X91505Y96351D01*
X92138Y96332D01*
X92392Y96305D01*
X92627Y96267D01*
X92835Y96220D01*
X93015Y96164D01*
X93168Y96101D01*
X93295Y96034D01*
X93397Y95965D01*
X93511Y95865D01*
X93568Y95846D01*
X101057Y88357D01*
X101057Y88357D01*
X101421Y88113D01*
X101850Y88028D01*
X103964D01*
X104027Y88000D01*
X104199Y87996D01*
X104327Y87985D01*
X104423Y87969D01*
X104431Y87967D01*
Y86975D01*
X107336D01*
X107373Y86886D01*
X107432Y86590D01*
X107676Y86226D01*
X108014Y85887D01*
X107823Y85425D01*
X107500D01*
Y82850D01*
Y80276D01*
X108708D01*
X108955Y79776D01*
X108792Y79563D01*
X108480Y78809D01*
X108373Y78000D01*
X108480Y77191D01*
X108792Y76437D01*
X109289Y75789D01*
X109937Y75292D01*
X110691Y74980D01*
X111500Y74873D01*
X112309Y74980D01*
X113063Y75292D01*
X113671Y75759D01*
X113737Y75784D01*
X114197Y76218D01*
X114394Y76380D01*
X114586Y76519D01*
X114766Y76632D01*
X114933Y76720D01*
X115065Y76776D01*
X115444Y76547D01*
X119366D01*
X121856D01*
Y76592D01*
X121869Y76590D01*
X121901Y76588D01*
X122871Y76582D01*
X122875Y76547D01*
X123152D01*
X123128Y76668D01*
X122777Y77194D01*
X122594Y77316D01*
X122751Y77551D01*
X122844Y78016D01*
X122751Y78480D01*
X122488Y78874D01*
Y79126D01*
X122751Y79520D01*
X122844Y79984D01*
X122751Y80449D01*
X122650Y80601D01*
X122529Y80968D01*
X122650Y81336D01*
X122751Y81488D01*
X122844Y81953D01*
X122751Y82417D01*
X122703Y82489D01*
X122542Y82861D01*
X122831Y83130D01*
X122880Y83163D01*
X123123Y83527D01*
X123208Y83956D01*
X123123Y84385D01*
X122880Y84749D01*
X122863Y84760D01*
X122523Y85006D01*
X122735Y85401D01*
X122751Y85425D01*
X122844Y85890D01*
X122751Y86354D01*
X122488Y86748D01*
Y87000D01*
X122751Y87394D01*
X122844Y87858D01*
X122751Y88323D01*
X122488Y88717D01*
Y88968D01*
X122751Y89362D01*
X122844Y89827D01*
X122751Y90291D01*
X122488Y90685D01*
X122095Y90948D01*
X121630Y91041D01*
X117102D01*
X116922Y91005D01*
X116422Y91359D01*
Y101228D01*
X116922Y101398D01*
X117224Y101004D01*
X117955Y100443D01*
X118807Y100090D01*
X119220Y100036D01*
Y103500D01*
X120220D01*
Y100036D01*
X120634Y100090D01*
X121486Y100443D01*
X122217Y101004D01*
X122632Y101546D01*
X123132Y101376D01*
Y97488D01*
X123257Y96864D01*
X123610Y96335D01*
X123959Y96101D01*
Y93370D01*
X123996Y93186D01*
X123979Y93144D01*
X123984Y93131D01*
X123979Y93117D01*
X124024Y92050D01*
X124052Y91991D01*
Y88827D01*
X124052Y88827D01*
X124137Y88398D01*
X124380Y88034D01*
X132846Y79568D01*
X132866Y79511D01*
X132965Y79397D01*
X133035Y79295D01*
X133101Y79168D01*
X133164Y79015D01*
X133220Y78835D01*
X133267Y78627D01*
X133304Y78400D01*
X133348Y77836D01*
X133351Y77519D01*
X133356Y77506D01*
X133351Y77495D01*
X133332Y76862D01*
X133305Y76608D01*
X133267Y76373D01*
X133220Y76165D01*
X133164Y75985D01*
X133101Y75832D01*
X133035Y75705D01*
X132965Y75603D01*
X132866Y75489D01*
X132846Y75432D01*
X132614Y75200D01*
X123554D01*
X123520Y75219D01*
X123290Y75547D01*
X122214D01*
X121939Y75531D01*
X121888Y75517D01*
X121856Y75502D01*
Y75547D01*
X119366D01*
X115580D01*
X115604Y75427D01*
X115956Y74901D01*
X116138Y74779D01*
X115981Y74543D01*
X115889Y74079D01*
X115981Y73614D01*
X116029Y73542D01*
X116191Y73171D01*
X115902Y72901D01*
X115852Y72869D01*
X115852Y72869D01*
X115527Y72543D01*
X115310Y72500D01*
X114946Y72257D01*
X114946Y72257D01*
X110419Y67729D01*
X109919Y67936D01*
Y71675D01*
X108586D01*
X108535Y71699D01*
X108428Y71705D01*
X108352Y71716D01*
X108272Y71737D01*
X108186Y71768D01*
X108094Y71810D01*
X107995Y71865D01*
X107891Y71934D01*
X107781Y72017D01*
X107666Y72116D01*
X107535Y72240D01*
X107471Y72265D01*
X102037Y77699D01*
X102035Y77702D01*
X101995Y77773D01*
X102055Y78226D01*
X102113Y78330D01*
X102711Y78789D01*
X103208Y79437D01*
X103520Y80191D01*
X103532Y80277D01*
X104032Y80276D01*
Y80276D01*
X106500D01*
Y82350D01*
X104032D01*
Y81756D01*
X103532Y81723D01*
X103520Y81809D01*
X103208Y82563D01*
X102711Y83211D01*
X102063Y83708D01*
X101309Y84020D01*
X100500Y84127D01*
X99691Y84020D01*
X98937Y83708D01*
X98289Y83211D01*
X97792Y82563D01*
X97480Y81809D01*
X97373Y81000D01*
X97480Y80191D01*
X97792Y79437D01*
X98289Y78789D01*
X98937Y78292D01*
X99143Y78207D01*
X99207Y78130D01*
X99257Y78104D01*
X99260Y78101D01*
X99265Y78096D01*
X99274Y78084D01*
X99288Y78059D01*
X99305Y78016D01*
X99322Y77954D01*
X99336Y77872D01*
X99347Y77770D01*
X99351Y77630D01*
X99407Y77505D01*
X99464Y77220D01*
X99707Y76857D01*
X104513Y72050D01*
X104782Y71675D01*
X104782D01*
X104782Y71675D01*
Y67325D01*
X109334D01*
X109337Y67323D01*
X109579Y66825D01*
X109464Y66654D01*
X109378Y66224D01*
X109378Y66224D01*
Y65376D01*
X104782D01*
Y63185D01*
X104766Y63180D01*
X104672Y63165D01*
X104547Y63154D01*
X104377Y63149D01*
X104315Y63122D01*
X102106D01*
X102054Y63148D01*
X101885Y63160D01*
X101743Y63190D01*
X101577Y63246D01*
X101389Y63331D01*
X101181Y63447D01*
X100955Y63596D01*
X100718Y63773D01*
X100177Y64246D01*
X99889Y64530D01*
X99836Y64551D01*
X99116Y65103D01*
X98252Y65461D01*
X97324Y65583D01*
X96397Y65461D01*
X95533Y65103D01*
X94790Y64534D01*
X94221Y63792D01*
X93863Y62927D01*
X93741Y62000D01*
X93863Y61073D01*
X94221Y60208D01*
X94790Y59466D01*
X95317Y59062D01*
X95147Y58562D01*
X92348D01*
X91498Y59412D01*
X91480Y59467D01*
X91369Y59595D01*
X91290Y59717D01*
X91212Y59874D01*
X91140Y60067D01*
X91075Y60296D01*
X91020Y60561D01*
X90978Y60854D01*
X90929Y61571D01*
X90926Y61975D01*
X90904Y62028D01*
X90785Y62927D01*
X90428Y63792D01*
X89858Y64534D01*
X89116Y65103D01*
X88252Y65461D01*
X87324Y65583D01*
X86397Y65461D01*
X85532Y65103D01*
X84790Y64534D01*
X84221Y63792D01*
X83863Y62927D01*
X83741Y62000D01*
X83863Y61073D01*
X84221Y60208D01*
X84790Y59466D01*
X85532Y58897D01*
X86397Y58539D01*
X87296Y58420D01*
X87349Y58398D01*
X87753Y58395D01*
X88470Y58346D01*
X88763Y58304D01*
X89028Y58249D01*
X89258Y58184D01*
X89450Y58112D01*
X89607Y58034D01*
X89729Y57955D01*
X89857Y57844D01*
X89912Y57826D01*
X91091Y56647D01*
X91091Y56647D01*
X91454Y56404D01*
X91884Y56319D01*
X91884Y56319D01*
X98836D01*
X99080Y56017D01*
X98878Y55553D01*
X93771D01*
Y54109D01*
X93750Y54068D01*
X93738Y53955D01*
X93730Y53934D01*
X93718Y53915D01*
X93681Y53881D01*
X93600Y53832D01*
X93464Y53777D01*
X93272Y53725D01*
X93026Y53685D01*
X92729Y53659D01*
X92366Y53649D01*
X92326Y53631D01*
X91938D01*
X91899Y53649D01*
X91650Y53659D01*
X91433Y53684D01*
X91225Y53727D01*
X91023Y53786D01*
X90826Y53862D01*
X90634Y53956D01*
X90445Y54068D01*
X90260Y54199D01*
X90077Y54350D01*
X89881Y54537D01*
X89827Y54558D01*
X89116Y55103D01*
X88252Y55461D01*
X87324Y55583D01*
X86397Y55461D01*
X85532Y55103D01*
X84790Y54534D01*
X84221Y53792D01*
X83863Y52927D01*
X83741Y52000D01*
X83793Y51600D01*
X83760Y51483D01*
X83788Y51229D01*
X83793Y51014D01*
X83779Y50810D01*
X83747Y50616D01*
X83697Y50431D01*
X83629Y50252D01*
X83542Y50078D01*
X83434Y49907D01*
X83304Y49739D01*
X83134Y49553D01*
X83121Y49518D01*
X83089Y49499D01*
X83084Y49479D01*
X80610Y47005D01*
X80569Y46989D01*
X80402Y46830D01*
X80247Y46697D01*
X80092Y46578D01*
X79937Y46473D01*
X79783Y46382D01*
X79629Y46303D01*
X79474Y46237D01*
X79320Y46184D01*
X79164Y46142D01*
X78984Y46107D01*
X78895Y46047D01*
X78691Y46020D01*
X77937Y45708D01*
X77289Y45211D01*
X76792Y44563D01*
X76480Y43809D01*
X76373Y43000D01*
X76480Y42191D01*
X76792Y41437D01*
X77289Y40789D01*
X77937Y40292D01*
X78691Y39980D01*
X79500Y39873D01*
X80309Y39980D01*
X81063Y40292D01*
X81711Y40789D01*
X82208Y41437D01*
X82520Y42191D01*
X82627Y43000D01*
X82573Y43405D01*
X82605Y43521D01*
X82584Y43688D01*
X82582Y43817D01*
X82594Y43943D01*
X82620Y44069D01*
X82661Y44198D01*
X82719Y44330D01*
X82796Y44467D01*
X82893Y44610D01*
X83012Y44756D01*
X83167Y44923D01*
X83182Y44963D01*
X83199Y44979D01*
X83228Y44998D01*
X83231Y45011D01*
X85430Y47211D01*
X85930Y47004D01*
Y38201D01*
X85913Y38165D01*
X85904Y37985D01*
X85506Y37541D01*
X85324Y37569D01*
Y37569D01*
X84804D01*
X84714Y37606D01*
X84673Y37589D01*
X84630Y37601D01*
X84574Y37569D01*
X80975D01*
Y32432D01*
X85324D01*
Y33021D01*
X85346Y33061D01*
X85358Y33175D01*
X85366Y33196D01*
X85379Y33215D01*
X85416Y33250D01*
X85498Y33299D01*
X85633Y33354D01*
X85825Y33406D01*
X86071Y33446D01*
X86368Y33472D01*
X86729Y33482D01*
X86770Y33500D01*
X87426D01*
X87434Y33494D01*
X87462Y33500D01*
X87661D01*
X87689Y33494D01*
X87697Y33500D01*
X88231D01*
X88271Y33482D01*
X88632Y33473D01*
X88929Y33448D01*
X89175Y33409D01*
X89368Y33359D01*
X89504Y33306D01*
X89584Y33259D01*
X89619Y33228D01*
X89627Y33216D01*
X89631Y33206D01*
X89642Y33104D01*
X89676Y33043D01*
Y32563D01*
X90197D01*
X90288Y32525D01*
X90322Y32540D01*
X90359Y32529D01*
X90420Y32563D01*
X94025D01*
Y37700D01*
X94025Y37700D01*
X94025D01*
X94083Y38187D01*
X94496Y38504D01*
X95057Y39235D01*
X95410Y40086D01*
X95469Y40536D01*
X95992Y40676D01*
X96289Y40289D01*
X96937Y39792D01*
X97691Y39480D01*
X98437Y39382D01*
X98505Y39351D01*
X99138Y39331D01*
X99392Y39305D01*
X99627Y39267D01*
X99835Y39220D01*
X100015Y39164D01*
X100168Y39101D01*
X100295Y39035D01*
X100398Y38965D01*
X100511Y38866D01*
X100535Y38829D01*
X102611Y36753D01*
X102589Y36581D01*
X102515Y36442D01*
X102362Y36253D01*
X100792D01*
X100729Y36280D01*
X100557Y36285D01*
X100429Y36296D01*
X100333Y36312D01*
X100324Y36314D01*
Y37700D01*
X95975D01*
Y32563D01*
X96967D01*
X96969Y32554D01*
X96985Y32458D01*
X96996Y32330D01*
X97000Y32158D01*
X97028Y32096D01*
Y27114D01*
X90707Y20793D01*
X90464Y20429D01*
X90378Y20000D01*
X90378Y20000D01*
Y19023D01*
X89878Y18898D01*
X89236Y19736D01*
X88288Y20463D01*
X87184Y20920D01*
X86000Y21076D01*
X84816Y20920D01*
X84159Y20648D01*
X73187Y31620D01*
X72658Y31974D01*
X72182Y32068D01*
X72060Y32518D01*
X72060Y32587D01*
Y32990D01*
X72092Y33046D01*
X72097Y33079D01*
X72109Y33088D01*
X72194Y33130D01*
X72339Y33178D01*
X72530Y33219D01*
X73108Y33277D01*
X73363Y33283D01*
X73634Y33276D01*
X73935Y33253D01*
X74184Y33216D01*
X74380Y33169D01*
X74520Y33118D01*
X74602Y33073D01*
X74633Y33047D01*
X74643Y32967D01*
X74676Y32908D01*
Y32432D01*
X75196D01*
X75286Y32394D01*
X75324Y32410D01*
X75364Y32399D01*
X75423Y32432D01*
X79025D01*
Y37569D01*
X75390D01*
X75370Y37580D01*
X75335Y37569D01*
X75302Y37584D01*
X75265Y37569D01*
X74676D01*
Y37044D01*
X74654Y37004D01*
X74642Y36891D01*
X74634Y36869D01*
X74621Y36850D01*
X74584Y36816D01*
X74502Y36766D01*
X74367Y36711D01*
X74175Y36660D01*
X73929Y36619D01*
X73632Y36593D01*
X73386Y36586D01*
X72777Y36609D01*
X72522Y36637D01*
X72312Y36676D01*
X72158Y36718D01*
X72066Y36756D01*
X72060Y36759D01*
Y37218D01*
X71539D01*
X71448Y37255D01*
X71399Y37235D01*
X71348Y37248D01*
X71299Y37218D01*
X65860D01*
Y36870D01*
X65863Y36869D01*
X65860Y36867D01*
Y36485D01*
X65368Y36345D01*
X64813Y35693D01*
X64582Y35364D01*
X64410Y35065D01*
X64297Y34798D01*
X64243Y34562D01*
X64248Y34357D01*
X64313Y34183D01*
X64436Y34040D01*
X62460Y35679D01*
Y34868D01*
X61460D01*
Y36509D01*
X61357Y36594D01*
X61460Y36532D01*
Y37618D01*
X59835D01*
X59492Y37760D01*
Y56364D01*
X59509Y56404D01*
X59519Y56764D01*
X59545Y57060D01*
X59586Y57303D01*
X59637Y57493D01*
X59692Y57627D01*
X59741Y57707D01*
X59774Y57744D01*
X59793Y57756D01*
X59814Y57764D01*
X59928Y57776D01*
X59991Y57810D01*
X77065D01*
Y78694D01*
X56179D01*
Y58512D01*
X56142Y58421D01*
X56147Y58410D01*
X56142Y58399D01*
X56211Y56399D01*
X56229Y56360D01*
Y33330D01*
X56353Y32706D01*
X56707Y32177D01*
X59570Y29313D01*
X60100Y28960D01*
X60724Y28835D01*
X71358D01*
X81852Y18341D01*
X81580Y17684D01*
X81424Y16500D01*
X81580Y15316D01*
X82037Y14212D01*
X82764Y13264D01*
X83712Y12537D01*
X84816Y12080D01*
X86000Y11924D01*
X86336Y11968D01*
X86557Y11520D01*
X83659Y8622D01*
X52769D01*
X52707Y8649D01*
X52534Y8654D01*
X52407Y8665D01*
X52310Y8681D01*
X52307Y8681D01*
Y11201D01*
X52219Y11871D01*
X51960Y12496D01*
X51548Y13033D01*
X51012Y13444D01*
X50387Y13703D01*
X49716Y13792D01*
X49046Y13703D01*
X48421Y13444D01*
X47885Y13033D01*
X47473Y12496D01*
X47214Y11871D01*
X47126Y11201D01*
Y4508D01*
X47214Y3837D01*
X47473Y3213D01*
X47885Y2676D01*
X48421Y2264D01*
X49046Y2005D01*
X49716Y1917D01*
X50387Y2005D01*
X51012Y2264D01*
X51548Y2676D01*
X51960Y3213D01*
X52219Y3837D01*
X52307Y4508D01*
Y6318D01*
X52310Y6319D01*
X52407Y6335D01*
X52534Y6346D01*
X52707Y6351D01*
X52769Y6379D01*
X84123D01*
X84123Y6378D01*
X84553Y6464D01*
X84917Y6707D01*
X92293Y14084D01*
X92293Y14084D01*
X92536Y14447D01*
X92622Y14877D01*
X92622Y14877D01*
Y19535D01*
X98943Y25857D01*
X98943Y25857D01*
X99186Y26220D01*
X99271Y26650D01*
X99271Y26650D01*
Y32096D01*
X99299Y32158D01*
X99303Y32330D01*
X99314Y32458D01*
X99330Y32554D01*
X99333Y32563D01*
X100324D01*
Y33948D01*
X100333Y33950D01*
X100429Y33966D01*
X100557Y33977D01*
X100729Y33982D01*
X100792Y34010D01*
X102783D01*
X102846Y33982D01*
X103018Y33977D01*
X103146Y33966D01*
X103242Y33950D01*
X103250Y33948D01*
Y32563D01*
X107600D01*
X107928Y32199D01*
Y17450D01*
X107928Y17450D01*
X108013Y17021D01*
X108256Y16657D01*
X116207Y8707D01*
X116207Y8707D01*
X116571Y8464D01*
X117000Y8378D01*
X120480D01*
X120542Y8351D01*
X120715Y8346D01*
X120843Y8335D01*
X120939Y8319D01*
X120947Y8317D01*
Y5947D01*
X128053D01*
Y13053D01*
X128523Y13126D01*
X129288D01*
X130326Y12088D01*
X130344Y12033D01*
X130455Y11905D01*
X130534Y11783D01*
X130612Y11626D01*
X130684Y11433D01*
X130749Y11204D01*
X130804Y10939D01*
X130846Y10646D01*
X130895Y9929D01*
X130898Y9525D01*
X130920Y9472D01*
X131039Y8573D01*
X131397Y7708D01*
X131966Y6966D01*
X132708Y6397D01*
X133573Y6039D01*
X134500Y5917D01*
X135427Y6039D01*
X136292Y6397D01*
X137034Y6966D01*
X137603Y7708D01*
X137961Y8573D01*
X138083Y9500D01*
X137961Y10428D01*
X137603Y11292D01*
X137034Y12034D01*
X136292Y12603D01*
X135427Y12961D01*
X134528Y13080D01*
X134475Y13102D01*
X134071Y13105D01*
X133354Y13154D01*
X133061Y13196D01*
X132796Y13251D01*
X132567Y13316D01*
X132374Y13388D01*
X132217Y13466D01*
X132095Y13545D01*
X131967Y13656D01*
X131912Y13674D01*
X131322Y14264D01*
X131514Y14726D01*
X137688D01*
X140326Y12088D01*
X140344Y12033D01*
X140455Y11905D01*
X140534Y11783D01*
X140612Y11626D01*
X140684Y11433D01*
X140749Y11204D01*
X140804Y10939D01*
X140846Y10646D01*
X140895Y9929D01*
X140898Y9525D01*
X140920Y9472D01*
X141039Y8573D01*
X141397Y7708D01*
X141966Y6966D01*
X142708Y6397D01*
X143573Y6039D01*
X144500Y5917D01*
X145427Y6039D01*
X146292Y6397D01*
X147034Y6966D01*
X147603Y7708D01*
X147961Y8573D01*
X148083Y9500D01*
X147961Y10428D01*
X147603Y11292D01*
X147034Y12034D01*
X146292Y12603D01*
X145427Y12961D01*
X144528Y13080D01*
X144475Y13102D01*
X144071Y13105D01*
X143354Y13154D01*
X143061Y13196D01*
X142796Y13251D01*
X142567Y13316D01*
X142374Y13388D01*
X142217Y13466D01*
X142095Y13545D01*
X141967Y13656D01*
X141912Y13674D01*
X139722Y15864D01*
X139914Y16326D01*
X146088D01*
X150326Y12088D01*
X150344Y12033D01*
X150455Y11905D01*
X150534Y11783D01*
X150612Y11626D01*
X150684Y11433D01*
X150749Y11204D01*
X150804Y10939D01*
X150846Y10646D01*
X150895Y9929D01*
X150898Y9525D01*
X150920Y9472D01*
X151039Y8573D01*
X151397Y7708D01*
X151966Y6966D01*
X152708Y6397D01*
X153573Y6039D01*
X154500Y5917D01*
X155427Y6039D01*
X156292Y6397D01*
X157034Y6966D01*
X157603Y7708D01*
X157961Y8573D01*
X158083Y9500D01*
X157961Y10428D01*
X157603Y11292D01*
X157034Y12034D01*
X156292Y12603D01*
X155427Y12961D01*
X154528Y13080D01*
X154475Y13102D01*
X154071Y13105D01*
X153354Y13154D01*
X153061Y13196D01*
X152796Y13251D01*
X152567Y13316D01*
X152374Y13388D01*
X152217Y13466D01*
X152095Y13545D01*
X151967Y13656D01*
X151912Y13674D01*
X147442Y18145D01*
X147371Y18456D01*
X147410Y18799D01*
X147953Y19507D01*
X148351Y20468D01*
X148395Y20805D01*
X148272Y20749D01*
X148020Y20608D01*
X147758Y20436D01*
X147485Y20232D01*
X146911Y19731D01*
X146609Y19433D01*
Y21000D01*
X144500D01*
Y22000D01*
X146609D01*
Y23567D01*
X146911Y23269D01*
X147485Y22768D01*
X147758Y22564D01*
X148020Y22392D01*
X148272Y22251D01*
X148395Y22195D01*
X148351Y22532D01*
X147953Y23493D01*
X147617Y23931D01*
X147863Y24431D01*
X150547D01*
Y22000D01*
X150559D01*
D01*
X150751Y22005D01*
X150924Y22020D01*
X151075Y22045D01*
X151207Y22080D01*
X151318Y22125D01*
X151409Y22180D01*
X151480Y22245D01*
X151531Y22320D01*
X151561Y22405D01*
X151571Y22500D01*
Y22000D01*
X154500D01*
Y21500D01*
X155000D01*
Y17547D01*
X158453D01*
Y19645D01*
X158915Y19836D01*
X162926Y15825D01*
Y13577D01*
X162898Y13509D01*
X162899Y13505D01*
X162898Y13501D01*
X162910Y12502D01*
X162926Y12465D01*
Y12021D01*
X162926Y12021D01*
X162947Y11913D01*
Y6016D01*
X170053D01*
Y13121D01*
X165231D01*
X165228Y13132D01*
X165212Y13228D01*
X165201Y13354D01*
X165197Y13526D01*
X165169Y13588D01*
Y15829D01*
X165669Y16094D01*
X166500Y15985D01*
X167427Y16107D01*
X168292Y16465D01*
X169034Y17035D01*
X169603Y17777D01*
X169961Y18641D01*
X170083Y19568D01*
X169961Y20496D01*
X169603Y21360D01*
X169034Y22102D01*
X168292Y22672D01*
X167427Y23030D01*
X166528Y23148D01*
X166475Y23170D01*
X166071Y23174D01*
X165354Y23222D01*
X165061Y23264D01*
X164796Y23319D01*
X164567Y23384D01*
X164374Y23457D01*
X164217Y23534D01*
X164095Y23614D01*
X163967Y23724D01*
X163912Y23743D01*
X159708Y27947D01*
X159915Y28447D01*
X161718D01*
X161770Y28421D01*
X161939Y28408D01*
X162082Y28378D01*
X162247Y28322D01*
X162435Y28238D01*
X162643Y28121D01*
X162869Y27972D01*
X163106Y27795D01*
X163647Y27323D01*
X163935Y27039D01*
X163989Y27017D01*
X164708Y26465D01*
X165573Y26107D01*
X166500Y25985D01*
X167427Y26107D01*
X168292Y26465D01*
X169034Y27035D01*
X169603Y27777D01*
X169961Y28641D01*
X170083Y29568D01*
X169961Y30496D01*
X169603Y31360D01*
X169034Y32102D01*
X168292Y32672D01*
X167427Y33030D01*
X166500Y33152D01*
X165573Y33030D01*
X164708Y32672D01*
X163989Y32120D01*
X163935Y32098D01*
X163647Y31814D01*
X163106Y31342D01*
X162869Y31165D01*
X162643Y31016D01*
X162435Y30900D01*
X162247Y30815D01*
X162082Y30759D01*
X161939Y30729D01*
X161770Y30716D01*
X161718Y30690D01*
X159861D01*
X159670Y31152D01*
X164902Y36385D01*
X165573Y36107D01*
X166500Y35985D01*
X167427Y36107D01*
X168292Y36465D01*
X169034Y37035D01*
X169603Y37777D01*
X169961Y38641D01*
X170083Y39568D01*
X169961Y40496D01*
X169603Y41360D01*
X169034Y42102D01*
X168292Y42672D01*
X167427Y43030D01*
X166500Y43152D01*
X165573Y43030D01*
X164708Y42672D01*
X164069Y42181D01*
X163569Y42338D01*
Y42983D01*
X164580Y43994D01*
X166245D01*
X166674Y44080D01*
X167038Y44323D01*
X167281Y44686D01*
X167335Y44958D01*
X167394Y45078D01*
X167404Y45262D01*
X167429Y45401D01*
X167471Y45536D01*
X167531Y45670D01*
X167612Y45805D01*
X167715Y45942D01*
X167843Y46081D01*
X167999Y46222D01*
X168182Y46363D01*
X168411Y46515D01*
X168433Y46548D01*
X168470Y46559D01*
X168507Y46630D01*
X169034Y47035D01*
X169603Y47777D01*
X169961Y48641D01*
X170083Y49569D01*
X169961Y50496D01*
X169603Y51360D01*
X169034Y52102D01*
X168292Y52672D01*
X167427Y53030D01*
X166628Y53135D01*
X166386Y53600D01*
X167109Y54323D01*
X167109Y54323D01*
X167352Y54686D01*
X167406Y54958D01*
X167464Y55079D01*
X167475Y55265D01*
X167500Y55408D01*
X167542Y55547D01*
X167603Y55685D01*
X167683Y55824D01*
X167786Y55965D01*
X167914Y56109D01*
X168068Y56254D01*
X168249Y56400D01*
X168476Y56557D01*
X168497Y56590D01*
X168535Y56603D01*
X168573Y56681D01*
X169034Y57035D01*
X169603Y57777D01*
X169961Y58641D01*
X170083Y59569D01*
X169961Y60496D01*
X169603Y61360D01*
X169402Y61622D01*
X169600Y62186D01*
X169703Y62211D01*
X173854Y58060D01*
X173878Y57998D01*
X174254Y57594D01*
X174376Y57444D01*
X174447Y57344D01*
Y57173D01*
X174434Y57153D01*
X174445Y57097D01*
X174422Y57044D01*
X174447Y56978D01*
Y51669D01*
X181553D01*
Y58774D01*
X176898D01*
X176879Y58787D01*
X176814Y58774D01*
X176479D01*
X176391Y58824D01*
X176279Y58902D01*
X175967Y59165D01*
X175789Y59337D01*
X175724Y59362D01*
X171154Y63932D01*
X171345Y64394D01*
X173171D01*
X173217Y64370D01*
X173226Y64372D01*
X173235Y64368D01*
X173411Y64355D01*
X173552Y64324D01*
X173709Y64269D01*
X173882Y64184D01*
X174071Y64067D01*
X174273Y63917D01*
X174480Y63739D01*
X174952Y63252D01*
X175198Y62958D01*
X175299Y62905D01*
X175466Y62687D01*
X176208Y62118D01*
X177073Y61760D01*
X178000Y61638D01*
X178927Y61760D01*
X179792Y62118D01*
X180534Y62687D01*
X181103Y63430D01*
X181461Y64294D01*
X181583Y65221D01*
X181461Y66149D01*
X181103Y67013D01*
X180534Y67755D01*
X179792Y68325D01*
X178927Y68683D01*
X178000Y68805D01*
X177919Y68794D01*
X177685Y69268D01*
X178465Y70047D01*
X179679D01*
X179679Y70047D01*
X180108Y70132D01*
X180472Y70376D01*
X182846Y72750D01*
X182846Y72750D01*
X183089Y73113D01*
X183174Y73543D01*
X183174Y73543D01*
Y86900D01*
X183174Y86900D01*
X183089Y87329D01*
X182846Y87693D01*
X182846Y87693D01*
X180472Y90067D01*
X180108Y90310D01*
X179679Y90396D01*
X179679Y90396D01*
X175518D01*
X175518Y90396D01*
X175088Y90310D01*
X174724Y90067D01*
X173779Y89122D01*
X173046D01*
X172992Y89148D01*
X172841Y89158D01*
X172720Y89181D01*
X172583Y89223D01*
X172430Y89288D01*
X172263Y89376D01*
X172083Y89489D01*
X171897Y89623D01*
X171467Y89992D01*
X171240Y90214D01*
X171171Y90241D01*
X170563Y90708D01*
X169809Y91020D01*
X169000Y91127D01*
X168191Y91020D01*
X168117Y90990D01*
X167622Y91326D01*
Y93447D01*
X170053D01*
Y94853D01*
X170072Y94922D01*
X170053Y95070D01*
Y99931D01*
X176644D01*
X176644Y99931D01*
X177073Y100017D01*
X177437Y100260D01*
X183239Y106062D01*
X183483Y106426D01*
X183568Y106855D01*
X183568Y106855D01*
Y127842D01*
X183568Y127842D01*
X183483Y128271D01*
X183239Y128635D01*
X183239Y128635D01*
X180272Y131602D01*
X180275Y131625D01*
X180321Y131849D01*
X180386Y132081D01*
X180472Y132321D01*
X180578Y132569D01*
X180703Y132818D01*
X181034Y133368D01*
X181232Y133651D01*
X181244Y133703D01*
X181284Y133738D01*
X181288Y133802D01*
X181447Y134010D01*
X181845Y134970D01*
X181981Y136000D01*
X181845Y137030D01*
X181447Y137990D01*
X180815Y138815D01*
X179990Y139447D01*
X179030Y139845D01*
X178000Y139980D01*
X176970Y139845D01*
X176010Y139447D01*
X175185Y138815D01*
X174553Y137990D01*
X174155Y137030D01*
X174020Y136000D01*
X174155Y134970D01*
X174553Y134010D01*
X175185Y133185D01*
X176010Y132553D01*
X176766Y132240D01*
X176804Y132196D01*
X176852Y132193D01*
X176889Y132162D01*
X177148Y132078D01*
X177349Y131994D01*
X177513Y131905D01*
X177643Y131815D01*
X177741Y131725D01*
X177814Y131636D01*
X177867Y131545D01*
X177905Y131446D01*
X177929Y131333D01*
X177941Y131156D01*
X178000Y131037D01*
X178053Y130770D01*
X178267Y130450D01*
X178195Y130200D01*
X178081Y129970D01*
X178000Y129981D01*
X176970Y129845D01*
X176010Y129447D01*
X175185Y128815D01*
X174553Y127990D01*
X174155Y127030D01*
X174021Y126010D01*
X174004Y125970D01*
X174001Y125490D01*
X173949Y124643D01*
X173902Y124293D01*
X173842Y123978D01*
X173769Y123707D01*
X173688Y123479D01*
X173601Y123296D01*
X173513Y123156D01*
X173393Y123015D01*
X173375Y122961D01*
X172675Y122261D01*
X172431Y121897D01*
X172346Y121468D01*
X172346Y121467D01*
Y108701D01*
X170531Y106886D01*
X170066Y107128D01*
X169961Y107927D01*
X169603Y108792D01*
X169034Y109534D01*
X168292Y110103D01*
X167427Y110461D01*
X166500Y110583D01*
X165573Y110461D01*
X164708Y110103D01*
X163989Y109551D01*
X163935Y109530D01*
X163647Y109246D01*
X163106Y108773D01*
X162869Y108596D01*
X162643Y108447D01*
X162435Y108331D01*
X162247Y108246D01*
X162082Y108190D01*
X161939Y108160D01*
X161770Y108148D01*
X161718Y108122D01*
X154637D01*
X154445Y108583D01*
X161733Y115871D01*
X161770Y115852D01*
X161939Y115840D01*
X162082Y115810D01*
X162247Y115754D01*
X162435Y115669D01*
X162643Y115553D01*
X162869Y115404D01*
X163106Y115227D01*
X163647Y114754D01*
X163935Y114470D01*
X163989Y114449D01*
X164708Y113897D01*
X165573Y113539D01*
X166500Y113417D01*
X167427Y113539D01*
X168292Y113897D01*
X169034Y114466D01*
X169603Y115208D01*
X169961Y116073D01*
X170083Y117000D01*
X170026Y117433D01*
X170074Y117673D01*
X169989Y118102D01*
X169746Y118466D01*
X169735Y118473D01*
X169603Y118792D01*
X169034Y119534D01*
X168292Y120103D01*
X167427Y120461D01*
X166500Y120583D01*
X165573Y120461D01*
X164708Y120103D01*
X163989Y119551D01*
X163935Y119530D01*
X163647Y119246D01*
X163106Y118773D01*
X162869Y118596D01*
X162643Y118447D01*
X162435Y118331D01*
X162247Y118246D01*
X162082Y118190D01*
X161939Y118160D01*
X161770Y118148D01*
X161718Y118122D01*
X161276D01*
X161276Y118122D01*
X161105Y118088D01*
X160858Y118548D01*
X164729Y122420D01*
X164784Y122437D01*
X164877Y122517D01*
X164985Y122590D01*
X165146Y122681D01*
X165337Y122775D01*
X167069Y123408D01*
X167526Y123547D01*
X167526Y123548D01*
X167527Y123547D01*
X167607Y123613D01*
X168292Y123897D01*
X169034Y124466D01*
X169603Y125208D01*
X169961Y126073D01*
X170083Y127000D01*
X170060Y127179D01*
X170074Y127252D01*
X170003Y127610D01*
X169961Y127927D01*
X169603Y128792D01*
X169034Y129534D01*
X168292Y130103D01*
X167427Y130461D01*
X166500Y130583D01*
X165573Y130461D01*
X164708Y130103D01*
X163966Y129534D01*
X163397Y128792D01*
X163039Y127927D01*
X162917Y127000D01*
X163039Y126073D01*
X163069Y125998D01*
X163061Y125927D01*
X163159Y125587D01*
X163224Y125291D01*
X163263Y125022D01*
X163277Y124782D01*
X163269Y124571D01*
X163241Y124389D01*
X163197Y124233D01*
X163138Y124099D01*
X163064Y123983D01*
X162942Y123841D01*
X162924Y123786D01*
X156636Y117499D01*
X156174Y117690D01*
Y125088D01*
X163912Y132826D01*
X163967Y132844D01*
X164095Y132955D01*
X164217Y133034D01*
X164374Y133112D01*
X164567Y133184D01*
X164796Y133249D01*
X165061Y133304D01*
X165354Y133346D01*
X166071Y133395D01*
X166475Y133398D01*
X166528Y133420D01*
X167427Y133539D01*
X168292Y133897D01*
X169034Y134466D01*
X169603Y135208D01*
X169961Y136073D01*
X170083Y137000D01*
X169961Y137927D01*
X169603Y138792D01*
X169034Y139534D01*
X168531Y139920D01*
X168701Y140420D01*
X172974D01*
X173598Y140544D01*
X174127Y140898D01*
X174787Y141557D01*
X174825Y141570D01*
X175029Y141756D01*
X175214Y141892D01*
X175404Y142002D01*
X175601Y142088D01*
X175806Y142151D01*
X176024Y142193D01*
X176256Y142211D01*
X176504Y142206D01*
X176769Y142175D01*
X177076Y142113D01*
X177163Y142130D01*
X178000Y142019D01*
X179030Y142155D01*
X179990Y142553D01*
X180815Y143185D01*
X181447Y144010D01*
X181845Y144970D01*
X181981Y146000D01*
X181845Y147030D01*
X181447Y147990D01*
X180815Y148815D01*
X179990Y149447D01*
X179030Y149845D01*
X178000Y149980D01*
X176970Y149845D01*
X176010Y149447D01*
X175185Y148815D01*
X174553Y147990D01*
X174155Y147030D01*
X174143Y146937D01*
X174103Y146883D01*
X174014Y146518D01*
X173921Y146193D01*
X173698Y145578D01*
X173580Y145316D01*
X173451Y145068D01*
X173315Y144840D01*
X173171Y144632D01*
X173021Y144444D01*
X172846Y144256D01*
X172832Y144216D01*
X172298Y143682D01*
X168834D01*
X168664Y144182D01*
X169034Y144466D01*
X169603Y145208D01*
X169961Y146073D01*
X170083Y147000D01*
X169961Y147927D01*
X169603Y148792D01*
X169034Y149534D01*
X168292Y150103D01*
X167427Y150461D01*
X166528Y150580D01*
X166475Y150602D01*
X166071Y150605D01*
X165354Y150654D01*
X165061Y150696D01*
X164796Y150751D01*
X164567Y150816D01*
X164374Y150888D01*
X164217Y150966D01*
X164095Y151045D01*
X163967Y151156D01*
X163912Y151174D01*
X161293Y153793D01*
X160929Y154036D01*
X160500Y154122D01*
D02*
G37*
G36*
X39250Y155381D02*
X10750D01*
X10125Y155257D01*
X9596Y154903D01*
X8735Y154042D01*
X8696Y154027D01*
X7919Y153306D01*
X7600Y153050D01*
X7315Y152851D01*
X7139Y152750D01*
X6371D01*
X6309Y152775D01*
X6259Y152754D01*
X6207Y152767D01*
X6179Y152750D01*
X2250D01*
Y145250D01*
X3964D01*
X4027Y145217D01*
X4142Y145204D01*
X4168Y145195D01*
X4193Y145179D01*
X4232Y145139D01*
X4286Y145055D01*
X4346Y144918D01*
X4403Y144726D01*
X4451Y144482D01*
X4486Y144186D01*
X4503Y143896D01*
X4500Y143685D01*
X4476Y143463D01*
X4433Y143249D01*
X4370Y143042D01*
X4286Y142841D01*
X4181Y142643D01*
X4054Y142449D01*
X3903Y142258D01*
X3727Y142069D01*
X3508Y141867D01*
X3470Y141785D01*
X3326Y141674D01*
X2725Y140891D01*
X2347Y139979D01*
X2218Y139000D01*
X2347Y138021D01*
X2725Y137109D01*
X3326Y136326D01*
X3630Y136093D01*
X3686Y135987D01*
X3917Y135799D01*
X4104Y135621D01*
X4267Y135439D01*
X4405Y135253D01*
X4522Y135063D01*
X4618Y134867D01*
X4693Y134664D01*
X4750Y134453D01*
X4786Y134232D01*
X4806Y133972D01*
X4815Y133954D01*
X4810Y133934D01*
X4825Y133908D01*
X4865Y132589D01*
X4109Y132275D01*
X3326Y131674D01*
X2725Y130891D01*
X2347Y129979D01*
X2218Y129000D01*
X2347Y128021D01*
X2725Y127109D01*
X3326Y126326D01*
X3723Y126021D01*
X3785Y125914D01*
X4014Y125738D01*
X4197Y125572D01*
X4355Y125401D01*
X4488Y125226D01*
X4599Y125045D01*
X4688Y124857D01*
X4758Y124661D01*
X4809Y124454D01*
X4839Y124234D01*
X4851Y123971D01*
X4869Y123934D01*
Y123931D01*
X4860Y123892D01*
X4869Y123878D01*
Y122500D01*
X4993Y121876D01*
X5347Y121346D01*
X5876Y120993D01*
X6500Y120869D01*
X7124Y120993D01*
X7654Y121346D01*
X8007Y121876D01*
X8131Y122500D01*
Y124278D01*
X8149Y124317D01*
X8158Y124570D01*
X8184Y124801D01*
X8227Y125034D01*
X8288Y125269D01*
X8368Y125506D01*
X8466Y125747D01*
X8580Y125983D01*
X8884Y126497D01*
X9065Y126756D01*
X9090Y126868D01*
X9275Y127109D01*
X9653Y128021D01*
X9782Y129000D01*
X9653Y129979D01*
X9275Y130891D01*
X8674Y131674D01*
X8131Y132091D01*
Y132500D01*
X8126Y132525D01*
X8131Y132549D01*
X8079Y134240D01*
X8096Y134279D01*
X8098Y134535D01*
X8118Y134764D01*
X8157Y134994D01*
X8214Y135224D01*
X8291Y135455D01*
X8387Y135689D01*
X8503Y135924D01*
X8641Y136162D01*
X8800Y136402D01*
X8991Y136658D01*
X9022Y136779D01*
X9275Y137109D01*
X9653Y138021D01*
X9782Y139000D01*
X9653Y139979D01*
X9275Y140891D01*
X8880Y141406D01*
X8844Y141518D01*
X8637Y141762D01*
X8464Y141992D01*
X8313Y142222D01*
X8182Y142450D01*
X8072Y142677D01*
X7981Y142903D01*
X7910Y143130D01*
X7858Y143356D01*
X7824Y143584D01*
X7806Y143840D01*
X7800Y143851D01*
X7806Y143863D01*
X7805Y143865D01*
X7806Y143866D01*
X7804Y144226D01*
X7821Y144520D01*
X7854Y144763D01*
X7899Y144951D01*
X7949Y145082D01*
X7993Y145158D01*
X8021Y145190D01*
X8035Y145199D01*
X8052Y145205D01*
X8164Y145217D01*
X8226Y145250D01*
X9750D01*
Y149179D01*
X9767Y149207D01*
X9754Y149259D01*
X9775Y149309D01*
X9750Y149371D01*
Y150139D01*
X9851Y150315D01*
X10045Y150593D01*
X10636Y151290D01*
X11019Y151686D01*
X11035Y151728D01*
X11425Y152118D01*
X12532D01*
X12779Y151618D01*
X12375Y151093D01*
X11957Y150083D01*
X11880Y149500D01*
X16000D01*
X18249D01*
Y151205D01*
X18488Y150976D01*
X18732Y150771D01*
X18982Y150590D01*
X19236Y150434D01*
X19497Y150301D01*
X19762Y150193D01*
X20032Y150109D01*
X19625Y151093D01*
X19221Y151618D01*
X19468Y152118D01*
X38575D01*
X43347Y147346D01*
X43542Y147216D01*
X43510Y146635D01*
X43300Y146425D01*
X43710Y146080D01*
X44022Y145866D01*
X44308Y145706D01*
X44568Y145601D01*
X44800Y145551D01*
X45007Y145554D01*
X45187Y145613D01*
X45340Y145726D01*
X42614Y143000D01*
X58500D01*
Y144625D01*
X56906Y146218D01*
X57099Y146727D01*
X57425Y146768D01*
X67107Y137086D01*
X67122Y137046D01*
X67844Y136269D01*
X68099Y135950D01*
X68298Y135666D01*
X68400Y135489D01*
Y134721D01*
X68375Y134660D01*
X68079Y134273D01*
X67901Y134225D01*
X67655Y134185D01*
X67357Y134159D01*
X66995Y134149D01*
X66955Y134131D01*
X57741D01*
X57613Y134442D01*
X56996Y135246D01*
X56191Y135863D01*
X55255Y136251D01*
X54250Y136383D01*
X45750D01*
X44745Y136251D01*
X43808Y135863D01*
X43710Y135788D01*
X43644Y135782D01*
X43607Y135739D01*
X43552Y135725D01*
X43361Y135581D01*
X43178Y135466D01*
X42978Y135364D01*
X42763Y135273D01*
X42530Y135195D01*
X42279Y135130D01*
X42018Y135080D01*
X41405Y135018D01*
X41073Y135010D01*
X41059Y135004D01*
X40617Y135446D01*
X40602Y135486D01*
X39881Y136262D01*
X39625Y136581D01*
X39426Y136866D01*
X39324Y137042D01*
Y137811D01*
X39350Y137872D01*
X39329Y137922D01*
X39342Y137974D01*
X39324Y138003D01*
Y138797D01*
X39351Y138837D01*
X39338Y138899D01*
X39362Y138956D01*
X39324Y139047D01*
Y139568D01*
X38939D01*
X38916Y139636D01*
X38878Y139798D01*
X38846Y140008D01*
X38804Y140604D01*
X38799Y140966D01*
X38786Y140996D01*
X38799Y141023D01*
X38821Y141723D01*
X38845Y141984D01*
X38878Y142202D01*
X38916Y142365D01*
X38939Y142431D01*
X39324D01*
Y142953D01*
X39362Y143043D01*
X39338Y143102D01*
X39351Y143163D01*
X39324Y143203D01*
Y147569D01*
X34975D01*
Y143203D01*
X34948Y143163D01*
X34961Y143102D01*
X34937Y143043D01*
X34975Y142953D01*
Y142431D01*
X35361D01*
X35384Y142365D01*
X35421Y142202D01*
X35453Y141992D01*
X35495Y141396D01*
X35500Y141034D01*
X35513Y141004D01*
X35500Y140977D01*
X35479Y140277D01*
X35454Y140016D01*
X35421Y139798D01*
X35384Y139636D01*
X35361Y139568D01*
X34975D01*
Y139047D01*
X34937Y138956D01*
X34961Y138899D01*
X34948Y138837D01*
X34975Y138797D01*
Y134432D01*
X35753D01*
X35782Y134414D01*
X35834Y134427D01*
X35884Y134406D01*
X35945Y134432D01*
X36713D01*
X36890Y134330D01*
X37168Y134136D01*
X37865Y133545D01*
X38261Y133162D01*
X38303Y133146D01*
X38880Y132569D01*
X38673Y132069D01*
X34825D01*
Y126932D01*
X34869D01*
Y122500D01*
X34893Y122376D01*
X34846Y122329D01*
X34493Y121800D01*
X34369Y121175D01*
Y120676D01*
X33887Y120194D01*
X33425Y120386D01*
Y120500D01*
X28276D01*
Y118032D01*
X31071D01*
X31262Y117570D01*
X4846Y91154D01*
X4493Y90624D01*
X4369Y90000D01*
Y38250D01*
X2250D01*
Y30750D01*
X3870D01*
X3932Y30716D01*
X4046Y30705D01*
X4067Y30697D01*
X4086Y30684D01*
X4120Y30648D01*
X4169Y30568D01*
X4223Y30434D01*
X4275Y30244D01*
X4315Y30000D01*
X4341Y29705D01*
X4350Y29376D01*
X4340Y29145D01*
X4311Y28919D01*
X4263Y28699D01*
X4196Y28482D01*
X4108Y28267D01*
X3999Y28054D01*
X3869Y27843D01*
X3717Y27632D01*
X3540Y27422D01*
X3326Y27199D01*
X3308Y27151D01*
X2725Y26391D01*
X2347Y25479D01*
X2218Y24500D01*
X2347Y23521D01*
X2725Y22609D01*
X3308Y21849D01*
X3326Y21801D01*
X3540Y21578D01*
X3717Y21368D01*
X3869Y21157D01*
X3999Y20945D01*
X4108Y20733D01*
X4196Y20518D01*
X4263Y20301D01*
X4311Y20081D01*
X4340Y19855D01*
X4351Y19596D01*
X4369Y19559D01*
Y19441D01*
X4351Y19404D01*
X4340Y19145D01*
X4311Y18919D01*
X4263Y18699D01*
X4196Y18482D01*
X4108Y18267D01*
X3999Y18054D01*
X3869Y17843D01*
X3717Y17632D01*
X3540Y17422D01*
X3326Y17199D01*
X3308Y17151D01*
X2725Y16391D01*
X2347Y15479D01*
X2218Y14500D01*
X2347Y13521D01*
X2725Y12609D01*
X3326Y11826D01*
X4109Y11225D01*
X5021Y10847D01*
X6000Y10718D01*
X6979Y10847D01*
X7891Y11225D01*
X8674Y11826D01*
X9275Y12609D01*
X9653Y13521D01*
X9782Y14500D01*
X9653Y15479D01*
X9275Y16391D01*
X8692Y17151D01*
X8674Y17199D01*
X8460Y17422D01*
X8283Y17632D01*
X8131Y17843D01*
X8000Y18055D01*
X7892Y18267D01*
X7805Y18482D01*
X7737Y18699D01*
X7689Y18919D01*
X7660Y19145D01*
X7649Y19404D01*
X7631Y19441D01*
Y19559D01*
X7649Y19596D01*
X7660Y19855D01*
X7689Y20081D01*
X7737Y20301D01*
X7805Y20518D01*
X7892Y20733D01*
X8000Y20946D01*
X8131Y21157D01*
X8283Y21368D01*
X8460Y21578D01*
X8674Y21801D01*
X8692Y21849D01*
X9275Y22609D01*
X9653Y23521D01*
X9782Y24500D01*
X9653Y25479D01*
X9275Y26391D01*
X8692Y27151D01*
X8674Y27199D01*
X8460Y27422D01*
X8283Y27632D01*
X8131Y27843D01*
X8000Y28054D01*
X7892Y28267D01*
X7805Y28482D01*
X7737Y28699D01*
X7689Y28919D01*
X7660Y29145D01*
X7650Y29376D01*
X7659Y29705D01*
X7685Y30000D01*
X7725Y30244D01*
X7777Y30434D01*
X7831Y30568D01*
X7880Y30648D01*
X7914Y30685D01*
X7933Y30697D01*
X7954Y30705D01*
X8068Y30716D01*
X8130Y30750D01*
X9750D01*
Y35943D01*
X11425Y37618D01*
X12532D01*
X12779Y37118D01*
X12375Y36593D01*
X11957Y35583D01*
X11880Y35000D01*
X16000D01*
X18314D01*
X18466Y36460D01*
X18675Y36215D01*
X18893Y35997D01*
X19120Y35804D01*
X19356Y35636D01*
X19602Y35495D01*
X19857Y35379D01*
X20080Y35303D01*
X20043Y35583D01*
X19625Y36593D01*
X19221Y37118D01*
X19468Y37618D01*
X20075D01*
X36847Y20846D01*
X37376Y20493D01*
X38000Y20369D01*
X68013D01*
X68623Y19759D01*
X68636Y19722D01*
X68833Y19503D01*
X68990Y19286D01*
X69130Y19044D01*
X69254Y18775D01*
X69361Y18478D01*
X69450Y18151D01*
X69519Y17794D01*
X69568Y17408D01*
X69596Y16991D01*
X69603Y16530D01*
X69613Y16505D01*
X69613Y16500D01*
X69769Y15316D01*
X70226Y14212D01*
X70953Y13264D01*
X71901Y12537D01*
X73005Y12080D01*
X74189Y11924D01*
X75373Y12080D01*
X76477Y12537D01*
X77425Y13264D01*
X78152Y14212D01*
X78609Y15316D01*
X78765Y16500D01*
X78609Y17684D01*
X78152Y18788D01*
X77425Y19736D01*
X76477Y20463D01*
X75373Y20920D01*
X74189Y21076D01*
X74184Y21076D01*
X74159Y21086D01*
X73698Y21093D01*
X73281Y21121D01*
X72895Y21170D01*
X72538Y21239D01*
X72211Y21328D01*
X71914Y21435D01*
X71645Y21559D01*
X71403Y21699D01*
X71186Y21856D01*
X70967Y22053D01*
X70930Y22066D01*
X69842Y23154D01*
X69313Y23507D01*
X68689Y23631D01*
X38676D01*
X21904Y40403D01*
X21375Y40757D01*
X20750Y40881D01*
X10750D01*
X10125Y40757D01*
X9596Y40403D01*
X8093Y38900D01*
X7631Y39092D01*
Y89324D01*
X36739Y118431D01*
X39324D01*
Y120119D01*
X42724D01*
X43004Y119754D01*
X43808Y119137D01*
X44745Y118749D01*
X45750Y118617D01*
X54250D01*
X55255Y118749D01*
X56191Y119137D01*
X56996Y119754D01*
X57613Y120558D01*
X58001Y121495D01*
X58133Y122500D01*
X58001Y123505D01*
X57613Y124442D01*
X56996Y125246D01*
X56191Y125863D01*
X55255Y126251D01*
X54250Y126383D01*
X45750D01*
X44745Y126251D01*
X43808Y125863D01*
X43004Y125246D01*
X42387Y124442D01*
X41999Y123505D01*
X41983Y123381D01*
X39324D01*
Y123568D01*
X38131D01*
Y126932D01*
X39175D01*
Y131651D01*
X39675Y131918D01*
X39771Y131854D01*
X40320Y131745D01*
X40330Y131737D01*
X40347Y131739D01*
X40395Y131730D01*
X40395Y131730D01*
X40455D01*
X40496Y131712D01*
X40957Y131702D01*
X41341Y131675D01*
X41655Y131632D01*
X41896Y131577D01*
X41993Y131542D01*
X41999Y131495D01*
X42139Y131158D01*
X42147Y131066D01*
X42180Y131038D01*
X42189Y130996D01*
X42212Y130981D01*
X42387Y130558D01*
X43004Y129754D01*
X43808Y129137D01*
X44745Y128749D01*
X45750Y128617D01*
X54250D01*
X55255Y128749D01*
X56191Y129137D01*
X56996Y129754D01*
X57613Y130558D01*
X57741Y130869D01*
X66955D01*
X66995Y130851D01*
X67357Y130841D01*
X67655Y130815D01*
X67901Y130774D01*
X68093Y130723D01*
X68228Y130668D01*
X68309Y130619D01*
X68346Y130585D01*
X68359Y130566D01*
X68366Y130545D01*
X68378Y130432D01*
X68400Y130392D01*
Y128658D01*
X68369Y128500D01*
Y127530D01*
X68363Y127516D01*
X68351Y125516D01*
X68351Y125514D01*
X68351Y125512D01*
X68369Y125468D01*
Y125132D01*
X67069Y123832D01*
X67029Y123817D01*
X66862Y123660D01*
X66712Y123536D01*
X66562Y123428D01*
X66414Y123338D01*
X66268Y123264D01*
X66123Y123205D01*
X65977Y123160D01*
X65831Y123129D01*
X65683Y123111D01*
X65503Y123105D01*
X65436Y123074D01*
X64691Y122976D01*
X63937Y122664D01*
X63289Y122167D01*
X62792Y121519D01*
X62480Y120765D01*
X62373Y119956D01*
X62480Y119147D01*
X62792Y118393D01*
X63289Y117745D01*
X63937Y117248D01*
X64691Y116936D01*
X65500Y116829D01*
X66309Y116936D01*
X67063Y117248D01*
X67711Y117745D01*
X68208Y118393D01*
X68520Y119147D01*
X68618Y119892D01*
X68649Y119959D01*
X68655Y120139D01*
X68673Y120287D01*
X68704Y120433D01*
X68749Y120579D01*
X68808Y120724D01*
X68882Y120870D01*
X68972Y121018D01*
X69080Y121168D01*
X69204Y121318D01*
X69361Y121484D01*
X69376Y121525D01*
X71153Y123302D01*
X71507Y123832D01*
X71631Y124456D01*
Y125455D01*
X71649Y125495D01*
X71659Y125855D01*
X71685Y126150D01*
X71725Y126394D01*
X71776Y126584D01*
X71831Y126718D01*
X71880Y126798D01*
X71914Y126834D01*
X71933Y126847D01*
X71954Y126854D01*
X72068Y126866D01*
X72130Y126900D01*
X79600D01*
Y138100D01*
X71971D01*
X71943Y138117D01*
X71890Y138105D01*
X71840Y138125D01*
X71779Y138100D01*
X71011D01*
X70834Y138202D01*
X70557Y138395D01*
X69859Y138987D01*
X69463Y139369D01*
X69421Y139386D01*
X60702Y148105D01*
X61032Y148482D01*
X61735Y147943D01*
X62586Y147590D01*
X63000Y147536D01*
Y150500D01*
X60036D01*
X60090Y150086D01*
X60443Y149235D01*
X60982Y148532D01*
X60605Y148202D01*
X59153Y149653D01*
X58624Y150007D01*
X58000Y150131D01*
X45176D01*
X40404Y154903D01*
X39875Y155257D01*
X39250Y155381D01*
D02*
G37*
G36*
X75500Y154964D02*
Y152000D01*
X78464D01*
X78410Y152414D01*
X78057Y153265D01*
X77496Y153996D01*
X76765Y154557D01*
X75914Y154910D01*
X75500Y154964D01*
D02*
G37*
G36*
X74500D02*
X74086Y154910D01*
X73235Y154557D01*
X72504Y153996D01*
X71943Y153265D01*
X71590Y152414D01*
X71536Y152000D01*
X74500D01*
Y154964D01*
D02*
G37*
G36*
X64000Y154464D02*
Y151500D01*
X66964D01*
X66910Y151914D01*
X66557Y152765D01*
X65996Y153496D01*
X65265Y154057D01*
X64414Y154410D01*
X64000Y154464D01*
D02*
G37*
G36*
X63000D02*
X62586Y154410D01*
X61735Y154057D01*
X61004Y153496D01*
X60443Y152765D01*
X60090Y151914D01*
X60036Y151500D01*
X63000D01*
Y154464D01*
D02*
G37*
G36*
X118000Y152964D02*
Y150000D01*
X120964D01*
X120910Y150414D01*
X120557Y151265D01*
X119996Y151996D01*
X119265Y152557D01*
X118414Y152910D01*
X118000Y152964D01*
D02*
G37*
G36*
X117000D02*
X116586Y152910D01*
X115735Y152557D01*
X115004Y151996D01*
X114443Y151265D01*
X114090Y150414D01*
X114036Y150000D01*
X117000D01*
Y152964D01*
D02*
G37*
G36*
X94028Y151469D02*
X91953D01*
Y149000D01*
X94028D01*
Y151469D01*
D02*
G37*
G36*
X90953D02*
X88878D01*
Y149000D01*
X90953D01*
Y151469D01*
D02*
G37*
G36*
X78464Y151000D02*
X75500D01*
Y148036D01*
X75914Y148090D01*
X76765Y148443D01*
X77496Y149004D01*
X78057Y149735D01*
X78410Y150586D01*
X78464Y151000D01*
D02*
G37*
G36*
X74500D02*
X71536D01*
X71590Y150586D01*
X71943Y149735D01*
X72504Y149004D01*
X73235Y148443D01*
X74086Y148090D01*
X74500Y148036D01*
Y151000D01*
D02*
G37*
G36*
X66964Y150500D02*
X64000D01*
Y147536D01*
X64414Y147590D01*
X65265Y147943D01*
X65996Y148504D01*
X66557Y149235D01*
X66910Y150086D01*
X66964Y150500D01*
D02*
G37*
G36*
X117000Y149000D02*
X114036D01*
X114090Y148586D01*
X114443Y147735D01*
X115004Y147004D01*
X115735Y146443D01*
X116586Y146090D01*
X117000Y146036D01*
Y149000D01*
D02*
G37*
G36*
X94028Y148000D02*
X91953D01*
Y146544D01*
X93015D01*
X92909Y146523D01*
X92813Y146464D01*
X92729Y146363D01*
X92655Y146223D01*
X92593Y146044D01*
X92543Y145824D01*
X92503Y145563D01*
X92500Y145531D01*
X94028D01*
Y148000D01*
D02*
G37*
G36*
X90953D02*
X88878D01*
Y145531D01*
X90404D01*
X90402Y145563D01*
X90363Y145824D01*
X90312Y146044D01*
X90250Y146223D01*
X90177Y146363D01*
X90092Y146464D01*
X89997Y146523D01*
X89890Y146544D01*
X90953D01*
Y148000D01*
D02*
G37*
G36*
X33425Y147968D02*
X31350D01*
Y145500D01*
X33425D01*
Y147968D01*
D02*
G37*
G36*
X30350D02*
X28276D01*
Y145834D01*
X28312Y145840D01*
X28574Y145910D01*
X28795Y146000D01*
X28976Y146110D01*
X29117Y146240D01*
X29218Y146390D01*
X29279Y146560D01*
X29300Y146750D01*
X29296Y145500D01*
X30350D01*
Y147968D01*
D02*
G37*
G36*
X18249Y148500D02*
X16500D01*
Y146751D01*
X18205D01*
X17976Y146512D01*
X17771Y146268D01*
X17590Y146018D01*
X17434Y145764D01*
X17301Y145503D01*
X17193Y145238D01*
X17109Y144968D01*
X18093Y145375D01*
X18959Y146040D01*
X19625Y146907D01*
X20032Y147891D01*
X19762Y147807D01*
X19497Y147699D01*
X19236Y147566D01*
X18982Y147410D01*
X18732Y147229D01*
X18488Y147024D01*
X18249Y146795D01*
Y148500D01*
D02*
G37*
G36*
X15500D02*
X11880D01*
X11957Y147917D01*
X12375Y146907D01*
X13040Y146040D01*
X13907Y145375D01*
X14891Y144968D01*
X14807Y145238D01*
X14699Y145503D01*
X14566Y145764D01*
X14410Y146018D01*
X14229Y146268D01*
X14024Y146512D01*
X13795Y146751D01*
X15500D01*
Y148500D01*
D02*
G37*
G36*
X30350Y144500D02*
X29292D01*
X29288Y143043D01*
X30350D01*
Y144500D01*
D02*
G37*
G36*
X41832Y144957D02*
X41500Y144625D01*
Y143000D01*
X42590D01*
X42637Y143063D01*
X42695Y143243D01*
X42699Y143449D01*
X42649Y143682D01*
X42544Y143942D01*
X42384Y144227D01*
X42170Y144540D01*
X41901Y144878D01*
X41832Y144957D01*
D02*
G37*
G36*
X82500Y145515D02*
Y142551D01*
X85464D01*
X85410Y142965D01*
X85057Y143816D01*
X84496Y144547D01*
X83765Y145108D01*
X82914Y145461D01*
X82500Y145515D01*
D02*
G37*
G36*
X81500D02*
X81086Y145461D01*
X80235Y145108D01*
X79504Y144547D01*
X78943Y143816D01*
X78590Y142965D01*
X78536Y142551D01*
X81500D01*
Y145515D01*
D02*
G37*
G36*
X33425Y144500D02*
X31350D01*
Y143043D01*
X32413D01*
X32306Y143024D01*
X32211Y142964D01*
X32126Y142864D01*
X32053Y142724D01*
X31991Y142543D01*
X31940Y142324D01*
X31901Y142063D01*
X31898Y142032D01*
X33425D01*
Y144500D01*
D02*
G37*
G36*
X28276Y143690D02*
Y142032D01*
X29802D01*
X29800Y142063D01*
X29760Y142324D01*
X29710Y142543D01*
X29648Y142724D01*
X29575Y142864D01*
X29490Y142964D01*
X29395Y143024D01*
X29288Y143043D01*
X29268Y143178D01*
X29208Y143298D01*
X29108Y143404D01*
X28968Y143496D01*
X28788Y143573D01*
X28568Y143637D01*
X28308Y143686D01*
X28276Y143690D01*
D02*
G37*
G36*
X90405Y142469D02*
X88878D01*
Y140000D01*
X90060D01*
Y140032D01*
X90003Y140216D01*
X89890Y140372D01*
X90262Y140000D01*
X90953D01*
Y141456D01*
X89890D01*
X89997Y141477D01*
X90092Y141536D01*
X90177Y141637D01*
X90250Y141777D01*
X90312Y141956D01*
X90363Y142176D01*
X90402Y142437D01*
X90405Y142469D01*
D02*
G37*
G36*
X17109Y143032D02*
X17193Y142762D01*
X17301Y142497D01*
X17434Y142236D01*
X17590Y141982D01*
X17771Y141732D01*
X17976Y141488D01*
X18205Y141249D01*
X16500D01*
Y139500D01*
X20120D01*
X20043Y140083D01*
X19625Y141093D01*
X18959Y141960D01*
X18093Y142625D01*
X17109Y143032D01*
D02*
G37*
G36*
X14891D02*
X13907Y142625D01*
X13040Y141960D01*
X12375Y141093D01*
X11957Y140083D01*
X11880Y139500D01*
X15500D01*
Y141249D01*
X13795D01*
X14024Y141488D01*
X14229Y141732D01*
X14410Y141982D01*
X14566Y142236D01*
X14699Y142497D01*
X14807Y142762D01*
X14891Y143032D01*
D02*
G37*
G36*
X85464Y141551D02*
X82500D01*
Y138587D01*
X82914Y138641D01*
X83765Y138994D01*
X84496Y139555D01*
X85057Y140286D01*
X85410Y141137D01*
X85464Y141551D01*
D02*
G37*
G36*
X81500D02*
X78536D01*
X78590Y141137D01*
X78943Y140286D01*
X79504Y139555D01*
X80235Y138994D01*
X81086Y138641D01*
X81500Y138587D01*
Y141551D01*
D02*
G37*
G36*
X58500Y142000D02*
X50500D01*
Y138250D01*
X56375D01*
X58500Y140375D01*
Y142000D01*
D02*
G37*
G36*
X49500D02*
X41500D01*
Y140375D01*
X43625Y138250D01*
X49500D01*
Y142000D01*
D02*
G37*
G36*
X89710Y139000D02*
X88878D01*
Y137961D01*
X89494Y138689D01*
X89710Y139000D01*
D02*
G37*
G36*
X33425Y139969D02*
X31899D01*
X31901Y139936D01*
X31940Y139676D01*
X31991Y139456D01*
X32053Y139277D01*
X32126Y139137D01*
X32211Y139037D01*
X32306Y138977D01*
X32413Y138956D01*
X31350D01*
Y137500D01*
X33425D01*
Y139969D01*
D02*
G37*
G36*
X29803D02*
X28276D01*
Y137500D01*
X30350D01*
Y138956D01*
X29288D01*
X29395Y138977D01*
X29490Y139037D01*
X29575Y139137D01*
X29648Y139277D01*
X29710Y139456D01*
X29760Y139676D01*
X29800Y139936D01*
X29803Y139969D01*
D02*
G37*
G36*
X90953Y137081D02*
X90682Y136865D01*
X90323Y136531D01*
X90953D01*
Y137081D01*
D02*
G37*
G36*
X88878Y137141D02*
Y136531D01*
X89488D01*
X88878Y137141D01*
D02*
G37*
G36*
X20120Y138500D02*
X16500D01*
Y136751D01*
X18205D01*
X17976Y136512D01*
X17771Y136268D01*
X17590Y136018D01*
X17434Y135764D01*
X17301Y135503D01*
X17193Y135238D01*
X17109Y134968D01*
X18093Y135375D01*
X18959Y136040D01*
X19625Y136907D01*
X20043Y137917D01*
X20120Y138500D01*
D02*
G37*
G36*
X15500D02*
X11880D01*
X11957Y137917D01*
X12375Y136907D01*
X13040Y136040D01*
X13907Y135375D01*
X14891Y134968D01*
X14807Y135238D01*
X14699Y135503D01*
X14566Y135764D01*
X14410Y136018D01*
X14229Y136268D01*
X14024Y136512D01*
X13795Y136751D01*
X15500D01*
Y138500D01*
D02*
G37*
G36*
X30350Y136500D02*
X28276D01*
Y134466D01*
X28276Y134302D01*
X27776Y134132D01*
X27496Y134496D01*
X26765Y135057D01*
X25914Y135410D01*
X25500Y135464D01*
Y132000D01*
Y128536D01*
X25914Y128590D01*
X26765Y128943D01*
X27496Y129504D01*
X27626Y129673D01*
X28126Y129503D01*
Y126532D01*
X29652D01*
X29650Y126564D01*
X29611Y126823D01*
X29560Y127043D01*
X29498Y127224D01*
X29425Y127364D01*
X29341Y127463D01*
X29245Y127524D01*
X29138Y127543D01*
X30201D01*
Y129500D01*
Y131456D01*
X29138D01*
X29259Y131476D01*
X29368Y131536D01*
X29463Y131637D01*
X29546Y131776D01*
X29616Y131957D01*
X29674Y132176D01*
X29718Y132437D01*
X29722Y132468D01*
X28468D01*
X28410Y132914D01*
X28129Y133592D01*
X28426Y134007D01*
X28464Y134031D01*
X28664Y134031D01*
X29721D01*
X29697Y134324D01*
X29654Y134544D01*
X29600Y134723D01*
X29537Y134863D01*
X29463Y134964D01*
X29380Y135023D01*
X29288Y135044D01*
X30350D01*
Y136500D01*
D02*
G37*
G36*
X33425D02*
X31350D01*
Y135044D01*
X32413D01*
X32292Y135023D01*
X32184Y134964D01*
X32088Y134863D01*
X32005Y134723D01*
X31935Y134544D01*
X31878Y134324D01*
X31833Y134063D01*
X31830Y134031D01*
X33425D01*
Y136500D01*
D02*
G37*
G36*
X24500Y135464D02*
X24086Y135410D01*
X23235Y135057D01*
X22504Y134496D01*
X21943Y133765D01*
X21590Y132914D01*
X21536Y132500D01*
X24500D01*
Y135464D01*
D02*
G37*
G36*
X33276Y132468D02*
X31830D01*
X31854Y132176D01*
X31898Y131957D01*
X31951Y131776D01*
X32015Y131637D01*
X32088Y131536D01*
X32171Y131476D01*
X32264Y131456D01*
X31201D01*
Y130000D01*
X33276D01*
Y132468D01*
D02*
G37*
G36*
X17109Y133032D02*
X17193Y132762D01*
X17301Y132497D01*
X17434Y132236D01*
X17590Y131982D01*
X17771Y131732D01*
X17976Y131488D01*
X18205Y131249D01*
X16500D01*
Y129500D01*
X20120D01*
X20043Y130083D01*
X19625Y131093D01*
X18959Y131959D01*
X18093Y132625D01*
X17109Y133032D01*
D02*
G37*
G36*
X14891D02*
X13907Y132625D01*
X13040Y131959D01*
X12375Y131093D01*
X11957Y130083D01*
X11880Y129500D01*
X15500D01*
Y131249D01*
X13795D01*
X14024Y131488D01*
X14229Y131732D01*
X14410Y131982D01*
X14566Y132236D01*
X14699Y132497D01*
X14807Y132762D01*
X14891Y133032D01*
D02*
G37*
G36*
X24500Y131500D02*
X21536D01*
X21590Y131086D01*
X21943Y130235D01*
X22504Y129504D01*
X23235Y128943D01*
X24086Y128590D01*
X24500Y128536D01*
Y131500D01*
D02*
G37*
G36*
X20120Y128500D02*
X19169D01*
X19184Y128320D01*
X19233Y128016D01*
X19302Y127725D01*
X19392Y127448D01*
X19503Y127183D01*
X19635Y126933D01*
X20043Y127917D01*
X20120Y128500D01*
D02*
G37*
G36*
X33276Y129000D02*
X31201D01*
Y127543D01*
X32264D01*
X32157Y127524D01*
X32061Y127463D01*
X31977Y127364D01*
X31903Y127224D01*
X31841Y127043D01*
X31791Y126823D01*
X31751Y126564D01*
X31748Y126532D01*
X33276D01*
Y129000D01*
D02*
G37*
G36*
X18681Y128500D02*
X16500D01*
Y126319D01*
X18681Y128500D01*
D02*
G37*
G36*
X86500Y128464D02*
Y125500D01*
X89464D01*
X89410Y125914D01*
X89057Y126765D01*
X88496Y127496D01*
X87765Y128057D01*
X86914Y128410D01*
X86500Y128464D01*
D02*
G37*
G36*
X85500D02*
X85086Y128410D01*
X84235Y128057D01*
X83504Y127496D01*
X82943Y126765D01*
X82590Y125914D01*
X82536Y125500D01*
X85500D01*
Y128464D01*
D02*
G37*
G36*
X16500Y125831D02*
Y124880D01*
X17083Y124957D01*
X18067Y125365D01*
X17817Y125497D01*
X17552Y125608D01*
X17275Y125698D01*
X16984Y125767D01*
X16680Y125816D01*
X16500Y125831D01*
D02*
G37*
G36*
X15500Y128500D02*
X11880D01*
X11957Y127917D01*
X12375Y126907D01*
X13040Y126040D01*
X13907Y125375D01*
X14917Y124957D01*
X15500Y124880D01*
Y128500D01*
D02*
G37*
G36*
X22000Y122964D02*
X21586Y122910D01*
X21399Y122833D01*
X22000Y122308D01*
Y122964D01*
D02*
G37*
G36*
X89464Y124500D02*
X86500D01*
Y121536D01*
X86914Y121590D01*
X87765Y121943D01*
X88496Y122504D01*
X89057Y123235D01*
X89410Y124086D01*
X89464Y124500D01*
D02*
G37*
G36*
X85500D02*
X82536D01*
X82590Y124086D01*
X82943Y123235D01*
X83504Y122504D01*
X84235Y121943D01*
X85086Y121590D01*
X85500Y121536D01*
Y124500D01*
D02*
G37*
G36*
X33425Y123969D02*
X31485D01*
X31350Y123354D01*
Y121500D01*
X33425D01*
Y123969D01*
D02*
G37*
G36*
X29617D02*
X28276D01*
Y121500D01*
X30350D01*
Y122952D01*
X28701Y122944D01*
X28891Y122966D01*
X29061Y123027D01*
X29211Y123127D01*
X29341Y123269D01*
X29451Y123450D01*
X29541Y123671D01*
X29611Y123932D01*
X29617Y123969D01*
D02*
G37*
G36*
X23000Y122964D02*
Y120000D01*
X25964D01*
X25910Y120414D01*
X25557Y121265D01*
X24996Y121996D01*
X24265Y122557D01*
X23414Y122910D01*
X23000Y122964D01*
D02*
G37*
G36*
X19740Y121653D02*
X19443Y121265D01*
X19090Y120414D01*
X19036Y120000D01*
X22000D01*
Y121641D01*
X20230Y120546D01*
X20259Y120635D01*
X20269Y120731D01*
X20259Y120834D01*
X20230Y120944D01*
X20180Y121062D01*
X20112Y121186D01*
X20024Y121318D01*
X19916Y121457D01*
X19788Y121603D01*
X19740Y121653D01*
D02*
G37*
G36*
X99500Y120964D02*
X99086Y120910D01*
X98235Y120557D01*
X97504Y119996D01*
X96943Y119265D01*
X96590Y118414D01*
X96536Y118000D01*
X99500D01*
Y120964D01*
D02*
G37*
G36*
X12000D02*
Y118000D01*
X14964D01*
X14910Y118414D01*
X14557Y119265D01*
X13996Y119996D01*
X13265Y120557D01*
X12414Y120910D01*
X12000Y120964D01*
D02*
G37*
G36*
X11000D02*
X10586Y120910D01*
X9735Y120557D01*
X9004Y119996D01*
X8443Y119265D01*
X8090Y118414D01*
X8036Y118000D01*
X11000D01*
Y120964D01*
D02*
G37*
G36*
X25964Y119000D02*
X23000D01*
Y116036D01*
X23414Y116090D01*
X24265Y116443D01*
X24996Y117004D01*
X25557Y117735D01*
X25910Y118586D01*
X25964Y119000D01*
D02*
G37*
G36*
X22000D02*
X19036D01*
X19090Y118586D01*
X19443Y117735D01*
X20004Y117004D01*
X20735Y116443D01*
X21586Y116090D01*
X22000Y116036D01*
Y119000D01*
D02*
G37*
G36*
X103464Y117000D02*
X100500D01*
Y114036D01*
X100914Y114090D01*
X101765Y114443D01*
X102496Y115004D01*
X103057Y115735D01*
X103410Y116586D01*
X103464Y117000D01*
D02*
G37*
G36*
X99500D02*
X96536D01*
X96590Y116586D01*
X96943Y115735D01*
X97504Y115004D01*
X98235Y114443D01*
X99086Y114090D01*
X99500Y114036D01*
Y117000D01*
D02*
G37*
G36*
X14964D02*
X12000D01*
Y114036D01*
X12414Y114090D01*
X13265Y114443D01*
X13996Y115004D01*
X14557Y115735D01*
X14910Y116586D01*
X14964Y117000D01*
D02*
G37*
G36*
X11000D02*
X8036D01*
X8090Y116586D01*
X8443Y115735D01*
X9004Y115004D01*
X9735Y114443D01*
X10586Y114090D01*
X11000Y114036D01*
Y117000D01*
D02*
G37*
G36*
X87500Y116464D02*
Y113500D01*
X90464D01*
X90410Y113914D01*
X90057Y114765D01*
X89496Y115496D01*
X88765Y116057D01*
X87914Y116410D01*
X87500Y116464D01*
D02*
G37*
G36*
X86500D02*
X86086Y116410D01*
X85235Y116057D01*
X84504Y115496D01*
X83943Y114765D01*
X83590Y113914D01*
X83536Y113500D01*
X86500D01*
Y116464D01*
D02*
G37*
G36*
X94000Y112964D02*
X93586Y112910D01*
X92735Y112557D01*
X92004Y111996D01*
X91443Y111265D01*
X91090Y110414D01*
X91036Y110000D01*
X94000D01*
Y112964D01*
D02*
G37*
G36*
X90464Y112500D02*
X87500D01*
Y109536D01*
X87914Y109590D01*
X88765Y109943D01*
X89496Y110504D01*
X90057Y111235D01*
X90410Y112086D01*
X90464Y112500D01*
D02*
G37*
G36*
X86500D02*
X83536D01*
X83590Y112086D01*
X83943Y111235D01*
X84504Y110504D01*
X85235Y109943D01*
X86086Y109590D01*
X86500Y109536D01*
Y112500D01*
D02*
G37*
G36*
X97964Y109000D02*
X95000D01*
Y106036D01*
X95414Y106090D01*
X96265Y106443D01*
X96996Y107004D01*
X97557Y107735D01*
X97910Y108586D01*
X97964Y109000D01*
D02*
G37*
G36*
X94000D02*
X91036D01*
X91090Y108586D01*
X91443Y107735D01*
X92004Y107004D01*
X92735Y106443D01*
X93586Y106090D01*
X94000Y106036D01*
Y109000D01*
D02*
G37*
G36*
X67122Y107435D02*
Y97098D01*
X77459D01*
X77364Y98300D01*
X76966Y99959D01*
X76313Y101536D01*
X75421Y102991D01*
X75056Y103418D01*
X74949Y103199D01*
X74860Y102934D01*
X74814Y102674D01*
X74811Y102417D01*
X74850Y102164D01*
X74932Y101915D01*
X75058Y101670D01*
X71693Y105034D01*
X71939Y104909D01*
X72188Y104827D01*
X72441Y104787D01*
X72698Y104790D01*
X72958Y104836D01*
X73222Y104925D01*
X73442Y105033D01*
X73015Y105397D01*
X71560Y106289D01*
X69983Y106942D01*
X68323Y107341D01*
X67122Y107435D01*
D02*
G37*
G36*
X43000Y115141D02*
X41802Y115023D01*
X40650Y114674D01*
X39588Y114106D01*
X38657Y113343D01*
X37894Y112412D01*
X37326Y111350D01*
X36977Y110198D01*
X36859Y109000D01*
X36977Y107802D01*
X37326Y106650D01*
X37894Y105588D01*
X38657Y104657D01*
X39588Y103894D01*
X40650Y103326D01*
X41802Y102977D01*
X43000Y102859D01*
X44198Y102977D01*
X45350Y103326D01*
X46412Y103894D01*
X47343Y104657D01*
X48106Y105588D01*
X48674Y106650D01*
X49023Y107802D01*
X49141Y109000D01*
X49023Y110198D01*
X48674Y111350D01*
X48106Y112412D01*
X47343Y113343D01*
X46412Y114106D01*
X45350Y114674D01*
X44198Y115023D01*
X43000Y115141D01*
D02*
G37*
G36*
X106000Y101102D02*
X103532D01*
Y99028D01*
X104170D01*
X104058Y99057D01*
X103907Y99082D01*
X103735Y99097D01*
X103543Y99102D01*
Y100102D01*
X104543Y100090D01*
X104552Y99028D01*
X106000D01*
Y101102D01*
D02*
G37*
G36*
X66122Y107435D02*
X64921Y107341D01*
X63261Y106942D01*
X61684Y106289D01*
X60229Y105397D01*
X58931Y104289D01*
X57823Y102991D01*
X56931Y101536D01*
X56278Y99959D01*
X55880Y98300D01*
X55785Y97098D01*
X66122D01*
Y107435D01*
D02*
G37*
G36*
X106000Y98027D02*
X103532D01*
Y95953D01*
X106000D01*
Y98027D01*
D02*
G37*
G36*
X176830Y98464D02*
Y95500D01*
X179794D01*
X179740Y95914D01*
X179387Y96765D01*
X178826Y97496D01*
X178095Y98057D01*
X177244Y98410D01*
X176830Y98464D01*
D02*
G37*
G36*
X175830D02*
X175416Y98410D01*
X174565Y98057D01*
X173834Y97496D01*
X173273Y96765D01*
X172920Y95914D01*
X172866Y95500D01*
X175830D01*
Y98464D01*
D02*
G37*
G36*
X87500Y95964D02*
Y93000D01*
X90464D01*
X90410Y93414D01*
X90057Y94265D01*
X89496Y94996D01*
X88765Y95557D01*
X87914Y95910D01*
X87500Y95964D01*
D02*
G37*
G36*
X86500D02*
X86086Y95910D01*
X85235Y95557D01*
X84504Y94996D01*
X83943Y94265D01*
X83590Y93414D01*
X83536Y93000D01*
X86500D01*
Y95964D01*
D02*
G37*
G36*
X77459Y96098D02*
X76465D01*
X76469Y94913D01*
X76635Y92439D01*
X76966Y93238D01*
X77364Y94897D01*
X77459Y96098D01*
D02*
G37*
G36*
X179794Y94500D02*
X176830D01*
Y91536D01*
X177244Y91590D01*
X178095Y91943D01*
X178826Y92504D01*
X179387Y93235D01*
X179740Y94086D01*
X179794Y94500D01*
D02*
G37*
G36*
X175830D02*
X172866D01*
X172920Y94086D01*
X173273Y93235D01*
X173834Y92504D01*
X174565Y91943D01*
X175416Y91590D01*
X175830Y91536D01*
Y94500D01*
D02*
G37*
G36*
X86500Y92000D02*
X83536D01*
X83590Y91586D01*
X83943Y90735D01*
X84504Y90004D01*
X85235Y89443D01*
X86086Y89090D01*
X86500Y89036D01*
Y92000D01*
D02*
G37*
G36*
X66122Y96098D02*
X55785D01*
X55880Y94897D01*
X56278Y93238D01*
X56931Y91661D01*
X57823Y90206D01*
X57930Y90080D01*
X57977Y90262D01*
X58028Y90706D01*
X58019Y91162D01*
X57950Y91629D01*
X57820Y92107D01*
X57630Y92597D01*
X62620Y87606D01*
X62131Y87796D01*
X61653Y87926D01*
X61186Y87996D01*
X60730Y88005D01*
X60285Y87954D01*
X60104Y87907D01*
X60229Y87800D01*
X61684Y86908D01*
X63261Y86255D01*
X64921Y85856D01*
X66122Y85762D01*
Y96098D01*
D02*
G37*
G36*
X76063D02*
X67122D01*
Y87158D01*
X76063Y96098D01*
D02*
G37*
G36*
X67122Y86755D02*
Y85762D01*
X68323Y85856D01*
X69983Y86255D01*
X70843Y86611D01*
X69771Y86704D01*
X68308Y86752D01*
X67122Y86755D01*
D02*
G37*
G36*
X90464Y92000D02*
X87500D01*
Y89036D01*
X87900Y89088D01*
X88005Y89095D01*
X88400Y88781D01*
Y83369D01*
X94600D01*
Y89569D01*
X89666D01*
X89546Y90069D01*
X90057Y90735D01*
X90410Y91586D01*
X90464Y92000D01*
D02*
G37*
G36*
X106500Y85425D02*
X104032D01*
Y83350D01*
X106500D01*
Y85425D01*
D02*
G37*
G36*
X127500Y83033D02*
Y80068D01*
X130464D01*
X130410Y80482D01*
X130057Y81334D01*
X129496Y82065D01*
X128765Y82626D01*
X127914Y82978D01*
X127500Y83033D01*
D02*
G37*
G36*
X126500D02*
X126086Y82978D01*
X125235Y82626D01*
X124504Y82065D01*
X123943Y81334D01*
X123590Y80482D01*
X123536Y80068D01*
X126500D01*
Y83033D01*
D02*
G37*
G36*
Y79068D02*
X124975D01*
X126500Y77544D01*
Y79068D01*
D02*
G37*
G36*
X124486D02*
X123536D01*
X123590Y78655D01*
X123943Y77803D01*
X124145Y77539D01*
X124191Y77626D01*
X124276Y77834D01*
X124347Y78065D01*
X124405Y78317D01*
X124449Y78591D01*
X124480Y78887D01*
X124486Y79068D01*
D02*
G37*
G36*
X130464D02*
X127500D01*
Y76104D01*
X127914Y76159D01*
X128765Y76511D01*
X129496Y77072D01*
X130057Y77803D01*
X130410Y78655D01*
X130464Y79068D01*
D02*
G37*
G36*
X126500Y77055D02*
X126023Y77018D01*
X125749Y76974D01*
X125496Y76916D01*
X125266Y76844D01*
X125057Y76759D01*
X124971Y76714D01*
X125235Y76511D01*
X126086Y76159D01*
X126500Y76104D01*
Y77055D01*
D02*
G37*
G36*
X86824Y75921D02*
X86292Y75851D01*
X85377Y75472D01*
X85452Y75423D01*
X85685Y75295D01*
X85927Y75188D01*
X86181Y75101D01*
X86444Y75034D01*
X86717Y74987D01*
X86824Y74976D01*
Y75921D01*
D02*
G37*
G36*
X95363Y75466D02*
X95331Y75453D01*
X94505Y74819D01*
X93871Y73993D01*
X93492Y73078D01*
X93580Y73096D01*
X93835Y73171D01*
X94082Y73267D01*
X94323Y73384D01*
X94557Y73523D01*
X94783Y73683D01*
X94897Y73777D01*
X95057Y74163D01*
X95148Y74430D01*
X95288Y74961D01*
X95337Y75225D01*
X95363Y75466D01*
D02*
G37*
G36*
X87824Y75921D02*
Y72500D01*
X89433D01*
Y74067D01*
X89645Y73864D01*
X89865Y73683D01*
X90092Y73523D01*
X90325Y73384D01*
X90566Y73267D01*
X90814Y73171D01*
X91068Y73096D01*
X91156Y73078D01*
X90777Y73993D01*
X90143Y74819D01*
X89318Y75453D01*
X88356Y75851D01*
X87824Y75921D01*
D02*
G37*
G36*
X97824D02*
Y75297D01*
X97842Y75271D01*
X98001Y75090D01*
X98185Y74926D01*
X98394Y74779D01*
X98627Y74650D01*
X97824Y74385D01*
Y72500D01*
X101245D01*
X101175Y73032D01*
X100777Y73993D01*
X100143Y74819D01*
X99318Y75453D01*
X98356Y75851D01*
X97824Y75921D01*
D02*
G37*
G36*
X96824Y74055D02*
X95215Y73525D01*
Y72500D01*
X96824D01*
Y74055D01*
D02*
G37*
G36*
X86824Y74482D02*
X84842Y72500D01*
X86824D01*
Y74482D01*
D02*
G37*
G36*
X83852Y73947D02*
X83473Y73032D01*
X83403Y72500D01*
X84348D01*
X84338Y72607D01*
X84290Y72880D01*
X84223Y73144D01*
X84136Y73397D01*
X84029Y73640D01*
X83902Y73873D01*
X83852Y73947D01*
D02*
G37*
G36*
X96824Y71500D02*
X95215D01*
Y69933D01*
X95003Y70136D01*
X94783Y70317D01*
X94557Y70477D01*
X94323Y70616D01*
X94082Y70733D01*
X93835Y70829D01*
X93580Y70904D01*
X93492Y70922D01*
X93871Y70007D01*
X94505Y69181D01*
X95331Y68547D01*
X96292Y68149D01*
X96824Y68079D01*
Y71500D01*
D02*
G37*
G36*
X86824D02*
X83403D01*
X83473Y70968D01*
X83872Y70007D01*
X84505Y69181D01*
X85331Y68547D01*
X86292Y68149D01*
X86824Y68079D01*
Y71500D01*
D02*
G37*
G36*
X101245D02*
X97824D01*
Y68079D01*
X98356Y68149D01*
X99318Y68547D01*
X100143Y69181D01*
X100777Y70007D01*
X101175Y70968D01*
X101245Y71500D01*
D02*
G37*
G36*
X89433D02*
X87824D01*
Y68079D01*
X88356Y68149D01*
X89318Y68547D01*
X90143Y69181D01*
X90777Y70007D01*
X91156Y70922D01*
X91068Y70904D01*
X90814Y70829D01*
X90566Y70733D01*
X90325Y70616D01*
X90092Y70477D01*
X89865Y70317D01*
X89645Y70136D01*
X89433Y69933D01*
Y71500D01*
D02*
G37*
G36*
X23000Y51464D02*
Y48500D01*
X25964D01*
X25910Y48914D01*
X25557Y49765D01*
X24996Y50496D01*
X24265Y51057D01*
X23414Y51410D01*
X23000Y51464D01*
D02*
G37*
G36*
X22000D02*
X21586Y51410D01*
X20735Y51057D01*
X20004Y50496D01*
X19443Y49765D01*
X19090Y48914D01*
X19036Y48500D01*
X22000D01*
Y51464D01*
D02*
G37*
G36*
X175500Y50464D02*
Y47500D01*
X178464D01*
X178410Y47914D01*
X178057Y48765D01*
X177496Y49496D01*
X176765Y50057D01*
X175914Y50410D01*
X175500Y50464D01*
D02*
G37*
G36*
X174500D02*
X174086Y50410D01*
X173235Y50057D01*
X172504Y49496D01*
X171943Y48765D01*
X171590Y47914D01*
X171536Y47500D01*
X174500D01*
Y50464D01*
D02*
G37*
G36*
X43000Y61992D02*
X41802Y61874D01*
X40650Y61524D01*
X39588Y60957D01*
X38657Y60193D01*
X37894Y59262D01*
X37326Y58201D01*
X36977Y57048D01*
X36859Y55850D01*
X36977Y54652D01*
X37326Y53500D01*
X37894Y52438D01*
X38657Y51508D01*
X39588Y50744D01*
X39860Y50599D01*
X39836Y50099D01*
X39735Y50057D01*
X39004Y49496D01*
X38443Y48765D01*
X38090Y47914D01*
X38036Y47500D01*
X44964D01*
X44910Y47914D01*
X44557Y48765D01*
X44133Y49318D01*
X44161Y49540D01*
X44281Y49821D01*
X44318Y49863D01*
X45350Y50177D01*
X46412Y50744D01*
X47343Y51508D01*
X48106Y52438D01*
X48674Y53500D01*
X49023Y54652D01*
X49141Y55850D01*
X49023Y57048D01*
X48674Y58201D01*
X48106Y59262D01*
X47343Y60193D01*
X46412Y60957D01*
X45350Y61524D01*
X44198Y61874D01*
X43000Y61992D01*
D02*
G37*
G36*
X14000Y48964D02*
Y46000D01*
X16964D01*
X16910Y46414D01*
X16557Y47265D01*
X15996Y47996D01*
X15265Y48557D01*
X14414Y48910D01*
X14000Y48964D01*
D02*
G37*
G36*
X13000D02*
X12586Y48910D01*
X11735Y48557D01*
X11004Y47996D01*
X10443Y47265D01*
X10090Y46414D01*
X10036Y46000D01*
X13000D01*
Y48964D01*
D02*
G37*
G36*
X65500Y48464D02*
Y45500D01*
X68464D01*
X68410Y45914D01*
X68057Y46765D01*
X67496Y47496D01*
X66765Y48057D01*
X65914Y48410D01*
X65500Y48464D01*
D02*
G37*
G36*
X64500D02*
X64086Y48410D01*
X63235Y48057D01*
X62504Y47496D01*
X61943Y46765D01*
X61590Y45914D01*
X61536Y45500D01*
X64500D01*
Y48464D01*
D02*
G37*
G36*
X25964Y47500D02*
X23000D01*
Y44536D01*
X23414Y44590D01*
X24265Y44943D01*
X24996Y45504D01*
X25557Y46235D01*
X25910Y47086D01*
X25964Y47500D01*
D02*
G37*
G36*
X22000D02*
X19036D01*
X19090Y47086D01*
X19443Y46235D01*
X20004Y45504D01*
X20735Y44943D01*
X21586Y44590D01*
X22000Y44536D01*
Y47500D01*
D02*
G37*
G36*
X178464Y46500D02*
X175500D01*
Y43536D01*
X175914Y43590D01*
X176765Y43943D01*
X177496Y44504D01*
X178057Y45235D01*
X178410Y46086D01*
X178464Y46500D01*
D02*
G37*
G36*
X174500D02*
X171536D01*
X171590Y46086D01*
X171943Y45235D01*
X172504Y44504D01*
X173235Y43943D01*
X174086Y43590D01*
X174500Y43536D01*
Y46500D01*
D02*
G37*
G36*
X44964D02*
X42000D01*
Y43536D01*
X42414Y43590D01*
X43265Y43943D01*
X43996Y44504D01*
X44557Y45235D01*
X44910Y46086D01*
X44964Y46500D01*
D02*
G37*
G36*
X41000D02*
X38036D01*
X38090Y46086D01*
X38443Y45235D01*
X39004Y44504D01*
X39735Y43943D01*
X40586Y43590D01*
X41000Y43536D01*
Y46500D01*
D02*
G37*
G36*
X16964Y45000D02*
X14000D01*
Y42036D01*
X14414Y42090D01*
X15265Y42443D01*
X15996Y43004D01*
X16557Y43735D01*
X16910Y44586D01*
X16964Y45000D01*
D02*
G37*
G36*
X13000D02*
X10036D01*
X10090Y44586D01*
X10443Y43735D01*
X11004Y43004D01*
X11735Y42443D01*
X12586Y42090D01*
X13000Y42036D01*
Y45000D01*
D02*
G37*
G36*
X181000Y44964D02*
Y42000D01*
X183964D01*
X183910Y42414D01*
X183557Y43265D01*
X182996Y43996D01*
X182265Y44557D01*
X181414Y44910D01*
X181000Y44964D01*
D02*
G37*
G36*
X180000D02*
X179586Y44910D01*
X178735Y44557D01*
X178004Y43996D01*
X177443Y43265D01*
X177090Y42414D01*
X177036Y42000D01*
X180000D01*
Y44964D01*
D02*
G37*
G36*
X68464Y44500D02*
X65500D01*
Y41536D01*
X65914Y41590D01*
X66765Y41943D01*
X67496Y42504D01*
X68057Y43235D01*
X68410Y44086D01*
X68464Y44500D01*
D02*
G37*
G36*
X64500D02*
X61536D01*
X61590Y44086D01*
X61943Y43235D01*
X62504Y42504D01*
X63235Y41943D01*
X64086Y41590D01*
X64500Y41536D01*
Y44500D01*
D02*
G37*
G36*
X180000Y41000D02*
X176992D01*
X176585Y40593D01*
X176330Y40627D01*
X175521Y40520D01*
X174767Y40208D01*
X174119Y39711D01*
X173622Y39063D01*
X173310Y38309D01*
X173203Y37500D01*
X173310Y36691D01*
X173622Y35937D01*
X174119Y35289D01*
X174767Y34792D01*
X175521Y34480D01*
X176267Y34381D01*
X176335Y34351D01*
X176968Y34332D01*
X177222Y34305D01*
X177457Y34267D01*
X177665Y34220D01*
X177845Y34164D01*
X177998Y34101D01*
X178125Y34034D01*
X178227Y33965D01*
X178341Y33865D01*
X178398Y33846D01*
X178696Y33548D01*
Y32136D01*
X178196Y31889D01*
X177780Y32208D01*
X177026Y32520D01*
X176217Y32627D01*
X175408Y32520D01*
X174654Y32208D01*
X174006Y31711D01*
X173509Y31063D01*
X173197Y30309D01*
X173090Y29500D01*
X173107Y29374D01*
X173075Y29285D01*
X173091Y28970D01*
X173092Y28694D01*
X173078Y28444D01*
X173052Y28218D01*
X173013Y28019D01*
X172965Y27847D01*
X172908Y27699D01*
X172845Y27576D01*
X172776Y27475D01*
X172675Y27358D01*
X172638Y27250D01*
X172464Y26989D01*
X172378Y26560D01*
X172378Y26560D01*
Y15069D01*
X172378Y15068D01*
X172464Y14639D01*
X172707Y14276D01*
X174460Y12522D01*
X174483Y12461D01*
X174837Y12080D01*
X174952Y11937D01*
X175038Y11815D01*
X175054Y11787D01*
Y11550D01*
X175028Y11489D01*
X175049Y11438D01*
X175036Y11385D01*
X175054Y11357D01*
Y5622D01*
X182947D01*
Y13515D01*
X177211D01*
X177183Y13532D01*
X177130Y13520D01*
X177080Y13540D01*
X177018Y13515D01*
X176781D01*
X176754Y13531D01*
X176638Y13612D01*
X176308Y13892D01*
X176117Y14077D01*
X176052Y14103D01*
X174622Y15533D01*
Y18761D01*
X175122Y18793D01*
X175155Y18538D01*
X175553Y17578D01*
X176185Y16754D01*
X177010Y16121D01*
X177970Y15724D01*
X179000Y15588D01*
X180030Y15724D01*
X180990Y16121D01*
X181815Y16754D01*
X182447Y17578D01*
X182845Y18538D01*
X182981Y19568D01*
X182845Y20599D01*
X182447Y21559D01*
X182422Y21592D01*
X182415Y21644D01*
X181868Y22571D01*
X181453Y23345D01*
X181162Y23975D01*
X181070Y24218D01*
X181008Y24420D01*
X180976Y24567D01*
X180964Y24708D01*
X180939Y24757D01*
Y34013D01*
X180939Y34013D01*
X180853Y34442D01*
X180610Y34806D01*
X180610Y34806D01*
X179984Y35432D01*
X179964Y35489D01*
X179865Y35603D01*
X179795Y35705D01*
X179729Y35832D01*
X179666Y35985D01*
X179610Y36165D01*
X179563Y36373D01*
X179526Y36599D01*
X179482Y37164D01*
X179479Y37481D01*
X179450Y37550D01*
X179438Y37642D01*
X179889Y38050D01*
X180000Y38036D01*
Y41000D01*
D02*
G37*
G36*
X183964D02*
X181000D01*
Y38036D01*
X181414Y38090D01*
X182265Y38443D01*
X182996Y39004D01*
X183557Y39735D01*
X183910Y40586D01*
X183964Y41000D01*
D02*
G37*
G36*
X62460Y37618D02*
Y36640D01*
X62743Y36802D01*
X63065Y37026D01*
X63413Y37303D01*
X63752Y37618D01*
X62460D01*
D02*
G37*
G36*
X49716Y48437D02*
X49046Y48349D01*
X48421Y48090D01*
X47885Y47678D01*
X47473Y47142D01*
X47214Y46517D01*
X47126Y45847D01*
Y39154D01*
X47214Y38483D01*
X47473Y37858D01*
X47885Y37322D01*
X48421Y36910D01*
X49046Y36651D01*
X49716Y36563D01*
X50387Y36651D01*
X51012Y36910D01*
X51548Y37322D01*
X51960Y37858D01*
X52219Y38483D01*
X52307Y39154D01*
Y45847D01*
X52219Y46517D01*
X51960Y47142D01*
X51548Y47678D01*
X51012Y48090D01*
X50387Y48349D01*
X49716Y48437D01*
D02*
G37*
G36*
X32000D02*
X31330Y48349D01*
X30705Y48090D01*
X30168Y47678D01*
X29756Y47142D01*
X29498Y46517D01*
X29409Y45847D01*
Y39154D01*
X29498Y38483D01*
X29756Y37858D01*
X30168Y37322D01*
X30705Y36910D01*
X31330Y36651D01*
X32000Y36563D01*
X32671Y36651D01*
X33295Y36910D01*
X33832Y37322D01*
X34244Y37858D01*
X34502Y38483D01*
X34591Y39154D01*
Y45847D01*
X34502Y46517D01*
X34244Y47142D01*
X33832Y47678D01*
X33295Y48090D01*
X32671Y48349D01*
X32000Y48437D01*
D02*
G37*
G36*
X18209Y34000D02*
X16500D01*
Y32251D01*
X18027D01*
X18209Y34000D01*
D02*
G37*
G36*
X19900Y33072D02*
X19632Y32998D01*
X19357Y32899D01*
X19084Y32778D01*
X18813Y32635D01*
X18543Y32470D01*
X18275Y32283D01*
X18116Y32158D01*
X17976Y32012D01*
X17771Y31768D01*
X17590Y31518D01*
X17434Y31264D01*
X17301Y31003D01*
X17193Y30738D01*
X17109Y30468D01*
X18093Y30875D01*
X18959Y31541D01*
X19625Y32407D01*
X19900Y33072D01*
D02*
G37*
G36*
X15500Y34000D02*
X11880D01*
X11957Y33417D01*
X12375Y32407D01*
X13040Y31541D01*
X13907Y30875D01*
X14891Y30468D01*
X14807Y30738D01*
X14699Y31003D01*
X14566Y31264D01*
X14410Y31518D01*
X14229Y31768D01*
X14024Y32012D01*
X13795Y32251D01*
X15500D01*
Y34000D01*
D02*
G37*
G36*
X17109Y28532D02*
X17193Y28262D01*
X17301Y27997D01*
X17434Y27736D01*
X17590Y27482D01*
X17771Y27232D01*
X17976Y26988D01*
X18205Y26749D01*
X16500D01*
Y25000D01*
X20120D01*
X20043Y25583D01*
X19625Y26593D01*
X18959Y27459D01*
X18093Y28125D01*
X17109Y28532D01*
D02*
G37*
G36*
X14891D02*
X13907Y28125D01*
X13040Y27459D01*
X12375Y26593D01*
X11957Y25583D01*
X11880Y25000D01*
X15500D01*
Y26749D01*
X13795D01*
X14024Y26988D01*
X14229Y27232D01*
X14410Y27482D01*
X14566Y27736D01*
X14699Y27997D01*
X14807Y28262D01*
X14891Y28532D01*
D02*
G37*
G36*
X25500Y24464D02*
Y21500D01*
X28464D01*
X28410Y21914D01*
X28057Y22765D01*
X27496Y23496D01*
X26765Y24057D01*
X25914Y24410D01*
X25500Y24464D01*
D02*
G37*
G36*
X24500D02*
X24086Y24410D01*
X23235Y24057D01*
X22504Y23496D01*
X21943Y22765D01*
X21590Y21914D01*
X21536Y21500D01*
X24500D01*
Y24464D01*
D02*
G37*
G36*
X154000Y21000D02*
X151571D01*
Y20500D01*
X151561Y20595D01*
X151531Y20680D01*
X151480Y20755D01*
X151409Y20820D01*
X151318Y20875D01*
X151207Y20920D01*
X151075Y20955D01*
X150924Y20980D01*
X150751Y20995D01*
X150559Y21000D01*
X150547D01*
Y17547D01*
X154000D01*
Y21000D01*
D02*
G37*
G36*
X20120Y24000D02*
X16500D01*
Y22251D01*
X18205D01*
X17976Y22012D01*
X17771Y21768D01*
X17590Y21518D01*
X17434Y21264D01*
X17301Y21003D01*
X17193Y20738D01*
X17109Y20468D01*
X18093Y20875D01*
X18959Y21541D01*
X19625Y22407D01*
X20043Y23417D01*
X20120Y24000D01*
D02*
G37*
G36*
X15500D02*
X11880D01*
X11957Y23417D01*
X12375Y22407D01*
X13040Y21541D01*
X13907Y20875D01*
X14891Y20468D01*
X14807Y20738D01*
X14699Y21003D01*
X14566Y21264D01*
X14410Y21518D01*
X14229Y21768D01*
X14024Y22012D01*
X13795Y22251D01*
X15500D01*
Y24000D01*
D02*
G37*
G36*
X28464Y20500D02*
X25500D01*
Y17536D01*
X25914Y17590D01*
X26765Y17943D01*
X27496Y18504D01*
X28057Y19235D01*
X28410Y20086D01*
X28464Y20500D01*
D02*
G37*
G36*
X24500D02*
X21536D01*
X21590Y20086D01*
X21943Y19235D01*
X22504Y18504D01*
X23235Y17943D01*
X24086Y17590D01*
X24500Y17536D01*
Y20500D01*
D02*
G37*
G36*
X17109Y18532D02*
X17193Y18262D01*
X17301Y17997D01*
X17434Y17736D01*
X17590Y17482D01*
X17771Y17232D01*
X17976Y16988D01*
X18205Y16749D01*
X16500D01*
Y15000D01*
X18404D01*
X18656Y16193D01*
X18833Y15938D01*
X19024Y15710D01*
X19228Y15508D01*
X19445Y15334D01*
X19675Y15186D01*
X19918Y15065D01*
X20096Y15000D01*
X20120D01*
X20043Y15583D01*
X19625Y16593D01*
X18959Y17459D01*
X18093Y18125D01*
X17109Y18532D01*
D02*
G37*
G36*
X14891D02*
X13907Y18125D01*
X13040Y17459D01*
X12375Y16593D01*
X11957Y15583D01*
X11880Y15000D01*
X15500D01*
Y16749D01*
X13795D01*
X14024Y16988D01*
X14229Y17232D01*
X14410Y17482D01*
X14566Y17736D01*
X14699Y17997D01*
X14807Y18262D01*
X14891Y18532D01*
D02*
G37*
G36*
X56500Y17712D02*
Y14747D01*
X59464D01*
X59410Y15161D01*
X59057Y16012D01*
X58496Y16744D01*
X57765Y17304D01*
X56914Y17657D01*
X56500Y17712D01*
D02*
G37*
G36*
X55500D02*
X55086Y17657D01*
X54235Y17304D01*
X53504Y16744D01*
X52943Y16012D01*
X52590Y15161D01*
X52536Y14747D01*
X55500D01*
Y17712D01*
D02*
G37*
G36*
X97811Y21076D02*
X96627Y20920D01*
X95523Y20463D01*
X94575Y19736D01*
X93848Y18788D01*
X93391Y17684D01*
X93235Y16500D01*
X93391Y15316D01*
X93848Y14212D01*
X94575Y13264D01*
X95523Y12537D01*
X96627Y12080D01*
X97811Y11924D01*
X98995Y12080D01*
X100099Y12537D01*
X101047Y13264D01*
X101774Y14212D01*
X102231Y15316D01*
X102387Y16500D01*
X102231Y17684D01*
X101774Y18788D01*
X101047Y19736D01*
X100099Y20463D01*
X98995Y20920D01*
X97811Y21076D01*
D02*
G37*
G36*
X59464Y13747D02*
X56500D01*
Y10783D01*
X56914Y10837D01*
X57765Y11190D01*
X58496Y11751D01*
X59057Y12482D01*
X59410Y13334D01*
X59464Y13747D01*
D02*
G37*
G36*
X55500D02*
X52536D01*
X52590Y13334D01*
X52943Y12482D01*
X53504Y11751D01*
X54235Y11190D01*
X55086Y10837D01*
X55500Y10783D01*
Y13747D01*
D02*
G37*
G36*
X18193Y14000D02*
X16500D01*
Y10380D01*
X17083Y10457D01*
X18093Y10875D01*
X18959Y11541D01*
X19625Y12407D01*
X19774Y12768D01*
X19744Y12763D01*
X19464Y12695D01*
X19182Y12607D01*
X18899Y12501D01*
X18613Y12374D01*
X18326Y12229D01*
X17746Y11879D01*
X18193Y14000D01*
D02*
G37*
G36*
X15500D02*
X11880D01*
X11957Y13417D01*
X12375Y12407D01*
X13040Y11541D01*
X13907Y10875D01*
X14917Y10457D01*
X15500Y10380D01*
Y14000D01*
D02*
G37*
G36*
X34969Y14169D02*
X32500D01*
Y8354D01*
X34969D01*
Y14169D01*
D02*
G37*
G36*
X31500D02*
X29032D01*
Y8921D01*
X29120Y8935D01*
X29368Y8998D01*
X29578Y9079D01*
X29750Y9178D01*
X29884Y9294D01*
X29979Y9429D01*
X30036Y9582D01*
X30055Y9752D01*
Y8354D01*
X31500D01*
Y14169D01*
D02*
G37*
G36*
X24000Y8464D02*
Y5500D01*
X26964D01*
X26910Y5914D01*
X26557Y6765D01*
X25996Y7496D01*
X25265Y8057D01*
X24414Y8410D01*
X24000Y8464D01*
D02*
G37*
G36*
X23000D02*
X22586Y8410D01*
X21735Y8057D01*
X21004Y7496D01*
X20443Y6765D01*
X20090Y5914D01*
X20036Y5500D01*
X23000D01*
Y8464D01*
D02*
G37*
G36*
X10000Y7964D02*
Y5000D01*
X12964D01*
X12910Y5414D01*
X12557Y6265D01*
X11996Y6996D01*
X11265Y7557D01*
X10414Y7910D01*
X10000Y7964D01*
D02*
G37*
G36*
X9000D02*
X8586Y7910D01*
X7735Y7557D01*
X7004Y6996D01*
X6443Y6265D01*
X6090Y5414D01*
X6036Y5000D01*
X9000D01*
Y7964D01*
D02*
G37*
%LPD*%
G36*
X107414Y147500D02*
X107404Y147595D01*
X107373Y147680D01*
X107323Y147755D01*
X107252Y147820D01*
X107161Y147875D01*
X107049Y147920D01*
X106918Y147955D01*
X106766Y147980D01*
X106594Y147995D01*
X106402Y148000D01*
Y149000D01*
X106594Y149005D01*
X106766Y149020D01*
X106918Y149045D01*
X107049Y149080D01*
X107161Y149125D01*
X107252Y149180D01*
X107323Y149245D01*
X107373Y149320D01*
X107404Y149405D01*
X107414Y149500D01*
Y147500D01*
D02*
G37*
G36*
X99313Y149405D02*
X99343Y149320D01*
X99394Y149245D01*
X99465Y149180D01*
X99556Y149125D01*
X99667Y149080D01*
X99799Y149045D01*
X99950Y149020D01*
X100122Y149005D01*
X100315Y149000D01*
Y148000D01*
X100122Y147995D01*
X99950Y147980D01*
X99799Y147955D01*
X99667Y147920D01*
X99556Y147875D01*
X99465Y147820D01*
X99394Y147755D01*
X99343Y147680D01*
X99313Y147595D01*
X99303Y147500D01*
Y149500D01*
X99313Y149405D01*
D02*
G37*
G36*
X163704Y150525D02*
X163895Y150401D01*
X164114Y150292D01*
X164364Y150198D01*
X164642Y150119D01*
X164949Y150056D01*
X165286Y150007D01*
X166046Y149956D01*
X166471Y149953D01*
X163547Y147029D01*
X163544Y147454D01*
X163493Y148214D01*
X163444Y148551D01*
X163381Y148858D01*
X163302Y149136D01*
X163208Y149385D01*
X163099Y149605D01*
X162975Y149796D01*
X162836Y149957D01*
X163543Y150664D01*
X163704Y150525D01*
D02*
G37*
G36*
X97582Y146534D02*
X97497Y146503D01*
X97422Y146453D01*
X97357Y146384D01*
X97302Y146293D01*
X97257Y146184D01*
X97222Y146054D01*
X97197Y145904D01*
X97182Y145733D01*
X97177Y145544D01*
X96177D01*
X96189Y146544D01*
X97677D01*
X97582Y146534D01*
D02*
G37*
G36*
X162326Y149588D02*
X162344Y149533D01*
X162455Y149405D01*
X162534Y149283D01*
X162612Y149126D01*
X162684Y148933D01*
X162749Y148704D01*
X162804Y148439D01*
X162846Y148146D01*
X162895Y147429D01*
X162898Y147025D01*
X162920Y146972D01*
X163039Y146073D01*
X163397Y145208D01*
X163966Y144466D01*
X164473Y144077D01*
X164449Y143804D01*
X164374Y143523D01*
X163898Y143205D01*
X147324Y126631D01*
X117172D01*
X116547Y126507D01*
X116018Y126154D01*
X115322Y125457D01*
X114822Y125664D01*
Y138535D01*
X127943Y151657D01*
X128443Y151450D01*
Y143258D01*
X134761D01*
Y151878D01*
X160035D01*
X162326Y149588D01*
D02*
G37*
G36*
X177206Y142749D02*
X176871Y142817D01*
X176548Y142854D01*
X176237Y142861D01*
X175937Y142837D01*
X175650Y142783D01*
X175374Y142698D01*
X175110Y142582D01*
X174857Y142436D01*
X174617Y142259D01*
X174388Y142051D01*
X173323Y143814D01*
X173513Y144019D01*
X173692Y144244D01*
X173861Y144488D01*
X174018Y144750D01*
X174165Y145032D01*
X174301Y145334D01*
X174539Y145993D01*
X174642Y146352D01*
X174734Y146729D01*
X177206Y142749D01*
D02*
G37*
G36*
X99357Y141445D02*
X99410Y141405D01*
X99484Y141341D01*
X99994Y140860D01*
X100375Y140481D01*
X100022Y139421D01*
X99886Y139549D01*
X99764Y139649D01*
X99657Y139721D01*
X99564Y139764D01*
X99485Y139778D01*
X99420Y139764D01*
X99369Y139721D01*
X99333Y139649D01*
X99311Y139549D01*
X99303Y139421D01*
X99315Y141456D01*
X99325Y141462D01*
X99357Y141445D01*
D02*
G37*
G36*
X107414Y137000D02*
X107403Y137095D01*
X107372Y137180D01*
X107321Y137255D01*
X107250Y137320D01*
X107159Y137375D01*
X107048Y137420D01*
X106916Y137455D01*
X106765Y137480D01*
X106593Y137495D01*
X106402Y137500D01*
Y138500D01*
X106592Y138502D01*
X107042Y138537D01*
X107152Y138557D01*
X107242Y138582D01*
X107312Y138612D01*
X107362Y138646D01*
X107392Y138685D01*
X107402Y138728D01*
X107414Y137000D01*
D02*
G37*
G36*
X166471Y134047D02*
X166046Y134044D01*
X165286Y133993D01*
X164949Y133944D01*
X164642Y133880D01*
X164364Y133802D01*
X164114Y133708D01*
X163895Y133599D01*
X163704Y133475D01*
X163543Y133336D01*
X162836Y134043D01*
X162975Y134204D01*
X163099Y134395D01*
X163208Y134615D01*
X163302Y134863D01*
X163381Y135142D01*
X163444Y135449D01*
X163493Y135785D01*
X163544Y136546D01*
X163547Y136970D01*
X166471Y134047D01*
D02*
G37*
G36*
X180489Y133722D02*
X180134Y133132D01*
X179989Y132843D01*
X179867Y132558D01*
X179767Y132278D01*
X179689Y132002D01*
X179634Y131730D01*
X179600Y131462D01*
X179589Y131199D01*
X178589D01*
X178574Y131423D01*
X178529Y131632D01*
X178454Y131827D01*
X178349Y132007D01*
X178214Y132172D01*
X178049Y132323D01*
X177854Y132459D01*
X177629Y132581D01*
X177374Y132688D01*
X177089Y132780D01*
X180700Y134023D01*
X180489Y133722D01*
D02*
G37*
G36*
X110854Y131262D02*
X110769Y131232D01*
X110694Y131182D01*
X110629Y131112D01*
X110574Y131022D01*
X110529Y130912D01*
X110494Y130782D01*
X110469Y130632D01*
X110454Y130462D01*
X110449Y130272D01*
X109449D01*
X109444Y130462D01*
X109429Y130632D01*
X109404Y130782D01*
X109369Y130912D01*
X109324Y131022D01*
X109269Y131112D01*
X109204Y131182D01*
X109129Y131232D01*
X109044Y131262D01*
X108949Y131272D01*
X110949D01*
X110854Y131262D01*
D02*
G37*
G36*
X167337Y124168D02*
X166863Y124025D01*
X165082Y123373D01*
X164843Y123256D01*
X164643Y123143D01*
X164483Y123034D01*
X164362Y122931D01*
X163434Y123417D01*
X163587Y123595D01*
X163712Y123793D01*
X163809Y124012D01*
X163877Y124250D01*
X163916Y124509D01*
X163927Y124788D01*
X163910Y125087D01*
X163864Y125407D01*
X163789Y125747D01*
X163686Y126106D01*
X167337Y124168D01*
D02*
G37*
G36*
X177966Y122654D02*
X177468Y122651D01*
X176579Y122596D01*
X176189Y122543D01*
X175833Y122475D01*
X175514Y122390D01*
X175230Y122289D01*
X174983Y122171D01*
X174770Y122037D01*
X174594Y121887D01*
X173887Y122594D01*
X174037Y122770D01*
X174171Y122983D01*
X174289Y123230D01*
X174390Y123514D01*
X174475Y123833D01*
X174543Y124189D01*
X174595Y124579D01*
X174651Y125468D01*
X174654Y125967D01*
X177966Y122654D01*
D02*
G37*
G36*
X149474Y117059D02*
X149396Y117116D01*
X149304Y117144D01*
X149198D01*
X149077Y117116D01*
X148943Y117059D01*
X148795Y116974D01*
X148632Y116861D01*
X148455Y116720D01*
X148059Y116352D01*
X147352Y117059D01*
X147550Y117264D01*
X147861Y117632D01*
X147974Y117795D01*
X148059Y117943D01*
X148116Y118078D01*
X148144Y118198D01*
Y118304D01*
X148116Y118396D01*
X148059Y118473D01*
X149474Y117059D01*
D02*
G37*
G36*
X123621Y118570D02*
X123529Y118246D01*
X123467Y117940D01*
X123437Y117652D01*
X123438Y117382D01*
X123469Y117130D01*
X123532Y116896D01*
X123626Y116680D01*
X123750Y116481D01*
X123906Y116301D01*
X122922Y115871D01*
X122818Y115959D01*
X122671Y116058D01*
X122482Y116168D01*
X121976Y116419D01*
X120898Y116876D01*
X119967Y117234D01*
X123745Y118912D01*
X123621Y118570D01*
D02*
G37*
G36*
X94003Y118348D02*
X94051Y117735D01*
X94095Y117461D01*
X94153Y117209D01*
X94224Y116978D01*
X94309Y116770D01*
X94408Y116582D01*
X94520Y116417D01*
X94646Y116273D01*
X93939Y115566D01*
X93796Y115692D01*
X93630Y115805D01*
X93443Y115903D01*
X93234Y115988D01*
X93004Y116060D01*
X92751Y116118D01*
X92477Y116162D01*
X92182Y116192D01*
X91525Y116213D01*
X94000Y118688D01*
X94003Y118348D01*
D02*
G37*
G36*
X142769Y117589D02*
X142268Y117015D01*
X142064Y116742D01*
X141892Y116480D01*
X141751Y116228D01*
X141641Y115985D01*
X141563Y115753D01*
X141516Y115531D01*
X141500Y115318D01*
X140500D01*
X140484Y115531D01*
X140437Y115753D01*
X140359Y115985D01*
X140249Y116228D01*
X140108Y116480D01*
X139936Y116742D01*
X139732Y117015D01*
X139231Y117589D01*
X138933Y117891D01*
X143067D01*
X142769Y117589D01*
D02*
G37*
G36*
X132803Y117614D02*
X132306Y117030D01*
X132104Y116754D01*
X131933Y116489D01*
X131793Y116234D01*
X131684Y115991D01*
X131606Y115759D01*
X131560Y115537D01*
X131544Y115326D01*
X130544Y115311D01*
X130528Y115525D01*
X130481Y115748D01*
X130402Y115980D01*
X130291Y116222D01*
X130149Y116472D01*
X129975Y116732D01*
X129770Y117000D01*
X129533Y117278D01*
X128965Y117861D01*
X133098Y117922D01*
X132803Y117614D01*
D02*
G37*
G36*
X164391Y114933D02*
X164089Y115231D01*
X163515Y115732D01*
X163242Y115936D01*
X162980Y116108D01*
X162728Y116249D01*
X162485Y116359D01*
X162253Y116437D01*
X162031Y116484D01*
X161818Y116500D01*
Y117500D01*
X162031Y117516D01*
X162253Y117563D01*
X162485Y117641D01*
X162728Y117751D01*
X162980Y117892D01*
X163242Y118064D01*
X163515Y118268D01*
X164089Y118769D01*
X164391Y119067D01*
Y114933D01*
D02*
G37*
G36*
X178405Y112655D02*
X178320Y112626D01*
X178245Y112575D01*
X178180Y112505D01*
X178125Y112416D01*
X178080Y112305D01*
X178045Y112176D01*
X178020Y112025D01*
X178005Y111855D01*
X178000Y111666D01*
X177000D01*
X176995Y111855D01*
X176980Y112025D01*
X176955Y112176D01*
X176920Y112305D01*
X176875Y112416D01*
X176820Y112505D01*
X176755Y112575D01*
X176680Y112626D01*
X176595Y112655D01*
X176500Y112666D01*
X178500D01*
X178405Y112655D01*
D02*
G37*
G36*
X178013Y110759D02*
X178050Y110563D01*
X178112Y110360D01*
X178200Y110153D01*
X178313Y109939D01*
X178450Y109720D01*
X178612Y109495D01*
X178800Y109264D01*
X179250Y108785D01*
X175750D01*
X175988Y109028D01*
X176388Y109495D01*
X176550Y109720D01*
X176688Y109939D01*
X176800Y110153D01*
X176888Y110360D01*
X176950Y110563D01*
X176988Y110759D01*
X177000Y110950D01*
X178000D01*
X178013Y110759D01*
D02*
G37*
G36*
X164391Y104933D02*
X164089Y105231D01*
X163515Y105732D01*
X163242Y105936D01*
X162980Y106108D01*
X162728Y106249D01*
X162485Y106359D01*
X162253Y106437D01*
X162031Y106484D01*
X161818Y106500D01*
Y107500D01*
X162031Y107516D01*
X162253Y107563D01*
X162485Y107641D01*
X162728Y107751D01*
X162980Y107892D01*
X163242Y108064D01*
X163515Y108268D01*
X164089Y108769D01*
X164391Y109067D01*
Y104933D01*
D02*
G37*
G36*
X104543Y106390D02*
X104555Y104255D01*
X104548Y104395D01*
X104525Y104535D01*
X104489Y104676D01*
X104439Y104817D01*
X104374Y104958D01*
X104295Y105099D01*
X104201Y105242D01*
X104094Y105384D01*
X103972Y105526D01*
X103836Y105669D01*
Y107083D01*
X104543Y106390D01*
D02*
G37*
G36*
X108400Y104600D02*
X108372Y104508D01*
Y104402D01*
X108400Y104282D01*
X108457Y104148D01*
X108541Y103999D01*
X108654Y103837D01*
X108796Y103660D01*
X109164Y103264D01*
X108457Y102557D01*
X108251Y102755D01*
X107884Y103066D01*
X107721Y103179D01*
X107573Y103264D01*
X107438Y103321D01*
X107318Y103349D01*
X107212D01*
X107120Y103321D01*
X107042Y103264D01*
X108457Y104678D01*
X108400Y104600D01*
D02*
G37*
G36*
X141466Y98123D02*
X140376D01*
X140385Y98146D01*
X140392Y98188D01*
X140399Y98248D01*
X140414Y98540D01*
X140421Y99191D01*
X141421D01*
X141466Y98123D01*
D02*
G37*
G36*
X139498D02*
X138408D01*
X138416Y98146D01*
X138424Y98188D01*
X138431Y98248D01*
X138446Y98540D01*
X138453Y99191D01*
X139453D01*
X139498Y98123D01*
D02*
G37*
G36*
X137529D02*
X136439D01*
X136448Y98146D01*
X136456Y98188D01*
X136462Y98248D01*
X136477Y98540D01*
X136484Y99191D01*
X137484D01*
X137529Y98123D01*
D02*
G37*
G36*
X135561D02*
X134471D01*
X134479Y98146D01*
X134487Y98188D01*
X134494Y98248D01*
X134509Y98540D01*
X134516Y99191D01*
X135516D01*
X135561Y98123D01*
D02*
G37*
G36*
X133592D02*
X132502D01*
X132511Y98146D01*
X132518Y98188D01*
X132525Y98248D01*
X132540Y98540D01*
X132547Y99191D01*
X133547D01*
X133592Y98123D01*
D02*
G37*
G36*
X131545Y99051D02*
X131595Y98206D01*
X131609Y98156D01*
X131624Y98123D01*
X130534D01*
X130536Y98136D01*
X130537Y98169D01*
X130544Y99139D01*
X131544Y99243D01*
X131545Y99051D01*
D02*
G37*
G36*
X129655Y98123D02*
X128565D01*
X128574Y98146D01*
X128581Y98188D01*
X128588Y98248D01*
X128603Y98540D01*
X128610Y99191D01*
X129610D01*
X129655Y98123D01*
D02*
G37*
G36*
X148122Y98614D02*
X147936Y98421D01*
X147641Y98071D01*
X147532Y97912D01*
X147447Y97765D01*
X147388Y97630D01*
X147354Y97506D01*
X147346Y97393D01*
X147363Y97291D01*
X147405Y97201D01*
X146601Y98443D01*
X146596Y98450D01*
X146612Y98477D01*
X146650Y98524D01*
X146791Y98681D01*
X147521Y99427D01*
X148122Y98614D01*
D02*
G37*
G36*
X94003Y99136D02*
X94051Y98523D01*
X94095Y98249D01*
X94153Y97996D01*
X94224Y97766D01*
X94309Y97557D01*
X94408Y97370D01*
X94520Y97205D01*
X94646Y97061D01*
X93939Y96354D01*
X93796Y96480D01*
X93630Y96592D01*
X93443Y96691D01*
X93234Y96776D01*
X93004Y96847D01*
X92751Y96905D01*
X92477Y96949D01*
X92182Y96980D01*
X91525Y97000D01*
X94000Y99475D01*
X94003Y99136D01*
D02*
G37*
G36*
X153625Y93000D02*
X153285Y92997D01*
X152672Y92949D01*
X152398Y92905D01*
X152146Y92847D01*
X151915Y92776D01*
X151707Y92691D01*
X151520Y92592D01*
X151354Y92480D01*
X151210Y92354D01*
X150503Y93061D01*
X150629Y93204D01*
X150742Y93370D01*
X150840Y93557D01*
X150925Y93766D01*
X150997Y93996D01*
X151055Y94249D01*
X151099Y94523D01*
X151129Y94818D01*
X151150Y95475D01*
X153625Y93000D01*
D02*
G37*
G36*
X125710Y93122D02*
X125702Y93080D01*
X125695Y93020D01*
X125680Y92728D01*
X125673Y92077D01*
X124673D01*
X124628Y93144D01*
X125718D01*
X125710Y93122D01*
D02*
G37*
G36*
X150144Y89282D02*
X150122Y89290D01*
X150080Y89298D01*
X150020Y89305D01*
X149728Y89320D01*
X149077Y89327D01*
Y90327D01*
X150144Y90372D01*
Y89282D01*
D02*
G37*
G36*
X105055Y88150D02*
X105045Y88245D01*
X105015Y88330D01*
X104964Y88405D01*
X104894Y88470D01*
X104803Y88525D01*
X104691Y88570D01*
X104560Y88605D01*
X104408Y88630D01*
X104236Y88645D01*
X104043Y88650D01*
Y89650D01*
X104236Y89655D01*
X104408Y89670D01*
X104560Y89695D01*
X104691Y89730D01*
X104803Y89775D01*
X104894Y89830D01*
X104964Y89895D01*
X105015Y89970D01*
X105045Y90055D01*
X105055Y90150D01*
Y88150D01*
D02*
G37*
G36*
X108957Y87587D02*
X108968Y87019D01*
X107968D01*
X107968Y87129D01*
X107944Y87506D01*
X107935Y87546D01*
X107925Y87575D01*
X107913Y87593D01*
X107901Y87599D01*
X108957Y87587D01*
D02*
G37*
G36*
X171028Y89512D02*
X171495Y89113D01*
X171720Y88950D01*
X171939Y88813D01*
X172153Y88700D01*
X172360Y88613D01*
X172563Y88550D01*
X172759Y88512D01*
X172950Y88500D01*
Y87500D01*
X172759Y87488D01*
X172563Y87450D01*
X172360Y87388D01*
X172153Y87300D01*
X171939Y87187D01*
X171720Y87050D01*
X171495Y86888D01*
X171264Y86700D01*
X170785Y86250D01*
Y89750D01*
X171028Y89512D01*
D02*
G37*
G36*
X148224Y85427D02*
X148088Y85272D01*
X147976Y85101D01*
X147886Y84914D01*
X147820Y84712D01*
X147777Y84494D01*
X147757Y84260D01*
X147760Y84011D01*
X147787Y83745D01*
X147836Y83465D01*
X147909Y83168D01*
X144880Y84922D01*
X145249Y85020D01*
X146448Y85422D01*
X146678Y85524D01*
X146881Y85627D01*
X147056Y85731D01*
X147204Y85836D01*
X147324Y85941D01*
X148224Y85427D01*
D02*
G37*
G36*
X116877Y81408D02*
X116844Y81423D01*
X116794Y81436D01*
X116726Y81448D01*
X116641Y81459D01*
X116281Y81480D01*
X115763Y81487D01*
X115861Y82487D01*
X116877Y82498D01*
Y81408D01*
D02*
G37*
G36*
X178608Y82332D02*
X178147Y82230D01*
X176665Y81806D01*
X176385Y81696D01*
X176141Y81584D01*
X175932Y81471D01*
X175760Y81355D01*
X175624Y81238D01*
X174758Y81786D01*
X174909Y81961D01*
X175034Y82158D01*
X175134Y82378D01*
X175209Y82621D01*
X175258Y82887D01*
X175282Y83175D01*
X175280Y83486D01*
X175253Y83820D01*
X175201Y84176D01*
X175123Y84556D01*
X178608Y82332D01*
D02*
G37*
G36*
X116877Y79439D02*
X116844Y79454D01*
X116794Y79468D01*
X116726Y79480D01*
X116640Y79490D01*
X116278Y79512D01*
X115758Y79519D01*
X115861Y80519D01*
X116877Y80529D01*
Y79439D01*
D02*
G37*
G36*
X101399Y78656D02*
X101315Y78595D01*
X101241Y78521D01*
X101177Y78434D01*
X101123Y78335D01*
X101079Y78223D01*
X101044Y78099D01*
X101020Y77962D01*
X101005Y77812D01*
X101000Y77650D01*
X100000D01*
X99995Y77812D01*
X99980Y77962D01*
X99956Y78099D01*
X99921Y78223D01*
X99877Y78335D01*
X99823Y78434D01*
X99759Y78521D01*
X99685Y78595D01*
X99601Y78656D01*
X99508Y78705D01*
X101492D01*
X101399Y78656D01*
D02*
G37*
G36*
X134204Y80520D02*
X134370Y80408D01*
X134557Y80309D01*
X134766Y80224D01*
X134996Y80153D01*
X135249Y80095D01*
X135523Y80051D01*
X135818Y80020D01*
X136475Y80000D01*
X134000Y77525D01*
X133997Y77864D01*
X133949Y78477D01*
X133905Y78751D01*
X133847Y79004D01*
X133776Y79234D01*
X133691Y79443D01*
X133592Y79630D01*
X133480Y79795D01*
X133354Y79939D01*
X134061Y80646D01*
X134204Y80520D01*
D02*
G37*
G36*
X150144Y77471D02*
X150122Y77479D01*
X150080Y77487D01*
X150020Y77494D01*
X149728Y77509D01*
X149077Y77516D01*
Y78516D01*
X150144Y78561D01*
Y77471D01*
D02*
G37*
G36*
X116877D02*
X116856Y77478D01*
X116817Y77484D01*
X116758Y77490D01*
X116470Y77502D01*
X115821Y77508D01*
X115797Y78508D01*
X116877Y78561D01*
Y77471D01*
D02*
G37*
G36*
X165460Y76805D02*
X165114Y76924D01*
X164786Y77012D01*
X164476Y77070D01*
X164185Y77097D01*
X163913Y77094D01*
X163659Y77060D01*
X163424Y76996D01*
X163207Y76902D01*
X163009Y76777D01*
X162829Y76622D01*
X162385Y77592D01*
X162477Y77701D01*
X162579Y77851D01*
X162689Y78043D01*
X162937Y78552D01*
X163222Y79228D01*
X163716Y80553D01*
X165460Y76805D01*
D02*
G37*
G36*
X113523Y79519D02*
X113992Y79119D01*
X114217Y78957D01*
X114437Y78820D01*
X114651Y78707D01*
X114859Y78620D01*
X115061Y78558D01*
X115258Y78520D01*
X115448Y78508D01*
X115451Y77508D01*
X115260Y77495D01*
X115064Y77458D01*
X114862Y77395D01*
X114654Y77307D01*
X114441Y77195D01*
X114222Y77057D01*
X113998Y76894D01*
X113768Y76706D01*
X113291Y76256D01*
X113280Y79756D01*
X113523Y79519D01*
D02*
G37*
G36*
X155146Y76584D02*
X155188Y76576D01*
X155248Y76569D01*
X155540Y76554D01*
X156191Y76547D01*
Y75547D01*
X155123Y75502D01*
Y76592D01*
X155146Y76584D01*
D02*
G37*
G36*
X139003Y77136D02*
X139051Y76523D01*
X139095Y76249D01*
X139153Y75996D01*
X139224Y75766D01*
X139309Y75557D01*
X139408Y75370D01*
X139520Y75204D01*
X139646Y75061D01*
X138939Y74354D01*
X138795Y74480D01*
X138630Y74592D01*
X138443Y74691D01*
X138234Y74776D01*
X138004Y74847D01*
X137751Y74905D01*
X137477Y74949D01*
X137182Y74980D01*
X136525Y75000D01*
X139000Y77475D01*
X139003Y77136D01*
D02*
G37*
G36*
X136475Y75000D02*
X136136Y74997D01*
X135523Y74949D01*
X135249Y74905D01*
X134996Y74847D01*
X134766Y74776D01*
X134557Y74691D01*
X134370Y74592D01*
X134204Y74480D01*
X134061Y74354D01*
X133354Y75061D01*
X133480Y75204D01*
X133592Y75370D01*
X133691Y75557D01*
X133776Y75766D01*
X133847Y75996D01*
X133905Y76249D01*
X133949Y76523D01*
X133980Y76818D01*
X134000Y77475D01*
X136475Y75000D01*
D02*
G37*
G36*
X118466Y117466D02*
X119208Y116897D01*
X119638Y116719D01*
X119734Y116628D01*
X119734D01*
X119734Y116628D01*
X120655Y116273D01*
X121705Y115828D01*
X122175Y115595D01*
X122327Y115507D01*
X122425Y115441D01*
X122502Y115376D01*
X122555Y115358D01*
X127989Y109925D01*
Y99822D01*
X127970Y99787D01*
X127642Y99557D01*
Y95634D01*
Y91848D01*
X127762Y91872D01*
X128288Y92223D01*
X128410Y92406D01*
X128646Y92249D01*
X129110Y92156D01*
X129575Y92249D01*
X129727Y92350D01*
X130095Y92471D01*
X130462Y92350D01*
X130614Y92249D01*
X131079Y92156D01*
X131543Y92249D01*
X131695Y92350D01*
X131964Y92244D01*
X132050Y91730D01*
X131746Y91496D01*
X131184Y90765D01*
X130832Y89914D01*
X130777Y89500D01*
X131089D01*
X131221Y89503D01*
X131448Y89524D01*
X131543Y89542D01*
X131626Y89565D01*
X131697Y89594D01*
X131756Y89628D01*
X131803Y89667D01*
X131838Y89711D01*
X131860Y89761D01*
Y89500D01*
X134242D01*
Y89000D01*
X134742D01*
Y85536D01*
X135155Y85590D01*
X136007Y85943D01*
X136278Y86151D01*
X136778Y85905D01*
Y85009D01*
X136778Y85009D01*
X136864Y84580D01*
X137107Y84216D01*
X144100Y77223D01*
X144100Y77223D01*
X144464Y76980D01*
X144893Y76894D01*
X148903D01*
X149140Y76632D01*
X149219Y76365D01*
X149156Y76047D01*
X149249Y75583D01*
X149350Y75431D01*
X149470Y75063D01*
X149350Y74695D01*
X149249Y74543D01*
X149156Y74079D01*
X149249Y73614D01*
X149512Y73220D01*
Y72969D01*
X149249Y72575D01*
X149156Y72110D01*
X149249Y71646D01*
X149350Y71494D01*
X149470Y71126D01*
X149350Y70758D01*
X149249Y70606D01*
X149156Y70142D01*
X149249Y69677D01*
X149512Y69283D01*
Y69032D01*
X149249Y68638D01*
X149156Y68173D01*
X149249Y67709D01*
X149512Y67315D01*
X149906Y67052D01*
X150370Y66959D01*
X154898D01*
X155362Y67052D01*
X155380Y67064D01*
X155749Y67137D01*
X156113Y67380D01*
X156264Y67531D01*
X157883D01*
X162586Y62828D01*
X162586Y62828D01*
X162950Y62585D01*
X163379Y62500D01*
X163379Y62500D01*
X163731D01*
X163887Y62000D01*
X163397Y61360D01*
X163039Y60496D01*
X162917Y59569D01*
X163039Y58641D01*
X163397Y57777D01*
X163966Y57035D01*
X164092Y56938D01*
X164112Y56880D01*
X164148Y56862D01*
X164166Y56825D01*
X164382Y56632D01*
X164559Y56453D01*
X164711Y56277D01*
X164838Y56104D01*
X164943Y55934D01*
X165025Y55768D01*
X165088Y55604D01*
X165115Y55501D01*
X159707Y50093D01*
X159464Y49729D01*
X159378Y49300D01*
X159378Y49300D01*
Y39227D01*
X155800Y35649D01*
X146513D01*
X146344Y36149D01*
X146496Y36266D01*
X147057Y36998D01*
X147410Y37849D01*
X147464Y38263D01*
X140536D01*
X140590Y37849D01*
X140943Y36998D01*
X141504Y36266D01*
X141656Y36149D01*
X141487Y35649D01*
X138140D01*
Y43813D01*
X138640Y43983D01*
X138789Y43789D01*
X139437Y43292D01*
X140191Y42980D01*
X141000Y42873D01*
X141809Y42980D01*
X142563Y43292D01*
X143211Y43789D01*
X143708Y44437D01*
X144020Y45191D01*
X144127Y46000D01*
X144020Y46809D01*
X143708Y47563D01*
X143211Y48211D01*
X142563Y48708D01*
X141809Y49020D01*
X141000Y49127D01*
X140574Y49071D01*
X140074Y49486D01*
Y52640D01*
X140574Y52847D01*
X145669Y47752D01*
X145689Y47695D01*
X145782Y47589D01*
X145852Y47487D01*
X145927Y47355D01*
X146002Y47191D01*
X146076Y46997D01*
X146142Y46786D01*
X146330Y45917D01*
X146378Y45583D01*
X146442Y45476D01*
X146480Y45191D01*
X146792Y44437D01*
X147289Y43789D01*
X147937Y43292D01*
X148691Y42980D01*
X149500Y42873D01*
X150309Y42980D01*
X151063Y43292D01*
X151711Y43789D01*
X152208Y44437D01*
X152520Y45191D01*
X152627Y46000D01*
X152520Y46809D01*
X152208Y47563D01*
X151711Y48211D01*
X151063Y48708D01*
X150309Y49020D01*
X150155Y49040D01*
X150015Y49563D01*
X150309Y49789D01*
X150806Y50437D01*
X151119Y51191D01*
X151225Y52000D01*
X151119Y52809D01*
X150806Y53563D01*
X150309Y54211D01*
X149662Y54708D01*
X148908Y55020D01*
X148161Y55119D01*
X148093Y55149D01*
X147460Y55168D01*
X147206Y55195D01*
X146971Y55233D01*
X146764Y55280D01*
X146583Y55336D01*
X146430Y55399D01*
X146303Y55466D01*
X146201Y55535D01*
X146087Y55635D01*
X146031Y55654D01*
X144046Y57639D01*
Y58177D01*
X144358Y58405D01*
Y62366D01*
Y66152D01*
X144238Y66128D01*
X143712Y65777D01*
X143590Y65594D01*
X143354Y65751D01*
X142890Y65844D01*
X142425Y65751D01*
X142273Y65650D01*
X141905Y65530D01*
X141538Y65650D01*
X141386Y65751D01*
X140921Y65844D01*
X140457Y65751D01*
X140305Y65650D01*
X139937Y65530D01*
X139569Y65650D01*
X139417Y65751D01*
X138953Y65844D01*
X138488Y65751D01*
X138094Y65488D01*
X137843D01*
X137449Y65751D01*
X136984Y65844D01*
X136520Y65751D01*
X136126Y65488D01*
X135874D01*
X135480Y65751D01*
X135016Y65844D01*
X134551Y65751D01*
X134157Y65488D01*
X133906D01*
X133512Y65751D01*
X133047Y65844D01*
X132583Y65751D01*
X132189Y65488D01*
X131937D01*
X131543Y65751D01*
X131079Y65844D01*
X130614Y65751D01*
X130462Y65650D01*
X130095Y65530D01*
X129727Y65650D01*
X129575Y65751D01*
X129110Y65844D01*
X128646Y65751D01*
X128252Y65488D01*
X128000D01*
X127606Y65751D01*
X127142Y65844D01*
X126677Y65751D01*
X126283Y65488D01*
X126032D01*
X125638Y65751D01*
X125173Y65844D01*
X124709Y65751D01*
X124315Y65488D01*
X124052Y65094D01*
X123959Y64630D01*
Y64381D01*
X123867Y64366D01*
X123739Y64354D01*
X123566Y64350D01*
X123504Y64322D01*
X122202D01*
X122202Y64322D01*
X121773Y64237D01*
X121409Y63994D01*
X121409Y63994D01*
X119704Y62289D01*
X119242Y62480D01*
Y62922D01*
X119242Y62922D01*
X119157Y63352D01*
X118913Y63715D01*
X118913Y63715D01*
X118248Y64381D01*
Y66959D01*
X121630D01*
X122095Y67052D01*
X122488Y67315D01*
X122751Y67709D01*
X122844Y68173D01*
X122751Y68638D01*
X122488Y69032D01*
Y69283D01*
X122751Y69677D01*
X122844Y70142D01*
X122751Y70606D01*
X122650Y70758D01*
X122529Y71126D01*
X122650Y71494D01*
X122751Y71646D01*
X122844Y72110D01*
X122782Y72422D01*
X122879Y72716D01*
X123097Y72957D01*
X133079D01*
X133079Y72957D01*
X133508Y73043D01*
X133872Y73286D01*
X134432Y73846D01*
X134489Y73865D01*
X134602Y73965D01*
X134705Y74035D01*
X134832Y74101D01*
X134985Y74164D01*
X135165Y74220D01*
X135373Y74267D01*
X135600Y74304D01*
X136164Y74348D01*
X136481Y74351D01*
X136494Y74356D01*
X136505Y74351D01*
X137138Y74331D01*
X137392Y74305D01*
X137627Y74267D01*
X137835Y74220D01*
X138015Y74164D01*
X138168Y74101D01*
X138195Y74087D01*
X138258Y73952D01*
X137898Y73559D01*
X137484Y73614D01*
Y70650D01*
X139351D01*
X139399Y70797D01*
X139446Y70650D01*
X140449D01*
X140394Y71063D01*
X140218Y71489D01*
X140642Y71772D01*
X145469Y66945D01*
X145437Y66583D01*
X145358Y66525D01*
Y62366D01*
Y58580D01*
X145479Y58604D01*
X146005Y58956D01*
X146549Y58892D01*
X146695Y58746D01*
X146908Y58509D01*
X146925Y58500D01*
X146932Y58483D01*
X147016Y58448D01*
X147474Y58142D01*
X148098Y58018D01*
X151037D01*
X151076Y58000D01*
X151776Y57979D01*
X152037Y57954D01*
X152255Y57921D01*
X152417Y57884D01*
X152484Y57861D01*
Y57475D01*
X153006D01*
X153096Y57437D01*
X153154Y57461D01*
X153216Y57448D01*
X153256Y57475D01*
X157621D01*
Y61824D01*
X153256D01*
X153216Y61851D01*
X153154Y61838D01*
X153096Y61862D01*
X153006Y61824D01*
X152484D01*
Y61439D01*
X152417Y61415D01*
X152255Y61378D01*
X152045Y61346D01*
X151449Y61304D01*
X151087Y61299D01*
X151045Y61281D01*
X148793D01*
X148041Y62011D01*
Y64630D01*
X148004Y64814D01*
X148021Y64856D01*
X148016Y64869D01*
X148021Y64883D01*
X147976Y65950D01*
X147948Y66009D01*
Y67173D01*
X147948Y67173D01*
X147863Y67602D01*
X147620Y67966D01*
X147620Y67966D01*
X140154Y75432D01*
X140135Y75489D01*
X140035Y75603D01*
X139965Y75705D01*
X139899Y75832D01*
X139836Y75985D01*
X139780Y76165D01*
X139733Y76373D01*
X139696Y76600D01*
X139652Y77164D01*
X139649Y77481D01*
X139620Y77550D01*
X139520Y78309D01*
X139208Y79063D01*
X138711Y79711D01*
X138063Y80208D01*
X137309Y80520D01*
X136563Y80619D01*
X136495Y80649D01*
X135862Y80668D01*
X135608Y80695D01*
X135373Y80733D01*
X135165Y80780D01*
X134985Y80836D01*
X134832Y80899D01*
X134705Y80966D01*
X134602Y81035D01*
X134489Y81135D01*
X134432Y81154D01*
X126295Y89291D01*
Y91446D01*
X126313Y91480D01*
X126642Y91710D01*
Y95634D01*
Y99672D01*
X126395Y99867D01*
Y106825D01*
X126271Y107449D01*
X125917Y107979D01*
X117631Y116265D01*
Y117733D01*
X118131Y117903D01*
X118466Y117466D01*
D02*
G37*
G36*
X155146Y74615D02*
X155188Y74607D01*
X155248Y74601D01*
X155540Y74586D01*
X156191Y74579D01*
Y73579D01*
X155123Y73534D01*
Y74624D01*
X155146Y74615D01*
D02*
G37*
G36*
X121878D02*
X121920Y74607D01*
X121980Y74601D01*
X122272Y74586D01*
X122923Y74579D01*
Y73579D01*
X121856Y73534D01*
Y74624D01*
X121878Y74615D01*
D02*
G37*
G36*
X175891Y73154D02*
X175589Y73452D01*
X175015Y73953D01*
X174742Y74157D01*
X174480Y74330D01*
X174228Y74471D01*
X173985Y74580D01*
X173753Y74659D01*
X173531Y74706D01*
X173318Y74721D01*
Y75721D01*
X173531Y75737D01*
X173753Y75784D01*
X173985Y75862D01*
X174228Y75972D01*
X174480Y76113D01*
X174742Y76285D01*
X175015Y76489D01*
X175589Y76990D01*
X175891Y77288D01*
Y73154D01*
D02*
G37*
G36*
X155146Y72647D02*
X155188Y72639D01*
X155248Y72632D01*
X155540Y72617D01*
X156191Y72610D01*
Y71610D01*
X155123Y71565D01*
Y72655D01*
X155146Y72647D01*
D02*
G37*
G36*
X107230Y71633D02*
X107373Y71511D01*
X107516Y71403D01*
X107658Y71310D01*
X107800Y71231D01*
X107941Y71166D01*
X108082Y71115D01*
X108222Y71080D01*
X108362Y71058D01*
X108501Y71051D01*
X105673D01*
X105802Y71058D01*
X105903Y71080D01*
X105975Y71115D01*
X106018Y71166D01*
X106032Y71231D01*
X106018Y71310D01*
X105975Y71403D01*
X105903Y71511D01*
X105802Y71633D01*
X105673Y71770D01*
X107087D01*
X107230Y71633D01*
D02*
G37*
G36*
X168911Y71338D02*
X169485Y70836D01*
X169758Y70633D01*
X170020Y70460D01*
X170272Y70319D01*
X170515Y70209D01*
X170747Y70131D01*
X170969Y70084D01*
X171182Y70069D01*
Y69068D01*
X170969Y69053D01*
X170747Y69006D01*
X170515Y68928D01*
X170272Y68818D01*
X170020Y68677D01*
X169758Y68504D01*
X169485Y68301D01*
X168911Y67799D01*
X168609Y67502D01*
Y71635D01*
X168911Y71338D01*
D02*
G37*
G36*
X147372Y64856D02*
X146282D01*
X146290Y64878D01*
X146298Y64920D01*
X146305Y64980D01*
X146320Y65272D01*
X146327Y65923D01*
X147327D01*
X147372Y64856D01*
D02*
G37*
G36*
X175696Y63375D02*
X175435Y63687D01*
X174926Y64212D01*
X174679Y64425D01*
X174435Y64606D01*
X174196Y64753D01*
X173961Y64868D01*
X173731Y64950D01*
X173505Y64999D01*
X173283Y65016D01*
X173384Y66016D01*
X173584Y66031D01*
X173800Y66075D01*
X174032Y66148D01*
X174281Y66251D01*
X174545Y66384D01*
X174825Y66546D01*
X175435Y66958D01*
X175763Y67208D01*
X176108Y67488D01*
X175696Y63375D01*
D02*
G37*
G36*
X124595Y62201D02*
X124585Y62296D01*
X124555Y62381D01*
X124504Y62456D01*
X124433Y62521D01*
X124342Y62576D01*
X124231Y62621D01*
X124100Y62656D01*
X123948Y62681D01*
X123776Y62696D01*
X123583Y62701D01*
Y63701D01*
X123776Y63706D01*
X123948Y63721D01*
X124100Y63746D01*
X124231Y63781D01*
X124342Y63826D01*
X124433Y63881D01*
X124504Y63946D01*
X124555Y64021D01*
X124585Y64106D01*
X124595Y64201D01*
Y62201D01*
D02*
G37*
G36*
X105394Y61638D02*
X105384Y61612D01*
X105354Y61588D01*
X105304Y61568D01*
X105234Y61550D01*
X105144Y61535D01*
X105034Y61522D01*
X104754Y61506D01*
X104394Y61500D01*
Y62500D01*
X104584Y62505D01*
X104754Y62520D01*
X104904Y62545D01*
X105034Y62580D01*
X105144Y62625D01*
X105234Y62680D01*
X105304Y62745D01*
X105354Y62820D01*
X105384Y62905D01*
X105394Y63000D01*
Y61638D01*
D02*
G37*
G36*
X99735Y63769D02*
X100310Y63268D01*
X100582Y63064D01*
X100844Y62892D01*
X101096Y62751D01*
X101339Y62641D01*
X101571Y62563D01*
X101794Y62516D01*
X102006Y62500D01*
Y61500D01*
X101794Y61484D01*
X101571Y61437D01*
X101339Y61359D01*
X101096Y61249D01*
X100844Y61108D01*
X100582Y60936D01*
X100310Y60732D01*
X99735Y60231D01*
X99433Y59933D01*
Y64067D01*
X99735Y63769D01*
D02*
G37*
G36*
X147421Y61690D02*
X147465Y61657D01*
X147536Y61595D01*
X148542Y60620D01*
X148805Y60357D01*
X147391Y58943D01*
X146862Y59532D01*
X147405Y61695D01*
X147421Y61690D01*
D02*
G37*
G36*
X141458Y59854D02*
X141450Y59812D01*
X141443Y59752D01*
X141428Y59460D01*
X141421Y58809D01*
X140421D01*
X140376Y59877D01*
X141466D01*
X141458Y59854D01*
D02*
G37*
G36*
X139489D02*
X139481Y59812D01*
X139475Y59752D01*
X139460Y59460D01*
X139453Y58809D01*
X138453D01*
X138408Y59877D01*
X139498D01*
X139489Y59854D01*
D02*
G37*
G36*
X135552D02*
X135545Y59812D01*
X135538Y59752D01*
X135523Y59460D01*
X135516Y58809D01*
X134516D01*
X134471Y59877D01*
X135561D01*
X135552Y59854D01*
D02*
G37*
G36*
X133584D02*
X133576Y59812D01*
X133569Y59752D01*
X133554Y59460D01*
X133547Y58809D01*
X132547D01*
X132502Y59877D01*
X133592D01*
X133584Y59854D01*
D02*
G37*
G36*
X129647D02*
X129639Y59812D01*
X129632Y59752D01*
X129617Y59460D01*
X129610Y58809D01*
X128610D01*
X128565Y59877D01*
X129655D01*
X129647Y59854D01*
D02*
G37*
G36*
X127678D02*
X127671Y59812D01*
X127664Y59752D01*
X127649Y59460D01*
X127642Y58809D01*
X126642D01*
X126597Y59877D01*
X127687D01*
X127678Y59854D01*
D02*
G37*
G36*
X143433Y59864D02*
X143431Y59831D01*
X143424Y58861D01*
X142424Y58758D01*
X142424Y58949D01*
X142373Y59794D01*
X142360Y59844D01*
X142345Y59877D01*
X143435D01*
X143433Y59864D01*
D02*
G37*
G36*
X137527D02*
X137525Y59831D01*
X137519Y58861D01*
X136519Y58758D01*
X136518Y58949D01*
X136468Y59794D01*
X136454Y59844D01*
X136439Y59877D01*
X137529D01*
X137527Y59864D01*
D02*
G37*
G36*
X130490Y59926D02*
X130534Y59877D01*
X131624D01*
X131562Y59776D01*
X131508Y59669D01*
X131459Y59555D01*
X131417Y59433D01*
X131381Y59305D01*
X131352Y59169D01*
X131330Y59027D01*
X131304Y58720D01*
X131301Y58557D01*
X130301Y58592D01*
X130303Y58899D01*
X130359Y59730D01*
X130385Y59838D01*
X130415Y59908D01*
X130450Y59937D01*
X130490Y59926D01*
D02*
G37*
G36*
X90280Y61546D02*
X90332Y60786D01*
X90380Y60449D01*
X90444Y60142D01*
X90522Y59864D01*
X90616Y59614D01*
X90725Y59395D01*
X90849Y59204D01*
X90988Y59043D01*
X90281Y58336D01*
X90120Y58475D01*
X89929Y58599D01*
X89710Y58708D01*
X89461Y58802D01*
X89183Y58881D01*
X88875Y58944D01*
X88539Y58993D01*
X87778Y59044D01*
X87354Y59047D01*
X90277Y61971D01*
X90280Y61546D01*
D02*
G37*
G36*
X153096Y58087D02*
X153076Y58194D01*
X153016Y58289D01*
X152916Y58374D01*
X152776Y58447D01*
X152596Y58509D01*
X152376Y58560D01*
X152116Y58599D01*
X151816Y58627D01*
X151096Y58650D01*
Y60650D01*
X151476Y60655D01*
X152116Y60700D01*
X152376Y60740D01*
X152596Y60790D01*
X152776Y60852D01*
X152916Y60925D01*
X153016Y61010D01*
X153076Y61106D01*
X153096Y61212D01*
Y58087D01*
D02*
G37*
G36*
X175532Y58682D02*
X175884Y58385D01*
X176043Y58275D01*
X176190Y58191D01*
X176326Y58131D01*
X176450Y58098D01*
X176562Y58090D01*
X176663Y58107D01*
X176752Y58150D01*
X175071Y57026D01*
X175139Y57091D01*
X175176Y57172D01*
X175181Y57271D01*
X175156Y57386D01*
X175100Y57519D01*
X175012Y57669D01*
X174894Y57837D01*
X174744Y58021D01*
X174352Y58441D01*
X175338Y58869D01*
X175532Y58682D01*
D02*
G37*
G36*
X59670Y58401D02*
X59500Y58341D01*
X59350Y58241D01*
X59220Y58101D01*
X59110Y57921D01*
X59020Y57701D01*
X58950Y57441D01*
X58900Y57141D01*
X58870Y56801D01*
X58860Y56422D01*
X56860D01*
X56792Y58421D01*
X59860D01*
X59670Y58401D01*
D02*
G37*
G36*
X168105Y57090D02*
X167860Y56920D01*
X167641Y56744D01*
X167448Y56562D01*
X167280Y56373D01*
X167138Y56179D01*
X167022Y55979D01*
X166932Y55772D01*
X166867Y55559D01*
X166829Y55341D01*
X166816Y55116D01*
X165816D01*
X165804Y55348D01*
X165767Y55578D01*
X165706Y55804D01*
X165621Y56028D01*
X165512Y56249D01*
X165378Y56467D01*
X165219Y56682D01*
X165037Y56894D01*
X164830Y57103D01*
X164599Y57309D01*
X168105Y57090D01*
D02*
G37*
G36*
X105437Y52820D02*
X105427Y52915D01*
X105397Y53000D01*
X105347Y53075D01*
X105277Y53140D01*
X105187Y53195D01*
X105077Y53240D01*
X104947Y53275D01*
X104797Y53300D01*
X104627Y53315D01*
X104437Y53320D01*
Y54320D01*
X105437Y54362D01*
Y52820D01*
D02*
G37*
G36*
X145803Y55020D02*
X145968Y54908D01*
X146155Y54809D01*
X146364Y54724D01*
X146595Y54653D01*
X146847Y54595D01*
X147121Y54551D01*
X147417Y54520D01*
X148073Y54500D01*
X145598Y52025D01*
X145595Y52364D01*
X145548Y52977D01*
X145503Y53251D01*
X145446Y53504D01*
X145374Y53734D01*
X145289Y53943D01*
X145191Y54130D01*
X145078Y54295D01*
X144952Y54439D01*
X145659Y55146D01*
X145803Y55020D01*
D02*
G37*
G36*
X94395Y50000D02*
X94375Y50190D01*
X94315Y50360D01*
X94214Y50510D01*
X94073Y50640D01*
X93892Y50750D01*
X93671Y50840D01*
X93410Y50910D01*
X93108Y50960D01*
X92766Y50990D01*
X92383Y51000D01*
Y53000D01*
X92766Y53010D01*
X93108Y53040D01*
X93410Y53090D01*
X93671Y53160D01*
X93892Y53250D01*
X94073Y53360D01*
X94214Y53490D01*
X94315Y53640D01*
X94375Y53810D01*
X94395Y54000D01*
Y50000D01*
D02*
G37*
G36*
X89645Y53864D02*
X89865Y53683D01*
X90092Y53523D01*
X90325Y53384D01*
X90566Y53267D01*
X90814Y53171D01*
X91068Y53096D01*
X91330Y53043D01*
X91598Y53011D01*
X91874Y53000D01*
Y51000D01*
X91598Y50989D01*
X91330Y50957D01*
X91068Y50904D01*
X90814Y50829D01*
X90566Y50733D01*
X90325Y50616D01*
X90092Y50477D01*
X89865Y50317D01*
X89645Y50136D01*
X89496Y49993D01*
X89366Y49834D01*
X89197Y49598D01*
X89048Y49358D01*
X88919Y49113D01*
X88810Y48864D01*
X88721Y48610D01*
X88651Y48351D01*
X88601Y48088D01*
X88572Y47820D01*
X88562Y47547D01*
X86562Y47376D01*
X86550Y47654D01*
X86517Y47923D01*
X86460Y48182D01*
X86381Y48432D01*
X86286Y48657D01*
X86096Y48560D01*
X85865Y48421D01*
X85646Y48267D01*
X85438Y48098D01*
X85240Y47914D01*
X83612Y49114D01*
X83802Y49320D01*
X83967Y49535D01*
X84108Y49758D01*
X84224Y49990D01*
X84316Y50230D01*
X84383Y50478D01*
X84425Y50735D01*
X84443Y51000D01*
X84436Y51273D01*
X84405Y51555D01*
X86697Y49834D01*
X89433Y50055D01*
Y54067D01*
X89645Y53864D01*
D02*
G37*
G36*
X102173Y53027D02*
X102173Y53027D01*
X102536Y52784D01*
X102966Y52698D01*
X102966Y52698D01*
X104358D01*
X104420Y52671D01*
X104590Y52666D01*
X104715Y52655D01*
X104809Y52639D01*
X104825Y52635D01*
Y50624D01*
X109378D01*
Y48675D01*
X104825D01*
Y45534D01*
X104804Y45425D01*
X104804Y45425D01*
Y45153D01*
X104789Y45133D01*
X104798Y45086D01*
X104777Y45043D01*
X104766Y44884D01*
X104743Y44768D01*
X104702Y44649D01*
X104641Y44523D01*
X104556Y44391D01*
X104445Y44251D01*
X104307Y44105D01*
X104139Y43955D01*
X103942Y43801D01*
X103700Y43635D01*
X103634Y43533D01*
X103214Y43211D01*
X102717Y42563D01*
X102405Y41809D01*
X102377Y41597D01*
X101833Y41299D01*
X101739Y41343D01*
X101733Y41373D01*
X101696Y41600D01*
X101652Y42164D01*
X101649Y42481D01*
X101620Y42550D01*
X101520Y43309D01*
X101208Y44063D01*
X100711Y44711D01*
X100063Y45208D01*
X99309Y45520D01*
X98500Y45627D01*
X97691Y45520D01*
X96937Y45208D01*
X96289Y44711D01*
X95792Y44063D01*
X95480Y43309D01*
X95449Y43076D01*
X94926Y42936D01*
X94496Y43496D01*
X93765Y44057D01*
X92914Y44410D01*
X92500Y44464D01*
Y41000D01*
X91500D01*
Y44464D01*
X91086Y44410D01*
X90235Y44057D01*
X89693Y43641D01*
X89193Y43882D01*
Y47485D01*
X89211Y47524D01*
X89220Y47772D01*
X89244Y47992D01*
X89285Y48206D01*
X89341Y48417D01*
X89414Y48625D01*
X89504Y48831D01*
X89612Y49035D01*
X89737Y49237D01*
X89881Y49439D01*
X89973Y49551D01*
X90077Y49650D01*
X90260Y49801D01*
X90445Y49932D01*
X90634Y50044D01*
X90826Y50138D01*
X91023Y50214D01*
X91225Y50273D01*
X91433Y50316D01*
X91650Y50341D01*
X91899Y50351D01*
X91938Y50369D01*
X92326D01*
X92366Y50351D01*
X92729Y50341D01*
X93026Y50315D01*
X93272Y50274D01*
X93464Y50223D01*
X93600Y50168D01*
X93681Y50119D01*
X93718Y50085D01*
X93730Y50066D01*
X93738Y50045D01*
X93750Y49932D01*
X93771Y49891D01*
Y48447D01*
X100877D01*
Y53669D01*
X101339Y53860D01*
X102173Y53027D01*
D02*
G37*
G36*
X123566Y62052D02*
X123739Y62047D01*
X123867Y62036D01*
X123959Y62021D01*
Y60102D01*
X124052Y59638D01*
X124315Y59244D01*
X124709Y58981D01*
X125173Y58889D01*
X125485Y58951D01*
X125779Y58853D01*
X126020Y58635D01*
Y47626D01*
X125520Y47379D01*
X125278Y47565D01*
X124427Y47917D01*
X124013Y47972D01*
Y44507D01*
Y41043D01*
X124427Y41097D01*
X125278Y41450D01*
X125520Y41636D01*
X126020Y41389D01*
Y35470D01*
X125520Y35224D01*
X125086Y35557D01*
X124234Y35910D01*
X123820Y35964D01*
Y32500D01*
Y30784D01*
X125442Y31178D01*
X125246Y30856D01*
X124668Y29743D01*
X124575Y29509D01*
X124503Y29293D01*
X124477Y29190D01*
X125086Y29443D01*
X125817Y30004D01*
X126128Y30410D01*
X126783Y30462D01*
X132117Y25128D01*
X132084Y24629D01*
X131681Y24319D01*
X131047Y23493D01*
X130649Y22532D01*
X130605Y22195D01*
X130728Y22251D01*
X130980Y22392D01*
X131242Y22564D01*
X131515Y22768D01*
X132089Y23269D01*
X132391Y23567D01*
Y22000D01*
X134500D01*
Y21000D01*
X132391D01*
Y19433D01*
X132089Y19731D01*
X131515Y20232D01*
X131242Y20436D01*
X130980Y20608D01*
X130728Y20749D01*
X130605Y20805D01*
X130649Y20468D01*
X131047Y19507D01*
X131383Y19069D01*
X131137Y18569D01*
X127863D01*
X127617Y19069D01*
X127953Y19507D01*
X128351Y20468D01*
X128395Y20805D01*
X128272Y20749D01*
X128020Y20608D01*
X127758Y20436D01*
X127485Y20232D01*
X126911Y19731D01*
X126609Y19433D01*
Y21000D01*
X124500D01*
Y21500D01*
X124000D01*
Y23550D01*
X122054Y23153D01*
X122311Y23543D01*
X123071Y24873D01*
X123193Y25148D01*
X123233Y25254D01*
X122507Y24953D01*
X121681Y24319D01*
X121342Y23877D01*
X120842Y24047D01*
Y29425D01*
X121291Y29646D01*
X121555Y29443D01*
X122407Y29090D01*
X122820Y29036D01*
Y29762D01*
X122739Y29843D01*
X122534Y30017D01*
X122301Y30187D01*
X122041Y30352D01*
X122820Y30541D01*
Y32500D01*
Y35964D01*
X122407Y35910D01*
X121555Y35557D01*
X121291Y35354D01*
X120842Y35575D01*
Y41515D01*
X121342Y41762D01*
X121748Y41450D01*
X122600Y41097D01*
X123013Y41043D01*
Y44507D01*
Y47972D01*
X122600Y47917D01*
X121748Y47565D01*
X121342Y47253D01*
X120842Y47499D01*
Y60255D01*
X122666Y62079D01*
X123504D01*
X123566Y62052D01*
D02*
G37*
G36*
X146933Y48800D02*
X147102Y48687D01*
X147290Y48594D01*
X147497Y48519D01*
X147722Y48463D01*
X147966Y48427D01*
X148228Y48410D01*
X148509Y48411D01*
X148809Y48432D01*
X149127Y48472D01*
X147021Y45676D01*
X146969Y46033D01*
X146770Y46953D01*
X146690Y47210D01*
X146601Y47442D01*
X146506Y47650D01*
X146404Y47833D01*
X146294Y47990D01*
X146177Y48124D01*
X146782Y48932D01*
X146933Y48800D01*
D02*
G37*
G36*
X168052Y47056D02*
X167804Y46892D01*
X167581Y46720D01*
X167385Y46543D01*
X167216Y46358D01*
X167072Y46168D01*
X166954Y45970D01*
X166863Y45766D01*
X166797Y45556D01*
X166758Y45339D01*
X166745Y45116D01*
X165745D01*
X165733Y45349D01*
X165697Y45581D01*
X165637Y45811D01*
X165552Y46038D01*
X165444Y46264D01*
X165311Y46488D01*
X165154Y46709D01*
X164973Y46928D01*
X164769Y47146D01*
X164539Y47361D01*
X168052Y47056D01*
D02*
G37*
G36*
X114290Y67775D02*
Y67473D01*
X114290Y67473D01*
X114376Y67044D01*
X114405Y67001D01*
Y63254D01*
X114405Y63254D01*
X114490Y62825D01*
X114733Y62461D01*
X115399Y61795D01*
Y44047D01*
X114899Y43801D01*
X114564Y44057D01*
X113713Y44410D01*
X113299Y44464D01*
Y41000D01*
X112299D01*
Y44464D01*
X112106Y44439D01*
X112086Y44442D01*
X111679Y44748D01*
X111622Y44842D01*
Y65760D01*
X113828Y67967D01*
X114290Y67775D01*
D02*
G37*
G36*
X82693Y45366D02*
X82521Y45183D01*
X82371Y44997D01*
X82243Y44809D01*
X82137Y44620D01*
X82053Y44428D01*
X81991Y44235D01*
X81951Y44039D01*
X81932Y43841D01*
X81936Y43642D01*
X81961Y43440D01*
X79109Y45469D01*
X79312Y45509D01*
X79511Y45563D01*
X79709Y45632D01*
X79904Y45715D01*
X80096Y45812D01*
X80285Y45924D01*
X80472Y46051D01*
X80656Y46193D01*
X80838Y46348D01*
X81017Y46519D01*
X82693Y45366D01*
D02*
G37*
G36*
X105715Y44939D02*
X106925Y44949D01*
X106830Y44938D01*
X106745Y44907D01*
X106670Y44856D01*
X106605Y44785D01*
X106550Y44694D01*
X106505Y44583D01*
X106470Y44452D01*
X106468Y44438D01*
X106468Y44438D01*
X106522Y44238D01*
X106597Y44022D01*
X106693Y43791D01*
X106950Y43281D01*
X107111Y43003D01*
X107497Y42399D01*
X104068Y43099D01*
X104326Y43276D01*
X104556Y43456D01*
X104760Y43639D01*
X104937Y43825D01*
X105086Y44013D01*
X105208Y44205D01*
X105303Y44399D01*
X105371Y44597D01*
X105412Y44797D01*
X105425Y45000D01*
X105715Y44939D01*
D02*
G37*
G36*
X101003Y42136D02*
X101051Y41523D01*
X101095Y41249D01*
X101153Y40996D01*
X101224Y40766D01*
X101309Y40557D01*
X101408Y40370D01*
X101520Y40205D01*
X101646Y40061D01*
X100939Y39354D01*
X100795Y39480D01*
X100630Y39592D01*
X100443Y39691D01*
X100234Y39776D01*
X100004Y39847D01*
X99751Y39905D01*
X99477Y39949D01*
X99182Y39980D01*
X98525Y40000D01*
X101000Y42475D01*
X101003Y42136D01*
D02*
G37*
G36*
X114312Y38972D02*
X113912Y38505D01*
X113749Y38280D01*
X113612Y38061D01*
X113499Y37847D01*
X113412Y37640D01*
X113349Y37437D01*
X113312Y37241D01*
X113299Y37051D01*
X112299D01*
X112297Y37080D01*
X111799Y37076D01*
X111894Y37087D01*
X111979Y37117D01*
X112054Y37168D01*
X112119Y37240D01*
X112174Y37331D01*
X112219Y37442D01*
X112232Y37492D01*
X112187Y37640D01*
X112099Y37847D01*
X111987Y38061D01*
X111849Y38280D01*
X111687Y38505D01*
X111499Y38736D01*
X111049Y39215D01*
X114549D01*
X114312Y38972D01*
D02*
G37*
G36*
X88582Y37751D02*
X88642Y37411D01*
X88742Y37111D01*
X88882Y36851D01*
X89062Y36631D01*
X89282Y36451D01*
X89542Y36311D01*
X89593Y36294D01*
X89788Y36370D01*
X89968Y36476D01*
X90108Y36600D01*
X90208Y36743D01*
X90268Y36906D01*
X90288Y37088D01*
Y36146D01*
X90562Y36131D01*
X90288Y35949D01*
Y33175D01*
X90268Y33356D01*
X90208Y33519D01*
X90108Y33663D01*
X89968Y33787D01*
X89788Y33892D01*
X89568Y33978D01*
X89308Y34045D01*
X89008Y34093D01*
X88668Y34122D01*
X88288Y34131D01*
Y34615D01*
X87562Y34131D01*
X86712Y34697D01*
Y34131D01*
X86331Y34121D01*
X85989Y34091D01*
X85688Y34041D01*
X85426Y33971D01*
X85205Y33881D01*
X85024Y33771D01*
X84883Y33641D01*
X84782Y33491D01*
X84721Y33321D01*
X84700Y33131D01*
X84710Y36033D01*
X84562Y36131D01*
X84710Y36139D01*
X84712Y36957D01*
X84732Y36800D01*
X84792Y36659D01*
X84892Y36536D01*
X85032Y36428D01*
X85212Y36338D01*
X85432Y36263D01*
X85436Y36263D01*
X85582Y36311D01*
X85842Y36451D01*
X86062Y36631D01*
X86242Y36851D01*
X86382Y37111D01*
X86482Y37411D01*
X86542Y37751D01*
X86562Y38131D01*
X88562D01*
X88582Y37751D01*
D02*
G37*
G36*
X75288Y33044D02*
X75268Y33213D01*
X75208Y33364D01*
X75108Y33498D01*
X74968Y33613D01*
X74788Y33711D01*
X74568Y33792D01*
X74308Y33854D01*
X74008Y33898D01*
X73668Y33925D01*
X73364Y33932D01*
X73068Y33926D01*
X72428Y33862D01*
X72168Y33805D01*
X71948Y33733D01*
X71768Y33645D01*
X71628Y33540D01*
X71528Y33419D01*
X71468Y33283D01*
X71448Y33130D01*
Y36606D01*
X71468Y36478D01*
X71528Y36364D01*
X71628Y36263D01*
X71768Y36176D01*
X71948Y36102D01*
X72168Y36042D01*
X72428Y35994D01*
X72728Y35961D01*
X73382Y35936D01*
X73669Y35944D01*
X74011Y35974D01*
X74312Y36024D01*
X74574Y36094D01*
X74795Y36184D01*
X74976Y36294D01*
X75117Y36424D01*
X75218Y36574D01*
X75279Y36744D01*
X75300Y36934D01*
X75288Y33044D01*
D02*
G37*
G36*
X104069Y37596D02*
X104438Y37282D01*
X104601Y37168D01*
X104749Y37082D01*
X104884Y37024D01*
X105003Y36994D01*
X105109Y36993D01*
X105200Y37020D01*
X105277Y37076D01*
X103874Y35673D01*
X103930Y35750D01*
X103957Y35841D01*
X103956Y35947D01*
X103926Y36067D01*
X103868Y36201D01*
X103782Y36349D01*
X103668Y36512D01*
X103525Y36690D01*
X103155Y37088D01*
X103862Y37795D01*
X104069Y37596D01*
D02*
G37*
G36*
X103874Y34131D02*
X103864Y34226D01*
X103834Y34311D01*
X103783Y34386D01*
X103712Y34451D01*
X103621Y34506D01*
X103510Y34551D01*
X103378Y34586D01*
X103227Y34611D01*
X103055Y34626D01*
X102862Y34631D01*
Y35631D01*
X103055Y35636D01*
X103227Y35651D01*
X103378Y35676D01*
X103510Y35711D01*
X103621Y35756D01*
X103712Y35811D01*
X103783Y35876D01*
X103834Y35951D01*
X103864Y36036D01*
X103874Y36131D01*
Y34131D01*
D02*
G37*
G36*
X99711Y36036D02*
X99741Y35951D01*
X99792Y35876D01*
X99862Y35811D01*
X99953Y35756D01*
X100065Y35711D01*
X100196Y35676D01*
X100348Y35651D01*
X100520Y35636D01*
X100712Y35631D01*
Y34631D01*
X100520Y34626D01*
X100348Y34611D01*
X100196Y34586D01*
X100065Y34551D01*
X99953Y34506D01*
X99862Y34451D01*
X99792Y34386D01*
X99741Y34311D01*
X99711Y34226D01*
X99700Y34131D01*
Y36131D01*
X99711Y36036D01*
D02*
G37*
G36*
X99055Y33177D02*
X98970Y33146D01*
X98895Y33096D01*
X98830Y33025D01*
X98775Y32934D01*
X98730Y32822D01*
X98695Y32691D01*
X98670Y32539D01*
X98655Y32367D01*
X98650Y32175D01*
X97650D01*
X97645Y32367D01*
X97630Y32539D01*
X97605Y32691D01*
X97570Y32822D01*
X97525Y32934D01*
X97470Y33025D01*
X97405Y33096D01*
X97330Y33146D01*
X97245Y33177D01*
X97150Y33187D01*
X99150D01*
X99055Y33177D01*
D02*
G37*
G36*
X164391Y27502D02*
X164089Y27799D01*
X163515Y28301D01*
X163242Y28504D01*
X162980Y28677D01*
X162728Y28818D01*
X162485Y28927D01*
X162253Y29006D01*
X162031Y29053D01*
X161818Y29068D01*
Y30068D01*
X162031Y30084D01*
X162253Y30131D01*
X162485Y30209D01*
X162728Y30319D01*
X162980Y30460D01*
X163242Y30633D01*
X163515Y30836D01*
X164089Y31338D01*
X164391Y31635D01*
Y27502D01*
D02*
G37*
G36*
X163704Y23094D02*
X163895Y22969D01*
X164114Y22861D01*
X164364Y22767D01*
X164642Y22688D01*
X164949Y22624D01*
X165286Y22576D01*
X166046Y22524D01*
X166471Y22521D01*
X163547Y19598D01*
X163544Y20022D01*
X163493Y20783D01*
X163444Y21120D01*
X163381Y21427D01*
X163302Y21705D01*
X163208Y21954D01*
X163099Y22174D01*
X162975Y22364D01*
X162836Y22525D01*
X163543Y23233D01*
X163704Y23094D01*
D02*
G37*
G36*
X142391Y19433D02*
X142089Y19731D01*
X141515Y20232D01*
X141242Y20436D01*
X140980Y20608D01*
X140728Y20749D01*
X140485Y20859D01*
X140253Y20937D01*
X140031Y20984D01*
X139818Y21000D01*
Y22000D01*
X140031Y22016D01*
X140253Y22063D01*
X140485Y22141D01*
X140728Y22251D01*
X140980Y22392D01*
X141242Y22564D01*
X141515Y22768D01*
X142089Y23269D01*
X142391Y23567D01*
Y19433D01*
D02*
G37*
G36*
X136911Y23269D02*
X137485Y22768D01*
X137758Y22564D01*
X138020Y22392D01*
X138272Y22251D01*
X138515Y22141D01*
X138747Y22063D01*
X138969Y22016D01*
X139182Y22000D01*
Y21000D01*
X138969Y20984D01*
X138747Y20937D01*
X138515Y20859D01*
X138272Y20749D01*
X138020Y20608D01*
X137758Y20436D01*
X137485Y20232D01*
X136911Y19731D01*
X136609Y19433D01*
Y23567D01*
X136911Y23269D01*
D02*
G37*
G36*
X164552Y13318D02*
X164567Y13146D01*
X164592Y12995D01*
X164627Y12864D01*
X164672Y12752D01*
X164727Y12661D01*
X164792Y12590D01*
X164867Y12539D01*
X164952Y12508D01*
X165047Y12497D01*
X163559Y12509D01*
X163547Y13509D01*
X164547D01*
X164552Y13318D01*
D02*
G37*
G36*
X115399Y37953D02*
Y19223D01*
X115399Y19223D01*
X115484Y18793D01*
X115727Y18429D01*
X120703Y13454D01*
X120703Y13454D01*
X120705Y13453D01*
X120947Y13053D01*
Y10683D01*
X120939Y10681D01*
X120843Y10665D01*
X120715Y10654D01*
X120542Y10649D01*
X120480Y10622D01*
X117465D01*
X110171Y17915D01*
Y32163D01*
X111224D01*
Y35131D01*
X111724D01*
Y35631D01*
X114299D01*
Y37833D01*
X114564Y37943D01*
X114899Y38199D01*
X115399Y37953D01*
D02*
G37*
G36*
X151704Y13025D02*
X151895Y12901D01*
X152114Y12792D01*
X152364Y12698D01*
X152642Y12619D01*
X152949Y12556D01*
X153286Y12507D01*
X154046Y12456D01*
X154471Y12453D01*
X151547Y9529D01*
X151544Y9954D01*
X151493Y10714D01*
X151444Y11051D01*
X151381Y11358D01*
X151302Y11637D01*
X151208Y11885D01*
X151099Y12105D01*
X150975Y12296D01*
X150836Y12457D01*
X151543Y13164D01*
X151704Y13025D01*
D02*
G37*
G36*
X141704D02*
X141895Y12901D01*
X142114Y12792D01*
X142364Y12698D01*
X142642Y12619D01*
X142949Y12556D01*
X143286Y12507D01*
X144046Y12456D01*
X144471Y12453D01*
X141547Y9529D01*
X141544Y9954D01*
X141493Y10714D01*
X141444Y11051D01*
X141381Y11358D01*
X141302Y11637D01*
X141208Y11885D01*
X141099Y12105D01*
X140975Y12296D01*
X140836Y12457D01*
X141543Y13164D01*
X141704Y13025D01*
D02*
G37*
G36*
X131704D02*
X131895Y12901D01*
X132115Y12792D01*
X132363Y12698D01*
X132642Y12619D01*
X132949Y12556D01*
X133285Y12507D01*
X134046Y12456D01*
X134470Y12453D01*
X131547Y9529D01*
X131544Y9954D01*
X131493Y10714D01*
X131444Y11051D01*
X131380Y11358D01*
X131302Y11637D01*
X131208Y11885D01*
X131099Y12105D01*
X130975Y12296D01*
X130836Y12457D01*
X131543Y13164D01*
X131704Y13025D01*
D02*
G37*
G36*
X121571Y8500D02*
X121561Y8595D01*
X121531Y8680D01*
X121480Y8755D01*
X121409Y8820D01*
X121318Y8875D01*
X121207Y8920D01*
X121075Y8955D01*
X120924Y8980D01*
X120752Y8995D01*
X120559Y9000D01*
Y10000D01*
X120752Y10005D01*
X120924Y10020D01*
X121075Y10045D01*
X121207Y10080D01*
X121318Y10125D01*
X121409Y10180D01*
X121480Y10245D01*
X121531Y10320D01*
X121561Y10405D01*
X121571Y10500D01*
Y8500D01*
D02*
G37*
G36*
X51688Y8405D02*
X51718Y8320D01*
X51769Y8245D01*
X51840Y8180D01*
X51931Y8125D01*
X52042Y8080D01*
X52174Y8045D01*
X52326Y8020D01*
X52498Y8005D01*
X52690Y8000D01*
Y7000D01*
X52498Y6995D01*
X52326Y6980D01*
X52174Y6955D01*
X52042Y6920D01*
X51931Y6875D01*
X51840Y6820D01*
X51769Y6755D01*
X51718Y6680D01*
X51688Y6595D01*
X51678Y6500D01*
Y8500D01*
X51688Y8405D01*
D02*
G37*
%LPC*%
G36*
X153245Y151063D02*
Y148098D01*
X156209D01*
X156155Y148512D01*
X155802Y149364D01*
X155241Y150095D01*
X154510Y150656D01*
X153658Y151008D01*
X153245Y151063D01*
D02*
G37*
G36*
X152245D02*
X151831Y151008D01*
X150979Y150656D01*
X150248Y150095D01*
X149687Y149364D01*
X149335Y148512D01*
X149280Y148098D01*
X152245D01*
Y151063D01*
D02*
G37*
G36*
X156209Y147098D02*
X153245D01*
Y144134D01*
X153658Y144188D01*
X154510Y144541D01*
X155241Y145102D01*
X155802Y145833D01*
X156155Y146685D01*
X156209Y147098D01*
D02*
G37*
G36*
X152245D02*
X149280D01*
X149335Y146685D01*
X149687Y145833D01*
X150248Y145102D01*
X150979Y144541D01*
X151831Y144188D01*
X152245Y144134D01*
Y147098D01*
D02*
G37*
G36*
X142000Y141464D02*
Y138500D01*
X144964D01*
X144910Y138914D01*
X144557Y139765D01*
X143996Y140496D01*
X143265Y141057D01*
X142414Y141410D01*
X142000Y141464D01*
D02*
G37*
G36*
X141000D02*
X140586Y141410D01*
X139735Y141057D01*
X139004Y140496D01*
X138443Y139765D01*
X138090Y138914D01*
X138036Y138500D01*
X141000D01*
Y141464D01*
D02*
G37*
G36*
X122000Y140464D02*
Y137500D01*
X124964D01*
X124910Y137914D01*
X124557Y138765D01*
X123996Y139496D01*
X123265Y140057D01*
X122414Y140410D01*
X122000Y140464D01*
D02*
G37*
G36*
X121000D02*
X120586Y140410D01*
X119735Y140057D01*
X119004Y139496D01*
X118443Y138765D01*
X118090Y137914D01*
X118036Y137500D01*
X121000D01*
Y140464D01*
D02*
G37*
G36*
X144964Y137500D02*
X142000D01*
Y134536D01*
X142414Y134590D01*
X143265Y134943D01*
X143996Y135504D01*
X144557Y136235D01*
X144910Y137086D01*
X144964Y137500D01*
D02*
G37*
G36*
X141000D02*
X138036D01*
X138090Y137086D01*
X138443Y136235D01*
X139004Y135504D01*
X139735Y134943D01*
X140586Y134590D01*
X141000Y134536D01*
Y137500D01*
D02*
G37*
G36*
X124964Y136500D02*
X122000D01*
Y133536D01*
X122414Y133590D01*
X123265Y133943D01*
X123996Y134504D01*
X124557Y135235D01*
X124910Y136086D01*
X124964Y136500D01*
D02*
G37*
G36*
X121000D02*
X118036D01*
X118090Y136086D01*
X118443Y135235D01*
X119004Y134504D01*
X119735Y133943D01*
X120586Y133590D01*
X121000Y133536D01*
Y136500D01*
D02*
G37*
G36*
X134761Y139340D02*
X128443D01*
Y130660D01*
X134761D01*
Y139340D01*
D02*
G37*
G36*
X133742Y88500D02*
X131860D01*
Y88239D01*
X131838Y88289D01*
X131803Y88333D01*
X131756Y88372D01*
X131697Y88406D01*
X131626Y88435D01*
X131543Y88458D01*
X131448Y88477D01*
X131340Y88490D01*
X131221Y88497D01*
X131089Y88500D01*
X130777D01*
X130832Y88086D01*
X131184Y87235D01*
X131746Y86504D01*
X132477Y85943D01*
X133328Y85590D01*
X133742Y85536D01*
Y88500D01*
D02*
G37*
G36*
X136484Y73614D02*
X136071Y73559D01*
X135219Y73207D01*
X134488Y72646D01*
X133927Y71915D01*
X133574Y71063D01*
X133520Y70650D01*
X136484D01*
Y73614D01*
D02*
G37*
G36*
X139030Y69650D02*
X137484D01*
Y66685D01*
X137898Y66740D01*
X138749Y67092D01*
X139480Y67653D01*
X140041Y68384D01*
X140243Y68872D01*
X140083Y68858D01*
X139871Y68824D01*
X139665Y68777D01*
X139466Y68717D01*
X139274Y68644D01*
X139087Y68557D01*
X138908Y68457D01*
X138735Y68343D01*
X138569Y68216D01*
X139030Y69650D01*
D02*
G37*
G36*
X136484D02*
X133520D01*
X133574Y69236D01*
X133927Y68384D01*
X134488Y67653D01*
X135219Y67092D01*
X136071Y66740D01*
X136484Y66685D01*
Y69650D01*
D02*
G37*
G36*
X158021Y55925D02*
X155553D01*
Y53850D01*
X158021D01*
Y55925D01*
D02*
G37*
G36*
X154553D02*
X152084D01*
Y53850D01*
X153163D01*
X153153Y53895D01*
X153096Y54029D01*
X153011Y54178D01*
X152898Y54340D01*
X152757Y54517D01*
X152389Y54913D01*
X153096Y55620D01*
X153301Y55422D01*
X153669Y55111D01*
X153832Y54998D01*
X153980Y54913D01*
X154114Y54857D01*
X154235Y54828D01*
X154341D01*
X154433Y54857D01*
X154510Y54913D01*
X153448Y53850D01*
X154553D01*
Y55925D01*
D02*
G37*
G36*
X158021Y52850D02*
X155553D01*
Y50776D01*
X158021D01*
Y52850D01*
D02*
G37*
G36*
X154553D02*
X152084D01*
Y50776D01*
X154553D01*
Y52850D01*
D02*
G37*
G36*
X144500Y42227D02*
Y39263D01*
X147464D01*
X147410Y39676D01*
X147057Y40528D01*
X146496Y41259D01*
X145765Y41820D01*
X144914Y42173D01*
X144500Y42227D01*
D02*
G37*
G36*
X143500D02*
X143086Y42173D01*
X142235Y41820D01*
X141504Y41259D01*
X140943Y40528D01*
X140590Y39676D01*
X140536Y39263D01*
X143500D01*
Y42227D01*
D02*
G37*
G36*
X125000Y25421D02*
Y24888D01*
X125020Y24864D01*
X125240Y24641D01*
X125494Y24419D01*
X125782Y24199D01*
X126104Y23979D01*
X125000Y23754D01*
Y22000D01*
X126609D01*
Y23567D01*
X126911Y23269D01*
X127485Y22768D01*
X127758Y22564D01*
X128020Y22392D01*
X128272Y22251D01*
X128395Y22195D01*
X128351Y22532D01*
X127953Y23493D01*
X127319Y24319D01*
X126493Y24953D01*
X125532Y25351D01*
X125000Y25421D01*
D02*
G37*
G36*
X114299Y34631D02*
X112224D01*
Y32163D01*
X114299D01*
Y34631D01*
D02*
G37*
%LPD*%
G36*
X10552Y152138D02*
X10155Y151726D01*
X9530Y150990D01*
X9302Y150664D01*
X9132Y150367D01*
X9017Y150098D01*
X8959Y149858D01*
X8958Y149647D01*
X9014Y149464D01*
X9126Y149309D01*
X6309Y152126D01*
X6464Y152014D01*
X6647Y151958D01*
X6858Y151960D01*
X7098Y152017D01*
X7367Y152132D01*
X7664Y152303D01*
X7990Y152530D01*
X8344Y152814D01*
X9138Y153552D01*
X10552Y152138D01*
D02*
G37*
G36*
X7907Y145842D02*
X7738Y145782D01*
X7591Y145683D01*
X7465Y145543D01*
X7361Y145363D01*
X7277Y145143D01*
X7215Y144883D01*
X7174Y144583D01*
X7155Y144243D01*
X7156Y143863D01*
X6196D01*
X7158Y143795D01*
X7178Y143513D01*
X7220Y143235D01*
X7283Y142959D01*
X7369Y142685D01*
X7477Y142415D01*
X7607Y142146D01*
X7759Y141881D01*
X7934Y141618D01*
X8130Y141357D01*
X8348Y141099D01*
X3949Y141390D01*
X4185Y141608D01*
X4396Y141835D01*
X4581Y142069D01*
X4741Y142312D01*
X4874Y142563D01*
X4982Y142822D01*
X5063Y143089D01*
X5119Y143364D01*
X5149Y143647D01*
X5153Y143910D01*
X5134Y144243D01*
X5093Y144583D01*
X5034Y144883D01*
X4956Y145143D01*
X4860Y145363D01*
X4744Y145543D01*
X4610Y145683D01*
X4457Y145782D01*
X4285Y145842D01*
X4094Y145862D01*
X8096D01*
X7907Y145842D01*
D02*
G37*
G36*
X38605Y143024D02*
X38510Y142964D01*
X38425Y142864D01*
X38352Y142724D01*
X38290Y142543D01*
X38240Y142324D01*
X38200Y142063D01*
X38172Y141763D01*
X38150Y141043D01*
X36150D01*
X36144Y141423D01*
X36099Y142063D01*
X36060Y142324D01*
X36009Y142543D01*
X35947Y142724D01*
X35874Y142864D01*
X35789Y142964D01*
X35694Y143024D01*
X35587Y143043D01*
X38712D01*
X38605Y143024D01*
D02*
G37*
G36*
X38155Y140577D02*
X38200Y139936D01*
X38240Y139676D01*
X38290Y139456D01*
X38352Y139277D01*
X38425Y139137D01*
X38510Y139037D01*
X38605Y138977D01*
X38712Y138956D01*
X35587D01*
X35694Y138977D01*
X35789Y139037D01*
X35874Y139137D01*
X35947Y139277D01*
X36009Y139456D01*
X36060Y139676D01*
X36099Y139936D01*
X36127Y140236D01*
X36150Y140956D01*
X38150D01*
X38155Y140577D01*
D02*
G37*
G36*
X69423Y138505D02*
X70160Y137880D01*
X70486Y137653D01*
X70783Y137482D01*
X71051Y137368D01*
X71291Y137310D01*
X71503Y137309D01*
X71686Y137364D01*
X71840Y137476D01*
X69024Y134660D01*
X69136Y134814D01*
X69191Y134997D01*
X69190Y135209D01*
X69132Y135449D01*
X69018Y135717D01*
X68847Y136014D01*
X68620Y136340D01*
X68336Y136694D01*
X67598Y137488D01*
X69012Y138902D01*
X69423Y138505D01*
D02*
G37*
G36*
X8269Y136776D02*
X8089Y136504D01*
X7931Y136231D01*
X7795Y135957D01*
X7681Y135681D01*
X7590Y135404D01*
X7521Y135126D01*
X7474Y134847D01*
X7449Y134566D01*
X7446Y134284D01*
X5454Y134020D01*
X5432Y134310D01*
X5385Y134591D01*
X5313Y134862D01*
X5215Y135124D01*
X5092Y135375D01*
X4944Y135618D01*
X4770Y135850D01*
X4571Y136073D01*
X4347Y136287D01*
X4097Y136490D01*
X8471Y137047D01*
X8269Y136776D01*
D02*
G37*
G36*
X38589Y137717D02*
X38533Y137534D01*
X38534Y137323D01*
X38592Y137083D01*
X38706Y136814D01*
X38877Y136517D01*
X39105Y136191D01*
X39389Y135837D01*
X40127Y135044D01*
X38712Y133629D01*
X38301Y134027D01*
X37564Y134651D01*
X37239Y134879D01*
X36942Y135049D01*
X36673Y135164D01*
X36433Y135222D01*
X36222Y135223D01*
X36039Y135167D01*
X35884Y135055D01*
X38700Y137872D01*
X38589Y137717D01*
D02*
G37*
G36*
X42723Y131365D02*
X42758Y131554D01*
X42736Y131723D01*
X42657Y131873D01*
X42521Y132002D01*
X42328Y132112D01*
X42078Y132202D01*
X41772Y132271D01*
X41408Y132321D01*
X40987Y132351D01*
X40510Y132361D01*
X41088Y134361D01*
X41445Y134369D01*
X42112Y134437D01*
X42421Y134496D01*
X42714Y134572D01*
X42992Y134665D01*
X43253Y134775D01*
X43499Y134901D01*
X43729Y135045D01*
X43942Y135205D01*
X42723Y131365D01*
D02*
G37*
G36*
X69024Y130500D02*
X69004Y130690D01*
X68944Y130860D01*
X68843Y131010D01*
X68702Y131140D01*
X68521Y131250D01*
X68300Y131340D01*
X68038Y131410D01*
X67736Y131460D01*
X67394Y131490D01*
X67012Y131500D01*
Y133500D01*
X67394Y133510D01*
X67736Y133540D01*
X68038Y133590D01*
X68300Y133660D01*
X68521Y133750D01*
X68702Y133860D01*
X68843Y133990D01*
X68944Y134140D01*
X69004Y134310D01*
X69024Y134500D01*
Y130500D01*
D02*
G37*
G36*
X71810Y127492D02*
X71640Y127432D01*
X71490Y127332D01*
X71360Y127192D01*
X71250Y127012D01*
X71160Y126792D01*
X71090Y126532D01*
X71040Y126232D01*
X71010Y125892D01*
X71000Y125512D01*
X69000D01*
X69012Y127512D01*
X72000D01*
X71810Y127492D01*
D02*
G37*
G36*
X8337Y126849D02*
X8007Y126290D01*
X7872Y126011D01*
X7758Y125732D01*
X7665Y125453D01*
X7593Y125175D01*
X7541Y124897D01*
X7510Y124618D01*
X7500Y124341D01*
X5500Y124001D01*
X5487Y124294D01*
X5447Y124576D01*
X5381Y124847D01*
X5289Y125107D01*
X5170Y125355D01*
X5025Y125592D01*
X4853Y125818D01*
X4655Y126033D01*
X4431Y126237D01*
X4180Y126429D01*
X8534Y127129D01*
X8337Y126849D01*
D02*
G37*
G36*
X68888Y121930D02*
X68717Y121748D01*
X68565Y121564D01*
X68431Y121377D01*
X68314Y121186D01*
X68217Y120993D01*
X68137Y120797D01*
X68075Y120597D01*
X68032Y120395D01*
X68007Y120189D01*
X68000Y119981D01*
X65525Y122456D01*
X65733Y122463D01*
X65939Y122488D01*
X66141Y122531D01*
X66341Y122593D01*
X66537Y122672D01*
X66731Y122770D01*
X66921Y122887D01*
X67108Y123021D01*
X67292Y123173D01*
X67474Y123344D01*
X68888Y121930D01*
D02*
G37*
G36*
X7810Y31342D02*
X7640Y31282D01*
X7490Y31182D01*
X7360Y31042D01*
X7250Y30862D01*
X7160Y30642D01*
X7090Y30382D01*
X7040Y30082D01*
X7010Y29742D01*
X7000Y29371D01*
X7012Y29090D01*
X7048Y28809D01*
X7108Y28532D01*
X7193Y28262D01*
X7301Y27997D01*
X7434Y27736D01*
X7590Y27482D01*
X7771Y27232D01*
X7976Y26988D01*
X8205Y26749D01*
X3795D01*
X4024Y26988D01*
X4229Y27232D01*
X4410Y27482D01*
X4566Y27736D01*
X4699Y27997D01*
X4807Y28262D01*
X4892Y28532D01*
X4952Y28809D01*
X4988Y29090D01*
X5000Y29371D01*
X4990Y29742D01*
X4960Y30082D01*
X4910Y30382D01*
X4840Y30642D01*
X4750Y30862D01*
X4640Y31042D01*
X4510Y31182D01*
X4360Y31282D01*
X4190Y31342D01*
X4000Y31362D01*
X8000D01*
X7810Y31342D01*
D02*
G37*
G36*
X7976Y22012D02*
X7771Y21768D01*
X7590Y21518D01*
X7434Y21264D01*
X7301Y21003D01*
X7193Y20738D01*
X7108Y20468D01*
X7048Y20191D01*
X7012Y19910D01*
X7000Y19624D01*
X5000D01*
X4988Y19910D01*
X4952Y20191D01*
X4892Y20468D01*
X4807Y20738D01*
X4699Y21003D01*
X4566Y21264D01*
X4410Y21518D01*
X4229Y21768D01*
X4024Y22012D01*
X3795Y22251D01*
X8205D01*
X7976Y22012D01*
D02*
G37*
G36*
X7012Y19090D02*
X7048Y18809D01*
X7108Y18532D01*
X7193Y18262D01*
X7301Y17997D01*
X7434Y17736D01*
X7590Y17482D01*
X7771Y17232D01*
X7976Y16988D01*
X8205Y16749D01*
X3795D01*
X4024Y16988D01*
X4229Y17232D01*
X4410Y17482D01*
X4566Y17736D01*
X4699Y17997D01*
X4807Y18262D01*
X4892Y18532D01*
X4952Y18809D01*
X4988Y19090D01*
X5000Y19376D01*
X7000D01*
X7012Y19090D01*
D02*
G37*
G36*
X70778Y21350D02*
X71048Y21154D01*
X71345Y20982D01*
X71667Y20833D01*
X72016Y20708D01*
X72391Y20606D01*
X72791Y20528D01*
X73218Y20474D01*
X73671Y20444D01*
X74150Y20437D01*
X70252Y16539D01*
X70245Y17018D01*
X70215Y17471D01*
X70161Y17898D01*
X70083Y18298D01*
X69981Y18673D01*
X69856Y19021D01*
X69707Y19344D01*
X69535Y19641D01*
X69339Y19911D01*
X69119Y20156D01*
X70533Y21570D01*
X70778Y21350D01*
D02*
G37*
G36*
X70030Y98977D02*
X69953Y98962D01*
X69856Y98919D01*
X69739Y98851D01*
X69602Y98756D01*
X69267Y98485D01*
X68851Y98107D01*
X68519Y97784D01*
X68526Y97744D01*
X68547Y97667D01*
X68573Y97590D01*
X68605Y97514D01*
X68643Y97437D01*
X68687Y97361D01*
X68736Y97285D01*
X68792Y97209D01*
X67208D01*
X67264Y97285D01*
X67313Y97361D01*
X67357Y97437D01*
X67395Y97514D01*
X67427Y97590D01*
X67453Y97667D01*
X67474Y97744D01*
X67488Y97821D01*
X67497Y97899D01*
X67500Y97976D01*
X68000D01*
X67646Y98330D01*
X67902Y98589D01*
X68779Y99578D01*
X68875Y99716D01*
X68943Y99833D01*
X68985Y99929D01*
X69000Y100006D01*
X70030Y98977D01*
D02*
G37*
G36*
X178833Y37136D02*
X178881Y36523D01*
X178925Y36249D01*
X178983Y35996D01*
X179054Y35766D01*
X179139Y35557D01*
X179238Y35370D01*
X179350Y35204D01*
X179476Y35061D01*
X178769Y34354D01*
X178626Y34480D01*
X178460Y34592D01*
X178273Y34691D01*
X178064Y34776D01*
X177834Y34847D01*
X177581Y34905D01*
X177307Y34949D01*
X177012Y34980D01*
X176355Y35000D01*
X178830Y37475D01*
X178833Y37136D01*
D02*
G37*
G36*
X176349Y27003D02*
X176002Y26979D01*
X175377Y26897D01*
X175099Y26840D01*
X174844Y26772D01*
X174612Y26693D01*
X174403Y26604D01*
X174218Y26503D01*
X174055Y26391D01*
X173916Y26269D01*
X173163Y26931D01*
X173292Y27078D01*
X173405Y27245D01*
X173501Y27433D01*
X173582Y27641D01*
X173646Y27870D01*
X173694Y28119D01*
X173726Y28388D01*
X173741Y28678D01*
X173741Y28988D01*
X173724Y29318D01*
X176349Y27003D01*
D02*
G37*
G36*
X180317Y24653D02*
X180333Y24471D01*
X180379Y24256D01*
X180456Y24007D01*
X180563Y23723D01*
X180871Y23056D01*
X181301Y22253D01*
X181855Y21314D01*
X177312Y22458D01*
X177693Y22693D01*
X178034Y22931D01*
X178335Y23170D01*
X178595Y23412D01*
X178816Y23656D01*
X178996Y23902D01*
X179137Y24150D01*
X179237Y24401D01*
X179297Y24653D01*
X179317Y24908D01*
X180317Y24653D01*
D02*
G37*
G36*
X175872Y13411D02*
X176241Y13097D01*
X176404Y12983D01*
X176552Y12897D01*
X176687Y12839D01*
X176806Y12810D01*
X176912Y12809D01*
X177003Y12836D01*
X177080Y12891D01*
X175678Y11489D01*
X175733Y11565D01*
X175760Y11656D01*
X175759Y11762D01*
X175729Y11882D01*
X175672Y12016D01*
X175585Y12165D01*
X175471Y12328D01*
X175329Y12505D01*
X174958Y12903D01*
X175666Y13610D01*
X175872Y13411D01*
D02*
G37*
D13*
X177779Y65516D02*
X178500Y64795D01*
X155320Y68173D02*
X155799Y68652D01*
X152634Y68173D02*
X155320D01*
X159023Y89592D02*
Y96984D01*
X155355Y85924D02*
X159023Y89592D01*
X152668Y85924D02*
X155355D01*
X166637Y97046D02*
X167000Y95973D01*
X166500Y97453D02*
X166637Y97046D01*
Y97046D02*
Y97046D01*
X166500Y91000D02*
Y97000D01*
X155519Y80019D02*
X166500Y91000D01*
X152668Y80019D02*
X155519D01*
X68000Y96598D02*
Y97976D01*
X145500Y82500D02*
Y83411D01*
X149913Y87824D01*
X131089Y89000D02*
X134242D01*
X127176Y92913D02*
X131089Y89000D01*
X143327Y89827D02*
X152634D01*
X141500Y88000D02*
X143327Y89827D01*
X100500Y77650D02*
X108000Y70150D01*
X133047Y110047D02*
X135000Y112000D01*
X133047Y95634D02*
Y110047D01*
X142924Y57174D02*
X148098Y52000D01*
X142924Y57174D02*
Y62331D01*
X140921Y54086D02*
X149007Y46000D01*
X140921Y54086D02*
Y62366D01*
X149007Y46000D02*
X149500D01*
X138953Y48047D02*
X141000Y46000D01*
X138953Y48047D02*
Y62366D01*
X169879Y63621D02*
X178500Y55000D01*
X152745Y70253D02*
X159010D01*
X152634Y70142D02*
X152745Y70253D01*
X159010D02*
X163747Y65516D01*
X155799Y68652D02*
X158347D01*
X163379Y63621D01*
X163747Y65516D02*
X177779D01*
X163617Y75221D02*
X168901D01*
X162474Y74079D02*
X163617Y75221D01*
X152634Y74079D02*
X162474D01*
X165068Y79568D02*
X166500D01*
X161547Y76047D02*
X165068Y79568D01*
X152634Y76047D02*
X161547D01*
X144893Y78016D02*
X152634D01*
Y85890D02*
X152668Y85924D01*
X159023Y96984D02*
X163092Y101053D01*
X182447Y106855D02*
Y127842D01*
X176644Y101053D02*
X182447Y106855D01*
X163092Y101053D02*
X176644D01*
X144893Y98355D02*
X153538Y107000D01*
X144893Y95669D02*
Y98355D01*
X144858Y95634D02*
X144893Y95669D01*
X141000Y112263D02*
Y120000D01*
X135016Y106279D02*
X141000Y112263D01*
X135016Y95634D02*
Y106279D01*
X151454Y102653D02*
X167884D01*
X146910Y98109D02*
X151454Y102653D01*
X153538Y107000D02*
X166500D01*
Y117673D02*
X167453D01*
Y115000D02*
Y117673D01*
X161276Y117000D02*
X166500D01*
X142924Y98649D02*
X161276Y117000D01*
X138953Y100492D02*
X155053Y116592D01*
X138953Y95634D02*
Y100492D01*
X155053Y116592D02*
Y125553D01*
X136984Y105984D02*
X151000Y120000D01*
X136984Y95634D02*
Y105984D01*
X129110Y95634D02*
Y110390D01*
X121000Y118500D02*
X129110Y110390D01*
X121000Y118500D02*
Y120000D01*
X109047Y147319D02*
Y148500D01*
X112100Y87913D02*
Y111556D01*
X95100Y128556D02*
X112100Y111556D01*
X95100Y128556D02*
Y134900D01*
X99118Y141032D02*
X102150Y138000D01*
X109949Y116408D02*
X113700Y112656D01*
X109949Y116408D02*
Y135000D01*
X113700Y88576D02*
Y112656D01*
Y114919D02*
X115300Y113319D01*
Y89238D02*
Y113319D01*
X166500Y69569D02*
X176400D01*
X179679Y89274D02*
X182053Y86900D01*
X175518Y89274D02*
X179679D01*
X174243Y88000D02*
X175518Y89274D01*
X169000Y88000D02*
X174243D01*
X182053Y73543D02*
Y86900D01*
X179679Y71169D02*
X182053Y73543D01*
X178000Y71169D02*
X179679D01*
X176400Y69569D02*
X178000Y71169D01*
X172886Y75221D02*
X178000D01*
X171286Y73621D02*
X172886Y75221D01*
X168901D02*
X178000Y84321D01*
X164279Y73621D02*
X171286D01*
X178000Y84321D02*
Y85221D01*
X163379Y63621D02*
X169879D01*
X160500Y153000D02*
X166500Y147000D01*
X127700Y153000D02*
X160500D01*
X113700Y139000D02*
X127700Y153000D01*
X84123Y7500D02*
X91500Y14877D01*
X51561Y7500D02*
X84123D01*
X91500Y14877D02*
Y20000D01*
X119401Y76082D02*
X123513D01*
X119366Y76047D02*
X119401Y76082D01*
X123513D02*
X127000Y79568D01*
X149829Y91680D02*
X153650Y95500D01*
X140088Y91680D02*
X149829D01*
X137900Y85009D02*
Y89491D01*
X140088Y91680D01*
X137900Y85009D02*
X144893Y78016D01*
X97324Y62000D02*
X107782D01*
X109287Y73064D02*
X115371D01*
X107000Y75350D02*
X109287Y73064D01*
X115371D02*
X115549Y73242D01*
X115549D02*
X115549D01*
X115412Y73378D02*
X115549Y73242D01*
X115412Y73378D02*
Y74779D01*
X116402Y75769D01*
X119088D01*
X119366Y76047D01*
X110500Y66224D02*
X115739Y71464D01*
X116645Y72076D02*
X119332D01*
X116034Y71464D02*
X116645Y72076D01*
X115739Y71464D02*
X116034D01*
X110500Y44507D02*
Y66224D01*
X116521Y19223D02*
Y62260D01*
X118121Y19885D02*
Y62922D01*
X119720Y60719D02*
X122202Y63201D01*
X119720Y20548D02*
Y60719D01*
X117126Y63917D02*
X118121Y62922D01*
X115526Y63254D02*
X116521Y62260D01*
X117126Y63917D02*
Y68173D01*
X122202Y63201D02*
X125090D01*
X115526Y63254D02*
Y67359D01*
X100500Y77650D02*
Y81000D01*
X127176Y92913D02*
Y95599D01*
X127142Y95634D02*
X127176Y95599D01*
X125173Y88827D02*
X136500Y77500D01*
X125173Y88827D02*
Y95634D01*
X130801Y62366D02*
Y63500D01*
X166316Y58500D02*
Y59384D01*
X149913Y87824D02*
X152599D01*
X152634Y87858D01*
X136984Y70150D02*
X137750Y69384D01*
X140526D01*
X144824Y65087D01*
Y62401D02*
Y65087D01*
Y62401D02*
X144858Y62366D01*
X136500Y77500D02*
X146827Y67173D01*
Y62366D02*
Y67173D01*
X133079Y74079D02*
X136500Y77500D01*
X119366Y74079D02*
X133079D01*
X91500Y20000D02*
X98150Y26650D01*
X107000Y75350D02*
Y80707D01*
X111500Y78000D02*
X111508Y78008D01*
X119358D01*
X119366Y78016D01*
X98500Y42500D02*
X101328Y39672D01*
Y39622D02*
Y39672D01*
X49716Y9344D02*
X51561Y7500D01*
X101328Y39622D02*
X105425Y35525D01*
Y35131D02*
Y35525D01*
X107350Y69500D02*
X108000Y70150D01*
X116402Y69864D02*
X116775D01*
X117053Y70142D01*
X119366D01*
X105425Y41000D02*
X105925Y41500D01*
Y45425D01*
X107000Y46500D01*
Y82276D02*
Y82850D01*
X115412Y68874D02*
X116402Y69864D01*
X91097Y119116D02*
X91185Y119204D01*
X90418Y118713D02*
X91185Y119204D01*
X91500Y118713D02*
X105943Y104270D01*
X110500Y87250D02*
X115763Y81987D01*
X106894Y104827D02*
X110500Y101221D01*
Y87250D02*
Y101221D01*
X115763Y81987D02*
X119332D01*
X112100Y87913D02*
X116057Y83956D01*
X119332D01*
X116351Y85924D02*
X119332D01*
X113700Y88576D02*
X116351Y85924D01*
X115300Y89238D02*
X116645Y87893D01*
X119332D01*
Y83956D02*
X119366Y83921D01*
X119332Y85924D02*
X119366Y85890D01*
X119332Y87893D02*
X119366Y87858D01*
X112799Y36206D02*
Y41000D01*
X111724Y35131D02*
X112799Y36206D01*
X115412Y67473D02*
Y68874D01*
Y67473D02*
X115526Y67359D01*
X116521Y19223D02*
X121496Y14247D01*
X118121Y19885D02*
X122159Y15847D01*
X119720Y20548D02*
X122821Y17447D01*
X109050Y43057D02*
X110500Y44507D01*
X109050Y17450D02*
Y43057D01*
Y17450D02*
X117000Y9500D01*
X107000Y46500D02*
X107394D01*
X107000Y89150D02*
X107394D01*
X101850D02*
X107000D01*
X107394D02*
X108468Y88075D01*
Y87019D02*
Y88075D01*
Y87019D02*
X115469Y80019D01*
X119332D01*
X119366Y79984D01*
X113700Y114919D02*
Y139000D01*
X68000Y97976D02*
X70000Y99976D01*
X166500Y69569D02*
X166684Y69753D01*
X144858Y62366D02*
X144893Y62331D01*
Y59645D02*
Y62331D01*
Y59645D02*
X147625Y56914D01*
X151096D01*
X154659Y53350D01*
X155053D01*
X137019Y35114D02*
Y62331D01*
X135016Y34148D02*
Y62366D01*
X136984D02*
X137019Y62331D01*
X166500Y58500D02*
Y59569D01*
X137019Y35114D02*
X137605Y34528D01*
X166316Y59384D02*
X166500Y59569D01*
X135016Y34148D02*
X136395Y32768D01*
X166316Y55116D02*
Y58500D01*
X142890Y62366D02*
X142924Y62331D01*
X176330Y37500D02*
X179817Y34013D01*
Y20386D02*
Y34013D01*
X179000Y19568D02*
X179817Y20386D01*
X173500Y15068D02*
Y26560D01*
X176217Y29278D01*
Y29500D01*
X173500Y15068D02*
X179000Y9568D01*
X152634Y72110D02*
X162768D01*
X164279Y73621D01*
X137605Y34528D02*
X156265D01*
X160500Y38763D01*
Y49300D01*
X164116Y45116D02*
X166245D01*
X162447Y43447D02*
X164116Y45116D01*
X166245D02*
Y49314D01*
X166500Y49569D01*
X162447Y38447D02*
Y43447D01*
X156769Y32768D02*
X162447Y38447D01*
X160500Y49300D02*
X166316Y55116D01*
X136395Y32768D02*
X156769D01*
X133047Y33854D02*
Y62366D01*
Y33854D02*
X135732Y31168D01*
X158100D01*
X166500Y39568D01*
X130801Y33699D02*
Y62366D01*
Y33699D02*
X134932Y29568D01*
X166500D01*
X129110Y32631D02*
Y62366D01*
Y32631D02*
X134242Y27500D01*
X158569D01*
X166500Y19568D01*
X127142Y31689D02*
Y62366D01*
Y31689D02*
X133278Y25553D01*
X157908D01*
X158553Y24908D01*
X177500Y107000D02*
Y115500D01*
X178000Y116000D01*
X179089Y131199D02*
X182447Y127842D01*
X179089Y131199D02*
Y134911D01*
X178000Y136000D02*
X179089Y134911D01*
X158553Y21784D02*
Y24908D01*
Y21784D02*
X164047Y16290D01*
Y12021D02*
Y16290D01*
Y12021D02*
X166500Y9568D01*
X131079Y62366D02*
X131113Y62331D01*
X133047Y62366D02*
X133082Y62331D01*
X146910Y97398D02*
Y98109D01*
X167884Y102653D02*
X173468Y108236D01*
X146827Y97314D02*
X146910Y97398D01*
X146827Y95634D02*
Y97314D01*
X173468Y108236D02*
Y121468D01*
X178000Y126000D01*
X140921Y100197D02*
X166500Y125776D01*
Y127000D01*
X140921Y95634D02*
Y100197D01*
X155053Y125553D02*
X166500Y137000D01*
X152634Y79984D02*
X152668Y80019D01*
X142924Y95669D02*
Y98649D01*
X142890Y95634D02*
X142924Y95669D01*
X167453Y127579D02*
X168626D01*
X167453Y125000D02*
Y127252D01*
X131044Y95669D02*
Y119956D01*
X131000Y120000D02*
X131044Y119956D01*
X95077Y134923D02*
X95100Y134900D01*
X106500Y104827D02*
X106894D01*
X95077Y134923D02*
Y141924D01*
X96677Y143524D01*
Y147425D01*
X97752Y148500D01*
X102150Y138000D02*
X109846D01*
X108701Y136854D02*
X109846Y138000D01*
X131044Y95669D02*
X131079Y95634D01*
X123320Y32500D02*
X123910Y31910D01*
Y22090D02*
Y31910D01*
Y22090D02*
X124500Y21500D01*
X144500D02*
X154500D01*
X134500D02*
X144500D01*
X124500D02*
X134500D01*
X125090Y63201D02*
X125173Y63117D01*
Y62366D02*
Y63117D01*
X122821Y17447D02*
X146553D01*
X154500Y9500D01*
X122159Y15847D02*
X138153D01*
X144500Y9500D01*
X121496Y14247D02*
X129753D01*
X134500Y9500D01*
X119332Y72076D02*
X119366Y72110D01*
X117000Y9500D02*
X124500D01*
X111724Y35131D02*
X112799Y34056D01*
X119401Y83956D02*
X122087D01*
X119366Y83921D02*
X119401Y83956D01*
X91097Y119116D02*
X91500Y118713D01*
X119332Y81987D02*
X119366Y81953D01*
X167453Y117673D02*
X168953D01*
X98150Y35131D02*
X105425D01*
X98150Y26650D02*
Y35131D01*
X87324Y62000D02*
X91884Y57441D01*
X99345D01*
X102966Y53820D01*
X106276D01*
X107350Y52745D01*
Y52351D02*
Y52745D01*
X107782Y62000D02*
X107850Y61932D01*
X75024Y105000D02*
X97000D01*
X102398Y99602D01*
X105425D01*
X106500Y98527D01*
X91500Y99500D02*
X101850Y89150D01*
X97752Y148500D02*
X109047D01*
X49716Y7854D02*
Y9344D01*
X167000Y95973D02*
X168953Y95000D01*
X167701Y147352D02*
X168429Y146624D01*
X167329Y136624D02*
X168079Y135874D01*
X168626Y127579D02*
X168953Y127252D01*
X167575Y147226D02*
X168177Y146624D01*
D18*
X30850Y121000D02*
D03*
X37150D02*
D03*
Y145000D02*
D03*
X30850D02*
D03*
X37000Y129500D02*
D03*
X30701D02*
D03*
X30850Y137000D02*
D03*
X37150D02*
D03*
X111724Y35131D02*
D03*
X105425D02*
D03*
X97752Y139500D02*
D03*
X91453D02*
D03*
X97752Y148500D02*
D03*
X91453D02*
D03*
X83150Y35000D02*
D03*
X76850D02*
D03*
X98150Y35131D02*
D03*
X91850D02*
D03*
D19*
X50000Y142500D02*
D03*
D20*
Y122500D02*
D03*
Y132500D02*
D03*
D21*
X74000Y132500D02*
D03*
D22*
X119366Y89827D02*
D03*
Y87858D02*
D03*
Y85890D02*
D03*
Y83921D02*
D03*
Y81953D02*
D03*
Y79984D02*
D03*
Y78016D02*
D03*
Y76047D02*
D03*
Y74079D02*
D03*
Y72110D02*
D03*
Y70142D02*
D03*
Y68173D02*
D03*
X152634D02*
D03*
Y70142D02*
D03*
Y72110D02*
D03*
Y74079D02*
D03*
Y76047D02*
D03*
Y78016D02*
D03*
Y79984D02*
D03*
Y81953D02*
D03*
Y83921D02*
D03*
Y85890D02*
D03*
Y87858D02*
D03*
Y89827D02*
D03*
D23*
X125173Y62366D02*
D03*
X127142D02*
D03*
X129110D02*
D03*
X131079D02*
D03*
X133047D02*
D03*
X135016D02*
D03*
X136984D02*
D03*
X138953D02*
D03*
X140921D02*
D03*
X142890D02*
D03*
X144858D02*
D03*
X146827D02*
D03*
Y95634D02*
D03*
X144858D02*
D03*
X142890D02*
D03*
X140921D02*
D03*
X138953D02*
D03*
X136984D02*
D03*
X135016D02*
D03*
X133047D02*
D03*
X131079D02*
D03*
X129110D02*
D03*
X127142D02*
D03*
X125173D02*
D03*
D24*
X107000Y82850D02*
D03*
Y89150D02*
D03*
X106500Y104827D02*
D03*
Y98527D02*
D03*
X155053Y53350D02*
D03*
Y59650D02*
D03*
X107350Y69500D02*
D03*
Y63201D02*
D03*
X107394Y52799D02*
D03*
Y46500D02*
D03*
D25*
X91500Y86469D02*
D03*
Y131744D02*
D03*
D26*
X68960Y34868D02*
D03*
D27*
X61960D02*
D03*
D28*
X32000Y42500D02*
D03*
X49716D02*
D03*
Y7854D02*
D03*
D29*
X32000D02*
D03*
D30*
X109949Y147598D02*
D03*
X131602D02*
D03*
Y135000D02*
D03*
X109949D02*
D03*
D56*
X49250Y121750D02*
X54750D01*
X36500Y122500D02*
Y129606D01*
X36575Y121750D02*
X49250D01*
X36000Y120000D02*
Y121175D01*
X36575Y121750D01*
X6000Y35000D02*
X6500D01*
X6000Y90000D02*
X36000Y120000D01*
X6000Y35000D02*
Y90000D01*
X104600Y81198D02*
X105100Y80698D01*
X6303Y139009D02*
X6500Y132500D01*
Y122500D02*
Y132500D01*
X124764Y97488D02*
Y106825D01*
X116000Y115589D02*
X124764Y106825D01*
X80600Y110576D02*
Y128254D01*
X91453Y139106D01*
X20750Y39250D02*
X38000Y22000D01*
X10750Y39250D02*
X20750D01*
X6500Y35000D02*
X10750Y39250D01*
X72033Y30467D02*
X86000Y16500D01*
X73889Y24630D02*
X79726Y18793D01*
Y18184D02*
Y18793D01*
Y18184D02*
X80463Y17447D01*
Y14943D02*
Y17447D01*
X76269Y10750D02*
X80463Y14943D01*
X65500Y119956D02*
X70000Y124456D01*
Y128500D02*
X74000Y132500D01*
X70000Y124456D02*
Y128500D01*
X87324Y72000D02*
X97324D01*
X57860Y33330D02*
X60724Y30467D01*
X57860Y33330D02*
Y59490D01*
X66622Y68252D01*
X60724Y30467D02*
X72033D01*
X102198Y85100D02*
X104600Y82698D01*
X98802Y85100D02*
X102198D01*
X96400Y82698D02*
X98802Y85100D01*
X96400Y72924D02*
Y82698D01*
X104600Y81198D02*
Y82698D01*
X74000Y132500D02*
X76611Y135111D01*
X79500Y43000D02*
Y43588D01*
X87324Y51412D01*
Y52000D01*
X75024Y105000D02*
X80600Y110576D01*
X53400Y30467D02*
Y86328D01*
X54572Y87500D02*
X57524D01*
X66622Y96598D01*
X53400Y86328D02*
X54572Y87500D01*
X53400Y30467D02*
X59237Y24630D01*
X62448Y34868D02*
X78079Y50500D01*
X61960Y34868D02*
X62448D01*
X38000Y22000D02*
X68689D01*
X63752Y19400D02*
X68652Y14500D01*
X36923Y19400D02*
X63752D01*
X59237Y24630D02*
X73889D01*
X49250Y121750D02*
X50000Y122500D01*
X22150Y34173D02*
X36923Y19400D01*
X49250Y122500D02*
X50000D01*
X50000D01*
X36500Y129606D02*
X37000Y129500D01*
X72109Y10750D02*
X76269D01*
X68652Y14207D02*
X72109Y10750D01*
X68652Y14207D02*
Y14500D01*
X16327Y34173D02*
X22150D01*
X16000Y34500D02*
X16327Y34173D01*
X68689Y22000D02*
X74189Y16500D01*
X96400Y72924D02*
X97324Y72000D01*
X67311Y95910D02*
X78500Y84720D01*
X106032Y80707D02*
Y82276D01*
X106516Y82760D01*
X10750Y153750D02*
X39250D01*
X106516Y82760D02*
X106821D01*
X70000Y99976D02*
X75024Y105000D01*
X91453Y139106D02*
Y139500D01*
X147236Y60512D02*
X148098Y59650D01*
X155053D01*
X116000Y123828D02*
X117172Y125000D01*
X116000Y115589D02*
Y123828D01*
X117172Y125000D02*
X148000D01*
X165051Y142051D01*
X172974D01*
X176923Y146000D01*
X178000D01*
X87562Y35131D02*
X91850D01*
X83281D02*
X87562D01*
X83150Y35000D02*
X83281Y35131D01*
X68960Y34868D02*
X69026Y34934D01*
X76784D02*
X76850Y35000D01*
X69026Y34934D02*
X76784D01*
X78500Y50500D02*
Y80824D01*
X78079Y50500D02*
X78500D01*
X66622Y96598D02*
X68000D01*
X91453Y139500D02*
Y148500D01*
X87324Y52000D02*
X97324D01*
X87324D02*
X87562Y51762D01*
Y35131D02*
Y51762D01*
X78500Y80824D02*
Y84720D01*
Y80824D02*
X87324Y72000D01*
X58000Y148500D02*
X74000Y132500D01*
X44500Y148500D02*
X58000D01*
X39250Y153750D02*
X44500Y148500D01*
X20348Y122463D02*
Y124652D01*
Y122463D02*
X22500Y120312D01*
Y119500D02*
Y120312D01*
X16000Y129000D02*
X20348Y124652D01*
X16000Y149000D02*
X39250D01*
X45750Y142500D01*
X50000D01*
X16000Y139000D02*
Y149000D01*
X6000D02*
X10750Y153750D01*
X49139Y133361D02*
X50000Y132500D01*
X40395Y133361D02*
X49139D01*
X37150Y136606D02*
X40395Y133361D01*
X37150Y136606D02*
Y137000D01*
Y145000D01*
X30850Y137000D02*
Y145000D01*
X30600Y144750D02*
X30850Y145000D01*
X16250Y144750D02*
X30600D01*
X54750Y121750D02*
X55500Y122500D01*
X6000Y34500D02*
Y35000D01*
X57699Y132500D02*
X74000D01*
X57699Y132500D02*
X57699Y132500D01*
X6000Y24500D02*
Y34500D01*
Y14500D02*
Y24500D01*
X28146Y7854D02*
X32000D01*
X22150Y13850D02*
X28146Y7854D01*
X16650Y13850D02*
X22150D01*
X16000Y14500D02*
X16650Y13850D01*
X50000Y132500D02*
X57699D01*
X6303Y139009D02*
Y139009D01*
X16000Y24500D02*
Y34500D01*
Y14500D02*
Y24500D01*
X30701Y129500D02*
X30776Y129575D01*
Y136776D01*
X30701Y122000D02*
Y129500D01*
X16000Y129000D02*
Y139000D01*
X6000Y149000D02*
X6303Y139009D01*
D57*
X178000Y85221D02*
D03*
Y75221D02*
D03*
Y65221D02*
D03*
X166500Y107000D02*
D03*
Y117000D02*
D03*
Y127000D02*
D03*
Y137000D02*
D03*
Y147000D02*
D03*
Y19568D02*
D03*
Y29568D02*
D03*
Y39568D02*
D03*
Y49569D02*
D03*
Y59569D02*
D03*
Y69569D02*
D03*
Y79568D02*
D03*
X121000Y120000D02*
D03*
X131000D02*
D03*
X141000D02*
D03*
X154500Y9500D02*
D03*
X144500D02*
D03*
X134500D02*
D03*
X87324Y72000D02*
D03*
X97324D02*
D03*
X87324Y62000D02*
D03*
X97324D02*
D03*
X87324Y52000D02*
D03*
X144500Y21500D02*
D03*
X134500D02*
D03*
X124500D02*
D03*
D58*
X178000Y55221D02*
D03*
X166500Y97000D02*
D03*
Y9568D02*
D03*
X97324Y52000D02*
D03*
D59*
X179000Y19568D02*
D03*
X178000Y126000D02*
D03*
Y136000D02*
D03*
Y146000D02*
D03*
D60*
X179000Y9568D02*
D03*
X178000Y116000D02*
D03*
D61*
X91500Y99500D02*
D03*
Y118713D02*
D03*
X9500Y4500D02*
D03*
X23500Y5000D02*
D03*
X119720Y103500D02*
D03*
X176330Y95000D02*
D03*
X175000Y47000D02*
D03*
X123513Y44507D02*
D03*
X144000Y38763D02*
D03*
X92000Y41000D02*
D03*
X56000Y14247D02*
D03*
X41500Y47000D02*
D03*
X65000Y45000D02*
D03*
X13500Y45500D02*
D03*
X25000Y20920D02*
D03*
X22500Y48000D02*
D03*
X180500Y41500D02*
D03*
X141500Y138000D02*
D03*
X152745Y147598D02*
D03*
X117500Y149500D02*
D03*
X121500Y137000D02*
D03*
X100000Y117500D02*
D03*
X94500Y109500D02*
D03*
X87000Y92500D02*
D03*
Y113000D02*
D03*
X86000Y125000D02*
D03*
X82000Y142051D02*
D03*
X75000Y151500D02*
D03*
X63500Y151000D02*
D03*
X25000Y132000D02*
D03*
X11500Y117500D02*
D03*
X148098Y52000D02*
D03*
X135000Y112000D02*
D03*
X127000Y79568D02*
D03*
X169000Y88000D02*
D03*
X153650Y95500D02*
D03*
X176330Y37500D02*
D03*
X100500Y81000D02*
D03*
X134242Y89000D02*
D03*
X145500Y82500D02*
D03*
X141500Y88000D02*
D03*
X136984Y70150D02*
D03*
X79500Y43000D02*
D03*
X65500Y119956D02*
D03*
X136500Y77500D02*
D03*
X98500Y42500D02*
D03*
X105425Y41000D02*
D03*
X111500Y78000D02*
D03*
X112799Y41000D02*
D03*
X141000Y46000D02*
D03*
X149500D02*
D03*
X176217Y29500D02*
D03*
X177500Y107000D02*
D03*
X123320Y32500D02*
D03*
X22500Y119500D02*
D03*
D62*
X151000Y120000D02*
D03*
X124500Y9500D02*
D03*
X154500Y21500D02*
D03*
D63*
X66622Y68252D02*
D03*
D64*
Y96598D02*
D03*
D65*
X43000Y109000D02*
D03*
Y55850D02*
D03*
D66*
X16000Y14500D02*
D03*
X6000D02*
D03*
X16000Y24500D02*
D03*
X6000D02*
D03*
X16000Y34500D02*
D03*
Y129000D02*
D03*
X6000D02*
D03*
X16000Y139000D02*
D03*
X6000D02*
D03*
X16000Y149000D02*
D03*
D67*
X6000Y34500D02*
D03*
Y149000D02*
D03*
D68*
X74189Y16500D02*
D03*
X97811D02*
D03*
X86000D02*
D03*
M02*
