M48
;Layer_Color=9474304
;FILE_FORMAT=2:5
INCH,LZ
;TYPE=PLATED
T1F00S00C0.02800
T2F00S00C0.03543
T3F00S00C0.04724
T4F00S00C0.06693
T5F00S00C0.10236
%
T01
X0056Y0014247
X0065Y0045
X00795Y0043
X0092Y0041
X00985Y00425
X0105425Y0041
X0112799
X0123513Y0044507
X012332Y00325
X0144Y0038763
X0141Y0046
X01495
X017633Y00375
X0176217Y00295
X01805Y00415
X00135Y00455
X0025Y002092
X00235Y0005
X00095Y00045
X00225Y0048
X00415Y0047
X00225Y01195
X00115Y01175
X0025Y0132
X00655Y0119956
X0086Y0125
X00915Y0118713
X01Y01175
X00945Y01095
X0087Y0113
X00915Y00995
X0087Y00925
X01005Y0081
X01115Y0078
X0127Y0079568
X01365Y00775
X0136984Y007015
X01455Y00825
X01415Y0088
X0134242Y0089
X0135Y0112
X011972Y01035
X01215Y0137
X01175Y01495
X01415Y0138
X0152745Y0147598
X015365Y00955
X0169Y0088
X017633Y0095
X01775Y0107
X0175Y0047
X0148098Y0052
X0082Y0142051
X0075Y01515
X00635Y0151
T02
X01245Y00095
X01345
X01445
X01545
Y00215
X01445
X01345
X01245
X01665Y0019568
Y0009568
X0179
Y0019568
X01665Y0029568
Y0039568
X0016Y00345
Y00245
Y00145
X0006
Y00245
Y00345
Y0129
X0016
Y0139
X0006
Y0149
X0016
X0121Y012
X0131
X0141
X0151
X01665Y0117
Y0107
Y0097
Y0079568
Y0069569
Y0059569
Y0049569
X0178Y0055221
Y0065221
Y0075221
Y0085221
Y0116
Y0126
Y0136
Y0146
X01665Y0147
Y0137
Y0127
X0097324Y0072
X0087324
Y0062
X0097324
Y0052
X0087324
T03
X0074189Y00165
X0086
X0097811
T04
X0043Y005585
Y0109
T05
X0066622Y0068252
Y0096598
M30
