G04*
G04 #@! TF.GenerationSoftware,Altium Limited,Altium Designer,19.0.12 (326)*
G04*
G04 Layer_Color=255*
%FSLAX25Y25*%
%MOIN*%
G70*
G01*
G75*
%ADD57C,0.05906*%
%ADD58R,0.05906X0.05906*%
%ADD59C,0.06693*%
%ADD60R,0.06693X0.06693*%
%ADD61C,0.05000*%
%ADD62R,0.05906X0.05906*%
%ADD63R,0.19685X0.19685*%
%ADD64C,0.19685*%
%ADD65C,0.11024*%
%ADD66C,0.06299*%
%ADD67R,0.06299X0.06299*%
%ADD68C,0.07874*%
D57*
X178000Y85221D02*
D03*
Y75221D02*
D03*
Y65221D02*
D03*
X166500Y107000D02*
D03*
Y117000D02*
D03*
Y127000D02*
D03*
Y137000D02*
D03*
Y147000D02*
D03*
Y19568D02*
D03*
Y29568D02*
D03*
Y39568D02*
D03*
Y49569D02*
D03*
Y59569D02*
D03*
Y69569D02*
D03*
Y79568D02*
D03*
X121000Y120000D02*
D03*
X131000D02*
D03*
X141000D02*
D03*
X154500Y9500D02*
D03*
X144500D02*
D03*
X134500D02*
D03*
X87324Y72000D02*
D03*
X97324D02*
D03*
X87324Y62000D02*
D03*
X97324D02*
D03*
X87324Y52000D02*
D03*
X144500Y21500D02*
D03*
X134500D02*
D03*
X124500D02*
D03*
D58*
X178000Y55221D02*
D03*
X166500Y97000D02*
D03*
Y9568D02*
D03*
X97324Y52000D02*
D03*
D59*
X179000Y19568D02*
D03*
X178000Y126000D02*
D03*
Y136000D02*
D03*
Y146000D02*
D03*
D60*
X179000Y9568D02*
D03*
X178000Y116000D02*
D03*
D61*
X91500Y99500D02*
D03*
Y118713D02*
D03*
D62*
X151000Y120000D02*
D03*
X124500Y9500D02*
D03*
X154500Y21500D02*
D03*
D63*
X66622Y68252D02*
D03*
D64*
Y96598D02*
D03*
D65*
X43000Y109000D02*
D03*
Y55850D02*
D03*
D66*
X16000Y14500D02*
D03*
X6000D02*
D03*
X16000Y24500D02*
D03*
X6000D02*
D03*
X16000Y34500D02*
D03*
Y129000D02*
D03*
X6000D02*
D03*
X16000Y139000D02*
D03*
X6000D02*
D03*
X16000Y149000D02*
D03*
D67*
X6000Y34500D02*
D03*
Y149000D02*
D03*
D68*
X74189Y16500D02*
D03*
X97811D02*
D03*
X86000D02*
D03*
M02*
