G04*
G04 #@! TF.GenerationSoftware,Altium Limited,Altium Designer,19.0.12 (326)*
G04*
G04 Layer_Color=255*
%FSLAX24Y24*%
%MOIN*%
G70*
G01*
G75*
%ADD21R,0.0300X0.0300*%
%ADD22R,0.0300X0.0300*%
%ADD23R,0.0374X0.0354*%
%ADD24R,0.0374X0.0354*%
%ADD25R,0.0236X0.0200*%
%ADD26R,0.0236X0.0669*%
%ADD27R,0.0394X0.1063*%
%ADD28R,0.0669X0.0236*%
%ADD29R,0.1063X0.0394*%
%ADD30R,0.0354X0.0846*%
%ADD31R,0.1280X0.0846*%
%ADD32R,0.0200X0.0236*%
%ADD33R,0.0984X0.0748*%
%ADD34R,0.0394X0.0500*%
%ADD35R,0.0945X0.0669*%
%ADD36R,0.1181X0.1181*%
%ADD37R,0.0598X0.0679*%
%ADD38R,0.0748X0.0728*%
%ADD39R,0.0433X0.0433*%
%ADD40O,0.0236X0.0571*%
%ADD41O,0.0571X0.0236*%
%ADD42R,0.0709X0.0295*%
%ADD43O,0.0118X0.0571*%
%ADD44O,0.0571X0.0118*%
%ADD77C,0.0984*%
%ADD78C,0.0787*%
%ADD79R,0.0591X0.0591*%
%ADD80C,0.0591*%
%ADD81R,0.0591X0.0591*%
%ADD82C,0.1575*%
D21*
X15380Y29070D02*
D03*
X15925Y29069D02*
D03*
X2475Y34121D02*
D03*
X3020Y34120D02*
D03*
X2770Y22920D02*
D03*
X2225Y22921D02*
D03*
X26675Y34169D02*
D03*
X26130Y34170D02*
D03*
X29200Y18981D02*
D03*
X28655Y18981D02*
D03*
X28605Y9221D02*
D03*
X29150Y9220D02*
D03*
D22*
X2599Y9975D02*
D03*
X2600Y10520D02*
D03*
X12357Y9840D02*
D03*
X12356Y9295D02*
D03*
X18587Y9755D02*
D03*
X18587Y9210D02*
D03*
D23*
X10413Y21996D02*
D03*
X9487Y22370D02*
D03*
D24*
X10413Y22744D02*
D03*
D25*
X23950Y24822D02*
D03*
Y24442D02*
D03*
X21500Y24814D02*
D03*
Y24434D02*
D03*
X20709Y24470D02*
D03*
Y24090D02*
D03*
X20950Y21020D02*
D03*
Y21400D02*
D03*
X21550Y18860D02*
D03*
Y18480D02*
D03*
X20950D02*
D03*
Y18860D02*
D03*
X21300Y16660D02*
D03*
Y16280D02*
D03*
X19398Y12793D02*
D03*
Y12413D02*
D03*
X10976Y12980D02*
D03*
Y13360D02*
D03*
X11750Y22320D02*
D03*
Y22700D02*
D03*
X11000Y22300D02*
D03*
Y21920D02*
D03*
X10000Y18689D02*
D03*
Y19069D02*
D03*
X10950Y15710D02*
D03*
Y15330D02*
D03*
X9600Y15070D02*
D03*
Y15450D02*
D03*
X9200Y15070D02*
D03*
Y15450D02*
D03*
X8800Y15070D02*
D03*
Y15450D02*
D03*
X8200Y14520D02*
D03*
Y14900D02*
D03*
Y15252D02*
D03*
Y15632D02*
D03*
Y16372D02*
D03*
Y15992D02*
D03*
Y16740D02*
D03*
Y17120D02*
D03*
X16950Y22866D02*
D03*
Y23246D02*
D03*
X20098Y26826D02*
D03*
Y26446D02*
D03*
X17748Y26536D02*
D03*
Y26916D02*
D03*
X5300Y31570D02*
D03*
Y31190D02*
D03*
X3350Y10080D02*
D03*
Y10460D02*
D03*
X18587Y10796D02*
D03*
Y10416D02*
D03*
X12350Y10720D02*
D03*
Y10340D02*
D03*
X10400Y17925D02*
D03*
Y17545D02*
D03*
Y16045D02*
D03*
Y16425D02*
D03*
X10401Y17175D02*
D03*
Y16795D02*
D03*
X8200Y21200D02*
D03*
Y20820D02*
D03*
Y20091D02*
D03*
Y20471D02*
D03*
X4700Y19960D02*
D03*
Y20340D02*
D03*
Y20690D02*
D03*
Y21070D02*
D03*
X8200Y19709D02*
D03*
Y19329D02*
D03*
X4700Y19590D02*
D03*
Y19210D02*
D03*
Y18879D02*
D03*
Y18499D02*
D03*
X8200Y18981D02*
D03*
Y18601D02*
D03*
X4700Y16270D02*
D03*
Y16650D02*
D03*
X4692Y14533D02*
D03*
Y14153D02*
D03*
X4700Y16982D02*
D03*
Y17362D02*
D03*
X4692Y15252D02*
D03*
Y14872D02*
D03*
D26*
X20792Y32620D02*
D03*
X20300D02*
D03*
X19316D02*
D03*
X19808D02*
D03*
X23642Y32670D02*
D03*
X23150D02*
D03*
D27*
X21520Y33880D02*
D03*
X18587D02*
D03*
X22422Y33930D02*
D03*
X24370D02*
D03*
D28*
X3950Y32254D02*
D03*
Y31762D02*
D03*
Y30778D02*
D03*
Y31270D02*
D03*
X3910Y26092D02*
D03*
Y25600D02*
D03*
Y24615D02*
D03*
Y25107D02*
D03*
X27700Y21454D02*
D03*
Y21946D02*
D03*
Y20962D02*
D03*
Y20470D02*
D03*
Y33096D02*
D03*
Y33589D02*
D03*
Y32604D02*
D03*
Y32112D02*
D03*
Y29216D02*
D03*
Y29708D02*
D03*
Y28724D02*
D03*
Y28231D02*
D03*
Y11520D02*
D03*
Y12012D02*
D03*
Y11028D02*
D03*
Y10536D02*
D03*
Y25335D02*
D03*
Y25827D02*
D03*
Y24843D02*
D03*
Y24351D02*
D03*
D29*
X2690Y32983D02*
D03*
Y30050D02*
D03*
X2650Y26820D02*
D03*
Y23887D02*
D03*
X28960Y22675D02*
D03*
Y19742D02*
D03*
Y34317D02*
D03*
Y31384D02*
D03*
Y30436D02*
D03*
Y27503D02*
D03*
Y12740D02*
D03*
Y9807D02*
D03*
Y26555D02*
D03*
Y23622D02*
D03*
D30*
X10244Y31666D02*
D03*
X11150D02*
D03*
X12056D02*
D03*
D31*
X11150Y33974D02*
D03*
D32*
X10500Y30720D02*
D03*
X10880D02*
D03*
X11650Y30920D02*
D03*
X12030D02*
D03*
X11650Y30420D02*
D03*
X12030D02*
D03*
X12200Y28570D02*
D03*
X11820D02*
D03*
X5670Y26620D02*
D03*
X5290D02*
D03*
X19180Y31870D02*
D03*
X18800D02*
D03*
X13200Y25270D02*
D03*
X13580D02*
D03*
X9710Y28321D02*
D03*
X10090D02*
D03*
X20550Y21870D02*
D03*
X20170D02*
D03*
X12310Y13127D02*
D03*
X12690D02*
D03*
X15060Y13070D02*
D03*
X15440D02*
D03*
X15690Y23622D02*
D03*
X15310D02*
D03*
X16820Y12576D02*
D03*
X17200D02*
D03*
X6900Y26620D02*
D03*
X7280D02*
D03*
X22090Y25222D02*
D03*
X21710D02*
D03*
X23400D02*
D03*
X23780D02*
D03*
X22940D02*
D03*
X22560D02*
D03*
X10047Y21420D02*
D03*
X10427D02*
D03*
X3650Y34120D02*
D03*
X4030D02*
D03*
X4100Y23920D02*
D03*
X4480D02*
D03*
X25500Y34220D02*
D03*
X25120D02*
D03*
X29150Y18470D02*
D03*
X28770D02*
D03*
X27940Y9205D02*
D03*
X27560D02*
D03*
X10352Y14175D02*
D03*
X9972D02*
D03*
X8750Y14170D02*
D03*
X9130D02*
D03*
D33*
X9200Y31816D02*
D03*
Y30470D02*
D03*
D34*
X11579Y29302D02*
D03*
X12299D02*
D03*
D35*
X9500Y17753D02*
D03*
Y16297D02*
D03*
D36*
X8953Y23870D02*
D03*
Y26320D02*
D03*
X11403D02*
D03*
Y23870D02*
D03*
D37*
X8200Y27620D02*
D03*
X9972D02*
D03*
D38*
X7136Y25917D02*
D03*
X5364Y23023D02*
D03*
Y25917D02*
D03*
X7136Y23023D02*
D03*
D39*
X19498Y30181D02*
D03*
X18498Y27161D02*
D03*
Y30181D02*
D03*
X19498Y27161D02*
D03*
D40*
X21900Y22399D02*
D03*
X22400D02*
D03*
X22900D02*
D03*
X23400D02*
D03*
X21900Y24545D02*
D03*
X22400D02*
D03*
X22900D02*
D03*
X23400D02*
D03*
D41*
X7573Y18270D02*
D03*
Y18770D02*
D03*
Y19270D02*
D03*
Y19770D02*
D03*
Y20270D02*
D03*
Y20770D02*
D03*
Y21270D02*
D03*
X5427Y18270D02*
D03*
Y18770D02*
D03*
Y19270D02*
D03*
Y19770D02*
D03*
Y20270D02*
D03*
Y20770D02*
D03*
Y21270D02*
D03*
X7573Y14348D02*
D03*
Y14848D02*
D03*
Y15348D02*
D03*
Y15848D02*
D03*
Y16348D02*
D03*
Y16848D02*
D03*
Y17348D02*
D03*
X5427Y14348D02*
D03*
Y14848D02*
D03*
Y15348D02*
D03*
Y15848D02*
D03*
Y16348D02*
D03*
Y16848D02*
D03*
Y17348D02*
D03*
D42*
X8872Y13505D02*
D03*
X10211D02*
D03*
Y12935D02*
D03*
X8872D02*
D03*
D43*
X12405Y22242D02*
D03*
X12602D02*
D03*
X12799D02*
D03*
X12996D02*
D03*
X13193D02*
D03*
X13389D02*
D03*
X13586D02*
D03*
X13783D02*
D03*
X13980D02*
D03*
X14177D02*
D03*
X14374D02*
D03*
X14570D02*
D03*
X14767D02*
D03*
X14964D02*
D03*
X15161D02*
D03*
X15358D02*
D03*
X15555D02*
D03*
X15752D02*
D03*
X15948D02*
D03*
X16145D02*
D03*
X16342D02*
D03*
X16539D02*
D03*
X16736D02*
D03*
X16933D02*
D03*
X17130D02*
D03*
X17326D02*
D03*
X17523D02*
D03*
X17720D02*
D03*
X17917D02*
D03*
X18114D02*
D03*
X18311D02*
D03*
X18507D02*
D03*
X18704D02*
D03*
X18901D02*
D03*
X19098D02*
D03*
X19295D02*
D03*
Y13798D02*
D03*
X19098D02*
D03*
X18901D02*
D03*
X18704D02*
D03*
X18507D02*
D03*
X18311D02*
D03*
X18114D02*
D03*
X17917D02*
D03*
X17720D02*
D03*
X17523D02*
D03*
X17326D02*
D03*
X17130D02*
D03*
X16933D02*
D03*
X16736D02*
D03*
X16539D02*
D03*
X16342D02*
D03*
X16145D02*
D03*
X15948D02*
D03*
X15752D02*
D03*
X15555D02*
D03*
X15358D02*
D03*
X15161D02*
D03*
X14964D02*
D03*
X14767D02*
D03*
X14570D02*
D03*
X14374D02*
D03*
X14177D02*
D03*
X13980D02*
D03*
X13783D02*
D03*
X13586D02*
D03*
X13389D02*
D03*
X13193D02*
D03*
X12996D02*
D03*
X12799D02*
D03*
X12602D02*
D03*
X12405D02*
D03*
D44*
X20072Y21465D02*
D03*
Y21268D02*
D03*
Y21071D02*
D03*
Y20874D02*
D03*
Y20677D02*
D03*
Y20481D02*
D03*
Y20284D02*
D03*
Y20087D02*
D03*
Y19890D02*
D03*
Y19693D02*
D03*
Y19496D02*
D03*
Y19300D02*
D03*
Y19103D02*
D03*
Y18906D02*
D03*
Y18709D02*
D03*
Y18512D02*
D03*
Y18315D02*
D03*
Y18118D02*
D03*
Y17922D02*
D03*
Y17725D02*
D03*
Y17528D02*
D03*
Y17331D02*
D03*
Y17134D02*
D03*
Y16937D02*
D03*
Y16740D02*
D03*
Y16544D02*
D03*
Y16347D02*
D03*
Y16150D02*
D03*
Y15953D02*
D03*
Y15756D02*
D03*
Y15559D02*
D03*
Y15363D02*
D03*
Y15166D02*
D03*
Y14969D02*
D03*
Y14772D02*
D03*
Y14575D02*
D03*
X11628D02*
D03*
Y14772D02*
D03*
Y14969D02*
D03*
Y15166D02*
D03*
Y15363D02*
D03*
Y15559D02*
D03*
Y15756D02*
D03*
Y15953D02*
D03*
Y16150D02*
D03*
Y16347D02*
D03*
Y16544D02*
D03*
Y16740D02*
D03*
Y16937D02*
D03*
Y17134D02*
D03*
Y17331D02*
D03*
Y17528D02*
D03*
Y17725D02*
D03*
Y17922D02*
D03*
Y18118D02*
D03*
Y18315D02*
D03*
Y18512D02*
D03*
Y18709D02*
D03*
Y18906D02*
D03*
Y19103D02*
D03*
Y19300D02*
D03*
Y19496D02*
D03*
Y19693D02*
D03*
Y19890D02*
D03*
Y20087D02*
D03*
Y20284D02*
D03*
Y20481D02*
D03*
Y20677D02*
D03*
Y20874D02*
D03*
Y21071D02*
D03*
Y21268D02*
D03*
Y21465D02*
D03*
D77*
X16564Y30182D02*
D03*
X14596D02*
D03*
D78*
X17795Y33289D02*
D03*
X13464D02*
D03*
D79*
X26300Y14620D02*
D03*
X25300D02*
D03*
X24300D02*
D03*
X2550Y14220D02*
D03*
X3550Y21220D02*
D03*
D80*
X26300Y15620D02*
D03*
Y16620D02*
D03*
Y17620D02*
D03*
Y18620D02*
D03*
Y19620D02*
D03*
Y20620D02*
D03*
Y21620D02*
D03*
X25300Y15620D02*
D03*
Y16620D02*
D03*
Y17620D02*
D03*
Y18620D02*
D03*
Y19620D02*
D03*
Y20620D02*
D03*
Y21620D02*
D03*
X24300D02*
D03*
Y20620D02*
D03*
Y19620D02*
D03*
Y18620D02*
D03*
Y17620D02*
D03*
Y16620D02*
D03*
Y15620D02*
D03*
X14750Y24620D02*
D03*
X13750D02*
D03*
X15750D02*
D03*
X16750D02*
D03*
X17750D02*
D03*
X18750D02*
D03*
X2550Y21220D02*
D03*
Y20220D02*
D03*
Y19220D02*
D03*
Y18220D02*
D03*
Y17220D02*
D03*
Y16220D02*
D03*
Y15220D02*
D03*
X5710Y10120D02*
D03*
X6710D02*
D03*
X7710D02*
D03*
X8710D02*
D03*
X9710D02*
D03*
X20300Y10620D02*
D03*
X21300Y9620D02*
D03*
Y10620D02*
D03*
X22300Y9620D02*
D03*
Y10620D02*
D03*
X23300Y9620D02*
D03*
Y10620D02*
D03*
X3550Y14220D02*
D03*
Y15220D02*
D03*
Y16220D02*
D03*
Y17220D02*
D03*
Y18220D02*
D03*
Y19220D02*
D03*
Y20220D02*
D03*
X13600Y10620D02*
D03*
X14600Y9620D02*
D03*
Y10620D02*
D03*
X15600Y9620D02*
D03*
Y10620D02*
D03*
X16600Y9620D02*
D03*
Y10620D02*
D03*
X17600Y9620D02*
D03*
Y10620D02*
D03*
D81*
X12750Y24620D02*
D03*
X10710Y10120D02*
D03*
X20300Y9620D02*
D03*
X13600D02*
D03*
D82*
X31490Y10D02*
D03*
X0Y0D02*
D03*
X31490Y39370D02*
D03*
X0D02*
D03*
M02*
