G04*
G04 #@! TF.GenerationSoftware,Altium Limited,Altium Designer,19.0.12 (326)*
G04*
G04 Layer_Color=65535*
%FSLAX24Y24*%
%MOIN*%
G70*
G01*
G75*
%ADD10C,0.0098*%
%ADD11C,0.0100*%
%ADD12C,0.0236*%
%ADD13C,0.0060*%
%ADD14C,0.0040*%
%ADD15C,0.0079*%
%ADD16C,0.0039*%
%ADD17C,0.0080*%
%ADD18C,0.0010*%
%ADD19C,0.0050*%
%ADD20C,0.0030*%
D10*
X10469Y23081D02*
G03*
X10469Y23081I-49J0D01*
G01*
X9900Y31666D02*
G03*
X9900Y31666I-49J0D01*
G01*
X21615Y22399D02*
G03*
X21615Y22399I-49J0D01*
G01*
X5476Y21605D02*
G03*
X5476Y21605I-49J0D01*
G01*
Y17683D02*
G03*
X5476Y17683I-49J0D01*
G01*
X11677Y21740D02*
G03*
X11677Y21740I-49J0D01*
G01*
D11*
X17106Y34940D02*
G03*
X17106Y34940I-206J0D01*
G01*
X8980Y29800D02*
X9420D01*
X9200Y29590D02*
Y29980D01*
X23880Y22330D02*
Y22930D01*
X24180D01*
X24280Y22830D01*
Y22630D01*
X24180Y22530D01*
X23880D01*
X25080Y22630D02*
X25479D01*
X26279D02*
X26679D01*
X26479Y22830D02*
Y22430D01*
X20540Y29060D02*
Y28460D01*
X20840D01*
X20940Y28560D01*
Y28660D01*
X20840Y28760D01*
X20540D01*
X20840D01*
X20940Y28860D01*
Y28960D01*
X20840Y29060D01*
X20540D01*
X21440D02*
X21240D01*
X21140Y28960D01*
Y28560D01*
X21240Y28460D01*
X21440D01*
X21540Y28560D01*
Y28960D01*
X21440Y29060D01*
X22040D02*
X21840D01*
X21740Y28960D01*
Y28560D01*
X21840Y28460D01*
X22040D01*
X22139Y28560D01*
Y28960D01*
X22040Y29060D01*
X22339D02*
X22739D01*
X22539D01*
Y28460D01*
X14890Y26930D02*
X14690D01*
X14590Y26830D01*
Y26430D01*
X14690Y26330D01*
X14890D01*
X14990Y26430D01*
Y26830D01*
X14890Y26930D01*
X15190D02*
Y26330D01*
X15590D01*
X16189Y26930D02*
X15790D01*
Y26330D01*
X16189D01*
X15790Y26630D02*
X15990D01*
X16389Y26930D02*
Y26330D01*
X16689D01*
X16789Y26430D01*
Y26830D01*
X16689Y26930D01*
X16389D01*
X14279Y27890D02*
Y28490D01*
X14579D01*
X14679Y28390D01*
Y28190D01*
X14579Y28090D01*
X14279D01*
X15179Y28490D02*
X14979D01*
X14879Y28390D01*
Y27990D01*
X14979Y27890D01*
X15179D01*
X15279Y27990D01*
Y28390D01*
X15179Y28490D01*
X15479D02*
Y27890D01*
X15679Y28090D01*
X15879Y27890D01*
Y28490D01*
X16479D02*
X16079D01*
Y27890D01*
X16479D01*
X16079Y28190D02*
X16279D01*
X16679Y27890D02*
Y28490D01*
X16978D01*
X17078Y28390D01*
Y28190D01*
X16978Y28090D01*
X16679D01*
X16878D02*
X17078Y27890D01*
X5270Y27080D02*
Y27680D01*
X5570D01*
X5670Y27580D01*
Y27380D01*
X5570Y27280D01*
X5270D01*
X5470D02*
X5670Y27080D01*
X6270Y27580D02*
X6170Y27680D01*
X5970D01*
X5870Y27580D01*
Y27480D01*
X5970Y27380D01*
X6170D01*
X6270Y27280D01*
Y27180D01*
X6170Y27080D01*
X5970D01*
X5870Y27180D01*
X6470Y27680D02*
X6869D01*
X6670D01*
Y27080D01*
X17650Y34220D02*
X18050D01*
X13150Y34200D02*
X13550D01*
X13350Y34400D02*
Y34000D01*
D12*
X22217Y23236D02*
G03*
X22217Y23236I-118J0D01*
G01*
X6382Y21109D02*
G03*
X6382Y21109I-118J0D01*
G01*
Y17187D02*
G03*
X6382Y17187I-118J0D01*
G01*
X12582Y21406D02*
G03*
X12582Y21406I-118J0D01*
G01*
D13*
X15770Y28869D02*
X16130D01*
Y29269D01*
X15770D02*
X16130D01*
X15170D02*
X15530D01*
X15170Y28869D02*
Y29269D01*
Y28869D02*
X15530D01*
X2870Y34321D02*
X3230D01*
Y33921D02*
Y34321D01*
X2870Y33921D02*
X3230D01*
X2270D02*
X2630D01*
X2270D02*
Y34321D01*
X2630D01*
X2020Y23121D02*
X2380D01*
X2020Y22721D02*
Y23121D01*
Y22721D02*
X2380D01*
X2620D02*
X2980D01*
Y23121D01*
X2620D02*
X2980D01*
X2399Y10370D02*
Y10730D01*
X2799D01*
Y10370D02*
Y10730D01*
Y9770D02*
Y10130D01*
X2399Y9770D02*
X2799D01*
X2399D02*
Y10130D01*
X12156Y9090D02*
Y9450D01*
Y9090D02*
X12556D01*
Y9450D01*
Y9690D02*
Y10050D01*
X12156D02*
X12556D01*
X12156Y9690D02*
Y10050D01*
X25920Y33969D02*
X26280D01*
X25920D02*
Y34369D01*
X26280D01*
X26520D02*
X26880D01*
Y33969D02*
Y34369D01*
X26520Y33969D02*
X26880D01*
X28450Y19181D02*
X28810D01*
X28450Y18781D02*
Y19181D01*
Y18781D02*
X28810D01*
X29050D02*
X29410D01*
Y19181D01*
X29050D02*
X29410D01*
X29000Y9421D02*
X29360D01*
Y9021D02*
Y9421D01*
X29000Y9021D02*
X29360D01*
X28400D02*
X28760D01*
X28400D02*
Y9421D01*
X28760D01*
X18387Y9005D02*
Y9365D01*
Y9005D02*
X18787D01*
Y9365D01*
Y9605D02*
Y9965D01*
X18387D02*
X18787D01*
X18387Y9605D02*
Y9965D01*
X5690Y10905D02*
X5857D01*
X6190Y10780D02*
Y11030D01*
X6356Y10780D01*
Y11030D01*
X6606Y10988D02*
X6565Y11030D01*
X6481D01*
X6440Y10988D01*
Y10947D01*
X6481Y10905D01*
X6565D01*
X6606Y10863D01*
Y10822D01*
X6565Y10780D01*
X6481D01*
X6440Y10822D01*
X6856Y10988D02*
X6815Y11030D01*
X6731D01*
X6690Y10988D01*
Y10947D01*
X6731Y10905D01*
X6815D01*
X6856Y10863D01*
Y10822D01*
X6815Y10780D01*
X6731D01*
X6690Y10822D01*
X7356Y10988D02*
X7314Y11030D01*
X7231D01*
X7190Y10988D01*
Y10947D01*
X7231Y10905D01*
X7314D01*
X7356Y10863D01*
Y10822D01*
X7314Y10780D01*
X7231D01*
X7190Y10822D01*
X7606Y10988D02*
X7564Y11030D01*
X7481D01*
X7439Y10988D01*
Y10822D01*
X7481Y10780D01*
X7564D01*
X7606Y10822D01*
X7689Y11030D02*
Y10780D01*
Y10863D01*
X7856Y11030D01*
X7731Y10905D01*
X7856Y10780D01*
X8189D02*
Y11030D01*
X8273Y10947D01*
X8356Y11030D01*
Y10780D01*
X8439Y11030D02*
X8522D01*
X8481D01*
Y10780D01*
X8439D01*
X8522D01*
X8814Y10988D02*
X8772Y11030D01*
X8689D01*
X8647Y10988D01*
Y10947D01*
X8689Y10905D01*
X8772D01*
X8814Y10863D01*
Y10822D01*
X8772Y10780D01*
X8689D01*
X8647Y10822D01*
X9022Y11030D02*
X8939D01*
X8897Y10988D01*
Y10822D01*
X8939Y10780D01*
X9022D01*
X9064Y10822D01*
Y10988D01*
X9022Y11030D01*
X9397Y10780D02*
Y11030D01*
X9480Y10947D01*
X9564Y11030D01*
Y10780D01*
X9772Y11030D02*
X9689D01*
X9647Y10988D01*
Y10822D01*
X9689Y10780D01*
X9772D01*
X9814Y10822D01*
Y10988D01*
X9772Y11030D01*
X10064Y10988D02*
X10022Y11030D01*
X9939D01*
X9897Y10988D01*
Y10947D01*
X9939Y10905D01*
X10022D01*
X10064Y10863D01*
Y10822D01*
X10022Y10780D01*
X9939D01*
X9897Y10822D01*
X10147Y11030D02*
X10230D01*
X10189D01*
Y10780D01*
X10147D01*
X10230D01*
X10605Y10905D02*
X10772D01*
X10688Y10988D02*
Y10822D01*
D14*
X15600Y28950D02*
Y29160D01*
X15705Y29055D01*
X15600Y28950D02*
X15705Y29055D01*
X2695Y34135D02*
X2800Y34240D01*
X2695Y34135D02*
X2800Y34030D01*
Y34240D01*
X2550Y22830D02*
Y23040D01*
X2445Y22935D02*
X2550Y22830D01*
X2445Y22935D02*
X2550Y23040D01*
X2480Y10300D02*
X2585Y10195D01*
X2690Y10300D01*
X2480D02*
X2690D01*
X12237Y9620D02*
X12447D01*
X12342Y9515D02*
X12447Y9620D01*
X12237D02*
X12342Y9515D01*
X26350Y34050D02*
X26455Y34155D01*
X26350Y34260D02*
X26455Y34155D01*
X26350Y34050D02*
Y34260D01*
X28980Y18891D02*
Y19101D01*
X28875Y18996D02*
X28980Y18891D01*
X28875Y18996D02*
X28980Y19101D01*
X28825Y9235D02*
X28930Y9340D01*
X28825Y9235D02*
X28930Y9130D01*
Y9340D01*
X18467Y9535D02*
X18677D01*
X18572Y9430D02*
X18677Y9535D01*
X18467D02*
X18572Y9430D01*
X4160Y14327D02*
X4193Y14360D01*
X4260D01*
X4293Y14327D01*
Y14293D01*
X4260Y14260D01*
X4293Y14227D01*
Y14193D01*
X4260Y14160D01*
X4193D01*
X4160Y14193D01*
Y14227D01*
X4193Y14260D01*
X4160Y14293D01*
Y14327D01*
X4193Y14260D02*
X4260D01*
X4180Y15300D02*
X4313D01*
Y15267D01*
X4180Y15133D01*
Y15100D01*
X4303Y16280D02*
X4237Y16247D01*
X4170Y16180D01*
Y16113D01*
X4203Y16080D01*
X4270D01*
X4303Y16113D01*
Y16147D01*
X4270Y16180D01*
X4170D01*
X4313Y17302D02*
X4180D01*
Y17202D01*
X4247Y17235D01*
X4280D01*
X4313Y17202D01*
Y17135D01*
X4280Y17102D01*
X4213D01*
X4180Y17135D01*
X4270Y18080D02*
Y18280D01*
X4170Y18180D01*
X4303D01*
X4160Y19121D02*
X4227D01*
X4193D01*
Y19321D01*
X4160Y19287D01*
X4460Y19321D02*
X4327D01*
Y19221D01*
X4393Y19254D01*
X4427D01*
X4460Y19221D01*
Y19154D01*
X4427Y19121D01*
X4360D01*
X4327Y19154D01*
X4160Y20090D02*
X4227D01*
X4193D01*
Y20290D01*
X4160Y20257D01*
X4427Y20090D02*
Y20290D01*
X4327Y20190D01*
X4460D01*
X4180Y21103D02*
X4213Y21070D01*
X4280D01*
X4313Y21103D01*
Y21237D01*
X4280Y21270D01*
X4213D01*
X4180Y21237D01*
Y21203D01*
X4213Y21170D01*
X4313D01*
X15320Y10020D02*
Y10220D01*
X15420D01*
X15453Y10187D01*
Y10120D01*
X15420Y10087D01*
X15320D01*
X15520Y10020D02*
X15587D01*
X15553D01*
Y10220D01*
X15520Y10187D01*
X15687Y10053D02*
X15720Y10020D01*
X15787D01*
X15820Y10053D01*
Y10187D01*
X15787Y10220D01*
X15720D01*
X15687Y10187D01*
Y10153D01*
X15720Y10120D01*
X15820D01*
X28260Y24990D02*
Y25190D01*
X28360D01*
X28393Y25157D01*
Y25090D01*
X28360Y25057D01*
X28260D01*
X28460Y25023D02*
X28493Y24990D01*
X28560D01*
X28593Y25023D01*
Y25157D01*
X28560Y25190D01*
X28493D01*
X28460Y25157D01*
Y25123D01*
X28493Y25090D01*
X28593D01*
X20110Y33850D02*
Y34050D01*
X20210D01*
X20243Y34017D01*
Y33950D01*
X20210Y33917D01*
X20110D01*
X20443Y34050D02*
X20310D01*
Y33950D01*
X20377Y33983D01*
X20410D01*
X20443Y33950D01*
Y33883D01*
X20410Y33850D01*
X20343D01*
X20310Y33883D01*
X15720Y18120D02*
Y17953D01*
X15753Y17920D01*
X15820D01*
X15853Y17953D01*
Y18120D01*
X15920Y17920D02*
X15987D01*
X15953D01*
Y18120D01*
X15920Y18087D01*
X9210Y13140D02*
Y13340D01*
X9310D01*
X9343Y13307D01*
Y13240D01*
X9310Y13207D01*
X9210D01*
X9277D02*
X9343Y13140D01*
X9543Y13307D02*
X9510Y13340D01*
X9443D01*
X9410Y13307D01*
Y13173D01*
X9443Y13140D01*
X9510D01*
X9543Y13173D01*
Y13240D01*
X9477D01*
X9610Y13340D02*
Y13140D01*
X9710D01*
X9743Y13173D01*
Y13207D01*
X9710Y13240D01*
X9610D01*
X9710D01*
X9743Y13273D01*
Y13307D01*
X9710Y13340D01*
X9610D01*
X9810Y13140D02*
X9876D01*
X9843D01*
Y13340D01*
X9810Y13307D01*
X11090Y12920D02*
X10890D01*
Y13020D01*
X10923Y13053D01*
X10990D01*
X11023Y13020D01*
Y12920D01*
Y12987D02*
X11090Y13053D01*
Y13253D02*
Y13120D01*
X10957Y13253D01*
X10923D01*
X10890Y13220D01*
Y13153D01*
X10923Y13120D01*
X11057Y13320D02*
X11090Y13353D01*
Y13420D01*
X11057Y13453D01*
X10923D01*
X10890Y13420D01*
Y13353D01*
X10923Y13320D01*
X10957D01*
X10990Y13353D01*
Y13453D01*
X8670Y14070D02*
Y14270D01*
X8770D01*
X8803Y14237D01*
Y14170D01*
X8770Y14137D01*
X8670D01*
X8737D02*
X8803Y14070D01*
X9003D02*
X8870D01*
X9003Y14203D01*
Y14237D01*
X8970Y14270D01*
X8903D01*
X8870Y14237D01*
X9070D02*
X9103Y14270D01*
X9170D01*
X9203Y14237D01*
Y14203D01*
X9170Y14170D01*
X9203Y14137D01*
Y14103D01*
X9170Y14070D01*
X9103D01*
X9070Y14103D01*
Y14137D01*
X9103Y14170D01*
X9070Y14203D01*
Y14237D01*
X9103Y14170D02*
X9170D01*
X9900Y14080D02*
Y14280D01*
X10000D01*
X10033Y14247D01*
Y14180D01*
X10000Y14147D01*
X9900D01*
X9967D02*
X10033Y14080D01*
X10233D02*
X10100D01*
X10233Y14213D01*
Y14247D01*
X10200Y14280D01*
X10133D01*
X10100Y14247D01*
X10300Y14280D02*
X10433D01*
Y14247D01*
X10300Y14113D01*
Y14080D01*
X4790Y14810D02*
X4590D01*
Y14910D01*
X4623Y14943D01*
X4690D01*
X4723Y14910D01*
Y14810D01*
Y14877D02*
X4790Y14943D01*
Y15010D02*
Y15077D01*
Y15043D01*
X4590D01*
X4623Y15010D01*
X4757Y15177D02*
X4790Y15210D01*
Y15277D01*
X4757Y15310D01*
X4623D01*
X4590Y15277D01*
Y15210D01*
X4623Y15177D01*
X4657D01*
X4690Y15210D01*
Y15310D01*
X4600Y17420D02*
X4800D01*
Y17320D01*
X4767Y17287D01*
X4700D01*
X4667Y17320D01*
Y17420D01*
Y17353D02*
X4600Y17287D01*
Y17220D02*
Y17153D01*
Y17187D01*
X4800D01*
X4767Y17220D01*
X4800Y17053D02*
Y16920D01*
X4767D01*
X4633Y17053D01*
X4600D01*
X6230Y15990D02*
Y15790D01*
X6363D01*
X6430D02*
Y15990D01*
X6497Y15923D01*
X6563Y15990D01*
Y15790D01*
X6763D02*
X6630D01*
X6763Y15923D01*
Y15957D01*
X6730Y15990D01*
X6663D01*
X6630Y15957D01*
X3380Y17620D02*
Y17820D01*
X3480D01*
X3513Y17787D01*
Y17720D01*
X3480Y17687D01*
X3380D01*
X3713Y17820D02*
X3647Y17787D01*
X3580Y17720D01*
Y17653D01*
X3613Y17620D01*
X3680D01*
X3713Y17653D01*
Y17687D01*
X3680Y17720D01*
X3580D01*
X6270Y19920D02*
Y19720D01*
X6403D01*
X6470D02*
Y19920D01*
X6537Y19853D01*
X6603Y19920D01*
Y19720D01*
X6670D02*
X6737D01*
X6703D01*
Y19920D01*
X6670Y19887D01*
X8310Y14480D02*
X8110D01*
Y14580D01*
X8143Y14613D01*
X8210D01*
X8243Y14580D01*
Y14480D01*
Y14547D02*
X8310Y14613D01*
Y14813D02*
Y14680D01*
X8177Y14813D01*
X8143D01*
X8110Y14780D01*
Y14713D01*
X8143Y14680D01*
X8310Y14880D02*
Y14947D01*
Y14913D01*
X8110D01*
X8143Y14880D01*
X4790Y14080D02*
X4590D01*
Y14180D01*
X4623Y14213D01*
X4690D01*
X4723Y14180D01*
Y14080D01*
Y14147D02*
X4790Y14213D01*
Y14413D02*
Y14280D01*
X4657Y14413D01*
X4623D01*
X4590Y14380D01*
Y14313D01*
X4623Y14280D01*
Y14480D02*
X4590Y14513D01*
Y14580D01*
X4623Y14613D01*
X4757D01*
X4790Y14580D01*
Y14513D01*
X4757Y14480D01*
X4623D01*
X8300Y15190D02*
X8100D01*
Y15290D01*
X8133Y15323D01*
X8200D01*
X8233Y15290D01*
Y15190D01*
Y15257D02*
X8300Y15323D01*
Y15390D02*
Y15457D01*
Y15423D01*
X8100D01*
X8133Y15390D01*
Y15557D02*
X8100Y15590D01*
Y15657D01*
X8133Y15690D01*
X8167D01*
X8200Y15657D01*
X8233Y15690D01*
X8267D01*
X8300Y15657D01*
Y15590D01*
X8267Y15557D01*
X8233D01*
X8200Y15590D01*
X8167Y15557D01*
X8133D01*
X8200Y15590D02*
Y15657D01*
X4600Y16710D02*
X4800D01*
Y16610D01*
X4767Y16577D01*
X4700D01*
X4667Y16610D01*
Y16710D01*
Y16643D02*
X4600Y16577D01*
Y16510D02*
Y16443D01*
Y16477D01*
X4800D01*
X4767Y16510D01*
X4800Y16210D02*
X4767Y16277D01*
X4700Y16343D01*
X4633D01*
X4600Y16310D01*
Y16243D01*
X4633Y16210D01*
X4667D01*
X4700Y16243D01*
Y16343D01*
X8300Y15920D02*
X8100D01*
Y16020D01*
X8133Y16053D01*
X8200D01*
X8233Y16020D01*
Y15920D01*
Y15987D02*
X8300Y16053D01*
Y16120D02*
Y16187D01*
Y16153D01*
X8100D01*
X8133Y16120D01*
X8100Y16420D02*
Y16287D01*
X8200D01*
X8167Y16353D01*
Y16387D01*
X8200Y16420D01*
X8267D01*
X8300Y16387D01*
Y16320D01*
X8267Y16287D01*
X8310Y16670D02*
X8110D01*
Y16770D01*
X8143Y16803D01*
X8210D01*
X8243Y16770D01*
Y16670D01*
Y16737D02*
X8310Y16803D01*
Y16870D02*
Y16937D01*
Y16903D01*
X8110D01*
X8143Y16870D01*
X8310Y17137D02*
X8110D01*
X8210Y17037D01*
Y17170D01*
X8300Y18540D02*
X8100D01*
Y18640D01*
X8133Y18673D01*
X8200D01*
X8233Y18640D01*
Y18540D01*
Y18607D02*
X8300Y18673D01*
Y18740D02*
Y18807D01*
Y18773D01*
X8100D01*
X8133Y18740D01*
Y18907D02*
X8100Y18940D01*
Y19007D01*
X8133Y19040D01*
X8167D01*
X8200Y19007D01*
Y18973D01*
Y19007D01*
X8233Y19040D01*
X8267D01*
X8300Y19007D01*
Y18940D01*
X8267Y18907D01*
X4600Y18940D02*
X4800D01*
Y18840D01*
X4767Y18807D01*
X4700D01*
X4667Y18840D01*
Y18940D01*
Y18873D02*
X4600Y18807D01*
Y18740D02*
Y18673D01*
Y18707D01*
X4800D01*
X4767Y18740D01*
X4600Y18440D02*
Y18573D01*
X4733Y18440D01*
X4767D01*
X4800Y18473D01*
Y18540D01*
X4767Y18573D01*
X4800Y19230D02*
X4600D01*
Y19330D01*
X4633Y19363D01*
X4700D01*
X4733Y19330D01*
Y19230D01*
Y19297D02*
X4800Y19363D01*
X4767Y19430D02*
X4800Y19463D01*
Y19530D01*
X4767Y19563D01*
X4633D01*
X4600Y19530D01*
Y19463D01*
X4633Y19430D01*
X4667D01*
X4700Y19463D01*
Y19563D01*
X8300Y19350D02*
X8100D01*
Y19450D01*
X8133Y19483D01*
X8200D01*
X8233Y19450D01*
Y19350D01*
Y19417D02*
X8300Y19483D01*
X8133Y19550D02*
X8100Y19583D01*
Y19650D01*
X8133Y19683D01*
X8167D01*
X8200Y19650D01*
X8233Y19683D01*
X8267D01*
X8300Y19650D01*
Y19583D01*
X8267Y19550D01*
X8233D01*
X8200Y19583D01*
X8167Y19550D01*
X8133D01*
X8200Y19583D02*
Y19650D01*
X4600Y21050D02*
X4800D01*
Y20950D01*
X4767Y20917D01*
X4700D01*
X4667Y20950D01*
Y21050D01*
Y20983D02*
X4600Y20917D01*
X4800Y20850D02*
Y20717D01*
X4767D01*
X4633Y20850D01*
X4600D01*
X4800Y19980D02*
X4600D01*
Y20080D01*
X4633Y20113D01*
X4700D01*
X4733Y20080D01*
Y19980D01*
Y20047D02*
X4800Y20113D01*
X4600Y20313D02*
X4633Y20247D01*
X4700Y20180D01*
X4767D01*
X4800Y20213D01*
Y20280D01*
X4767Y20313D01*
X4733D01*
X4700Y20280D01*
Y20180D01*
X8300Y20110D02*
X8100D01*
Y20210D01*
X8133Y20243D01*
X8200D01*
X8233Y20210D01*
Y20110D01*
Y20177D02*
X8300Y20243D01*
X8100Y20443D02*
Y20310D01*
X8200D01*
X8167Y20377D01*
Y20410D01*
X8200Y20443D01*
X8267D01*
X8300Y20410D01*
Y20343D01*
X8267Y20310D01*
X8100Y21180D02*
X8300D01*
Y21080D01*
X8267Y21047D01*
X8200D01*
X8167Y21080D01*
Y21180D01*
Y21113D02*
X8100Y21047D01*
Y20880D02*
X8300D01*
X8200Y20980D01*
Y20847D01*
X22250Y23570D02*
X22383D01*
X22317D01*
Y23370D01*
X22583Y23570D02*
X22517D01*
X22550D01*
Y23403D01*
X22517Y23370D01*
X22483D01*
X22450Y23403D01*
X22650Y23370D02*
Y23503D01*
X22717Y23570D01*
X22783Y23503D01*
Y23370D01*
Y23470D01*
X22650D01*
X22850Y23370D02*
X22916D01*
X22883D01*
Y23570D01*
X22850Y23537D01*
X18993Y28737D02*
X18960Y28770D01*
X18893D01*
X18860Y28737D01*
Y28703D01*
X18893Y28670D01*
X18960D01*
X18993Y28637D01*
Y28603D01*
X18960Y28570D01*
X18893D01*
X18860Y28603D01*
X19060Y28570D02*
X19127D01*
X19093D01*
Y28770D01*
X19060Y28737D01*
X9683Y15000D02*
X9483D01*
Y15100D01*
X9517Y15133D01*
X9583D01*
X9617Y15100D01*
Y15000D01*
Y15067D02*
X9683Y15133D01*
X9517Y15200D02*
X9483Y15233D01*
Y15300D01*
X9517Y15333D01*
X9550D01*
X9583Y15300D01*
Y15267D01*
Y15300D01*
X9617Y15333D01*
X9650D01*
X9683Y15300D01*
Y15233D01*
X9650Y15200D01*
X9517Y15400D02*
X9483Y15433D01*
Y15500D01*
X9517Y15533D01*
X9550D01*
X9583Y15500D01*
X9617Y15533D01*
X9650D01*
X9683Y15500D01*
Y15433D01*
X9650Y15400D01*
X9617D01*
X9583Y15433D01*
X9550Y15400D01*
X9517D01*
X9583Y15433D02*
Y15500D01*
X18703Y10370D02*
X18503D01*
Y10470D01*
X18537Y10503D01*
X18603D01*
X18637Y10470D01*
Y10370D01*
Y10437D02*
X18703Y10503D01*
X18537Y10570D02*
X18503Y10603D01*
Y10670D01*
X18537Y10703D01*
X18570D01*
X18603Y10670D01*
Y10637D01*
Y10670D01*
X18637Y10703D01*
X18670D01*
X18703Y10670D01*
Y10603D01*
X18670Y10570D01*
X18503Y10770D02*
Y10903D01*
X18537D01*
X18670Y10770D01*
X18703D01*
X27480Y9110D02*
Y9310D01*
X27580D01*
X27613Y9277D01*
Y9210D01*
X27580Y9177D01*
X27480D01*
X27547D02*
X27613Y9110D01*
X27680Y9277D02*
X27713Y9310D01*
X27780D01*
X27813Y9277D01*
Y9243D01*
X27780Y9210D01*
X27747D01*
X27780D01*
X27813Y9177D01*
Y9143D01*
X27780Y9110D01*
X27713D01*
X27680Y9143D01*
X28013Y9310D02*
X27947Y9277D01*
X27880Y9210D01*
Y9143D01*
X27913Y9110D01*
X27980D01*
X28013Y9143D01*
Y9177D01*
X27980Y9210D01*
X27880D01*
X28690Y18370D02*
Y18570D01*
X28790D01*
X28823Y18537D01*
Y18470D01*
X28790Y18437D01*
X28690D01*
X28757D02*
X28823Y18370D01*
X28890Y18537D02*
X28923Y18570D01*
X28990D01*
X29023Y18537D01*
Y18503D01*
X28990Y18470D01*
X28957D01*
X28990D01*
X29023Y18437D01*
Y18403D01*
X28990Y18370D01*
X28923D01*
X28890Y18403D01*
X29223Y18570D02*
X29090D01*
Y18470D01*
X29157Y18503D01*
X29190D01*
X29223Y18470D01*
Y18403D01*
X29190Y18370D01*
X29123D01*
X29090Y18403D01*
X25040Y34120D02*
Y34320D01*
X25140D01*
X25173Y34287D01*
Y34220D01*
X25140Y34187D01*
X25040D01*
X25107D02*
X25173Y34120D01*
X25240Y34287D02*
X25273Y34320D01*
X25340D01*
X25373Y34287D01*
Y34253D01*
X25340Y34220D01*
X25307D01*
X25340D01*
X25373Y34187D01*
Y34153D01*
X25340Y34120D01*
X25273D01*
X25240Y34153D01*
X25540Y34120D02*
Y34320D01*
X25440Y34220D01*
X25573D01*
X12430Y10260D02*
X12230D01*
Y10360D01*
X12263Y10393D01*
X12330D01*
X12363Y10360D01*
Y10260D01*
Y10327D02*
X12430Y10393D01*
X12263Y10460D02*
X12230Y10493D01*
Y10560D01*
X12263Y10593D01*
X12297D01*
X12330Y10560D01*
Y10527D01*
Y10560D01*
X12363Y10593D01*
X12397D01*
X12430Y10560D01*
Y10493D01*
X12397Y10460D01*
X12263Y10660D02*
X12230Y10693D01*
Y10760D01*
X12263Y10793D01*
X12297D01*
X12330Y10760D01*
Y10727D01*
Y10760D01*
X12363Y10793D01*
X12397D01*
X12430Y10760D01*
Y10693D01*
X12397Y10660D01*
X3430Y10020D02*
X3230D01*
Y10120D01*
X3263Y10153D01*
X3330D01*
X3363Y10120D01*
Y10020D01*
Y10087D02*
X3430Y10153D01*
X3263Y10220D02*
X3230Y10253D01*
Y10320D01*
X3263Y10353D01*
X3297D01*
X3330Y10320D01*
Y10287D01*
Y10320D01*
X3363Y10353D01*
X3397D01*
X3430Y10320D01*
Y10253D01*
X3397Y10220D01*
X3430Y10553D02*
Y10420D01*
X3297Y10553D01*
X3263D01*
X3230Y10520D01*
Y10453D01*
X3263Y10420D01*
X4060Y23820D02*
Y24020D01*
X4160D01*
X4193Y23987D01*
Y23920D01*
X4160Y23887D01*
X4060D01*
X4127D02*
X4193Y23820D01*
X4260Y23987D02*
X4293Y24020D01*
X4360D01*
X4393Y23987D01*
Y23953D01*
X4360Y23920D01*
X4327D01*
X4360D01*
X4393Y23887D01*
Y23853D01*
X4360Y23820D01*
X4293D01*
X4260Y23853D01*
X4460Y23820D02*
X4527D01*
X4493D01*
Y24020D01*
X4460Y23987D01*
X3570Y34020D02*
Y34220D01*
X3670D01*
X3703Y34187D01*
Y34120D01*
X3670Y34087D01*
X3570D01*
X3637D02*
X3703Y34020D01*
X3770Y34187D02*
X3803Y34220D01*
X3870D01*
X3903Y34187D01*
Y34153D01*
X3870Y34120D01*
X3837D01*
X3870D01*
X3903Y34087D01*
Y34053D01*
X3870Y34020D01*
X3803D01*
X3770Y34053D01*
X3970Y34187D02*
X4003Y34220D01*
X4070D01*
X4103Y34187D01*
Y34053D01*
X4070Y34020D01*
X4003D01*
X3970Y34053D01*
Y34187D01*
X9970Y21320D02*
Y21520D01*
X10070D01*
X10103Y21487D01*
Y21420D01*
X10070Y21387D01*
X9970D01*
X10037D02*
X10103Y21320D01*
X10303D02*
X10170D01*
X10303Y21453D01*
Y21487D01*
X10270Y21520D01*
X10203D01*
X10170Y21487D01*
X10503Y21520D02*
X10437Y21487D01*
X10370Y21420D01*
Y21353D01*
X10403Y21320D01*
X10470D01*
X10503Y21353D01*
Y21387D01*
X10470Y21420D01*
X10370D01*
X11080Y21858D02*
X10880D01*
Y21958D01*
X10913Y21991D01*
X10980D01*
X11013Y21958D01*
Y21858D01*
Y21925D02*
X11080Y21991D01*
Y22191D02*
Y22058D01*
X10947Y22191D01*
X10913D01*
X10880Y22158D01*
Y22091D01*
X10913Y22058D01*
X10880Y22391D02*
Y22258D01*
X10980D01*
X10947Y22325D01*
Y22358D01*
X10980Y22391D01*
X11047D01*
X11080Y22358D01*
Y22291D01*
X11047Y22258D01*
X22480Y25120D02*
Y25320D01*
X22580D01*
X22613Y25287D01*
Y25220D01*
X22580Y25187D01*
X22480D01*
X22547D02*
X22613Y25120D01*
X22813D02*
X22680D01*
X22813Y25253D01*
Y25287D01*
X22780Y25320D01*
X22713D01*
X22680Y25287D01*
X22980Y25120D02*
Y25320D01*
X22880Y25220D01*
X23013D01*
X23320Y25120D02*
Y25320D01*
X23420D01*
X23453Y25287D01*
Y25220D01*
X23420Y25187D01*
X23320D01*
X23387D02*
X23453Y25120D01*
X23653D02*
X23520D01*
X23653Y25253D01*
Y25287D01*
X23620Y25320D01*
X23553D01*
X23520Y25287D01*
X23720D02*
X23753Y25320D01*
X23820D01*
X23853Y25287D01*
Y25253D01*
X23820Y25220D01*
X23787D01*
X23820D01*
X23853Y25187D01*
Y25153D01*
X23820Y25120D01*
X23753D01*
X23720Y25153D01*
X21630Y25120D02*
Y25320D01*
X21730D01*
X21763Y25287D01*
Y25220D01*
X21730Y25187D01*
X21630D01*
X21697D02*
X21763Y25120D01*
X21963D02*
X21830D01*
X21963Y25253D01*
Y25287D01*
X21930Y25320D01*
X21863D01*
X21830Y25287D01*
X22163Y25120D02*
X22030D01*
X22163Y25253D01*
Y25287D01*
X22130Y25320D01*
X22063D01*
X22030Y25287D01*
X20200Y26450D02*
X20000D01*
Y26550D01*
X20033Y26583D01*
X20100D01*
X20133Y26550D01*
Y26450D01*
Y26517D02*
X20200Y26583D01*
Y26650D02*
Y26717D01*
Y26683D01*
X20000D01*
X20033Y26650D01*
X20200Y26817D02*
Y26883D01*
Y26850D01*
X20000D01*
X20033Y26817D01*
X17850Y26480D02*
X17650D01*
Y26580D01*
X17683Y26613D01*
X17750D01*
X17783Y26580D01*
Y26480D01*
Y26547D02*
X17850Y26613D01*
Y26680D02*
Y26747D01*
Y26713D01*
X17650D01*
X17683Y26680D01*
Y26847D02*
X17650Y26880D01*
Y26947D01*
X17683Y26980D01*
X17817D01*
X17850Y26947D01*
Y26880D01*
X17817Y26847D01*
X17683D01*
X6920Y26520D02*
Y26720D01*
X7020D01*
X7053Y26687D01*
Y26620D01*
X7020Y26587D01*
X6920D01*
X6987D02*
X7053Y26520D01*
X7120Y26687D02*
X7153Y26720D01*
X7220D01*
X7253Y26687D01*
Y26653D01*
X7220Y26620D01*
X7187D01*
X7220D01*
X7253Y26587D01*
Y26553D01*
X7220Y26520D01*
X7153D01*
X7120Y26553D01*
X9953Y22413D02*
Y22547D01*
X9920Y22580D01*
X9853D01*
X9820Y22547D01*
Y22413D01*
X9853Y22380D01*
X9920D01*
X9887Y22447D02*
X9953Y22380D01*
X9920D02*
X9953Y22413D01*
X10020Y22380D02*
X10087D01*
X10053D01*
Y22580D01*
X10020Y22547D01*
X2470Y25210D02*
Y25410D01*
X2570D01*
X2603Y25377D01*
Y25310D01*
X2570Y25277D01*
X2470D01*
X2670Y25210D02*
X2737D01*
X2703D01*
Y25410D01*
X2670Y25377D01*
X2837D02*
X2870Y25410D01*
X2937D01*
X2970Y25377D01*
Y25343D01*
X2937Y25310D01*
X2970Y25277D01*
Y25243D01*
X2937Y25210D01*
X2870D01*
X2837Y25243D01*
Y25277D01*
X2870Y25310D01*
X2837Y25343D01*
Y25377D01*
X2870Y25310D02*
X2937D01*
X21520Y10020D02*
Y10220D01*
X21620D01*
X21653Y10187D01*
Y10120D01*
X21620Y10087D01*
X21520D01*
X21720Y10020D02*
X21787D01*
X21753D01*
Y10220D01*
X21720Y10187D01*
X21887Y10220D02*
X22020D01*
Y10187D01*
X21887Y10053D01*
Y10020D01*
X7960D02*
Y10220D01*
X8060D01*
X8093Y10187D01*
Y10120D01*
X8060Y10087D01*
X7960D01*
X8160Y10020D02*
X8227D01*
X8193D01*
Y10220D01*
X8160Y10187D01*
X8460Y10220D02*
X8393Y10187D01*
X8327Y10120D01*
Y10053D01*
X8360Y10020D01*
X8427D01*
X8460Y10053D01*
Y10087D01*
X8427Y10120D01*
X8327D01*
X23210Y33840D02*
Y34040D01*
X23310D01*
X23343Y34007D01*
Y33940D01*
X23310Y33907D01*
X23210D01*
X23410Y33840D02*
X23477D01*
X23443D01*
Y34040D01*
X23410Y34007D01*
X23710Y34040D02*
X23577D01*
Y33940D01*
X23643Y33973D01*
X23677D01*
X23710Y33940D01*
Y33873D01*
X23677Y33840D01*
X23610D01*
X23577Y33873D01*
X2620Y31450D02*
Y31650D01*
X2720D01*
X2753Y31617D01*
Y31550D01*
X2720Y31517D01*
X2620D01*
X2820Y31450D02*
X2887D01*
X2853D01*
Y31650D01*
X2820Y31617D01*
X3087Y31450D02*
Y31650D01*
X2987Y31550D01*
X3120D01*
X28180Y11170D02*
Y11370D01*
X28280D01*
X28313Y11337D01*
Y11270D01*
X28280Y11237D01*
X28180D01*
X28380Y11170D02*
X28447D01*
X28413D01*
Y11370D01*
X28380Y11337D01*
X28547D02*
X28580Y11370D01*
X28647D01*
X28680Y11337D01*
Y11303D01*
X28647Y11270D01*
X28613D01*
X28647D01*
X28680Y11237D01*
Y11203D01*
X28647Y11170D01*
X28580D01*
X28547Y11203D01*
X28180Y28870D02*
Y29070D01*
X28280D01*
X28313Y29037D01*
Y28970D01*
X28280Y28937D01*
X28180D01*
X28380Y28870D02*
X28447D01*
X28413D01*
Y29070D01*
X28380Y29037D01*
X28680Y28870D02*
X28547D01*
X28680Y29003D01*
Y29037D01*
X28647Y29070D01*
X28580D01*
X28547Y29037D01*
X28210Y32750D02*
Y32950D01*
X28310D01*
X28343Y32917D01*
Y32850D01*
X28310Y32817D01*
X28210D01*
X28410Y32750D02*
X28477D01*
X28443D01*
Y32950D01*
X28410Y32917D01*
X28577Y32750D02*
X28643D01*
X28610D01*
Y32950D01*
X28577Y32917D01*
X28180Y21110D02*
Y21310D01*
X28280D01*
X28313Y21277D01*
Y21210D01*
X28280Y21177D01*
X28180D01*
X28380Y21110D02*
X28447D01*
X28413D01*
Y21310D01*
X28380Y21277D01*
X28547D02*
X28580Y21310D01*
X28647D01*
X28680Y21277D01*
Y21143D01*
X28647Y21110D01*
X28580D01*
X28547Y21143D01*
Y21277D01*
X2380Y17620D02*
Y17820D01*
X2480D01*
X2513Y17787D01*
Y17720D01*
X2480Y17687D01*
X2380D01*
X2580Y17787D02*
X2613Y17820D01*
X2680D01*
X2713Y17787D01*
Y17753D01*
X2680Y17720D01*
X2713Y17687D01*
Y17653D01*
X2680Y17620D01*
X2613D01*
X2580Y17653D01*
Y17687D01*
X2613Y17720D01*
X2580Y17753D01*
Y17787D01*
X2613Y17720D02*
X2680D01*
X15580Y24520D02*
Y24720D01*
X15680D01*
X15713Y24687D01*
Y24620D01*
X15680Y24587D01*
X15580D01*
X15780Y24720D02*
X15913D01*
Y24687D01*
X15780Y24553D01*
Y24520D01*
X18470Y9070D02*
X18670D01*
Y9203D01*
X18470Y9403D02*
Y9270D01*
X18670D01*
Y9403D01*
X18570Y9270D02*
Y9337D01*
X18470Y9470D02*
X18670D01*
Y9570D01*
X18637Y9603D01*
X18503D01*
X18470Y9570D01*
Y9470D01*
X18637Y9670D02*
X18670Y9703D01*
Y9770D01*
X18637Y9803D01*
X18503D01*
X18470Y9770D01*
Y9703D01*
X18503Y9670D01*
X18537D01*
X18570Y9703D01*
Y9803D01*
X28510Y9320D02*
Y9120D01*
X28643D01*
X28843Y9320D02*
X28710D01*
Y9120D01*
X28843D01*
X28710Y9220D02*
X28777D01*
X28910Y9320D02*
Y9120D01*
X29010D01*
X29043Y9153D01*
Y9287D01*
X29010Y9320D01*
X28910D01*
X29110Y9287D02*
X29143Y9320D01*
X29210D01*
X29243Y9287D01*
Y9253D01*
X29210Y9220D01*
X29243Y9187D01*
Y9153D01*
X29210Y9120D01*
X29143D01*
X29110Y9153D01*
Y9187D01*
X29143Y9220D01*
X29110Y9253D01*
Y9287D01*
X29143Y9220D02*
X29210D01*
X28560Y19080D02*
Y18880D01*
X28693D01*
X28893Y19080D02*
X28760D01*
Y18880D01*
X28893D01*
X28760Y18980D02*
X28827D01*
X28960Y19080D02*
Y18880D01*
X29060D01*
X29093Y18913D01*
Y19047D01*
X29060Y19080D01*
X28960D01*
X29160D02*
X29293D01*
Y19047D01*
X29160Y18913D01*
Y18880D01*
X26030Y34270D02*
Y34070D01*
X26163D01*
X26363Y34270D02*
X26230D01*
Y34070D01*
X26363D01*
X26230Y34170D02*
X26297D01*
X26430Y34270D02*
Y34070D01*
X26530D01*
X26563Y34103D01*
Y34237D01*
X26530Y34270D01*
X26430D01*
X26763D02*
X26696Y34237D01*
X26630Y34170D01*
Y34103D01*
X26663Y34070D01*
X26730D01*
X26763Y34103D01*
Y34137D01*
X26730Y34170D01*
X26630D01*
X12260Y9220D02*
X12460D01*
Y9353D01*
X12260Y9553D02*
Y9420D01*
X12460D01*
Y9553D01*
X12360Y9420D02*
Y9487D01*
X12260Y9620D02*
X12460D01*
Y9720D01*
X12427Y9753D01*
X12293D01*
X12260Y9720D01*
Y9620D01*
Y9953D02*
Y9820D01*
X12360D01*
X12327Y9886D01*
Y9920D01*
X12360Y9953D01*
X12427D01*
X12460Y9920D01*
Y9853D01*
X12427Y9820D01*
X2490Y9920D02*
X2690D01*
Y10053D01*
X2490Y10253D02*
Y10120D01*
X2690D01*
Y10253D01*
X2590Y10120D02*
Y10187D01*
X2490Y10320D02*
X2690D01*
Y10420D01*
X2657Y10453D01*
X2523D01*
X2490Y10420D01*
Y10320D01*
X2690Y10620D02*
X2490D01*
X2590Y10520D01*
Y10653D01*
X2130Y23020D02*
Y22820D01*
X2263D01*
X2463Y23020D02*
X2330D01*
Y22820D01*
X2463D01*
X2330Y22920D02*
X2397D01*
X2530Y23020D02*
Y22820D01*
X2630D01*
X2663Y22853D01*
Y22987D01*
X2630Y23020D01*
X2530D01*
X2730Y22987D02*
X2763Y23020D01*
X2830D01*
X2863Y22987D01*
Y22953D01*
X2830Y22920D01*
X2796D01*
X2830D01*
X2863Y22887D01*
Y22853D01*
X2830Y22820D01*
X2763D01*
X2730Y22853D01*
X2380Y34220D02*
Y34020D01*
X2513D01*
X2713Y34220D02*
X2580D01*
Y34020D01*
X2713D01*
X2580Y34120D02*
X2647D01*
X2780Y34220D02*
Y34020D01*
X2880D01*
X2913Y34053D01*
Y34187D01*
X2880Y34220D01*
X2780D01*
X3113Y34020D02*
X2980D01*
X3113Y34153D01*
Y34187D01*
X3080Y34220D01*
X3013D01*
X2980Y34187D01*
X5920Y24570D02*
Y24370D01*
Y24437D01*
X6053Y24570D01*
X5953Y24470D01*
X6053Y24370D01*
X6253Y24570D02*
X6120D01*
Y24370D01*
X6253D01*
X6120Y24470D02*
X6187D01*
X6320Y24570D02*
Y24537D01*
X6387Y24470D01*
X6453Y24537D01*
Y24570D01*
X6387Y24470D02*
Y24370D01*
X6520D02*
X6586D01*
X6553D01*
Y24570D01*
X6520Y24537D01*
X8950Y27720D02*
Y27520D01*
X9050D01*
X9083Y27553D01*
Y27687D01*
X9050Y27720D01*
X8950D01*
X9150Y27520D02*
X9217D01*
X9183D01*
Y27720D01*
X9150Y27687D01*
X20643Y24143D02*
X20610Y24110D01*
Y24043D01*
X20643Y24010D01*
X20777D01*
X20810Y24043D01*
Y24110D01*
X20777Y24143D01*
X20810Y24343D02*
Y24210D01*
X20677Y24343D01*
X20643D01*
X20610Y24310D01*
Y24243D01*
X20643Y24210D01*
X20777Y24410D02*
X20810Y24443D01*
Y24510D01*
X20777Y24543D01*
X20643D01*
X20610Y24510D01*
Y24443D01*
X20643Y24410D01*
X20677D01*
X20710Y24443D01*
Y24543D01*
X5203Y31253D02*
X5170Y31220D01*
Y31153D01*
X5203Y31120D01*
X5337D01*
X5370Y31153D01*
Y31220D01*
X5337Y31253D01*
X5370Y31453D02*
Y31320D01*
X5237Y31453D01*
X5203D01*
X5170Y31420D01*
Y31353D01*
X5203Y31320D01*
Y31520D02*
X5170Y31553D01*
Y31620D01*
X5203Y31653D01*
X5237D01*
X5270Y31620D01*
X5303Y31653D01*
X5337D01*
X5370Y31620D01*
Y31553D01*
X5337Y31520D01*
X5303D01*
X5270Y31553D01*
X5237Y31520D01*
X5203D01*
X5270Y31553D02*
Y31620D01*
X16883Y22943D02*
X16850Y22910D01*
Y22843D01*
X16883Y22810D01*
X17017D01*
X17050Y22843D01*
Y22910D01*
X17017Y22943D01*
X17050Y23143D02*
Y23010D01*
X16917Y23143D01*
X16883D01*
X16850Y23110D01*
Y23043D01*
X16883Y23010D01*
X16850Y23210D02*
Y23343D01*
X16883D01*
X17017Y23210D01*
X17050D01*
X16873Y12647D02*
X16840Y12680D01*
X16773D01*
X16740Y12647D01*
Y12513D01*
X16773Y12480D01*
X16840D01*
X16873Y12513D01*
X17073Y12480D02*
X16940D01*
X17073Y12613D01*
Y12647D01*
X17040Y12680D01*
X16973D01*
X16940Y12647D01*
X17273Y12680D02*
X17207Y12647D01*
X17140Y12580D01*
Y12513D01*
X17173Y12480D01*
X17240D01*
X17273Y12513D01*
Y12547D01*
X17240Y12580D01*
X17140D01*
X15363Y23687D02*
X15330Y23720D01*
X15263D01*
X15230Y23687D01*
Y23553D01*
X15263Y23520D01*
X15330D01*
X15363Y23553D01*
X15563Y23520D02*
X15430D01*
X15563Y23653D01*
Y23687D01*
X15530Y23720D01*
X15463D01*
X15430Y23687D01*
X15763Y23720D02*
X15630D01*
Y23620D01*
X15697Y23653D01*
X15730D01*
X15763Y23620D01*
Y23553D01*
X15730Y23520D01*
X15663D01*
X15630Y23553D01*
X15113Y13137D02*
X15080Y13170D01*
X15013D01*
X14980Y13137D01*
Y13003D01*
X15013Y12970D01*
X15080D01*
X15113Y13003D01*
X15313Y12970D02*
X15180D01*
X15313Y13103D01*
Y13137D01*
X15280Y13170D01*
X15213D01*
X15180Y13137D01*
X15480Y12970D02*
Y13170D01*
X15380Y13070D01*
X15513D01*
X12363Y13197D02*
X12330Y13230D01*
X12263D01*
X12230Y13197D01*
Y13063D01*
X12263Y13030D01*
X12330D01*
X12363Y13063D01*
X12563Y13030D02*
X12430D01*
X12563Y13163D01*
Y13197D01*
X12530Y13230D01*
X12463D01*
X12430Y13197D01*
X12630D02*
X12663Y13230D01*
X12730D01*
X12763Y13197D01*
Y13163D01*
X12730Y13130D01*
X12697D01*
X12730D01*
X12763Y13097D01*
Y13063D01*
X12730Y13030D01*
X12663D01*
X12630Y13063D01*
X9943Y18763D02*
X9910Y18730D01*
Y18663D01*
X9943Y18630D01*
X10077D01*
X10110Y18663D01*
Y18730D01*
X10077Y18763D01*
X10110Y18963D02*
Y18830D01*
X9977Y18963D01*
X9943D01*
X9910Y18930D01*
Y18863D01*
X9943Y18830D01*
X10110Y19163D02*
Y19030D01*
X9977Y19163D01*
X9943D01*
X9910Y19130D01*
Y19063D01*
X9943Y19030D01*
X20263Y21937D02*
X20230Y21970D01*
X20163D01*
X20130Y21937D01*
Y21803D01*
X20163Y21770D01*
X20230D01*
X20263Y21803D01*
X20463Y21770D02*
X20330D01*
X20463Y21903D01*
Y21937D01*
X20430Y21970D01*
X20363D01*
X20330Y21937D01*
X20530Y21770D02*
X20597D01*
X20563D01*
Y21970D01*
X20530Y21937D01*
X21233Y16343D02*
X21200Y16310D01*
Y16243D01*
X21233Y16210D01*
X21367D01*
X21400Y16243D01*
Y16310D01*
X21367Y16343D01*
X21400Y16543D02*
Y16410D01*
X21267Y16543D01*
X21233D01*
X21200Y16510D01*
Y16443D01*
X21233Y16410D01*
Y16610D02*
X21200Y16643D01*
Y16710D01*
X21233Y16743D01*
X21367D01*
X21400Y16710D01*
Y16643D01*
X21367Y16610D01*
X21233D01*
X11683Y22403D02*
X11650Y22370D01*
Y22303D01*
X11683Y22270D01*
X11817D01*
X11850Y22303D01*
Y22370D01*
X11817Y22403D01*
X11850Y22470D02*
Y22537D01*
Y22503D01*
X11650D01*
X11683Y22470D01*
X11817Y22637D02*
X11850Y22670D01*
Y22737D01*
X11817Y22770D01*
X11683D01*
X11650Y22737D01*
Y22670D01*
X11683Y22637D01*
X11717D01*
X11750Y22670D01*
Y22770D01*
X10883Y15383D02*
X10850Y15350D01*
Y15283D01*
X10883Y15250D01*
X11017D01*
X11050Y15283D01*
Y15350D01*
X11017Y15383D01*
X11050Y15450D02*
Y15517D01*
Y15483D01*
X10850D01*
X10883Y15450D01*
Y15617D02*
X10850Y15650D01*
Y15717D01*
X10883Y15750D01*
X10917D01*
X10950Y15717D01*
X10983Y15750D01*
X11017D01*
X11050Y15717D01*
Y15650D01*
X11017Y15617D01*
X10983D01*
X10950Y15650D01*
X10917Y15617D01*
X10883D01*
X10950Y15650D02*
Y15717D01*
X21483Y18553D02*
X21450Y18520D01*
Y18453D01*
X21483Y18420D01*
X21617D01*
X21650Y18453D01*
Y18520D01*
X21617Y18553D01*
X21650Y18620D02*
Y18687D01*
Y18653D01*
X21450D01*
X21483Y18620D01*
X21450Y18787D02*
Y18920D01*
X21483D01*
X21617Y18787D01*
X21650D01*
X19340Y12483D02*
X19307Y12450D01*
Y12383D01*
X19340Y12350D01*
X19473D01*
X19507Y12383D01*
Y12450D01*
X19473Y12483D01*
X19507Y12550D02*
Y12617D01*
Y12583D01*
X19307D01*
X19340Y12550D01*
X19307Y12850D02*
X19340Y12783D01*
X19407Y12717D01*
X19473D01*
X19507Y12750D01*
Y12817D01*
X19473Y12850D01*
X19440D01*
X19407Y12817D01*
Y12717D01*
X20883Y21073D02*
X20850Y21040D01*
Y20973D01*
X20883Y20940D01*
X21017D01*
X21050Y20973D01*
Y21040D01*
X21017Y21073D01*
X21050Y21140D02*
Y21207D01*
Y21173D01*
X20850D01*
X20883Y21140D01*
X20850Y21440D02*
Y21307D01*
X20950D01*
X20917Y21373D01*
Y21407D01*
X20950Y21440D01*
X21017D01*
X21050Y21407D01*
Y21340D01*
X21017Y21307D01*
X9123Y15153D02*
X9090Y15120D01*
Y15053D01*
X9123Y15020D01*
X9257D01*
X9290Y15053D01*
Y15120D01*
X9257Y15153D01*
X9290Y15220D02*
Y15287D01*
Y15253D01*
X9090D01*
X9123Y15220D01*
X9290Y15487D02*
X9090D01*
X9190Y15387D01*
Y15520D01*
X8723Y15123D02*
X8690Y15090D01*
Y15023D01*
X8723Y14990D01*
X8857D01*
X8890Y15023D01*
Y15090D01*
X8857Y15123D01*
X8890Y15190D02*
Y15257D01*
Y15223D01*
X8690D01*
X8723Y15190D01*
Y15357D02*
X8690Y15390D01*
Y15457D01*
X8723Y15490D01*
X8757D01*
X8790Y15457D01*
Y15423D01*
Y15457D01*
X8823Y15490D01*
X8857D01*
X8890Y15457D01*
Y15390D01*
X8857Y15357D01*
X9783Y28387D02*
X9750Y28420D01*
X9683D01*
X9650Y28387D01*
Y28253D01*
X9683Y28220D01*
X9750D01*
X9783Y28253D01*
X9850Y28220D02*
X9917D01*
X9883D01*
Y28420D01*
X9850Y28387D01*
X10150Y28220D02*
X10017D01*
X10150Y28353D01*
Y28387D01*
X10117Y28420D01*
X10050D01*
X10017Y28387D01*
X23893Y24513D02*
X23860Y24480D01*
Y24413D01*
X23893Y24380D01*
X24027D01*
X24060Y24413D01*
Y24480D01*
X24027Y24513D01*
X24060Y24580D02*
Y24647D01*
Y24613D01*
X23860D01*
X23893Y24580D01*
X24060Y24747D02*
Y24813D01*
Y24780D01*
X23860D01*
X23893Y24747D01*
X21403Y24513D02*
X21370Y24480D01*
Y24413D01*
X21403Y24380D01*
X21537D01*
X21570Y24413D01*
Y24480D01*
X21537Y24513D01*
X21570Y24580D02*
Y24647D01*
Y24613D01*
X21370D01*
X21403Y24580D01*
Y24747D02*
X21370Y24780D01*
Y24847D01*
X21403Y24880D01*
X21537D01*
X21570Y24847D01*
Y24780D01*
X21537Y24747D01*
X21403D01*
X20883Y18603D02*
X20850Y18570D01*
Y18503D01*
X20883Y18470D01*
X21017D01*
X21050Y18503D01*
Y18570D01*
X21017Y18603D01*
Y18670D02*
X21050Y18703D01*
Y18770D01*
X21017Y18803D01*
X20883D01*
X20850Y18770D01*
Y18703D01*
X20883Y18670D01*
X20917D01*
X20950Y18703D01*
Y18803D01*
X13353Y25337D02*
X13320Y25370D01*
X13253D01*
X13220Y25337D01*
Y25203D01*
X13253Y25170D01*
X13320D01*
X13353Y25203D01*
X13420Y25337D02*
X13453Y25370D01*
X13520D01*
X13553Y25337D01*
Y25303D01*
X13520Y25270D01*
X13553Y25237D01*
Y25203D01*
X13520Y25170D01*
X13453D01*
X13420Y25203D01*
Y25237D01*
X13453Y25270D01*
X13420Y25303D01*
Y25337D01*
X13453Y25270D02*
X13520D01*
X18953Y31937D02*
X18920Y31970D01*
X18853D01*
X18820Y31937D01*
Y31803D01*
X18853Y31770D01*
X18920D01*
X18953Y31803D01*
X19020Y31970D02*
X19153D01*
Y31937D01*
X19020Y31803D01*
Y31770D01*
X5443Y26687D02*
X5410Y26720D01*
X5343D01*
X5310Y26687D01*
Y26553D01*
X5343Y26520D01*
X5410D01*
X5443Y26553D01*
X5643Y26720D02*
X5577Y26687D01*
X5510Y26620D01*
Y26553D01*
X5543Y26520D01*
X5610D01*
X5643Y26553D01*
Y26587D01*
X5610Y26620D01*
X5510D01*
X9290Y25450D02*
Y25250D01*
X9390D01*
X9423Y25283D01*
Y25317D01*
X9390Y25350D01*
X9290D01*
X9390D01*
X9423Y25383D01*
Y25417D01*
X9390Y25450D01*
X9290D01*
X9490Y25383D02*
Y25283D01*
X9523Y25250D01*
X9623D01*
Y25383D01*
X9690D02*
X9823D01*
X9690Y25250D01*
X9823D01*
X9890Y25383D02*
X10023D01*
X9890Y25250D01*
X10023D01*
X10190D02*
X10123D01*
X10090Y25283D01*
Y25350D01*
X10123Y25383D01*
X10190D01*
X10223Y25350D01*
Y25317D01*
X10090D01*
X10290Y25383D02*
Y25250D01*
Y25317D01*
X10323Y25350D01*
X10356Y25383D01*
X10390D01*
X10490Y25250D02*
X10556D01*
X10523D01*
Y25450D01*
X10490Y25417D01*
X24130Y18020D02*
Y18220D01*
X24230D01*
X24263Y18187D01*
Y18120D01*
X24230Y18087D01*
X24130D01*
X24463Y18020D02*
X24330D01*
X24463Y18153D01*
Y18187D01*
X24430Y18220D01*
X24363D01*
X24330Y18187D01*
X9533Y17160D02*
X9400Y17027D01*
X9467Y17093D01*
X9533Y17027D01*
X9400Y17160D01*
Y16960D02*
Y16893D01*
Y16927D01*
X9600D01*
X9567Y16960D01*
X11040Y32900D02*
Y32733D01*
X11073Y32700D01*
X11140D01*
X11173Y32733D01*
Y32900D01*
X11373Y32700D02*
X11240D01*
X11373Y32833D01*
Y32867D01*
X11340Y32900D01*
X11273D01*
X11240Y32867D01*
X11840Y28470D02*
Y28670D01*
X11940D01*
X11973Y28637D01*
Y28570D01*
X11940Y28537D01*
X11840D01*
X11907D02*
X11973Y28470D01*
X12173D02*
X12040D01*
X12173Y28603D01*
Y28637D01*
X12140Y28670D01*
X12073D01*
X12040Y28637D01*
X10500Y16850D02*
X10300D01*
Y16950D01*
X10333Y16983D01*
X10400D01*
X10433Y16950D01*
Y16850D01*
Y16917D02*
X10500Y16983D01*
Y17050D02*
Y17117D01*
Y17083D01*
X10300D01*
X10333Y17050D01*
X25130Y18020D02*
Y18220D01*
X25230D01*
X25263Y18187D01*
Y18120D01*
X25230Y18087D01*
X25130D01*
X25430Y18020D02*
Y18220D01*
X25330Y18120D01*
X25463D01*
X26130Y18020D02*
Y18220D01*
X26230D01*
X26263Y18187D01*
Y18120D01*
X26230Y18087D01*
X26130D01*
X26330Y18187D02*
X26363Y18220D01*
X26430D01*
X26463Y18187D01*
Y18153D01*
X26430Y18120D01*
X26397D01*
X26430D01*
X26463Y18087D01*
Y18053D01*
X26430Y18020D01*
X26363D01*
X26330Y18053D01*
X15500Y32280D02*
Y32480D01*
X15600D01*
X15633Y32447D01*
Y32380D01*
X15600Y32347D01*
X15500D01*
X15700Y32280D02*
X15767D01*
X15733D01*
Y32480D01*
X15700Y32447D01*
X15330Y29160D02*
Y28960D01*
X15463D01*
X15663Y29160D02*
X15530D01*
Y28960D01*
X15663D01*
X15530Y29060D02*
X15597D01*
X15730Y29160D02*
Y28960D01*
X15830D01*
X15863Y28993D01*
Y29127D01*
X15830Y29160D01*
X15730D01*
X15930Y28960D02*
X15996D01*
X15963D01*
Y29160D01*
X15930Y29127D01*
X11840Y29303D02*
Y29170D01*
X11940D01*
Y29237D01*
Y29170D01*
X12040D01*
Y29370D02*
Y29437D01*
Y29403D01*
X11840D01*
X11873Y29370D01*
X9100Y30883D02*
Y30750D01*
X9300D01*
Y30883D01*
X9200Y30750D02*
Y30817D01*
X9300Y30950D02*
Y31017D01*
Y30983D01*
X9100D01*
X9133Y30950D01*
X11877Y30353D02*
X11910Y30320D01*
X11977D01*
X12010Y30353D01*
Y30487D01*
X11977Y30520D01*
X11910D01*
X11877Y30487D01*
X11677Y30320D02*
X11810D01*
Y30420D01*
X11743Y30387D01*
X11710D01*
X11677Y30420D01*
Y30487D01*
X11710Y30520D01*
X11777D01*
X11810Y30487D01*
X11877Y30853D02*
X11910Y30820D01*
X11977D01*
X12010Y30853D01*
Y30987D01*
X11977Y31020D01*
X11910D01*
X11877Y30987D01*
X11710Y31020D02*
Y30820D01*
X11810Y30920D01*
X11677D01*
X10727Y30653D02*
X10760Y30620D01*
X10827D01*
X10860Y30653D01*
Y30787D01*
X10827Y30820D01*
X10760D01*
X10727Y30787D01*
X10660Y30653D02*
X10627Y30620D01*
X10560D01*
X10527Y30653D01*
Y30687D01*
X10560Y30720D01*
X10593D01*
X10560D01*
X10527Y30753D01*
Y30787D01*
X10560Y30820D01*
X10627D01*
X10660Y30787D01*
X10467Y16267D02*
X10500Y16300D01*
Y16367D01*
X10467Y16400D01*
X10333D01*
X10300Y16367D01*
Y16300D01*
X10333Y16267D01*
X10300Y16067D02*
Y16200D01*
X10433Y16067D01*
X10467D01*
X10500Y16100D01*
Y16167D01*
X10467Y16200D01*
X10333Y17733D02*
X10300Y17700D01*
Y17633D01*
X10333Y17600D01*
X10467D01*
X10500Y17633D01*
Y17700D01*
X10467Y17733D01*
X10500Y17800D02*
Y17867D01*
Y17833D01*
X10300D01*
X10333Y17800D01*
D15*
X9487Y22705D02*
Y22882D01*
Y21858D02*
Y22035D01*
Y21858D02*
X10068D01*
X9487Y22882D02*
X10068D01*
X9831Y32210D02*
X12469D01*
X9831Y33430D02*
X12469D01*
X9831Y32210D02*
Y33430D01*
X12469Y32210D02*
Y33430D01*
X17279Y31050D02*
Y34520D01*
X13969D02*
X17279D01*
X13969Y31050D02*
Y34520D01*
Y31050D02*
X17279D01*
X16099Y29650D02*
Y30003D01*
Y30707D02*
Y31060D01*
X17139Y29650D02*
Y31050D01*
X16099Y30003D02*
Y30707D01*
X15199Y29610D02*
Y31040D01*
X14089Y29610D02*
Y31050D01*
X14279Y33950D02*
X14635D01*
Y34304D01*
X14279Y34320D02*
X14619D01*
X14279Y33950D02*
Y34320D01*
X25800Y22120D02*
X26800D01*
Y14120D02*
Y22120D01*
X25800Y14120D02*
X26800D01*
X25800D02*
Y22120D01*
X24800D02*
X25800D01*
Y14120D02*
Y22120D01*
X24800Y14120D02*
X25800D01*
X24800D02*
Y22120D01*
X23800Y14120D02*
Y22120D01*
Y14120D02*
X24800D01*
Y22120D01*
X23800D02*
X24800D01*
X9658Y24614D02*
Y25510D01*
X10229D01*
X10613Y25028D02*
Y25126D01*
X10229Y25510D02*
X10613Y25126D01*
Y24614D02*
Y25028D01*
X7853Y27070D02*
X8553D01*
X8203Y26720D02*
Y27070D01*
Y27420D01*
X9658Y24614D02*
X10613D01*
X5325Y23968D02*
Y25041D01*
Y24490D02*
X5955D01*
X6437Y24007D01*
X7126Y23939D02*
Y25021D01*
X6594Y24480D02*
X7126D01*
X19250Y24120D02*
Y25120D01*
X12250Y24120D02*
X19250D01*
X12250D02*
Y25120D01*
X19250D01*
X2050Y13720D02*
Y21720D01*
Y13720D02*
X3050D01*
Y21720D01*
X2050D02*
X3050D01*
X5210Y10620D02*
X11210D01*
X5210Y9620D02*
X11210D01*
Y10620D01*
X5210Y9620D02*
Y10620D01*
X23800Y9120D02*
Y11120D01*
X19800Y9120D02*
Y11120D01*
X23800D01*
X19800Y9120D02*
X23800D01*
X20258Y27671D02*
Y29521D01*
X17938Y27480D02*
X20088D01*
X17738Y27771D02*
Y29621D01*
X17988Y29862D02*
X20138D01*
X17738Y27480D02*
Y27785D01*
Y27480D02*
X17938D01*
X20258D02*
Y27677D01*
X20091Y27480D02*
X20258D01*
X17738Y29616D02*
Y29862D01*
X18004D01*
X20258Y29508D02*
Y29862D01*
X20138D02*
X20258D01*
X21705Y22842D02*
X23595D01*
X21705Y24102D02*
X23595D01*
X21705Y22842D02*
Y24102D01*
X23595Y22842D02*
Y24102D01*
X5870Y18038D02*
X7130D01*
X5870Y21502D02*
X7130D01*
Y18038D02*
Y21502D01*
X5870Y18038D02*
Y21502D01*
X4050Y13720D02*
Y21720D01*
X3050D02*
X4050D01*
X3050Y13720D02*
Y21720D01*
Y13720D02*
X4050D01*
X5870Y14116D02*
X7130D01*
X5870Y17580D02*
X7130D01*
Y14116D02*
Y17580D01*
X5870Y14116D02*
Y17580D01*
X8833Y12685D02*
X10211D01*
X8833Y13786D02*
X10211D01*
X12070Y14240D02*
X19630D01*
X12070Y21800D02*
X19630D01*
Y14240D02*
Y21800D01*
X12070Y14240D02*
Y21800D01*
X18100Y9120D02*
Y11120D01*
X13100Y9120D02*
Y11120D01*
X18100D01*
X13100Y9120D02*
X18100D01*
D16*
X24110Y24702D02*
Y24962D01*
Y24302D02*
Y24562D01*
X23790Y24302D02*
Y24562D01*
Y24702D02*
Y24962D01*
Y24302D02*
X24110D01*
X23790Y24962D02*
X24110D01*
X21660Y24694D02*
Y24954D01*
Y24294D02*
Y24554D01*
X21340Y24294D02*
Y24554D01*
Y24694D02*
Y24954D01*
Y24294D02*
X21660D01*
X21340Y24954D02*
X21660D01*
X20869Y24350D02*
Y24610D01*
Y23950D02*
Y24210D01*
X20549Y23950D02*
Y24210D01*
Y24350D02*
Y24610D01*
Y23950D02*
X20869D01*
X20549Y24610D02*
X20869D01*
X20790Y20880D02*
Y21140D01*
Y21280D02*
Y21540D01*
X21110Y21280D02*
Y21540D01*
Y20880D02*
Y21140D01*
X20790Y21540D02*
X21110D01*
X20790Y20880D02*
X21110D01*
X21710Y18740D02*
Y19000D01*
Y18340D02*
Y18600D01*
X21390Y18340D02*
Y18600D01*
Y18740D02*
Y19000D01*
Y18340D02*
X21710D01*
X21390Y19000D02*
X21710D01*
X20790Y18340D02*
Y18600D01*
Y18740D02*
Y19000D01*
X21110Y18740D02*
Y19000D01*
Y18340D02*
Y18600D01*
X20790Y19000D02*
X21110D01*
X20790Y18340D02*
X21110D01*
X21460Y16540D02*
Y16800D01*
Y16140D02*
Y16400D01*
X21140Y16140D02*
Y16400D01*
Y16540D02*
Y16800D01*
Y16140D02*
X21460D01*
X21140Y16800D02*
X21460D01*
X19558Y12673D02*
Y12933D01*
Y12273D02*
Y12533D01*
X19238Y12273D02*
Y12533D01*
Y12673D02*
Y12933D01*
Y12273D02*
X19558D01*
X19238Y12933D02*
X19558D01*
X10816Y12840D02*
Y13100D01*
Y13240D02*
Y13500D01*
X11136Y13240D02*
Y13500D01*
Y12840D02*
Y13100D01*
X10816Y13500D02*
X11136D01*
X10816Y12840D02*
X11136D01*
X11590Y22180D02*
Y22440D01*
Y22580D02*
Y22840D01*
X11910Y22580D02*
Y22840D01*
Y22180D02*
Y22440D01*
X11590Y22840D02*
X11910D01*
X11590Y22180D02*
X11910D01*
X11160D02*
Y22440D01*
Y21780D02*
Y22040D01*
X10840Y21780D02*
Y22040D01*
Y22180D02*
Y22440D01*
Y21780D02*
X11160D01*
X10840Y22440D02*
X11160D01*
X9840Y18549D02*
Y18809D01*
Y18949D02*
Y19209D01*
X10160Y18949D02*
Y19209D01*
Y18549D02*
Y18809D01*
X9840Y19209D02*
X10160D01*
X9840Y18549D02*
X10160D01*
X11110Y15590D02*
Y15850D01*
Y15190D02*
Y15450D01*
X10790Y15190D02*
Y15450D01*
Y15590D02*
Y15850D01*
Y15190D02*
X11110D01*
X10790Y15850D02*
X11110D01*
X9440Y14930D02*
Y15190D01*
Y15330D02*
Y15590D01*
X9760Y15330D02*
Y15590D01*
Y14930D02*
Y15190D01*
X9440Y15590D02*
X9760D01*
X9440Y14930D02*
X9760D01*
X9040D02*
Y15190D01*
Y15330D02*
Y15590D01*
X9360Y15330D02*
Y15590D01*
Y14930D02*
Y15190D01*
X9040Y15590D02*
X9360D01*
X9040Y14930D02*
X9360D01*
X8640D02*
Y15190D01*
Y15330D02*
Y15590D01*
X8960Y15330D02*
Y15590D01*
Y14930D02*
Y15190D01*
X8640Y15590D02*
X8960D01*
X8640Y14930D02*
X8960D01*
X8040Y14380D02*
Y14640D01*
Y14780D02*
Y15040D01*
X8360Y14780D02*
Y15040D01*
Y14380D02*
Y14640D01*
X8040Y15040D02*
X8360D01*
X8040Y14380D02*
X8360D01*
X8040Y15112D02*
Y15372D01*
Y15512D02*
Y15772D01*
X8360Y15512D02*
Y15772D01*
Y15112D02*
Y15372D01*
X8040Y15772D02*
X8360D01*
X8040Y15112D02*
X8360D01*
Y16252D02*
Y16512D01*
Y15852D02*
Y16112D01*
X8040Y15852D02*
Y16112D01*
Y16252D02*
Y16512D01*
Y15852D02*
X8360D01*
X8040Y16512D02*
X8360D01*
X8040Y16600D02*
Y16860D01*
Y17000D02*
Y17260D01*
X8360Y17000D02*
Y17260D01*
Y16600D02*
Y16860D01*
X8040Y17260D02*
X8360D01*
X8040Y16600D02*
X8360D01*
X16790Y22726D02*
Y22986D01*
Y23126D02*
Y23386D01*
X17110Y23126D02*
Y23386D01*
Y22726D02*
Y22986D01*
X16790Y23386D02*
X17110D01*
X16790Y22726D02*
X17110D01*
X20258Y26706D02*
Y26966D01*
Y26306D02*
Y26566D01*
X19938Y26306D02*
Y26566D01*
Y26706D02*
Y26966D01*
Y26306D02*
X20258D01*
X19938Y26966D02*
X20258D01*
X17588Y26396D02*
Y26656D01*
Y26796D02*
Y27056D01*
X17908Y26796D02*
Y27056D01*
Y26396D02*
Y26656D01*
X17588Y27056D02*
X17908D01*
X17588Y26396D02*
X17908D01*
X5460Y31450D02*
Y31710D01*
Y31050D02*
Y31310D01*
X5140Y31050D02*
Y31310D01*
Y31450D02*
Y31710D01*
Y31050D02*
X5460D01*
X5140Y31710D02*
X5460D01*
X3190Y9940D02*
Y10200D01*
Y10340D02*
Y10600D01*
X3510Y10340D02*
Y10600D01*
Y9940D02*
Y10200D01*
X3190Y10600D02*
X3510D01*
X3190Y9940D02*
X3510D01*
X18747Y10676D02*
Y10936D01*
Y10276D02*
Y10536D01*
X18427Y10276D02*
Y10536D01*
Y10676D02*
Y10936D01*
Y10276D02*
X18747D01*
X18427Y10936D02*
X18747D01*
X12510Y10600D02*
Y10860D01*
Y10200D02*
Y10460D01*
X12190Y10200D02*
Y10460D01*
Y10600D02*
Y10860D01*
Y10200D02*
X12510D01*
X12190Y10860D02*
X12510D01*
X10560Y17805D02*
Y18065D01*
Y17405D02*
Y17665D01*
X10240Y17405D02*
Y17665D01*
Y17805D02*
Y18065D01*
Y17405D02*
X10560D01*
X10240Y18065D02*
X10560D01*
X10240Y15905D02*
Y16165D01*
Y16305D02*
Y16565D01*
X10560Y16305D02*
Y16565D01*
Y15905D02*
Y16165D01*
X10240Y16565D02*
X10560D01*
X10240Y15905D02*
X10560D01*
X10360Y30880D02*
X10620D01*
X10760D02*
X11020D01*
X10760Y30560D02*
X11020D01*
X10360D02*
X10620D01*
X11020D02*
Y30880D01*
X10360Y30560D02*
Y30880D01*
X11510Y31080D02*
X11770D01*
X11910D02*
X12170D01*
X11910Y30760D02*
X12170D01*
X11510D02*
X11770D01*
X12170D02*
Y31080D01*
X11510Y30760D02*
Y31080D01*
Y30580D02*
X11770D01*
X11910D02*
X12170D01*
X11910Y30260D02*
X12170D01*
X11510D02*
X11770D01*
X12170D02*
Y30580D01*
X11510Y30260D02*
Y30580D01*
X10561Y17055D02*
Y17315D01*
Y16655D02*
Y16915D01*
X10241Y16655D02*
Y16915D01*
Y17055D02*
Y17315D01*
Y16655D02*
X10561D01*
X10241Y17315D02*
X10561D01*
X12080Y28410D02*
X12340D01*
X11680D02*
X11940D01*
X11680Y28730D02*
X11940D01*
X12080D02*
X12340D01*
X11680Y28410D02*
Y28730D01*
X12340Y28410D02*
Y28730D01*
X9195Y16838D02*
X9844D01*
X9195Y17242D02*
X9835D01*
X9510D02*
Y17310D01*
X9500Y16740D02*
Y16838D01*
X9421Y17143D02*
X9815D01*
Y16927D02*
Y17143D01*
X9205Y16927D02*
X9815D01*
X9205Y17143D02*
X9421D01*
X9205Y16927D02*
Y17143D01*
X5150Y26460D02*
Y26780D01*
X5810Y26460D02*
Y26780D01*
X5150Y26460D02*
X5410D01*
X5550D02*
X5810D01*
X5550Y26780D02*
X5810D01*
X5150D02*
X5410D01*
X18660Y31710D02*
Y32030D01*
X19320Y31710D02*
Y32030D01*
X18660Y31710D02*
X18920D01*
X19060D02*
X19320D01*
X19060Y32030D02*
X19320D01*
X18660D02*
X18920D01*
X13720Y25110D02*
Y25430D01*
X13060Y25110D02*
Y25430D01*
X13460D02*
X13720D01*
X13060D02*
X13320D01*
X13060Y25110D02*
X13320D01*
X13460D02*
X13720D01*
X10230Y28161D02*
Y28481D01*
X9570Y28161D02*
Y28481D01*
X9970D02*
X10230D01*
X9570D02*
X9830D01*
X9570Y28161D02*
X9830D01*
X9970D02*
X10230D01*
X20030Y21710D02*
Y22030D01*
X20690Y21710D02*
Y22030D01*
X20030Y21710D02*
X20290D01*
X20430D02*
X20690D01*
X20430Y22030D02*
X20690D01*
X20030D02*
X20290D01*
X12830Y12967D02*
Y13287D01*
X12170Y12967D02*
Y13287D01*
X12570D02*
X12830D01*
X12170D02*
X12430D01*
X12170Y12967D02*
X12430D01*
X12570D02*
X12830D01*
X15580Y12910D02*
Y13230D01*
X14920Y12910D02*
Y13230D01*
X15320D02*
X15580D01*
X14920D02*
X15180D01*
X14920Y12910D02*
X15180D01*
X15320D02*
X15580D01*
X15170Y23462D02*
Y23782D01*
X15830Y23462D02*
Y23782D01*
X15170Y23462D02*
X15430D01*
X15570D02*
X15830D01*
X15570Y23782D02*
X15830D01*
X15170D02*
X15430D01*
X17340Y12416D02*
Y12736D01*
X16680Y12416D02*
Y12736D01*
X17080D02*
X17340D01*
X16680D02*
X16940D01*
X16680Y12416D02*
X16940D01*
X17080D02*
X17340D01*
X8992Y27425D02*
Y27815D01*
Y27425D02*
X9192Y27625D01*
Y27415D02*
Y27815D01*
X8992D02*
X9182Y27625D01*
X8847Y27620D02*
X8992D01*
X9182Y27615D02*
X9352D01*
X7420Y26460D02*
Y26780D01*
X6760Y26460D02*
Y26780D01*
X7160D02*
X7420D01*
X6760D02*
X7020D01*
X6760Y26460D02*
X7020D01*
X7160D02*
X7420D01*
X21570Y25062D02*
Y25382D01*
X22230Y25062D02*
Y25382D01*
X21570Y25062D02*
X21830D01*
X21970D02*
X22230D01*
X21970Y25382D02*
X22230D01*
X21570D02*
X21830D01*
X23920Y25062D02*
Y25382D01*
X23260Y25062D02*
Y25382D01*
X23660D02*
X23920D01*
X23260D02*
X23520D01*
X23260Y25062D02*
X23520D01*
X23660D02*
X23920D01*
X22420D02*
Y25382D01*
X23080Y25062D02*
Y25382D01*
X22420Y25062D02*
X22680D01*
X22820D02*
X23080D01*
X22820Y25382D02*
X23080D01*
X22420D02*
X22680D01*
X10567Y21260D02*
Y21580D01*
X9907Y21260D02*
Y21580D01*
X10307D02*
X10567D01*
X9907D02*
X10167D01*
X9907Y21260D02*
X10167D01*
X10307D02*
X10567D01*
X4170Y33960D02*
Y34280D01*
X3510Y33960D02*
Y34280D01*
X3910D02*
X4170D01*
X3510D02*
X3770D01*
X3510Y33960D02*
X3770D01*
X3910D02*
X4170D01*
X4620Y23760D02*
Y24080D01*
X3960Y23760D02*
Y24080D01*
X4360D02*
X4620D01*
X3960D02*
X4220D01*
X3960Y23760D02*
X4220D01*
X4360D02*
X4620D01*
X24980Y34060D02*
Y34380D01*
X25640Y34060D02*
Y34380D01*
X24980Y34060D02*
X25240D01*
X25380D02*
X25640D01*
X25380Y34380D02*
X25640D01*
X24980D02*
X25240D01*
X28630Y18310D02*
Y18630D01*
X29290Y18310D02*
Y18630D01*
X28630Y18310D02*
X28890D01*
X29030D02*
X29290D01*
X29030Y18630D02*
X29290D01*
X28630D02*
X28890D01*
X27420Y9045D02*
Y9365D01*
X28080Y9045D02*
Y9365D01*
X27420Y9045D02*
X27680D01*
X27820D02*
X28080D01*
X27820Y9365D02*
X28080D01*
X27420D02*
X27680D01*
X8040Y20680D02*
X8360D01*
X8040Y21340D02*
X8360D01*
Y20680D02*
Y20940D01*
Y21080D02*
Y21340D01*
X8040Y21080D02*
Y21340D01*
Y20680D02*
Y20940D01*
Y20611D02*
X8360D01*
X8040Y19951D02*
X8360D01*
X8040Y20351D02*
Y20611D01*
Y19951D02*
Y20211D01*
X8360Y19951D02*
Y20211D01*
Y20351D02*
Y20611D01*
X4540Y20480D02*
X4860D01*
X4540Y19820D02*
X4860D01*
X4540Y20220D02*
Y20480D01*
Y19820D02*
Y20080D01*
X4860Y19820D02*
Y20080D01*
Y20220D02*
Y20480D01*
X4540Y21210D02*
X4860D01*
X4540Y20550D02*
X4860D01*
X4540Y20950D02*
Y21210D01*
Y20550D02*
Y20810D01*
X4860Y20550D02*
Y20810D01*
Y20950D02*
Y21210D01*
X8040Y19189D02*
X8360D01*
X8040Y19849D02*
X8360D01*
Y19189D02*
Y19449D01*
Y19589D02*
Y19849D01*
X8040Y19589D02*
Y19849D01*
Y19189D02*
Y19449D01*
X4540Y19070D02*
X4860D01*
X4540Y19730D02*
X4860D01*
Y19070D02*
Y19330D01*
Y19470D02*
Y19730D01*
X4540Y19470D02*
Y19730D01*
Y19070D02*
Y19330D01*
Y18359D02*
X4860D01*
X4540Y19019D02*
X4860D01*
Y18359D02*
Y18619D01*
Y18759D02*
Y19019D01*
X4540Y18759D02*
Y19019D01*
Y18359D02*
Y18619D01*
X8040Y18461D02*
X8360D01*
X8040Y19121D02*
X8360D01*
Y18461D02*
Y18721D01*
Y18861D02*
Y19121D01*
X8040Y18861D02*
Y19121D01*
Y18461D02*
Y18721D01*
X4540Y16790D02*
X4860D01*
X4540Y16130D02*
X4860D01*
X4540Y16530D02*
Y16790D01*
Y16130D02*
Y16390D01*
X4860Y16130D02*
Y16390D01*
Y16530D02*
Y16790D01*
X4532Y14013D02*
X4852D01*
X4532Y14673D02*
X4852D01*
Y14013D02*
Y14273D01*
Y14413D02*
Y14673D01*
X4532Y14413D02*
Y14673D01*
Y14013D02*
Y14273D01*
X4540Y17502D02*
X4860D01*
X4540Y16842D02*
X4860D01*
X4540Y17242D02*
Y17502D01*
Y16842D02*
Y17102D01*
X4860Y16842D02*
Y17102D01*
Y17242D02*
Y17502D01*
X4532Y14732D02*
X4852D01*
X4532Y15392D02*
X4852D01*
Y14732D02*
Y14992D01*
Y15132D02*
Y15392D01*
X4532Y15132D02*
Y15392D01*
Y14732D02*
Y14992D01*
X9832Y14015D02*
Y14335D01*
X10492Y14015D02*
Y14335D01*
X9832Y14015D02*
X10092D01*
X10232D02*
X10492D01*
X10232Y14335D02*
X10492D01*
X9832D02*
X10092D01*
X9270Y14010D02*
Y14330D01*
X8610Y14010D02*
Y14330D01*
X9010D02*
X9270D01*
X8610D02*
X8870D01*
X8610Y14010D02*
X8870D01*
X9010D02*
X9270D01*
X9622Y12835D02*
Y13031D01*
X9721D01*
X9753Y12999D01*
Y12933D01*
X9721Y12900D01*
X9622D01*
X9688D02*
X9753Y12835D01*
Y13599D02*
X9721Y13631D01*
X9655D01*
X9622Y13599D01*
Y13467D01*
X9655Y13435D01*
X9721D01*
X9753Y13467D01*
Y13533D01*
X9688D01*
X9322Y13631D02*
Y13435D01*
X9421D01*
X9453Y13467D01*
Y13500D01*
X9421Y13533D01*
X9322D01*
X9421D01*
X9453Y13566D01*
Y13599D01*
X9421Y13631D01*
X9322D01*
D17*
X11308Y29632D02*
X11779D01*
X11308Y28972D02*
X11779D01*
X12098D02*
X12579D01*
X12098Y29632D02*
X12579D01*
X11308Y28972D02*
Y29632D01*
X12579Y28972D02*
Y29632D01*
X23980Y10757D02*
X24063Y10840D01*
X24230D01*
X24313Y10757D01*
Y10673D01*
X24230Y10590D01*
X24313Y10507D01*
Y10423D01*
X24230Y10340D01*
X24063D01*
X23980Y10423D01*
Y10507D01*
X24063Y10590D01*
X23980Y10673D01*
Y10757D01*
X24063Y10590D02*
X24230D01*
X24020Y9780D02*
X24353D01*
Y9697D01*
X24020Y9363D01*
Y9280D01*
X19450Y9190D02*
X19617D01*
X19533D01*
Y9690D01*
X19450Y9607D01*
X19713Y10370D02*
X19380D01*
X19713Y10703D01*
Y10787D01*
X19630Y10870D01*
X19463D01*
X19380Y10787D01*
X13663Y10340D02*
X13330D01*
X13663Y10673D01*
Y10757D01*
X13580Y10840D01*
X13413D01*
X13330Y10757D01*
X13390Y9340D02*
X13557D01*
X13473D01*
Y9840D01*
X13390Y9757D01*
X17610Y9503D02*
X17693Y9420D01*
X17860D01*
X17943Y9503D01*
Y9837D01*
X17860Y9920D01*
X17693D01*
X17610Y9837D01*
Y9753D01*
X17693Y9670D01*
X17943D01*
X17069Y10420D02*
X17235D01*
X17152D01*
Y10920D01*
X17069Y10837D01*
X17485D02*
X17568Y10920D01*
X17735D01*
X17818Y10837D01*
Y10503D01*
X17735Y10420D01*
X17568D01*
X17485Y10503D01*
Y10837D01*
D18*
X18763Y6700D02*
X21137D01*
X17933Y7500D02*
X20917D01*
X17503Y5900D02*
X18177D01*
X9493D02*
X13587D01*
X17933Y7510D02*
X20907D01*
X20133Y7090D02*
X21097D01*
X20133Y7100D02*
X21087D01*
X20123Y7110D02*
X21087D01*
X20123Y7120D02*
X21087D01*
X20123Y7130D02*
X21077D01*
X20123Y7140D02*
X21077D01*
X20113Y7150D02*
X21077D01*
X20113Y7160D02*
X21067D01*
X20113Y7170D02*
X21067D01*
X20103Y7180D02*
X21067D01*
X20103Y7190D02*
X21057D01*
X20093Y7200D02*
X21057D01*
X20093Y7210D02*
X21057D01*
X18763Y6710D02*
X21137D01*
X18763Y6720D02*
X21137D01*
X18773Y6730D02*
X21137D01*
X18773Y6740D02*
X21137D01*
X18773Y6750D02*
X21137D01*
X18773Y6760D02*
X21137D01*
X18783Y6770D02*
X21137D01*
X18783Y6780D02*
X21137D01*
X18783Y6790D02*
X21137D01*
X18783Y6800D02*
X21137D01*
X18793Y6810D02*
X21137D01*
X18793Y6820D02*
X21137D01*
X18793Y6830D02*
X21137D01*
X18793Y6840D02*
X21137D01*
X18803Y6850D02*
X21137D01*
X18803Y6860D02*
X21137D01*
X18803Y6870D02*
X21137D01*
X18813Y6880D02*
X21137D01*
X18813Y6890D02*
X21137D01*
X18813Y6900D02*
X21137D01*
X18813Y6910D02*
X21127D01*
X20143Y6920D02*
X21127D01*
X20153Y6930D02*
X21127D01*
X20153Y6940D02*
X21127D01*
X20153Y6950D02*
X21127D01*
X20153Y6960D02*
X21127D01*
X20153Y6970D02*
X21117D01*
X20143Y6980D02*
X21117D01*
X20143Y6990D02*
X21117D01*
X20143Y7000D02*
X21117D01*
X20143Y7010D02*
X21117D01*
X20143Y7020D02*
X21107D01*
X20143Y7030D02*
X21107D01*
X20143Y7040D02*
X21107D01*
X20143Y7050D02*
X21107D01*
X20133Y7060D02*
X21097D01*
X20133Y7070D02*
X21097D01*
X20133Y7080D02*
X21097D01*
X20083Y7220D02*
X21047D01*
X20083Y7230D02*
X21047D01*
X20073Y7240D02*
X21037D01*
X20073Y7250D02*
X21037D01*
X20073Y7260D02*
X21037D01*
X20063Y7270D02*
X21027D01*
X20063Y7280D02*
X21027D01*
X20053Y7290D02*
X21027D01*
X20043Y7300D02*
X21017D01*
X20043Y7310D02*
X21017D01*
X20033Y7320D02*
X21007D01*
X20023Y7330D02*
X21007D01*
X20023Y7340D02*
X20997D01*
X20013Y7350D02*
X20997D01*
X20003Y7360D02*
X20987D01*
X19993Y7370D02*
X20987D01*
X19983Y7380D02*
X20977D01*
X19973Y7390D02*
X20977D01*
X19953Y7400D02*
X20967D01*
X19943Y7410D02*
X20967D01*
X19923Y7420D02*
X20957D01*
X19903Y7430D02*
X20957D01*
X17913Y7440D02*
X20947D01*
X17923Y7450D02*
X20937D01*
X17923Y7460D02*
X20937D01*
X17923Y7470D02*
X20927D01*
X17923Y7480D02*
X20927D01*
X17923Y7490D02*
X20917D01*
X17603Y6290D02*
X18287D01*
X17613Y6300D02*
X18287D01*
X17613Y6310D02*
X18287D01*
X17613Y6320D02*
X18297D01*
X17623Y6330D02*
X18297D01*
X17623Y6340D02*
X18297D01*
X17623Y6350D02*
X18297D01*
X17623Y6360D02*
X18307D01*
X17633Y6370D02*
X18307D01*
X17633Y6380D02*
X18307D01*
X17633Y6390D02*
X18317D01*
X17633Y6400D02*
X18317D01*
X17643Y6420D02*
X18317D01*
X17643Y6430D02*
X18327D01*
X17653Y6440D02*
X18327D01*
X17653Y6450D02*
X18327D01*
X17653Y6460D02*
X18327D01*
X17653Y6470D02*
X18337D01*
X17663Y6480D02*
X18337D01*
X17663Y6490D02*
X18337D01*
X17663Y6500D02*
X18337D01*
X17663Y6510D02*
X18347D01*
X17673Y6520D02*
X18347D01*
X17673Y6530D02*
X18347D01*
X17673Y6540D02*
X18357D01*
X17673Y6550D02*
X18357D01*
X17683Y6560D02*
X18357D01*
X17683Y6570D02*
X18357D01*
X17683Y6580D02*
X18367D01*
X17693Y6590D02*
X18367D01*
X17693Y6600D02*
X18367D01*
X17693Y6610D02*
X18367D01*
X17693Y6620D02*
X18377D01*
X17703Y6630D02*
X18377D01*
X17703Y6640D02*
X18377D01*
X17703Y6650D02*
X18377D01*
X17703Y6660D02*
X18387D01*
X17713Y6670D02*
X18387D01*
X17713Y6680D02*
X18387D01*
X17713Y6690D02*
X18397D01*
X17643Y6410D02*
X18317D01*
X18733Y6600D02*
X21127D01*
X18733Y6610D02*
X21127D01*
X18743Y6620D02*
X21127D01*
X18743Y6630D02*
X21137D01*
X18743Y6640D02*
X21137D01*
X18743Y6650D02*
X21137D01*
X18753Y6660D02*
X21137D01*
X18753Y6670D02*
X21137D01*
X18753Y6680D02*
X21137D01*
X18753Y6690D02*
X21137D01*
X17573Y6170D02*
X18257D01*
X17583Y6180D02*
X18257D01*
X17583Y6190D02*
X18257D01*
X17583Y6200D02*
X18257D01*
X17583Y6210D02*
X18267D01*
X17593Y6220D02*
X18267D01*
X17593Y6230D02*
X18267D01*
X17593Y6240D02*
X18267D01*
X17593Y6250D02*
X18277D01*
X17603Y6260D02*
X18277D01*
X17603Y6270D02*
X18277D01*
X17603Y6280D02*
X18287D01*
X17523Y5960D02*
X18197D01*
X17523Y5970D02*
X18197D01*
X17523Y5980D02*
X18197D01*
X17523Y5990D02*
X18207D01*
X17533Y6000D02*
X18207D01*
X17533Y6010D02*
X18207D01*
X17533Y6020D02*
X18217D01*
X17533Y6030D02*
X18217D01*
X17543Y6040D02*
X18217D01*
X17543Y6050D02*
X18217D01*
X17543Y6060D02*
X18227D01*
X17553Y6070D02*
X18227D01*
X17553Y6080D02*
X18227D01*
X17553Y6090D02*
X18227D01*
X17553Y6100D02*
X18237D01*
X17563Y6110D02*
X18237D01*
X17563Y6120D02*
X18237D01*
X17563Y6130D02*
X18247D01*
X17563Y6140D02*
X18247D01*
X17573Y6150D02*
X18247D01*
X17573Y6160D02*
X18247D01*
X17503Y5910D02*
X18187D01*
X17513Y5920D02*
X18187D01*
X17513Y5930D02*
X18187D01*
X17513Y5940D02*
X18187D01*
X17513Y5950D02*
X18197D01*
X17423Y5620D02*
X18107D01*
X17433Y5630D02*
X18107D01*
X17433Y5640D02*
X18107D01*
X17433Y5650D02*
X18117D01*
X17443Y5660D02*
X18117D01*
X17443Y5670D02*
X18117D01*
X17443Y5680D02*
X18117D01*
X17443Y5690D02*
X18127D01*
X17453Y5700D02*
X18127D01*
X17453Y5710D02*
X18127D01*
X17453Y5720D02*
X18127D01*
X17453Y5730D02*
X18137D01*
X17463Y5740D02*
X18137D01*
X17463Y5750D02*
X18137D01*
X17463Y5760D02*
X18147D01*
X17463Y5770D02*
X18147D01*
X17423Y5610D02*
X18107D01*
X17473Y5780D02*
X18147D01*
X17473Y5790D02*
X18147D01*
X17473Y5800D02*
X18157D01*
X17483Y5810D02*
X18157D01*
X17483Y5820D02*
X18157D01*
X17483Y5830D02*
X18157D01*
X17483Y5840D02*
X18167D01*
X17493Y5850D02*
X18167D01*
X17493Y5860D02*
X18167D01*
X17493Y5870D02*
X18177D01*
X17493Y5880D02*
X18177D01*
X17503Y5890D02*
X18177D01*
X17593Y4550D02*
X18547D01*
X17593Y4560D02*
X18547D01*
X17593Y4570D02*
X18557D01*
X17593Y4580D02*
X18557D01*
X17583Y4590D02*
X18567D01*
X17583Y4600D02*
X18567D01*
X17583Y4610D02*
X18577D01*
X17583Y4620D02*
X18577D01*
X17583Y4630D02*
X18557D01*
X17583Y4640D02*
X18547D01*
X11313Y6290D02*
X11977D01*
X11313Y6300D02*
X11977D01*
X11123Y6050D02*
X11907D01*
X11143Y6060D02*
X11917D01*
X11153Y6070D02*
X11917D01*
X11163Y6080D02*
X11917D01*
X11173Y6090D02*
X11917D01*
X11183Y6100D02*
X11927D01*
X11193Y6110D02*
X11927D01*
X11203Y6120D02*
X11927D01*
X11213Y6130D02*
X11927D01*
X11223Y6140D02*
X11937D01*
X11233Y6150D02*
X11937D01*
X11233Y6160D02*
X11937D01*
X11243Y6170D02*
X11947D01*
X11253Y6180D02*
X11947D01*
X11253Y6190D02*
X11947D01*
X11263Y6200D02*
X11947D01*
X11273Y6210D02*
X11957D01*
X11273Y6220D02*
X11957D01*
X11283Y6230D02*
X11957D01*
X11283Y6240D02*
X11957D01*
X11293Y6250D02*
X11967D01*
X11303Y6260D02*
X11967D01*
X11303Y6270D02*
X11967D01*
X11313Y6280D02*
X11977D01*
X9493Y5910D02*
X13587D01*
X9493Y5920D02*
X13597D01*
X9503Y5930D02*
X13597D01*
X9503Y5940D02*
X13597D01*
X10883Y5950D02*
X11887D01*
X10923Y5960D02*
X11887D01*
X10953Y5970D02*
X11887D01*
X10983Y5980D02*
X11887D01*
X11003Y5990D02*
X11897D01*
X11033Y6000D02*
X11897D01*
X11053Y6010D02*
X11897D01*
X11073Y6020D02*
X11907D01*
X11093Y6030D02*
X11907D01*
X11113Y6040D02*
X11907D01*
X9383Y5490D02*
X11477D01*
X9383Y5500D02*
X11487D01*
X9383Y5510D02*
X11507D01*
X9393Y5520D02*
X11517D01*
X9393Y5530D02*
X11527D01*
X9393Y5540D02*
X11547D01*
X9393Y5550D02*
X11557D01*
X9403Y5560D02*
X11567D01*
X9403Y5570D02*
X11587D01*
X9403Y5580D02*
X11597D01*
X9403Y5590D02*
X11607D01*
X9413Y5600D02*
X11617D01*
X9413Y5620D02*
X11647D01*
X9413Y5630D02*
X11657D01*
X9423Y5640D02*
X11667D01*
X9423Y5650D02*
X11687D01*
X9423Y5660D02*
X11697D01*
X9433Y5670D02*
X11707D01*
X9433Y5680D02*
X11717D01*
X9433Y5690D02*
X11737D01*
X9433Y5700D02*
X11747D01*
X9443Y5710D02*
X11757D01*
X9443Y5720D02*
X11767D01*
X9443Y5730D02*
X13477D01*
X9443Y5740D02*
X13487D01*
X9453Y5750D02*
X13497D01*
X9453Y5760D02*
X13497D01*
X9453Y5770D02*
X13507D01*
X9463Y5780D02*
X13517D01*
X9463Y5790D02*
X13527D01*
X9463Y5800D02*
X13537D01*
X9463Y5810D02*
X13537D01*
X9473Y5820D02*
X13547D01*
X9473Y5830D02*
X13557D01*
X9473Y5840D02*
X13557D01*
X9473Y5850D02*
X13567D01*
X9483Y5860D02*
X13577D01*
X9483Y5870D02*
X13577D01*
X9483Y5880D02*
X13587D01*
X9483Y5890D02*
X13587D01*
X9413Y5610D02*
X11637D01*
X9373Y5480D02*
X11467D01*
X9353Y5380D02*
X11307D01*
X9353Y5390D02*
X11327D01*
X9353Y5400D02*
X11347D01*
X9363Y5410D02*
X11357D01*
X9363Y5420D02*
X11377D01*
X9363Y5430D02*
X11387D01*
X9363Y5440D02*
X11407D01*
X9373Y5450D02*
X11417D01*
X9373Y5460D02*
X11437D01*
X9373Y5470D02*
X11447D01*
X14013Y4690D02*
X15067D01*
X14003Y4700D02*
X15077D01*
X14003Y4710D02*
X15067D01*
X14003Y4720D02*
X15057D01*
X14003Y4730D02*
X15037D01*
X14093Y4870D02*
X14977D01*
X14093Y4880D02*
X14987D01*
X14083Y4890D02*
X14997D01*
X14083Y4900D02*
X14997D01*
X14083Y4910D02*
X15007D01*
X14083Y4920D02*
X15007D01*
X14083Y4930D02*
X14997D01*
X14073Y4940D02*
X14977D01*
X14073Y4950D02*
X14967D01*
X14153Y4490D02*
X14907D01*
X14153Y4500D02*
X14917D01*
X14153Y4510D02*
X14917D01*
X14153Y4520D02*
X14927D01*
X14153Y4530D02*
X14937D01*
X14153Y4540D02*
X14937D01*
X14153Y4550D02*
X14927D01*
X14153Y4560D02*
X14907D01*
X14013Y4650D02*
X15047D01*
X14013Y4660D02*
X15047D01*
X14013Y4670D02*
X15057D01*
X14013Y4680D02*
X15057D01*
X10563Y4820D02*
X11407D01*
X10563Y4830D02*
X11417D01*
X10563Y4840D02*
X11417D01*
X10563Y4850D02*
X11427D01*
X10563Y4860D02*
X11427D01*
X10553Y4870D02*
X11437D01*
X10553Y4880D02*
X11437D01*
X10553Y4890D02*
X11447D01*
X10553Y4900D02*
X11437D01*
X10553Y4910D02*
X11427D01*
X10553Y4920D02*
X11407D01*
X10553Y4930D02*
X11397D01*
X10503Y4110D02*
X11497D01*
X10503Y4120D02*
X11507D01*
X10503Y4130D02*
X11507D01*
X10493Y4140D02*
X11517D01*
X10493Y4150D02*
X11517D01*
X10493Y4160D02*
X11527D01*
X10493Y4170D02*
X11527D01*
X10493Y4180D02*
X11537D01*
X10493Y4190D02*
X11527D01*
X10483Y4200D02*
X11517D01*
X10483Y4210D02*
X11497D01*
X10483Y4220D02*
X11487D01*
X17723Y6700D02*
X18397D01*
X19923Y5900D02*
X20787D01*
X18093Y4300D02*
X18507D01*
X20413D02*
X20587D01*
X14643Y7500D02*
X17247D01*
X15443Y6700D02*
X16147D01*
X15223Y5900D02*
X15927D01*
X16513Y4300D02*
X16657D01*
X11423Y6700D02*
X12087D01*
X11633Y7500D02*
X12297D01*
X13143Y6700D02*
X13797D01*
X11713Y4300D02*
X11857D01*
X13123D02*
X13317D01*
X12493D02*
X12647D01*
X9923Y7500D02*
X10617D01*
X9703Y6700D02*
X10397D01*
X10103Y4300D02*
X10257D01*
X10913D02*
X11077D01*
X21203Y8390D02*
X21687D01*
X21203Y8400D02*
X21687D01*
X21203Y8410D02*
X21687D01*
X21203Y8420D02*
X21687D01*
X21203Y8430D02*
X21687D01*
X21203Y8440D02*
X21687D01*
X21203Y8450D02*
X21687D01*
X21203Y8460D02*
X21687D01*
X21203Y8470D02*
X21687D01*
X21203Y8480D02*
X21687D01*
X21203Y8490D02*
X21687D01*
X22023Y7890D02*
X22157D01*
X22023Y7900D02*
X22167D01*
X22023Y7910D02*
X22167D01*
X22013Y7920D02*
X22167D01*
X22013Y7930D02*
X22167D01*
X22013Y7940D02*
X22177D01*
X22013Y7950D02*
X22177D01*
X22003Y7960D02*
X22177D01*
X22003Y7970D02*
X22187D01*
X22003Y7980D02*
X22187D01*
X22003Y7990D02*
X22187D01*
X21993Y8000D02*
X22187D01*
X21993Y8020D02*
X22197D01*
X21983Y8030D02*
X22197D01*
X21983Y8040D02*
X22207D01*
X21983Y8050D02*
X22207D01*
X21983Y8060D02*
X22207D01*
X21973Y8070D02*
X22207D01*
X22113Y8080D02*
X22217D01*
X22113Y8090D02*
X22217D01*
X22113Y8100D02*
X22217D01*
X22113Y8110D02*
X22227D01*
X21993Y8010D02*
X22197D01*
X18033Y7890D02*
X20527D01*
X18043Y7900D02*
X20507D01*
X18043Y7910D02*
X20487D01*
X18043Y7920D02*
X20467D01*
X18043Y7930D02*
X20447D01*
X18053Y7940D02*
X20427D01*
X18053Y7950D02*
X20407D01*
X18053Y7960D02*
X20377D01*
X18053Y7970D02*
X20347D01*
X18063Y7980D02*
X20317D01*
X18063Y7990D02*
X20267D01*
X18063Y8000D02*
X20207D01*
X18003Y7770D02*
X20697D01*
X18003Y7780D02*
X20677D01*
X18013Y7790D02*
X20667D01*
X18013Y7800D02*
X20657D01*
X18013Y7810D02*
X20647D01*
X18013Y7820D02*
X20627D01*
X18023Y7830D02*
X20617D01*
X18023Y7840D02*
X20607D01*
X18023Y7850D02*
X20587D01*
X18023Y7860D02*
X20577D01*
X18033Y7870D02*
X20557D01*
X18033Y7880D02*
X20537D01*
X17933Y7520D02*
X20897D01*
X17943Y7530D02*
X20897D01*
X17943Y7540D02*
X20887D01*
X17943Y7550D02*
X20887D01*
X17943Y7560D02*
X20877D01*
X17953Y7570D02*
X20867D01*
X17953Y7580D02*
X20867D01*
X17953Y7590D02*
X20857D01*
X17953Y7600D02*
X20847D01*
X17963Y7610D02*
X20847D01*
X17963Y7620D02*
X20837D01*
X17963Y7630D02*
X20827D01*
X17973Y7640D02*
X20817D01*
X17973Y7650D02*
X20807D01*
X17973Y7660D02*
X20807D01*
X17973Y7670D02*
X20797D01*
X17983Y7680D02*
X20787D01*
X17983Y7690D02*
X20777D01*
X17983Y7700D02*
X20767D01*
X17983Y7710D02*
X20757D01*
X17993Y7720D02*
X20747D01*
X17993Y7730D02*
X20737D01*
X17993Y7740D02*
X20727D01*
X17993Y7750D02*
X20717D01*
X18003Y7760D02*
X20707D01*
X17823Y7090D02*
X18497D01*
X17823Y7100D02*
X18507D01*
X17833Y7110D02*
X18507D01*
X17833Y7120D02*
X18507D01*
X17833Y7130D02*
X18507D01*
X17833Y7140D02*
X18517D01*
X17843Y7150D02*
X18517D01*
X17843Y7160D02*
X18517D01*
X17843Y7170D02*
X18517D01*
X17843Y7180D02*
X18527D01*
X17853Y7190D02*
X18527D01*
X17853Y7200D02*
X18527D01*
X17853Y7220D02*
X18537D01*
X17863Y7230D02*
X18537D01*
X17863Y7240D02*
X18537D01*
X17863Y7250D02*
X18547D01*
X17853Y7210D02*
X18537D01*
X17723Y6710D02*
X18397D01*
X17723Y6720D02*
X18397D01*
X17723Y6730D02*
X18407D01*
X17733Y6740D02*
X18407D01*
X17733Y6750D02*
X18407D01*
X17733Y6760D02*
X18407D01*
X17733Y6770D02*
X18417D01*
X17743Y6780D02*
X18417D01*
X17743Y6790D02*
X18417D01*
X17743Y6800D02*
X18427D01*
X17743Y6810D02*
X18427D01*
X17753Y6820D02*
X18427D01*
X17753Y6830D02*
X18427D01*
X17753Y6840D02*
X18437D01*
X17763Y6850D02*
X18437D01*
X17763Y6860D02*
X18437D01*
X17763Y6870D02*
X18437D01*
X17763Y6880D02*
X18447D01*
X17773Y6890D02*
X18447D01*
X17773Y6900D02*
X18447D01*
X17773Y6910D02*
X18447D01*
X17773Y6920D02*
X18457D01*
X17783Y6930D02*
X18457D01*
X17783Y6940D02*
X18457D01*
X17783Y6950D02*
X18467D01*
X17783Y6960D02*
X18467D01*
X17793Y6970D02*
X18467D01*
X17793Y6980D02*
X18467D01*
X17793Y6990D02*
X18477D01*
X17803Y7000D02*
X18477D01*
X17803Y7010D02*
X18477D01*
X17803Y7020D02*
X18477D01*
X17803Y7030D02*
X18487D01*
X17813Y7040D02*
X18487D01*
X17813Y7050D02*
X18487D01*
X17813Y7060D02*
X18497D01*
X17813Y7070D02*
X18497D01*
X17823Y7080D02*
X18497D01*
X17873Y7260D02*
X18547D01*
X17873Y7270D02*
X18547D01*
X17873Y7280D02*
X18547D01*
X17873Y7290D02*
X18557D01*
X17883Y7300D02*
X18557D01*
X17883Y7310D02*
X18557D01*
X17883Y7320D02*
X18567D01*
X17883Y7330D02*
X18567D01*
X17893Y7340D02*
X18567D01*
X17893Y7350D02*
X18567D01*
X17893Y7360D02*
X18577D01*
X17903Y7370D02*
X18577D01*
X17903Y7380D02*
X18577D01*
X17903Y7390D02*
X18577D01*
X17903Y7400D02*
X18587D01*
X17913Y7410D02*
X18587D01*
X17913Y7420D02*
X18587D01*
X17913Y7430D02*
X18587D01*
X19783Y6290D02*
X20677D01*
X19783Y6300D02*
X20677D01*
X19773Y6310D02*
X20677D01*
X19773Y6320D02*
X20667D01*
X19763Y6330D02*
X20667D01*
X19753Y6340D02*
X20657D01*
X19753Y6350D02*
X20657D01*
X19743Y6360D02*
X20657D01*
X19733Y6370D02*
X20647D01*
X19723Y6380D02*
X20647D01*
X19703Y6390D02*
X20637D01*
X19673Y6400D02*
X20637D01*
X18683Y6420D02*
X20627D01*
X18683Y6430D02*
X20627D01*
X18693Y6440D02*
X20617D01*
X18693Y6450D02*
X20617D01*
X18693Y6460D02*
X20607D01*
X18703Y6470D02*
X20607D01*
X18703Y6480D02*
X20597D01*
X18703Y6490D02*
X20597D01*
X18703Y6500D02*
X20587D01*
X18713Y6510D02*
X20587D01*
X18713Y6520D02*
X20577D01*
X18713Y6530D02*
X20577D01*
X18713Y6540D02*
X20567D01*
X18723Y6550D02*
X20567D01*
X18723Y6560D02*
X20557D01*
X18723Y6570D02*
X20557D01*
X18723Y6580D02*
X20547D01*
X18733Y6590D02*
X20537D01*
X18683Y6410D02*
X20637D01*
X19803Y6230D02*
X20697D01*
X19803Y6240D02*
X20697D01*
X19803Y6250D02*
X20697D01*
X19793Y6260D02*
X20687D01*
X19793Y6270D02*
X20687D01*
X19793Y6280D02*
X20687D01*
X19923Y5910D02*
X20787D01*
X19923Y5920D02*
X20777D01*
X19923Y5930D02*
X20777D01*
X19923Y5940D02*
X20777D01*
X19913Y5950D02*
X20777D01*
X19913Y5960D02*
X20777D01*
X19913Y5970D02*
X20767D01*
X19913Y5980D02*
X20767D01*
X19913Y5990D02*
X20767D01*
X19903Y6000D02*
X20767D01*
X19903Y6010D02*
X20757D01*
X19893Y6020D02*
X20757D01*
X19893Y6030D02*
X20757D01*
X19883Y6040D02*
X20757D01*
X19883Y6050D02*
X20757D01*
X19873Y6060D02*
X20747D01*
X19873Y6070D02*
X20747D01*
X19863Y6080D02*
X20747D01*
X19863Y6090D02*
X20737D01*
X19863Y6100D02*
X20737D01*
X19853Y6110D02*
X20737D01*
X19853Y6120D02*
X20737D01*
X19843Y6130D02*
X20727D01*
X19843Y6140D02*
X20727D01*
X19833Y6150D02*
X20727D01*
X19833Y6160D02*
X20727D01*
X19833Y6170D02*
X20717D01*
X19823Y6180D02*
X20717D01*
X19823Y6190D02*
X20717D01*
X19813Y6200D02*
X20707D01*
X19813Y6210D02*
X20707D01*
X19813Y6220D02*
X20707D01*
X19953Y5490D02*
X20817D01*
X19953Y5500D02*
X20817D01*
X19953Y5510D02*
X20817D01*
X19953Y5520D02*
X20817D01*
X19953Y5530D02*
X20817D01*
X19953Y5540D02*
X20817D01*
X19953Y5550D02*
X20817D01*
X19953Y5560D02*
X20817D01*
X19953Y5570D02*
X20817D01*
X19953Y5580D02*
X20817D01*
X19953Y5590D02*
X20817D01*
X19953Y5600D02*
X20817D01*
X19953Y5620D02*
X20817D01*
X19953Y5630D02*
X20817D01*
X19953Y5640D02*
X20817D01*
X19953Y5650D02*
X20817D01*
X19943Y5660D02*
X20817D01*
X19943Y5670D02*
X20817D01*
X19943Y5680D02*
X20807D01*
X19943Y5690D02*
X20807D01*
X19943Y5700D02*
X20807D01*
X19943Y5710D02*
X20807D01*
X19943Y5720D02*
X20807D01*
X19943Y5730D02*
X20807D01*
X19943Y5740D02*
X20807D01*
X19943Y5750D02*
X20807D01*
X19943Y5760D02*
X20807D01*
X19943Y5770D02*
X20807D01*
X19943Y5780D02*
X20807D01*
X19933Y5790D02*
X20797D01*
X19933Y5800D02*
X20797D01*
X19933Y5810D02*
X20797D01*
X19933Y5820D02*
X20797D01*
X19933Y5830D02*
X20797D01*
X19933Y5840D02*
X20797D01*
X19933Y5850D02*
X20797D01*
X19933Y5860D02*
X20787D01*
X19933Y5870D02*
X20787D01*
X19923Y5880D02*
X20787D01*
X19923Y5890D02*
X20787D01*
X19953Y5610D02*
X20817D01*
X19973Y5320D02*
X20777D01*
X19963Y5330D02*
X20787D01*
X19963Y5340D02*
X20787D01*
X19963Y5350D02*
X20797D01*
X19963Y5360D02*
X20797D01*
X19963Y5370D02*
X20797D01*
X19963Y5380D02*
X20797D01*
X19963Y5390D02*
X20797D01*
X19963Y5400D02*
X20807D01*
X19963Y5410D02*
X20807D01*
X19963Y5420D02*
X20807D01*
X19963Y5430D02*
X20807D01*
X19963Y5440D02*
X20807D01*
X19963Y5450D02*
X20807D01*
X19963Y5460D02*
X20807D01*
X19963Y5470D02*
X20807D01*
X19953Y5480D02*
X20807D01*
X20513Y4690D02*
X20667D01*
X18093Y4750D02*
X18487D01*
X18093Y4760D02*
X18487D01*
X18093Y4770D02*
X18487D01*
X18093Y4780D02*
X18487D01*
X18093Y4790D02*
X18487D01*
X18093Y4800D02*
X18487D01*
X18093Y4820D02*
X18487D01*
X18093Y4830D02*
X18487D01*
X18093Y4930D02*
X18487D01*
X18093Y4940D02*
X18497D01*
X18093Y4950D02*
X18497D01*
X18093Y4960D02*
X18507D01*
X18093Y4970D02*
X18507D01*
X18093Y4980D02*
X18517D01*
X18093Y4990D02*
X18517D01*
X18093Y5000D02*
X18517D01*
X18093Y5010D02*
X18497D01*
X20513Y4700D02*
X20667D01*
X20513Y4710D02*
X20667D01*
X20513Y4720D02*
X20667D01*
X20513Y4730D02*
X20667D01*
X20513Y4740D02*
X20667D01*
X20513Y4750D02*
X20667D01*
X20513Y4760D02*
X20667D01*
X20513Y4770D02*
X20667D01*
X20513Y4780D02*
X20667D01*
X20513Y4790D02*
X20667D01*
X20513Y4800D02*
X20667D01*
X20513Y4820D02*
X20667D01*
X20513Y4830D02*
X20667D01*
X20513Y4840D02*
X20667D01*
X20513Y4850D02*
X20667D01*
X20513Y4860D02*
X20667D01*
X20513Y4870D02*
X20667D01*
X20513Y4880D02*
X20667D01*
X20513Y4890D02*
X20667D01*
X20513Y4900D02*
X20667D01*
X20513Y4910D02*
X20667D01*
X20513Y4920D02*
X20667D01*
X20513Y4930D02*
X20667D01*
X20513Y4940D02*
X20667D01*
X20513Y4950D02*
X20667D01*
X20513Y4960D02*
X20667D01*
X20513Y4970D02*
X20667D01*
X20513Y4980D02*
X20667D01*
X20513Y4990D02*
X20667D01*
X20513Y5000D02*
X20667D01*
X20513Y5010D02*
X20667D01*
X20513Y5020D02*
X20667D01*
X20513Y5030D02*
X20667D01*
X20513Y5040D02*
X20667D01*
X18093Y4810D02*
X18487D01*
X20513D02*
X20667D01*
X18093Y4310D02*
X18537D01*
X18093Y4320D02*
X18547D01*
X18093Y4330D02*
X18547D01*
X18093Y4340D02*
X18557D01*
X18093Y4350D02*
X18557D01*
X18113Y4500D02*
X18307D01*
X18103Y4510D02*
X18277D01*
X20443Y4360D02*
X20777D01*
X20453Y4370D02*
X20777D01*
X20453Y4380D02*
X20767D01*
X20453Y4390D02*
X20757D01*
X20463Y4400D02*
X20757D01*
X20463Y4410D02*
X20747D01*
X20473Y4420D02*
X20747D01*
X20473Y4430D02*
X20737D01*
X20473Y4440D02*
X20727D01*
X20473Y4450D02*
X20727D01*
X20483Y4460D02*
X20717D01*
X20483Y4470D02*
X20717D01*
X20483Y4480D02*
X20707D01*
X20493Y4490D02*
X20707D01*
X20493Y4500D02*
X20697D01*
X20493Y4510D02*
X20697D01*
X20493Y4520D02*
X20697D01*
X20493Y4530D02*
X20687D01*
X20503Y4540D02*
X20687D01*
X20503Y4550D02*
X20677D01*
X20503Y4560D02*
X20677D01*
X20503Y4570D02*
X20677D01*
X20503Y4580D02*
X20667D01*
X20503Y4590D02*
X20667D01*
X20503Y4600D02*
X20667D01*
X20513Y4610D02*
X20667D01*
X20513Y4620D02*
X20667D01*
X20513Y4630D02*
X20667D01*
X20513Y4640D02*
X20667D01*
X20513Y4650D02*
X20667D01*
X20513Y4660D02*
X20667D01*
X20513Y4670D02*
X20667D01*
X20513Y4680D02*
X20667D01*
X17973Y4690D02*
X18147D01*
X20423Y4310D02*
X20597D01*
X20423Y4320D02*
X20597D01*
X20433Y4330D02*
X20597D01*
X20433Y4340D02*
X20607D01*
X20443Y4350D02*
X20607D01*
X17973Y4700D02*
X18147D01*
X18093Y4730D02*
X18227D01*
X18093Y4740D02*
X18227D01*
X18093Y4840D02*
X18227D01*
X18093Y4850D02*
X18227D01*
X18093Y4860D02*
X18227D01*
X18093Y4870D02*
X18227D01*
X18093Y4880D02*
X18227D01*
X18093Y4890D02*
X18227D01*
X18093Y4900D02*
X18227D01*
X18093Y4910D02*
X18227D01*
X18093Y4920D02*
X18227D01*
X18093Y5020D02*
X18227D01*
X18093Y5030D02*
X18227D01*
X18103Y5040D02*
X18227D01*
X18093Y4360D02*
X18227D01*
X18093Y4370D02*
X18227D01*
X18093Y4520D02*
X18247D01*
X18083Y4530D02*
X18227D01*
X17953Y4650D02*
X18137D01*
X17963Y4660D02*
X18137D01*
X17963Y4670D02*
X18137D01*
X17973Y4680D02*
X18137D01*
X17883Y4540D02*
X18207D01*
X18093Y4060D02*
X18487D01*
X18093Y4070D02*
X18487D01*
X18093Y4080D02*
X18487D01*
X18093Y4090D02*
X18487D01*
X18093Y4100D02*
X18487D01*
X18093Y4110D02*
X18487D01*
X18093Y4120D02*
X18487D01*
X18093Y4130D02*
X18487D01*
X18093Y4140D02*
X18487D01*
X18093Y4150D02*
X18487D01*
X18093Y4270D02*
X18487D01*
X18093Y4280D02*
X18487D01*
X18093Y4290D02*
X18497D01*
X18893Y4220D02*
X19057D01*
X18893Y4230D02*
X19067D01*
X18903Y4240D02*
X19077D01*
X18913Y4250D02*
X19087D01*
X20343Y4180D02*
X20507D01*
X20343Y4190D02*
X20517D01*
X20353Y4200D02*
X20527D01*
X20363Y4210D02*
X20527D01*
X20363Y4220D02*
X20537D01*
X20373Y4230D02*
X20547D01*
X20383Y4240D02*
X20557D01*
X20383Y4250D02*
X20557D01*
X20393Y4260D02*
X20567D01*
X20403Y4270D02*
X20567D01*
X20403Y4280D02*
X20577D01*
X20413Y4290D02*
X20587D01*
X19493Y4120D02*
X19717D01*
X19483Y4130D02*
X19727D01*
X19473Y4140D02*
X19737D01*
X19473Y4150D02*
X19757D01*
X19463Y4160D02*
X19767D01*
X19453Y4170D02*
X19767D01*
X19443Y4180D02*
X19757D01*
X19443Y4190D02*
X19737D01*
X19433Y4200D02*
X19717D01*
X19423Y4210D02*
X19707D01*
X18733Y4090D02*
X18907D01*
X18753Y4100D02*
X18917D01*
X18763Y4110D02*
X18937D01*
X18773Y4120D02*
X18947D01*
X18793Y4130D02*
X18957D01*
X18803Y4140D02*
X18977D01*
X18813Y4150D02*
X18987D01*
X18823Y4160D02*
X18997D01*
X18833Y4170D02*
X19007D01*
X18853Y4180D02*
X19017D01*
X18863Y4190D02*
X19027D01*
X18873Y4200D02*
X19037D01*
X18883Y4210D02*
X19047D01*
X18093Y4020D02*
X18227D01*
X18093Y4030D02*
X18227D01*
X18093Y4040D02*
X18227D01*
X18093Y4050D02*
X18227D01*
X18093Y4160D02*
X18227D01*
X18093Y4170D02*
X18227D01*
X18093Y4180D02*
X18227D01*
X18093Y4190D02*
X18227D01*
X18093Y4200D02*
X18227D01*
X18093Y4210D02*
X18227D01*
X18093Y4220D02*
X18227D01*
X18093Y4230D02*
X18227D01*
X18093Y4240D02*
X18227D01*
X18093Y4250D02*
X18227D01*
X18093Y4260D02*
X18227D01*
X14643Y7510D02*
X17237D01*
X14643Y7520D02*
X17237D01*
X14653Y7530D02*
X17237D01*
X14653Y7540D02*
X17237D01*
X14653Y7550D02*
X17227D01*
X14653Y7560D02*
X17227D01*
X14663Y7570D02*
X17227D01*
X14663Y7580D02*
X17217D01*
X14663Y7590D02*
X17217D01*
X14663Y7600D02*
X17207D01*
X14743Y7890D02*
X17007D01*
X14743Y7900D02*
X16997D01*
X14743Y7910D02*
X16987D01*
X14753Y7920D02*
X16977D01*
X14753Y7930D02*
X16957D01*
X14753Y7940D02*
X16947D01*
X14763Y7950D02*
X16937D01*
X14763Y7960D02*
X16917D01*
X14763Y7970D02*
X16897D01*
X14763Y7980D02*
X16877D01*
X14773Y7990D02*
X16857D01*
X14773Y8000D02*
X16817D01*
X14673Y7610D02*
X17207D01*
X14673Y7620D02*
X17207D01*
X14673Y7630D02*
X17197D01*
X14673Y7640D02*
X17197D01*
X14683Y7650D02*
X17187D01*
X14683Y7660D02*
X17187D01*
X14683Y7670D02*
X17177D01*
X14693Y7680D02*
X17177D01*
X14693Y7690D02*
X17167D01*
X14693Y7700D02*
X17167D01*
X14693Y7710D02*
X17157D01*
X14703Y7720D02*
X17157D01*
X14703Y7730D02*
X17147D01*
X14703Y7740D02*
X17137D01*
X14703Y7750D02*
X17137D01*
X14703Y7760D02*
X17127D01*
X14713Y7770D02*
X17117D01*
X14713Y7780D02*
X17107D01*
X14713Y7790D02*
X17107D01*
X14723Y7800D02*
X17097D01*
X14723Y7810D02*
X17087D01*
X14723Y7820D02*
X17077D01*
X14723Y7830D02*
X17067D01*
X14733Y7840D02*
X17057D01*
X14733Y7850D02*
X17047D01*
X14733Y7860D02*
X17037D01*
X14733Y7870D02*
X17027D01*
X14743Y7880D02*
X17017D01*
X14623Y7440D02*
X17257D01*
X14623Y7450D02*
X17257D01*
X14633Y7460D02*
X17247D01*
X14633Y7470D02*
X17247D01*
X14633Y7480D02*
X17247D01*
X14633Y7490D02*
X17247D01*
X15543Y7090D02*
X16247D01*
X15553Y7100D02*
X16257D01*
X15553Y7110D02*
X16257D01*
X15553Y7120D02*
X16257D01*
X15563Y7130D02*
X16257D01*
X15563Y7140D02*
X16267D01*
X15563Y7150D02*
X16267D01*
X15563Y7160D02*
X16267D01*
X15573Y7170D02*
X16267D01*
X15573Y7180D02*
X16277D01*
X15573Y7190D02*
X16277D01*
X15573Y7200D02*
X16277D01*
X15563Y7220D02*
X16287D01*
X15563Y7230D02*
X16287D01*
X15563Y7240D02*
X16287D01*
X15563Y7250D02*
X16297D01*
X15553Y7260D02*
X16297D01*
X15553Y7270D02*
X16297D01*
X15543Y7280D02*
X16297D01*
X15573Y7210D02*
X16287D01*
X15543Y7290D02*
X16307D01*
X15533Y7300D02*
X16307D01*
X15533Y7310D02*
X16307D01*
X15523Y7320D02*
X16307D01*
X15513Y7330D02*
X16307D01*
X15503Y7340D02*
X16317D01*
X15503Y7350D02*
X16317D01*
X15483Y7360D02*
X16317D01*
X15473Y7370D02*
X16317D01*
X15463Y7380D02*
X16317D01*
X15443Y7390D02*
X16317D01*
X15433Y7400D02*
X16317D01*
X15413Y7410D02*
X16317D01*
X15393Y7420D02*
X16317D01*
X15363Y7430D02*
X16317D01*
X15523Y6980D02*
X16217D01*
X15523Y6990D02*
X16227D01*
X15523Y7000D02*
X16227D01*
X15523Y7010D02*
X16227D01*
X15533Y7020D02*
X16227D01*
X15533Y7030D02*
X16237D01*
X15533Y7040D02*
X16237D01*
X15533Y7050D02*
X16237D01*
X15543Y7060D02*
X16247D01*
X15543Y7070D02*
X16247D01*
X15543Y7080D02*
X16247D01*
X15443Y6710D02*
X16147D01*
X15453Y6720D02*
X16147D01*
X15453Y6730D02*
X16157D01*
X15453Y6740D02*
X16157D01*
X15453Y6750D02*
X16157D01*
X15463Y6760D02*
X16157D01*
X15463Y6770D02*
X16167D01*
X15463Y6780D02*
X16167D01*
X15463Y6790D02*
X16167D01*
X15473Y6800D02*
X16177D01*
X15473Y6810D02*
X16177D01*
X15473Y6820D02*
X16177D01*
X15473Y6830D02*
X16177D01*
X15483Y6840D02*
X16187D01*
X15483Y6850D02*
X16187D01*
X15483Y6860D02*
X16187D01*
X15493Y6870D02*
X16187D01*
X15493Y6880D02*
X16197D01*
X15493Y6890D02*
X16197D01*
X15493Y6900D02*
X16197D01*
X15503Y6910D02*
X16197D01*
X15503Y6920D02*
X16207D01*
X15503Y6930D02*
X16207D01*
X15503Y6940D02*
X16207D01*
X15513Y6950D02*
X16217D01*
X15513Y6960D02*
X16217D01*
X15513Y6970D02*
X16217D01*
X15333Y6290D02*
X16037D01*
X15333Y6300D02*
X16037D01*
X15343Y6310D02*
X16037D01*
X15343Y6320D02*
X16047D01*
X15343Y6330D02*
X16047D01*
X15343Y6340D02*
X16047D01*
X15353Y6350D02*
X16047D01*
X15353Y6360D02*
X16057D01*
X15353Y6370D02*
X16057D01*
X15353Y6380D02*
X16057D01*
X15363Y6390D02*
X16067D01*
X15363Y6400D02*
X16067D01*
X15363Y6420D02*
X16067D01*
X15373Y6430D02*
X16077D01*
X15373Y6440D02*
X16077D01*
X15373Y6450D02*
X16077D01*
X15383Y6460D02*
X16077D01*
X15383Y6470D02*
X16087D01*
X15383Y6480D02*
X16087D01*
X15383Y6490D02*
X16087D01*
X15393Y6500D02*
X16087D01*
X15393Y6510D02*
X16097D01*
X15393Y6520D02*
X16097D01*
X15393Y6530D02*
X16097D01*
X15403Y6540D02*
X16107D01*
X15403Y6550D02*
X16107D01*
X15403Y6560D02*
X16107D01*
X15403Y6570D02*
X16107D01*
X15413Y6580D02*
X16117D01*
X15413Y6590D02*
X16117D01*
X15413Y6600D02*
X16117D01*
X15423Y6610D02*
X16117D01*
X15423Y6620D02*
X16127D01*
X15423Y6630D02*
X16127D01*
X15423Y6640D02*
X16127D01*
X15433Y6650D02*
X16127D01*
X15433Y6660D02*
X16137D01*
X15433Y6670D02*
X16137D01*
X15433Y6680D02*
X16137D01*
X15443Y6690D02*
X16147D01*
X15363Y6410D02*
X16067D01*
X15233Y5910D02*
X15937D01*
X15233Y5920D02*
X15937D01*
X15233Y5930D02*
X15937D01*
X15243Y5940D02*
X15937D01*
X15243Y5950D02*
X15947D01*
X15243Y5960D02*
X15947D01*
X15243Y5970D02*
X15947D01*
X15253Y5980D02*
X15947D01*
X15253Y5990D02*
X15957D01*
X15253Y6000D02*
X15957D01*
X15253Y6010D02*
X15957D01*
X15263Y6020D02*
X15967D01*
X15263Y6030D02*
X15967D01*
X15263Y6040D02*
X15967D01*
X15273Y6050D02*
X15967D01*
X15273Y6060D02*
X15977D01*
X15273Y6070D02*
X15977D01*
X15273Y6080D02*
X15977D01*
X15283Y6090D02*
X15977D01*
X15283Y6100D02*
X15987D01*
X15283Y6110D02*
X15987D01*
X15283Y6120D02*
X15987D01*
X15293Y6130D02*
X15997D01*
X15293Y6140D02*
X15997D01*
X15293Y6150D02*
X15997D01*
X15293Y6160D02*
X15997D01*
X15303Y6170D02*
X16007D01*
X15303Y6180D02*
X16007D01*
X15303Y6190D02*
X16007D01*
X15313Y6200D02*
X16007D01*
X15313Y6210D02*
X16017D01*
X15313Y6220D02*
X16017D01*
X15313Y6230D02*
X16017D01*
X15323Y6240D02*
X16017D01*
X15323Y6250D02*
X16027D01*
X15323Y6260D02*
X16027D01*
X15323Y6270D02*
X16027D01*
X15333Y6280D02*
X16037D01*
X15153Y5620D02*
X15857D01*
X15153Y5630D02*
X15857D01*
X15153Y5640D02*
X15857D01*
X15163Y5650D02*
X15867D01*
X15163Y5660D02*
X15867D01*
X15163Y5670D02*
X15867D01*
X15173Y5680D02*
X15867D01*
X15173Y5690D02*
X15877D01*
X15173Y5700D02*
X15877D01*
X15173Y5710D02*
X15877D01*
X15183Y5720D02*
X15877D01*
X15183Y5730D02*
X15887D01*
X15183Y5740D02*
X15887D01*
X15183Y5750D02*
X15887D01*
X15193Y5760D02*
X15897D01*
X15193Y5770D02*
X15897D01*
X15193Y5780D02*
X15897D01*
X15203Y5790D02*
X15897D01*
X15203Y5800D02*
X15907D01*
X15203Y5810D02*
X15907D01*
X15203Y5820D02*
X15907D01*
X15213Y5830D02*
X15907D01*
X15213Y5840D02*
X15917D01*
X15213Y5850D02*
X15917D01*
X15213Y5860D02*
X15917D01*
X15223Y5870D02*
X15927D01*
X15223Y5880D02*
X15927D01*
X15223Y5890D02*
X15927D01*
X15153Y5610D02*
X15857D01*
X15113Y5490D02*
X15817D01*
X15123Y5500D02*
X15827D01*
X15123Y5510D02*
X15827D01*
X15123Y5520D02*
X15827D01*
X15133Y5530D02*
X15827D01*
X15133Y5540D02*
X15837D01*
X15133Y5550D02*
X15837D01*
X15133Y5560D02*
X15837D01*
X15143Y5570D02*
X15837D01*
X15143Y5580D02*
X15847D01*
X15143Y5590D02*
X15847D01*
X15143Y5600D02*
X15847D01*
X15073Y5330D02*
X15777D01*
X15073Y5340D02*
X15777D01*
X15083Y5350D02*
X15787D01*
X15083Y5360D02*
X15787D01*
X15083Y5370D02*
X15787D01*
X15083Y5380D02*
X15787D01*
X15093Y5390D02*
X15797D01*
X15093Y5400D02*
X15797D01*
X15093Y5410D02*
X15797D01*
X15103Y5420D02*
X15797D01*
X15103Y5430D02*
X15807D01*
X15103Y5440D02*
X15807D01*
X15103Y5450D02*
X15807D01*
X15113Y5460D02*
X15807D01*
X15113Y5470D02*
X15817D01*
X15113Y5480D02*
X15817D01*
X16483Y4690D02*
X16657D01*
X15593Y4830D02*
X16207D01*
X15593Y4840D02*
X16217D01*
X15593Y4850D02*
X16217D01*
X15593Y4860D02*
X16227D01*
X15593Y4870D02*
X16227D01*
X15593Y4880D02*
X16217D01*
X15583Y4890D02*
X16207D01*
X15583Y4900D02*
X16187D01*
X16483Y4700D02*
X16657D01*
X16363Y4710D02*
X16787D01*
X16363Y4720D02*
X16797D01*
X16363Y4730D02*
X16807D01*
X16353Y4740D02*
X16807D01*
X16353Y4750D02*
X16817D01*
X16353Y4760D02*
X16817D01*
X16353Y4770D02*
X16807D01*
X16353Y4780D02*
X16797D01*
X16353Y4790D02*
X16787D01*
X16353Y4800D02*
X16767D01*
X16513Y4820D02*
X16657D01*
X16513Y4830D02*
X16657D01*
X16513Y4840D02*
X16657D01*
X16513Y4850D02*
X16657D01*
X16513Y4860D02*
X16657D01*
X16513Y4870D02*
X16657D01*
X16513Y4880D02*
X16657D01*
X16513Y4890D02*
X16657D01*
X16513Y4900D02*
X16657D01*
X16513Y4910D02*
X16657D01*
X16513Y4920D02*
X16657D01*
X16513Y4930D02*
X16657D01*
X16513Y4940D02*
X16657D01*
X16513Y4950D02*
X16657D01*
X16513Y4960D02*
X16657D01*
X16513Y4970D02*
X16657D01*
X16513Y4980D02*
X16657D01*
X16513Y4990D02*
X16657D01*
X16513Y5000D02*
X16657D01*
X16513Y5010D02*
X16657D01*
X16513Y5020D02*
X16657D01*
X16513Y5030D02*
X16657D01*
X16513Y5040D02*
X16657D01*
X16513Y5050D02*
X16657D01*
X16503Y4810D02*
X16657D01*
X15193Y4800D02*
X16187D01*
X15513Y4820D02*
X16197D01*
X15193Y4810D02*
X16197D01*
X15633Y4530D02*
X16147D01*
X15633Y4540D02*
X16157D01*
X15623Y4550D02*
X16167D01*
X15623Y4560D02*
X16167D01*
X15623Y4570D02*
X16177D01*
X15623Y4580D02*
X16187D01*
X15623Y4590D02*
X16187D01*
X15623Y4600D02*
X16177D01*
X15613Y4610D02*
X16167D01*
X15613Y4620D02*
X16147D01*
X15613Y4630D02*
X16137D01*
X16513Y4310D02*
X16657D01*
X16513Y4320D02*
X16657D01*
X16513Y4330D02*
X16657D01*
X16513Y4340D02*
X16657D01*
X16513Y4350D02*
X16657D01*
X16513Y4360D02*
X16657D01*
X16513Y4370D02*
X16657D01*
X16513Y4380D02*
X16657D01*
X16513Y4390D02*
X16657D01*
X16513Y4400D02*
X16657D01*
X16513Y4410D02*
X16657D01*
X16393Y4420D02*
X16657D01*
X16393Y4430D02*
X16657D01*
X16403Y4440D02*
X16657D01*
X16403Y4450D02*
X16657D01*
X16403Y4460D02*
X16657D01*
X16413Y4470D02*
X16657D01*
X16413Y4480D02*
X16657D01*
X16423Y4490D02*
X16657D01*
X16423Y4500D02*
X16657D01*
X16423Y4510D02*
X16657D01*
X16433Y4520D02*
X16657D01*
X16433Y4530D02*
X16807D01*
X16433Y4540D02*
X16787D01*
X16443Y4550D02*
X16777D01*
X16443Y4560D02*
X16767D01*
X16453Y4570D02*
X16757D01*
X16453Y4580D02*
X16747D01*
X16453Y4590D02*
X16737D01*
X16453Y4600D02*
X16727D01*
X16463Y4610D02*
X16707D01*
X16463Y4620D02*
X16697D01*
X16463Y4630D02*
X16687D01*
X16473Y4640D02*
X16677D01*
X16473Y4650D02*
X16657D01*
X16473Y4660D02*
X16657D01*
X16473Y4670D02*
X16657D01*
X16483Y4680D02*
X16657D01*
X15713Y4420D02*
X15847D01*
X15713Y4430D02*
X15837D01*
X15713Y4440D02*
X15827D01*
X15703Y4450D02*
X15827D01*
X15703Y4460D02*
X15817D01*
X15703Y4470D02*
X15817D01*
X15693Y4480D02*
X15807D01*
X15693Y4490D02*
X15807D01*
X15693Y4500D02*
X15797D01*
X15693Y4510D02*
X15797D01*
X15683Y4520D02*
X15797D01*
X14913Y4740D02*
X15027D01*
X14853Y4960D02*
X14957D01*
X14863Y4970D02*
X14937D01*
X14873Y4980D02*
X14927D01*
X14883Y4990D02*
X14917D01*
X15663Y4120D02*
X15867D01*
X15673Y4130D02*
X15877D01*
X15693Y4140D02*
X16247D01*
X15703Y4150D02*
X16257D01*
X16513Y3990D02*
X16657D01*
X16513Y4000D02*
X16657D01*
X16513Y4020D02*
X16657D01*
X16513Y4030D02*
X16657D01*
X16513Y4040D02*
X16777D01*
X16513Y4050D02*
X16657D01*
X16513Y4060D02*
X16657D01*
X16513Y4070D02*
X16657D01*
X16513Y4080D02*
X16657D01*
X16513Y4090D02*
X16657D01*
X16513Y4100D02*
X16657D01*
X16513Y4110D02*
X16657D01*
X16513Y4120D02*
X16657D01*
X16513Y4130D02*
X16657D01*
X16513Y4140D02*
X16657D01*
X16513Y4150D02*
X16657D01*
X16513Y4160D02*
X16657D01*
X16513Y4170D02*
X16657D01*
X16513Y4180D02*
X16657D01*
X16513Y4190D02*
X16657D01*
X16513Y4200D02*
X16657D01*
X16513Y4210D02*
X16657D01*
X16513Y4220D02*
X16657D01*
X16513Y4230D02*
X16657D01*
X16513Y4240D02*
X16657D01*
X16513Y4250D02*
X16657D01*
X16513Y4260D02*
X16657D01*
X16513Y4270D02*
X16657D01*
X16513Y4280D02*
X16657D01*
X16513Y4290D02*
X16657D01*
X16513Y4010D02*
X16657D01*
X17193Y4030D02*
X17337D01*
X17153Y4040D02*
X17367D01*
X17143Y4050D02*
X17377D01*
X17123Y4060D02*
X17387D01*
X17123Y4070D02*
X17397D01*
X17303Y4190D02*
X17417D01*
X17313Y4200D02*
X17407D01*
X17313Y4210D02*
X17397D01*
X17313Y4220D02*
X17397D01*
X17313Y4230D02*
X17397D01*
X17113Y4080D02*
X17407D01*
X17113Y4090D02*
X17417D01*
X17103Y4100D02*
X17417D01*
X17103Y4110D02*
X17427D01*
X17103Y4120D02*
X17427D01*
X17093Y4130D02*
X17427D01*
X17093Y4140D02*
X17437D01*
X17093Y4150D02*
X17437D01*
X17093Y4160D02*
X17437D01*
X17093Y4170D02*
X17437D01*
X17093Y4180D02*
X17437D01*
X15533Y4030D02*
X15707D01*
X15523Y4040D02*
X15727D01*
X15533Y4050D02*
X15747D01*
X15553Y4060D02*
X15767D01*
X15573Y4070D02*
X15787D01*
X15593Y4080D02*
X15807D01*
X15613Y4090D02*
X15817D01*
X15623Y4100D02*
X15837D01*
X15643Y4110D02*
X15847D01*
X14883Y4150D02*
X15017D01*
X14893Y4160D02*
X15007D01*
X14903Y4170D02*
X14997D01*
X14903Y4180D02*
X14997D01*
X14913Y4190D02*
X14987D01*
X14913Y4200D02*
X14987D01*
X14913Y4210D02*
X14987D01*
X14643Y4020D02*
X14987D01*
X14623Y4030D02*
X14997D01*
X14613Y4040D02*
X15007D01*
X14603Y4050D02*
X15007D01*
X14593Y4060D02*
X15017D01*
X14593Y4070D02*
X15017D01*
X14583Y4080D02*
X15027D01*
X14583Y4090D02*
X15027D01*
X14583Y4100D02*
X15037D01*
X14583Y4110D02*
X15037D01*
X14573Y4120D02*
X15037D01*
X14573Y4130D02*
X15037D01*
X14573Y4140D02*
X15047D01*
X14673Y4010D02*
X14967D01*
X13463Y7890D02*
X14117D01*
X13463Y7900D02*
X14127D01*
X13463Y7910D02*
X14127D01*
X11643Y7510D02*
X12307D01*
X11643Y7520D02*
X12307D01*
X11643Y7530D02*
X12307D01*
X11643Y7540D02*
X12307D01*
X11653Y7550D02*
X12317D01*
X11653Y7560D02*
X12317D01*
X11653Y7570D02*
X12317D01*
X11663Y7580D02*
X12317D01*
X11663Y7590D02*
X12327D01*
X11663Y7600D02*
X12327D01*
X11663Y7610D02*
X12327D01*
X11673Y7620D02*
X12337D01*
X11673Y7630D02*
X12337D01*
X11673Y7640D02*
X12337D01*
X11673Y7650D02*
X12337D01*
X11683Y7660D02*
X12347D01*
X11683Y7670D02*
X12347D01*
X11683Y7680D02*
X12347D01*
X11693Y7690D02*
X12347D01*
X11693Y7700D02*
X12357D01*
X11693Y7710D02*
X12357D01*
X11693Y7720D02*
X12357D01*
X11703Y7730D02*
X12367D01*
X11703Y7740D02*
X12367D01*
X11703Y7750D02*
X12367D01*
X11703Y7760D02*
X12367D01*
X11713Y7770D02*
X12377D01*
X11713Y7780D02*
X12377D01*
X11713Y7790D02*
X12377D01*
X11713Y7800D02*
X12377D01*
X13443Y7820D02*
X14107D01*
X13443Y7830D02*
X14107D01*
X13443Y7840D02*
X14107D01*
X13453Y7850D02*
X14107D01*
X13453Y7860D02*
X14117D01*
X13453Y7870D02*
X14117D01*
X13463Y7880D02*
X14117D01*
X13473Y7920D02*
X14127D01*
X13473Y7930D02*
X14137D01*
X13473Y7940D02*
X14137D01*
X13473Y7950D02*
X14137D01*
X13483Y7960D02*
X14137D01*
X13483Y7970D02*
X14147D01*
X13483Y7980D02*
X14147D01*
X13483Y7990D02*
X14147D01*
X13493Y8000D02*
X14147D01*
X11423Y6710D02*
X12087D01*
X11433Y6720D02*
X12087D01*
X11433Y6730D02*
X12097D01*
X11433Y6740D02*
X12097D01*
X11433Y6750D02*
X12097D01*
X11443Y6760D02*
X12097D01*
X11443Y6770D02*
X12107D01*
X11443Y6780D02*
X12107D01*
X11453Y6790D02*
X12107D01*
X11453Y6800D02*
X12117D01*
X11453Y6810D02*
X12117D01*
X11453Y6820D02*
X12117D01*
X11463Y6830D02*
X12117D01*
X11463Y6840D02*
X12127D01*
X11463Y6850D02*
X12127D01*
X11463Y6860D02*
X12127D01*
X11523Y7090D02*
X12187D01*
X13243D02*
X13907D01*
X11533Y7100D02*
X12197D01*
X11533Y7110D02*
X12197D01*
X11533Y7120D02*
X12197D01*
X11533Y7130D02*
X12197D01*
X11543Y7140D02*
X12207D01*
X11543Y7150D02*
X12207D01*
X11543Y7160D02*
X12207D01*
X11553Y7170D02*
X12207D01*
X11553Y7180D02*
X12217D01*
X11553Y7190D02*
X12217D01*
X11553Y7200D02*
X12217D01*
X11563Y7220D02*
X12227D01*
X11563Y7230D02*
X12227D01*
X11563Y7240D02*
X12227D01*
X11573Y7250D02*
X12237D01*
X11573Y7260D02*
X12237D01*
X11573Y7270D02*
X12237D01*
X11573Y7280D02*
X12237D01*
X11583Y7290D02*
X12247D01*
X11583Y7300D02*
X12247D01*
X11583Y7310D02*
X12247D01*
X11593Y7320D02*
X12247D01*
X11593Y7330D02*
X12257D01*
X11593Y7340D02*
X12257D01*
X11593Y7350D02*
X12257D01*
X11603Y7360D02*
X12267D01*
X11603Y7370D02*
X12267D01*
X11603Y7380D02*
X12267D01*
X11603Y7390D02*
X12267D01*
X11613Y7400D02*
X12277D01*
X11613Y7410D02*
X12277D01*
X11613Y7420D02*
X12277D01*
X11623Y7430D02*
X12277D01*
X11623Y7440D02*
X12287D01*
X11623Y7450D02*
X12287D01*
X11623Y7460D02*
X12287D01*
X11633Y7470D02*
X12297D01*
X11633Y7480D02*
X12297D01*
X11633Y7490D02*
X12297D01*
X11563Y7210D02*
X12227D01*
X13253Y7100D02*
X13907D01*
X13253Y7110D02*
X13907D01*
X13253Y7120D02*
X13917D01*
X13253Y7130D02*
X13917D01*
X13263Y7140D02*
X13917D01*
X13263Y7150D02*
X13927D01*
X13263Y7160D02*
X13927D01*
X13263Y7170D02*
X13927D01*
X13273Y7180D02*
X13927D01*
X13273Y7190D02*
X13937D01*
X13273Y7200D02*
X13937D01*
X13283Y7220D02*
X13937D01*
X13283Y7230D02*
X13947D01*
X13283Y7240D02*
X13947D01*
X13293Y7250D02*
X13947D01*
X13293Y7260D02*
X13957D01*
X13293Y7270D02*
X13957D01*
X13293Y7280D02*
X13957D01*
X13303Y7290D02*
X13957D01*
X13303Y7300D02*
X13967D01*
X13303Y7310D02*
X13967D01*
X13303Y7320D02*
X13967D01*
X13313Y7330D02*
X13967D01*
X13313Y7340D02*
X13977D01*
X13313Y7350D02*
X13977D01*
X13273Y7210D02*
X13937D01*
X11523Y7060D02*
X12177D01*
X11523Y7070D02*
X12187D01*
X11523Y7080D02*
X12187D01*
X13143Y6710D02*
X13807D01*
X13143Y6720D02*
X13807D01*
X13153Y6730D02*
X13807D01*
X13153Y6740D02*
X13817D01*
X13153Y6750D02*
X13817D01*
X13153Y6760D02*
X13817D01*
X13163Y6770D02*
X13817D01*
X13163Y6780D02*
X13827D01*
X13163Y6790D02*
X13827D01*
X13163Y6800D02*
X13827D01*
X13173Y6810D02*
X13827D01*
X13173Y6820D02*
X13837D01*
X13173Y6830D02*
X13837D01*
X13183Y6840D02*
X13837D01*
X13183Y6850D02*
X13837D01*
X13183Y6860D02*
X13847D01*
X13183Y6870D02*
X13847D01*
X13193Y6880D02*
X13847D01*
X13193Y6890D02*
X13857D01*
X13193Y6900D02*
X13857D01*
X13193Y6910D02*
X13857D01*
X13203Y6920D02*
X13857D01*
X13203Y6930D02*
X13867D01*
X13203Y6940D02*
X13867D01*
X13203Y6950D02*
X13867D01*
X13213Y6960D02*
X13867D01*
X13213Y6970D02*
X13877D01*
X13213Y6980D02*
X13877D01*
X13223Y6990D02*
X13877D01*
X13223Y7000D02*
X13887D01*
X13223Y7010D02*
X13887D01*
X13223Y7020D02*
X13887D01*
X13233Y7030D02*
X13887D01*
X13233Y7040D02*
X13897D01*
X13233Y7050D02*
X13897D01*
X13233Y7060D02*
X13897D01*
X13243Y7070D02*
X13897D01*
X11473Y6870D02*
X12127D01*
X11473Y6880D02*
X12137D01*
X11473Y6890D02*
X12137D01*
X11483Y6900D02*
X12137D01*
X11483Y6910D02*
X12137D01*
X11483Y6920D02*
X12147D01*
X11483Y6930D02*
X12147D01*
X11483Y6940D02*
X12147D01*
X11493Y6950D02*
X12157D01*
X11493Y6960D02*
X12157D01*
X11493Y6970D02*
X12157D01*
X11493Y6980D02*
X12157D01*
X11503Y6990D02*
X12167D01*
X11503Y7000D02*
X12167D01*
X11503Y7010D02*
X12167D01*
X11503Y7020D02*
X12167D01*
X11513Y7030D02*
X12177D01*
X11513Y7040D02*
X12177D01*
X11513Y7050D02*
X12177D01*
X13243Y7080D02*
X13907D01*
X11323Y6310D02*
X11977D01*
X11323Y6320D02*
X11987D01*
X11323Y6330D02*
X11987D01*
X11323Y6340D02*
X11987D01*
X11333Y6350D02*
X11987D01*
X11333Y6360D02*
X11997D01*
X11333Y6370D02*
X11997D01*
X11343Y6380D02*
X11997D01*
X11343Y6390D02*
X11997D01*
X11343Y6400D02*
X12007D01*
X11353Y6420D02*
X12007D01*
X11353Y6430D02*
X12017D01*
X11353Y6440D02*
X12017D01*
X11353Y6450D02*
X12017D01*
X11363Y6460D02*
X12017D01*
X11363Y6470D02*
X12027D01*
X11363Y6480D02*
X12027D01*
X11363Y6490D02*
X12027D01*
X11373Y6500D02*
X12027D01*
X11373Y6510D02*
X12037D01*
X11373Y6520D02*
X12037D01*
X11383Y6530D02*
X12037D01*
X11383Y6540D02*
X12047D01*
X11383Y6550D02*
X12047D01*
X11383Y6560D02*
X12047D01*
X11393Y6570D02*
X12047D01*
X11393Y6580D02*
X12057D01*
X11393Y6590D02*
X12057D01*
X11393Y6600D02*
X12057D01*
X11403Y6610D02*
X12057D01*
X11403Y6620D02*
X12067D01*
X11403Y6630D02*
X12067D01*
X11413Y6640D02*
X12067D01*
X11413Y6650D02*
X12067D01*
X11413Y6660D02*
X12077D01*
X11413Y6670D02*
X12077D01*
X11423Y6680D02*
X12077D01*
X11423Y6690D02*
X12087D01*
X11343Y6410D02*
X12007D01*
X13033Y6290D02*
X13687D01*
X13123Y6620D02*
X13777D01*
X13123Y6630D02*
X13787D01*
X13123Y6640D02*
X13787D01*
X13123Y6650D02*
X13787D01*
X13133Y6660D02*
X13787D01*
X13133Y6670D02*
X13797D01*
X13133Y6680D02*
X13797D01*
X13143Y6690D02*
X13797D01*
X13033Y6300D02*
X13697D01*
X13033Y6310D02*
X13697D01*
X13043Y6320D02*
X13697D01*
X13043Y6330D02*
X13697D01*
X13043Y6340D02*
X13707D01*
X13043Y6350D02*
X13707D01*
X13053Y6360D02*
X13707D01*
X13053Y6370D02*
X13717D01*
X13053Y6380D02*
X13717D01*
X13053Y6390D02*
X13717D01*
X13063Y6400D02*
X13717D01*
X13063Y6420D02*
X13727D01*
X13073Y6430D02*
X13727D01*
X13073Y6440D02*
X13727D01*
X13073Y6450D02*
X13737D01*
X13073Y6460D02*
X13737D01*
X13083Y6470D02*
X13737D01*
X13083Y6480D02*
X13747D01*
X13083Y6490D02*
X13747D01*
X13083Y6500D02*
X13747D01*
X13093Y6510D02*
X13747D01*
X13093Y6520D02*
X13757D01*
X13093Y6530D02*
X13757D01*
X13093Y6540D02*
X13757D01*
X13103Y6550D02*
X13757D01*
X13103Y6560D02*
X13767D01*
X13103Y6570D02*
X13767D01*
X13113Y6580D02*
X13767D01*
X13113Y6590D02*
X13767D01*
X13113Y6600D02*
X13777D01*
X13113Y6610D02*
X13777D01*
X13063Y6410D02*
X13727D01*
X12603Y5950D02*
X13607D01*
X12633Y5960D02*
X13607D01*
X12673Y5970D02*
X13607D01*
X12693Y5980D02*
X13607D01*
X12723Y5990D02*
X13617D01*
X12743Y6000D02*
X13617D01*
X12773Y6010D02*
X13617D01*
X12793Y6020D02*
X13617D01*
X12813Y6030D02*
X13617D01*
X12823Y6040D02*
X13627D01*
X12843Y6050D02*
X13627D01*
X12853Y6060D02*
X13627D01*
X12873Y6070D02*
X13627D01*
X12883Y6080D02*
X13637D01*
X12893Y6090D02*
X13637D01*
X12903Y6100D02*
X13637D01*
X12913Y6110D02*
X13647D01*
X12923Y6120D02*
X13647D01*
X12933Y6130D02*
X13647D01*
X12933Y6140D02*
X13647D01*
X12943Y6150D02*
X13657D01*
X12953Y6160D02*
X13657D01*
X12963Y6170D02*
X13657D01*
X12963Y6180D02*
X13657D01*
X12973Y6190D02*
X13667D01*
X12983Y6200D02*
X13667D01*
X12983Y6210D02*
X13667D01*
X12993Y6220D02*
X13677D01*
X13003Y6230D02*
X13677D01*
X13003Y6240D02*
X13677D01*
X13013Y6250D02*
X13677D01*
X13013Y6260D02*
X13687D01*
X13023Y6270D02*
X13687D01*
X13023Y6280D02*
X13687D01*
X11723Y5490D02*
X13207D01*
X11723Y5500D02*
X13217D01*
X11733Y5510D02*
X13237D01*
X11733Y5520D02*
X13247D01*
X11733Y5530D02*
X13257D01*
X11733Y5540D02*
X13277D01*
X11743Y5550D02*
X13287D01*
X11743Y5560D02*
X13297D01*
X11743Y5570D02*
X13307D01*
X11743Y5580D02*
X13327D01*
X11753Y5590D02*
X13337D01*
X11753Y5600D02*
X13347D01*
X11763Y5620D02*
X13367D01*
X11763Y5630D02*
X13377D01*
X11763Y5640D02*
X13387D01*
X11763Y5650D02*
X13397D01*
X11773Y5660D02*
X13407D01*
X11773Y5670D02*
X13417D01*
X11773Y5680D02*
X13427D01*
X11773Y5690D02*
X13437D01*
X11783Y5700D02*
X13447D01*
X11783Y5710D02*
X13457D01*
X11783Y5720D02*
X13467D01*
X11753Y5610D02*
X13357D01*
X11683Y5320D02*
X12837D01*
X11683Y5330D02*
X12897D01*
X11683Y5340D02*
X12927D01*
X11683Y5350D02*
X12957D01*
X11693Y5360D02*
X12977D01*
X11693Y5370D02*
X12997D01*
X11693Y5380D02*
X13027D01*
X11693Y5390D02*
X13037D01*
X11703Y5400D02*
X13057D01*
X11703Y5410D02*
X13077D01*
X11703Y5420D02*
X13097D01*
X11703Y5430D02*
X13117D01*
X11713Y5440D02*
X13127D01*
X11713Y5450D02*
X13147D01*
X11713Y5460D02*
X13157D01*
X11713Y5470D02*
X13177D01*
X11723Y5480D02*
X13187D01*
X11713Y4690D02*
X11857D01*
X11713Y4700D02*
X11857D01*
X11713Y4710D02*
X11857D01*
X11713Y4720D02*
X11857D01*
X11713Y4730D02*
X11857D01*
X11713Y4740D02*
X11857D01*
X11713Y4750D02*
X11857D01*
X11713Y4760D02*
X11857D01*
X11713Y4770D02*
X11857D01*
X11713Y4780D02*
X11857D01*
X11713Y4790D02*
X11857D01*
X11713Y4800D02*
X11857D01*
X11713Y4820D02*
X11857D01*
X11713Y4830D02*
X11857D01*
X11713Y4840D02*
X11857D01*
X11713Y4850D02*
X11857D01*
X11713Y4860D02*
X11857D01*
X11713Y4870D02*
X11857D01*
X11713Y4880D02*
X11857D01*
X11713Y4890D02*
X11857D01*
X11713Y4810D02*
X11857D01*
X12963Y4870D02*
X13757D01*
X12963Y4880D02*
X13767D01*
X12113D02*
X12657D01*
X12963Y4890D02*
X13767D01*
X12113D02*
X12667D01*
X12963Y4900D02*
X13777D01*
X12113D02*
X12667D01*
X12953Y4910D02*
X13787D01*
X12113D02*
X12677D01*
X12953Y4920D02*
X13787D01*
X12103D02*
X12687D01*
X12953Y4930D02*
X13797D01*
X12103D02*
X12687D01*
X12953Y4940D02*
X13797D01*
X12103D02*
X12677D01*
X12953Y4950D02*
X13797D01*
X12103D02*
X12657D01*
X12953Y4960D02*
X13777D01*
X12943Y4970D02*
X13767D01*
X12953Y4980D02*
X13747D01*
X11713Y4310D02*
X11857D01*
X11713Y4320D02*
X11857D01*
X11713Y4330D02*
X11857D01*
X11713Y4340D02*
X11857D01*
X11713Y4350D02*
X11857D01*
X11713Y4360D02*
X11857D01*
X11713Y4370D02*
X11857D01*
X11713Y4380D02*
X11857D01*
X11713Y4390D02*
X11857D01*
X11713Y4400D02*
X11857D01*
X11713Y4410D02*
X11857D01*
X11713Y4420D02*
X11857D01*
X11713Y4430D02*
X11857D01*
X11713Y4440D02*
X11857D01*
X11713Y4450D02*
X11857D01*
X11713Y4460D02*
X11857D01*
X11713Y4470D02*
X11857D01*
X11713Y4480D02*
X11857D01*
X11713Y4490D02*
X11857D01*
X11713Y4500D02*
X11857D01*
X11713Y4510D02*
X11857D01*
X11713Y4520D02*
X11857D01*
X11713Y4530D02*
X11857D01*
X11713Y4540D02*
X11857D01*
X11713Y4550D02*
X11857D01*
X11713Y4560D02*
X11857D01*
X11713Y4570D02*
X11857D01*
X11713Y4580D02*
X11857D01*
X11713Y4590D02*
X11857D01*
X11713Y4600D02*
X11857D01*
X11713Y4610D02*
X11857D01*
X11713Y4620D02*
X11857D01*
X11713Y4630D02*
X11857D01*
X11713Y4640D02*
X11857D01*
X11713Y4650D02*
X11857D01*
X11713Y4660D02*
X11857D01*
X11713Y4670D02*
X11857D01*
X11713Y4680D02*
X11857D01*
X13193Y4410D02*
X13527D01*
X13193Y4420D02*
X13527D01*
X13193Y4430D02*
X13517D01*
X13203Y4440D02*
X13507D01*
X13203Y4450D02*
X13497D01*
X13203Y4460D02*
X13497D01*
X13213Y4470D02*
X13487D01*
X13213Y4480D02*
X13477D01*
X13213Y4490D02*
X13477D01*
X13223Y4500D02*
X13467D01*
X13223Y4510D02*
X13457D01*
X13223Y4520D02*
X13457D01*
X12883Y4540D02*
X13837D01*
X12883Y4550D02*
X13847D01*
X12883Y4560D02*
X13847D01*
X12873Y4570D02*
X13857D01*
X12873Y4580D02*
X13857D01*
X12873Y4590D02*
X13867D01*
X12873Y4600D02*
X13867D01*
X12873Y4610D02*
X13877D01*
X12873Y4620D02*
X13877D01*
X12863Y4630D02*
X13867D01*
X12863Y4640D02*
X13857D01*
X12863Y4650D02*
X13847D01*
X13253Y4690D02*
X13427D01*
X12493D02*
X12647D01*
X13253Y4700D02*
X13427D01*
X13253Y4710D02*
X13427D01*
X13253Y4720D02*
X13427D01*
X13253Y4730D02*
X13427D01*
X13253Y4740D02*
X13427D01*
X13253Y4750D02*
X13427D01*
X13253Y4760D02*
X13427D01*
X13253Y4770D02*
X13427D01*
X13253Y4780D02*
X13427D01*
X13253Y4790D02*
X13427D01*
X13253Y4800D02*
X13427D01*
X13253Y4820D02*
X13427D01*
X13253Y4830D02*
X13427D01*
X13253Y4840D02*
X13427D01*
X13253Y4850D02*
X13427D01*
X13253Y4860D02*
X13437D01*
X13253Y4810D02*
X13427D01*
X13133Y4310D02*
X13317D01*
X13143Y4320D02*
X13327D01*
X13143Y4330D02*
X13327D01*
X13153Y4340D02*
X13337D01*
X13163Y4350D02*
X13347D01*
X13163Y4360D02*
X13347D01*
X13173Y4370D02*
X13357D01*
X13173Y4380D02*
X13357D01*
X13183Y4390D02*
X13357D01*
X13183Y4400D02*
X13367D01*
X13223Y4530D02*
X13447D01*
X13243Y4660D02*
X13427D01*
X13243Y4670D02*
X13427D01*
X13253Y4680D02*
X13427D01*
X12493Y4700D02*
X12647D01*
X12493Y4710D02*
X12647D01*
X12493Y4720D02*
X12647D01*
X12493Y4730D02*
X12647D01*
X12493Y4740D02*
X12647D01*
X12493Y4750D02*
X12647D01*
X12493Y4760D02*
X12647D01*
X12493Y4770D02*
X12647D01*
X12493Y4780D02*
X12647D01*
X12493Y4790D02*
X12647D01*
X12493Y4800D02*
X12647D01*
X12493Y4820D02*
X12647D01*
X12493Y4830D02*
X12647D01*
X12493Y4840D02*
X12647D01*
X12493Y4850D02*
X12647D01*
X12493Y4860D02*
X12647D01*
X12503Y4990D02*
X12597D01*
X12503Y5000D02*
X12577D01*
X12513Y5010D02*
X12567D01*
X12493Y4810D02*
X12647D01*
X12113Y4870D02*
X12647D01*
X12103Y4960D02*
X12647D01*
X12093Y4970D02*
X12627D01*
X12103Y4980D02*
X12617D01*
X12493Y4310D02*
X12647D01*
X12493Y4320D02*
X12647D01*
X12493Y4330D02*
X12647D01*
X12493Y4340D02*
X12647D01*
X12493Y4350D02*
X12647D01*
X12493Y4360D02*
X12647D01*
X12493Y4370D02*
X12647D01*
X12493Y4380D02*
X12647D01*
X12493Y4390D02*
X12647D01*
X12493Y4400D02*
X12647D01*
X12493Y4410D02*
X12647D01*
X12493Y4420D02*
X12647D01*
X12493Y4430D02*
X12647D01*
X12493Y4440D02*
X12647D01*
X12493Y4450D02*
X12647D01*
X12493Y4460D02*
X12647D01*
X12493Y4470D02*
X12647D01*
X12493Y4480D02*
X12647D01*
X12493Y4490D02*
X12647D01*
X12493Y4500D02*
X12647D01*
X12493Y4510D02*
X12647D01*
X12493Y4520D02*
X12647D01*
X12493Y4530D02*
X12647D01*
X12493Y4540D02*
X12647D01*
X12493Y4550D02*
X12647D01*
X12493Y4560D02*
X12647D01*
X12493Y4570D02*
X12647D01*
X12493Y4580D02*
X12647D01*
X12493Y4590D02*
X12647D01*
X12493Y4600D02*
X12647D01*
X12493Y4610D02*
X12647D01*
X12493Y4620D02*
X12647D01*
X12493Y4630D02*
X12647D01*
X12493Y4640D02*
X12647D01*
X12493Y4650D02*
X12647D01*
X12493Y4660D02*
X12647D01*
X12493Y4670D02*
X12647D01*
X12493Y4680D02*
X12647D01*
X11713Y4000D02*
X11857D01*
X11713Y4020D02*
X11857D01*
X11713Y4030D02*
X11857D01*
X11713Y4040D02*
X11857D01*
X11713Y4050D02*
X11857D01*
X11713Y4060D02*
X11857D01*
X11713Y4070D02*
X11857D01*
X11713Y4080D02*
X11857D01*
X11713Y4090D02*
X11857D01*
X11713Y4100D02*
X11857D01*
X11713Y4110D02*
X11857D01*
X11713Y4120D02*
X11857D01*
X11713Y4130D02*
X11857D01*
X11713Y4140D02*
X11857D01*
X11713Y4150D02*
X11857D01*
X11713Y4160D02*
X11857D01*
X11713Y4170D02*
X11857D01*
X11713Y4180D02*
X11857D01*
X11713Y4190D02*
X11857D01*
X11713Y4200D02*
X11857D01*
X11713Y4210D02*
X11857D01*
X11713Y4220D02*
X11857D01*
X11713Y4230D02*
X11857D01*
X11713Y4240D02*
X11857D01*
X11713Y4250D02*
X11857D01*
X11713Y4260D02*
X11857D01*
X11713Y4270D02*
X11857D01*
X11713Y4280D02*
X11857D01*
X11713Y4290D02*
X11857D01*
X14033Y4030D02*
X14267D01*
X14023Y4040D02*
X14297D01*
X14053Y4050D02*
X14317D01*
X14083Y4060D02*
X14337D01*
X14113Y4070D02*
X14347D01*
X11713Y4010D02*
X11857D01*
X14053Y3990D02*
X14127D01*
X14043Y4000D02*
X14177D01*
X14033Y4020D02*
X14247D01*
X14043Y4010D02*
X14217D01*
X13123Y4290D02*
X13307D01*
X12473Y3990D02*
X12527D01*
X12463Y4000D02*
X12567D01*
X12463Y4020D02*
X12607D01*
X12453Y4030D02*
X12617D01*
X12443Y4040D02*
X12627D01*
X12433Y4050D02*
X12627D01*
X12413Y4060D02*
X12637D01*
X12383Y4070D02*
X12637D01*
X12353Y4080D02*
X12647D01*
X12353Y4090D02*
X12647D01*
X12353Y4100D02*
X12647D01*
X12353Y4110D02*
X12647D01*
X12353Y4120D02*
X12647D01*
X12353Y4130D02*
X12647D01*
X12353Y4140D02*
X12647D01*
X12483Y4150D02*
X12647D01*
X12493Y4160D02*
X12647D01*
X12493Y4170D02*
X12647D01*
X12493Y4180D02*
X12647D01*
X12493Y4190D02*
X12647D01*
X12493Y4200D02*
X12647D01*
X12493Y4210D02*
X12647D01*
X12493Y4220D02*
X12647D01*
X12493Y4230D02*
X12647D01*
X12493Y4240D02*
X12647D01*
X12493Y4250D02*
X12647D01*
X12493Y4260D02*
X12647D01*
X12493Y4270D02*
X12647D01*
X12493Y4280D02*
X12647D01*
X12493Y4290D02*
X12647D01*
X12463Y4010D02*
X12587D01*
X10023Y7890D02*
X10717D01*
X10033Y7900D02*
X10727D01*
X10033Y7910D02*
X10727D01*
X10033Y7920D02*
X10727D01*
X10033Y7930D02*
X10727D01*
X10043Y7940D02*
X10737D01*
X10043Y7950D02*
X10737D01*
X10043Y7960D02*
X10737D01*
X10043Y7970D02*
X10737D01*
X10053Y7980D02*
X10747D01*
X10053Y7990D02*
X10747D01*
X10053Y8000D02*
X10747D01*
X9923Y7510D02*
X10617D01*
X9923Y7520D02*
X10617D01*
X9933Y7530D02*
X10627D01*
X9933Y7540D02*
X10627D01*
X9933Y7550D02*
X10627D01*
X9933Y7560D02*
X10627D01*
X9943Y7570D02*
X10637D01*
X9943Y7580D02*
X10637D01*
X9943Y7590D02*
X10637D01*
X9943Y7600D02*
X10637D01*
X9953Y7610D02*
X10647D01*
X9953Y7620D02*
X10647D01*
X9953Y7630D02*
X10647D01*
X9963Y7640D02*
X10657D01*
X9963Y7650D02*
X10657D01*
X9963Y7660D02*
X10657D01*
X9963Y7670D02*
X10657D01*
X9973Y7680D02*
X10667D01*
X9973Y7690D02*
X10667D01*
X9973Y7700D02*
X10667D01*
X9973Y7710D02*
X10667D01*
X9983Y7720D02*
X10677D01*
X9983Y7730D02*
X10677D01*
X9983Y7740D02*
X10677D01*
X9983Y7750D02*
X10687D01*
X9993Y7760D02*
X10687D01*
X9993Y7770D02*
X10687D01*
X9993Y7780D02*
X10687D01*
X10003Y7790D02*
X10697D01*
X10003Y7800D02*
X10697D01*
X10003Y7810D02*
X10697D01*
X10003Y7820D02*
X10697D01*
X10013Y7830D02*
X10707D01*
X10013Y7840D02*
X10707D01*
X10013Y7850D02*
X10707D01*
X10013Y7860D02*
X10707D01*
X10023Y7870D02*
X10717D01*
X10023Y7880D02*
X10717D01*
X9813Y7090D02*
X10507D01*
X9923Y7490D02*
X10617D01*
X9813Y7100D02*
X10507D01*
X9813Y7110D02*
X10507D01*
X9823Y7120D02*
X10517D01*
X9823Y7130D02*
X10517D01*
X9823Y7140D02*
X10517D01*
X9823Y7150D02*
X10517D01*
X9833Y7160D02*
X10527D01*
X9833Y7170D02*
X10527D01*
X9833Y7180D02*
X10527D01*
X9833Y7190D02*
X10527D01*
X9843Y7200D02*
X10537D01*
X9843Y7220D02*
X10537D01*
X9853Y7230D02*
X10547D01*
X9853Y7240D02*
X10547D01*
X9853Y7250D02*
X10547D01*
X9853Y7260D02*
X10547D01*
X9863Y7270D02*
X10557D01*
X9863Y7280D02*
X10557D01*
X9863Y7290D02*
X10557D01*
X9863Y7300D02*
X10557D01*
X9873Y7310D02*
X10567D01*
X9873Y7320D02*
X10567D01*
X9873Y7330D02*
X10567D01*
X9873Y7340D02*
X10567D01*
X9883Y7350D02*
X10577D01*
X9883Y7360D02*
X10577D01*
X9883Y7370D02*
X10577D01*
X9893Y7380D02*
X10587D01*
X9893Y7390D02*
X10587D01*
X9893Y7400D02*
X10587D01*
X9893Y7410D02*
X10587D01*
X9903Y7420D02*
X10597D01*
X9903Y7430D02*
X10597D01*
X9903Y7440D02*
X10597D01*
X9903Y7450D02*
X10597D01*
X9913Y7460D02*
X10607D01*
X9913Y7470D02*
X10607D01*
X9913Y7480D02*
X10607D01*
X9843Y7210D02*
X10537D01*
X9713Y6710D02*
X10407D01*
X9713Y6720D02*
X10407D01*
X9713Y6730D02*
X10407D01*
X9713Y6740D02*
X10407D01*
X9723Y6750D02*
X10417D01*
X9723Y6760D02*
X10417D01*
X9723Y6770D02*
X10417D01*
X9723Y6780D02*
X10417D01*
X9733Y6790D02*
X10427D01*
X9733Y6800D02*
X10427D01*
X9733Y6810D02*
X10427D01*
X9733Y6820D02*
X10437D01*
X9743Y6830D02*
X10437D01*
X9743Y6840D02*
X10437D01*
X9743Y6850D02*
X10437D01*
X9753Y6860D02*
X10447D01*
X9753Y6870D02*
X10447D01*
X9753Y6880D02*
X10447D01*
X9753Y6890D02*
X10447D01*
X9763Y6900D02*
X10457D01*
X9763Y6910D02*
X10457D01*
X9763Y6920D02*
X10457D01*
X9763Y6930D02*
X10457D01*
X9773Y6940D02*
X10467D01*
X9773Y6950D02*
X10467D01*
X9773Y6960D02*
X10467D01*
X9783Y6970D02*
X10477D01*
X9783Y6980D02*
X10477D01*
X9783Y6990D02*
X10477D01*
X9783Y7000D02*
X10477D01*
X9793Y7010D02*
X10487D01*
X9793Y7020D02*
X10487D01*
X9793Y7030D02*
X10487D01*
X9793Y7040D02*
X10487D01*
X9803Y7050D02*
X10497D01*
X9803Y7060D02*
X10497D01*
X9803Y7070D02*
X10497D01*
X9803Y7080D02*
X10497D01*
X9593Y6290D02*
X10287D01*
X9603Y6300D02*
X10297D01*
X9603Y6310D02*
X10297D01*
X9603Y6320D02*
X10297D01*
X9603Y6330D02*
X10307D01*
X9613Y6340D02*
X10307D01*
X9613Y6350D02*
X10307D01*
X9613Y6360D02*
X10307D01*
X9613Y6370D02*
X10317D01*
X9623Y6380D02*
X10317D01*
X9623Y6390D02*
X10317D01*
X9623Y6400D02*
X10317D01*
X9633Y6420D02*
X10327D01*
X9633Y6430D02*
X10327D01*
X9633Y6440D02*
X10337D01*
X9643Y6450D02*
X10337D01*
X9643Y6460D02*
X10337D01*
X9643Y6470D02*
X10337D01*
X9643Y6480D02*
X10347D01*
X9653Y6490D02*
X10347D01*
X9653Y6500D02*
X10347D01*
X9653Y6510D02*
X10347D01*
X9653Y6520D02*
X10357D01*
X9663Y6530D02*
X10357D01*
X9663Y6540D02*
X10357D01*
X9663Y6550D02*
X10357D01*
X9663Y6560D02*
X10367D01*
X9673Y6570D02*
X10367D01*
X9673Y6580D02*
X10367D01*
X9673Y6590D02*
X10377D01*
X9683Y6600D02*
X10377D01*
X9683Y6610D02*
X10377D01*
X9683Y6620D02*
X10377D01*
X9683Y6630D02*
X10387D01*
X9693Y6640D02*
X10387D01*
X9693Y6650D02*
X10387D01*
X9693Y6660D02*
X10387D01*
X9693Y6670D02*
X10397D01*
X9703Y6680D02*
X10397D01*
X9703Y6690D02*
X10397D01*
X9623Y6410D02*
X10327D01*
X9553Y6150D02*
X10257D01*
X9563Y6160D02*
X10257D01*
X9563Y6170D02*
X10257D01*
X9563Y6180D02*
X10267D01*
X9573Y6190D02*
X10267D01*
X9573Y6200D02*
X10267D01*
X9573Y6210D02*
X10267D01*
X9573Y6220D02*
X10277D01*
X9583Y6230D02*
X10277D01*
X9583Y6240D02*
X10277D01*
X9583Y6250D02*
X10277D01*
X9583Y6260D02*
X10287D01*
X9593Y6270D02*
X10287D01*
X9593Y6280D02*
X10287D01*
X9503Y5950D02*
X10207D01*
X9503Y5960D02*
X10207D01*
X9513Y5970D02*
X10207D01*
X9513Y5980D02*
X10207D01*
X9513Y5990D02*
X10207D01*
X9513Y6000D02*
X10217D01*
X9523Y6010D02*
X10217D01*
X9523Y6020D02*
X10217D01*
X9523Y6030D02*
X10227D01*
X9533Y6040D02*
X10227D01*
X9533Y6050D02*
X10227D01*
X9533Y6060D02*
X10227D01*
X9533Y6070D02*
X10237D01*
X9543Y6080D02*
X10237D01*
X9543Y6090D02*
X10237D01*
X9543Y6100D02*
X10237D01*
X9543Y6110D02*
X10247D01*
X9553Y6120D02*
X10247D01*
X9553Y6130D02*
X10247D01*
X9553Y6140D02*
X10247D01*
X9343Y5320D02*
X11127D01*
X9333Y5330D02*
X11187D01*
X9343Y5340D02*
X11217D01*
X9343Y5350D02*
X11247D01*
X9343Y5360D02*
X11267D01*
X9343Y5370D02*
X11287D01*
X10913Y4690D02*
X11077D01*
X9373D02*
X10307D01*
X10113Y4730D02*
X10267D01*
X10913Y4700D02*
X11077D01*
X10913Y4710D02*
X11077D01*
X10913Y4720D02*
X11077D01*
X10913Y4730D02*
X11077D01*
X10913Y4740D02*
X11077D01*
X10913Y4750D02*
X11077D01*
X10913Y4760D02*
X11077D01*
X10913Y4770D02*
X11077D01*
X10913Y4780D02*
X11077D01*
X10913Y4790D02*
X11077D01*
X10913Y4800D02*
X11077D01*
X10903Y4810D02*
X11077D01*
X9373Y4700D02*
X10307D01*
X9373Y4710D02*
X10297D01*
X9373Y4720D02*
X10277D01*
X9323Y4840D02*
X10337D01*
X9323Y4850D02*
X10337D01*
X9313Y4860D02*
X10347D01*
X9313Y4870D02*
X10347D01*
X9313Y4880D02*
X10357D01*
X9303Y4890D02*
X10347D01*
X9303Y4900D02*
X10337D01*
X9303Y4910D02*
X10327D01*
X9303Y4920D02*
X10317D01*
X9303Y4930D02*
X10297D01*
X10103Y4310D02*
X10257D01*
X10103Y4320D02*
X10257D01*
X10103Y4330D02*
X10257D01*
X10103Y4340D02*
X10257D01*
X10103Y4350D02*
X10257D01*
X10103Y4360D02*
X10257D01*
X10103Y4370D02*
X10257D01*
X10103Y4380D02*
X10257D01*
X10103Y4390D02*
X10257D01*
X10103Y4400D02*
X10257D01*
X10103Y4410D02*
X10257D01*
X10103Y4420D02*
X10257D01*
X10103Y4430D02*
X10257D01*
X10103Y4440D02*
X10257D01*
X10103Y4450D02*
X10257D01*
X10103Y4460D02*
X10257D01*
X10103Y4470D02*
X10257D01*
X10103Y4480D02*
X10257D01*
X10103Y4490D02*
X10257D01*
X10103Y4500D02*
X10257D01*
X10103Y4510D02*
X10257D01*
X10103Y4520D02*
X10257D01*
X10103Y4530D02*
X10257D01*
X10103Y4540D02*
X10257D01*
X10103Y4550D02*
X10257D01*
X10103Y4560D02*
X10257D01*
X10103Y4570D02*
X10257D01*
X10103Y4580D02*
X10257D01*
X10103Y4590D02*
X10257D01*
X10103Y4600D02*
X10257D01*
X10103Y4610D02*
X10257D01*
X10103Y4620D02*
X10257D01*
X10913Y4310D02*
X11077D01*
X10913Y4320D02*
X11077D01*
X10913Y4330D02*
X11077D01*
X10913Y4340D02*
X11077D01*
X10913Y4350D02*
X11077D01*
X10913Y4360D02*
X11077D01*
X10913Y4370D02*
X11077D01*
X10913Y4380D02*
X11077D01*
X10913Y4390D02*
X11077D01*
X10913Y4400D02*
X11077D01*
X10913Y4410D02*
X11077D01*
X10913Y4420D02*
X11077D01*
X10913Y4430D02*
X11077D01*
X10913Y4440D02*
X11077D01*
X10913Y4450D02*
X11077D01*
X10913Y4460D02*
X11077D01*
X10913Y4470D02*
X11077D01*
X10913Y4480D02*
X11077D01*
X10913Y4490D02*
X11077D01*
X10913Y4500D02*
X11077D01*
X10913Y4510D02*
X11077D01*
X10913Y4520D02*
X11077D01*
X10913Y4530D02*
X11077D01*
X10913Y4540D02*
X11077D01*
X10913Y4550D02*
X11077D01*
X10913Y4560D02*
X11077D01*
X10913Y4570D02*
X11077D01*
X10913Y4580D02*
X11077D01*
X10913Y4590D02*
X11077D01*
X10913Y4600D02*
X11077D01*
X10913Y4610D02*
X11077D01*
X10913Y4620D02*
X11077D01*
X10913Y4630D02*
X11077D01*
X10913Y4640D02*
X11077D01*
X10913Y4650D02*
X11077D01*
X10913Y4660D02*
X11077D01*
X10913Y4670D02*
X11077D01*
X10913Y4680D02*
X11077D01*
X9373Y4630D02*
X10267D01*
X9373Y4640D02*
X10277D01*
X9373Y4650D02*
X10277D01*
X9373Y4660D02*
X10287D01*
X9373Y4670D02*
X10297D01*
X9373Y4680D02*
X10297D01*
X9963Y4100D02*
X10257D01*
X9963Y4110D02*
X10257D01*
X9963Y4120D02*
X10257D01*
X9963Y4130D02*
X10257D01*
X9963Y4140D02*
X10257D01*
X10073Y4150D02*
X10257D01*
X10093Y4160D02*
X10257D01*
X10103Y4170D02*
X10257D01*
X10103Y4180D02*
X10257D01*
X10103Y4190D02*
X10257D01*
X10113Y4200D02*
X10257D01*
X10103Y4210D02*
X10257D01*
X10103Y4220D02*
X10257D01*
X10103Y4230D02*
X10257D01*
X10103Y4240D02*
X10257D01*
X10103Y4250D02*
X10257D01*
X10103Y4260D02*
X10257D01*
X10103Y4270D02*
X10257D01*
X10103Y4280D02*
X10257D01*
X10103Y4290D02*
X10257D01*
X10913Y4230D02*
X11077D01*
X10913Y4240D02*
X11077D01*
X10913Y4250D02*
X11077D01*
X10913Y4260D02*
X11077D01*
X10913Y4270D02*
X11077D01*
X10913Y4280D02*
X11077D01*
X10913Y4290D02*
X11077D01*
X10083Y4000D02*
X10137D01*
X10073Y4020D02*
X10197D01*
X10073Y4030D02*
X10207D01*
X10063Y4040D02*
X10217D01*
X10053Y4050D02*
X10227D01*
X10043Y4060D02*
X10237D01*
X10023Y4070D02*
X10247D01*
X10003Y4080D02*
X10247D01*
X9963Y4090D02*
X10247D01*
X10083Y4010D02*
X10177D01*
X22163Y8300D02*
X22277D01*
X22313D02*
X22437D01*
X21383D02*
X21507D01*
X21763D02*
X21877D01*
X21923D02*
X22037D01*
X20643Y4300D02*
X20827D01*
X19953D02*
X20097D01*
X20113D02*
X20337D01*
X18953D02*
X19127D01*
X19373D02*
X19577D01*
X17623D02*
X18037D01*
X17333D02*
X17387D01*
X16803D02*
X16937D01*
X17093D02*
X17247D01*
X15763D02*
X16037D01*
X16333D02*
X16427D01*
X15343D02*
X15497D01*
X14153D02*
X14307D01*
X14343D02*
X14497D01*
X14743D02*
X14897D01*
X14573D02*
X14727D01*
X13353Y7500D02*
X14017D01*
X13433Y4300D02*
X13637D01*
X11953D02*
X12377D01*
X9373D02*
X9527D01*
X9553D02*
X10047D01*
X22173Y8310D02*
X22277D01*
X22173Y8320D02*
X22277D01*
X22173Y8330D02*
X22277D01*
X22233Y8490D02*
X22427D01*
X22223Y8480D02*
X22427D01*
X22223Y8470D02*
X22427D01*
X22223Y8460D02*
X22427D01*
X22213Y8450D02*
X22427D01*
X22213Y8440D02*
X22427D01*
X22213Y8430D02*
X22427D01*
X22203Y8420D02*
X22427D01*
X22203Y8410D02*
X22427D01*
X22203Y8400D02*
X22297D01*
X22193Y8390D02*
X22297D01*
X22193Y8380D02*
X22297D01*
X22193Y8370D02*
X22287D01*
X22183Y8360D02*
X22287D01*
X22183Y8350D02*
X22287D01*
X22183Y8340D02*
X22287D01*
X22313Y8400D02*
X22427D01*
X22313Y8390D02*
X22427D01*
X22313Y8380D02*
X22437D01*
X22313Y8370D02*
X22437D01*
X22313Y8360D02*
X22437D01*
X22313Y8350D02*
X22437D01*
X22313Y8340D02*
X22437D01*
X22313Y8330D02*
X22437D01*
X22313Y8320D02*
X22437D01*
X22313Y8310D02*
X22437D01*
X22143Y8220D02*
X22257D01*
X22143Y8230D02*
X22257D01*
X22153Y8240D02*
X22257D01*
X22153Y8250D02*
X22257D01*
X22153Y8260D02*
X22267D01*
X22163Y8270D02*
X22267D01*
X22163Y8280D02*
X22267D01*
X22163Y8290D02*
X22277D01*
X22333Y7890D02*
X22467D01*
X22333Y8010D02*
X22457D01*
X22313Y8290D02*
X22437D01*
X22313Y8280D02*
X22437D01*
X22313Y8270D02*
X22437D01*
X22313Y8260D02*
X22437D01*
X22313Y8250D02*
X22437D01*
X22323Y8240D02*
X22437D01*
X22323Y8230D02*
X22447D01*
X22323Y8220D02*
X22447D01*
X22323Y8210D02*
X22447D01*
X22323Y8200D02*
X22447D01*
X22323Y8190D02*
X22447D01*
X22323Y8180D02*
X22447D01*
X22323Y8170D02*
X22447D01*
X22323Y8160D02*
X22447D01*
X22323Y8150D02*
X22447D01*
X22323Y8140D02*
X22447D01*
X22323Y8130D02*
X22447D01*
X22323Y8120D02*
X22447D01*
X22323Y8110D02*
X22447D01*
X22323Y8100D02*
X22447D01*
X22323Y8090D02*
X22447D01*
X22323Y8080D02*
X22447D01*
X22323Y8070D02*
X22457D01*
X22323Y8060D02*
X22457D01*
X22323Y8050D02*
X22457D01*
X22333Y8040D02*
X22457D01*
X22333Y8030D02*
X22457D01*
X22333Y8020D02*
X22457D01*
X22333Y8000D02*
X22457D01*
X22333Y7990D02*
X22457D01*
X22333Y7980D02*
X22457D01*
X22333Y7970D02*
X22457D01*
X22333Y7960D02*
X22457D01*
X22333Y7950D02*
X22457D01*
X22333Y7940D02*
X22457D01*
X22333Y7930D02*
X22457D01*
X22333Y7920D02*
X22467D01*
X22333Y7910D02*
X22467D01*
X22333Y7900D02*
X22467D01*
X22333Y7880D02*
X22467D01*
X22123Y8120D02*
X22227D01*
X22123Y8130D02*
X22227D01*
X22123Y8140D02*
X22227D01*
X22123Y8150D02*
X22237D01*
X22133Y8160D02*
X22237D01*
X22133Y8170D02*
X22237D01*
X22133Y8180D02*
X22247D01*
X22133Y8190D02*
X22247D01*
X22143Y8200D02*
X22247D01*
X22143Y8210D02*
X22247D01*
X21383Y8310D02*
X21507D01*
X21383Y8320D02*
X21507D01*
X21383Y8330D02*
X21507D01*
X21383Y8340D02*
X21507D01*
X21383Y8350D02*
X21507D01*
X21383Y8360D02*
X21507D01*
X21383Y8370D02*
X21507D01*
X21383Y8380D02*
X21507D01*
X21763Y8310D02*
X21877D01*
X21763Y8320D02*
X21877D01*
X21763Y8330D02*
X21887D01*
X21763Y8340D02*
X21887D01*
X21763Y8350D02*
X21887D01*
X21763Y8360D02*
X21887D01*
X21763Y8370D02*
X21887D01*
X21763Y8380D02*
X21887D01*
X21773Y8390D02*
X21887D01*
X21773Y8400D02*
X21887D01*
X21913Y8310D02*
X22037D01*
X21913Y8320D02*
X22037D01*
X21913Y8330D02*
X22027D01*
X21913Y8340D02*
X22027D01*
X21913Y8350D02*
X22027D01*
X21903Y8360D02*
X22027D01*
X21903Y8370D02*
X22017D01*
X21903Y8380D02*
X22017D01*
X21903Y8390D02*
X22017D01*
X21903Y8400D02*
X22007D01*
X21773Y8410D02*
X22007D01*
X21773Y8420D02*
X22007D01*
X21773Y8430D02*
X21997D01*
X21773Y8440D02*
X21997D01*
X21773Y8450D02*
X21997D01*
X21773Y8460D02*
X21987D01*
X21773Y8470D02*
X21987D01*
X21773Y8480D02*
X21987D01*
X21773Y8490D02*
X21977D01*
X21383Y7890D02*
X21507D01*
X21383Y7900D02*
X21507D01*
X21383Y7910D02*
X21507D01*
X21383Y7920D02*
X21507D01*
X21383Y7930D02*
X21507D01*
X21383Y7940D02*
X21507D01*
X21383Y7950D02*
X21507D01*
X21383Y7960D02*
X21507D01*
X21383Y7970D02*
X21507D01*
X21383Y7980D02*
X21507D01*
X21383Y7990D02*
X21507D01*
X21383Y8000D02*
X21507D01*
X21383Y8020D02*
X21507D01*
X21383Y8030D02*
X21507D01*
X21383Y8040D02*
X21507D01*
X21383Y8050D02*
X21507D01*
X21383Y8060D02*
X21507D01*
X21383Y8070D02*
X21507D01*
X21383Y8080D02*
X21507D01*
X21383Y8090D02*
X21507D01*
X21383Y8100D02*
X21507D01*
X21383Y8110D02*
X21507D01*
X21383Y8120D02*
X21507D01*
X21383Y8130D02*
X21507D01*
X21383Y8140D02*
X21507D01*
X21383Y8150D02*
X21507D01*
X21383Y8160D02*
X21507D01*
X21383Y8170D02*
X21507D01*
X21383Y8180D02*
X21507D01*
X21383Y8190D02*
X21507D01*
X21383Y8200D02*
X21507D01*
X21383Y8210D02*
X21507D01*
X21383Y8220D02*
X21507D01*
X21383Y8230D02*
X21507D01*
X21383Y8240D02*
X21507D01*
X21383Y8250D02*
X21507D01*
X21383Y8260D02*
X21507D01*
X21383Y8270D02*
X21507D01*
X21383Y8280D02*
X21507D01*
X21383Y8290D02*
X21507D01*
X21383Y8010D02*
X21507D01*
X21383Y7880D02*
X21507D01*
X21733Y7890D02*
X21857D01*
X21733Y7900D02*
X21857D01*
X21733Y7910D02*
X21857D01*
X21733Y7920D02*
X21857D01*
X21743Y7930D02*
X21867D01*
X21743Y7940D02*
X21867D01*
X21743Y7950D02*
X21867D01*
X21743Y7960D02*
X21867D01*
X21743Y7970D02*
X21867D01*
X21743Y7980D02*
X21867D01*
X21743Y7990D02*
X21867D01*
X21743Y8000D02*
X21867D01*
X21743Y8020D02*
X21867D01*
X21743Y8030D02*
X21867D01*
X21743Y8040D02*
X21867D01*
X21743Y8050D02*
X21867D01*
X21743Y8060D02*
X21867D01*
X21743Y8070D02*
X21867D01*
X21753Y8080D02*
X21867D01*
X21753Y8090D02*
X21867D01*
X21753Y8100D02*
X21877D01*
X21753Y8110D02*
X21877D01*
X21753Y8120D02*
X21877D01*
X21753Y8130D02*
X21877D01*
X21753Y8140D02*
X21877D01*
X21753Y8150D02*
X21877D01*
X21753Y8160D02*
X21877D01*
X21753Y8170D02*
X21877D01*
X21753Y8180D02*
X21877D01*
X21753Y8190D02*
X21877D01*
X21753Y8200D02*
X21877D01*
X21753Y8210D02*
X21877D01*
X21753Y8220D02*
X21877D01*
X21753Y8230D02*
X21877D01*
X21763Y8240D02*
X21877D01*
X21763Y8250D02*
X21877D01*
X21763Y8260D02*
X21877D01*
X21763Y8270D02*
X21877D01*
X21763Y8280D02*
X21877D01*
X21763Y8290D02*
X21877D01*
X21973Y8080D02*
X22097D01*
X21973Y8090D02*
X22097D01*
X21973Y8100D02*
X22097D01*
X21963Y8110D02*
X22087D01*
X21963Y8120D02*
X22087D01*
X21963Y8130D02*
X22087D01*
X21953Y8140D02*
X22087D01*
X21953Y8150D02*
X22077D01*
X21953Y8160D02*
X22077D01*
X21953Y8170D02*
X22077D01*
X21943Y8180D02*
X22077D01*
X21943Y8190D02*
X22077D01*
X21943Y8200D02*
X22067D01*
X21943Y8210D02*
X22067D01*
X21933Y8220D02*
X22067D01*
X21933Y8230D02*
X22067D01*
X21933Y8240D02*
X22057D01*
X21933Y8250D02*
X22057D01*
X21923Y8260D02*
X22057D01*
X21923Y8270D02*
X22047D01*
X21923Y8280D02*
X22047D01*
X21923Y8290D02*
X22047D01*
X21743Y8010D02*
X21867D01*
X21733Y7880D02*
X21857D01*
X20643Y4310D02*
X20817D01*
X20633Y4320D02*
X20807D01*
X20633Y4330D02*
X20797D01*
X20633Y4340D02*
X20797D01*
X20623Y4350D02*
X20787D01*
X20663Y4250D02*
X20867D01*
X20663Y4260D02*
X20857D01*
X20653Y4270D02*
X20847D01*
X20653Y4280D02*
X20837D01*
X20653Y4290D02*
X20827D01*
X20823Y3990D02*
X20827D01*
X20813Y4000D02*
X20827D01*
X20803Y4020D02*
X20847D01*
X20793Y4030D02*
X20857D01*
X20783Y4040D02*
X20867D01*
X20783Y4050D02*
X20867D01*
X20773Y4060D02*
X20877D01*
X20763Y4070D02*
X20887D01*
X20753Y4080D02*
X20897D01*
X20753Y4090D02*
X20907D01*
X20743Y4100D02*
X20917D01*
X20743Y4110D02*
X20937D01*
X20733Y4120D02*
X20947D01*
X20723Y4130D02*
X20957D01*
X20723Y4140D02*
X20967D01*
X20713Y4150D02*
X20977D01*
X20713Y4160D02*
X20967D01*
X20703Y4170D02*
X20947D01*
X20703Y4180D02*
X20937D01*
X20693Y4190D02*
X20927D01*
X20693Y4200D02*
X20917D01*
X20683Y4210D02*
X20907D01*
X20683Y4220D02*
X20897D01*
X20673Y4230D02*
X20887D01*
X20673Y4240D02*
X20877D01*
X20813Y4010D02*
X20837D01*
X20153Y4690D02*
X20247D01*
X19953D02*
X20097D01*
X20153Y4700D02*
X20257D01*
X19953D02*
X20097D01*
X20153Y4710D02*
X20257D01*
X19953D02*
X20097D01*
X20153Y4720D02*
X20267D01*
X19953D02*
X20097D01*
X20163Y4730D02*
X20267D01*
X19953D02*
X20097D01*
X20163Y4740D02*
X20277D01*
X19953D02*
X20097D01*
X20163Y4750D02*
X20277D01*
X19953D02*
X20097D01*
X20163Y4760D02*
X20287D01*
X19953D02*
X20097D01*
X20173Y4770D02*
X20287D01*
X19953D02*
X20097D01*
X20173Y4780D02*
X20297D01*
X19953D02*
X20097D01*
X20173Y4790D02*
X20297D01*
X19953D02*
X20097D01*
X19953Y4800D02*
X20097D01*
X19953Y4820D02*
X20097D01*
X19953Y4830D02*
X20097D01*
X19953Y4840D02*
X20097D01*
X19953Y4850D02*
X20097D01*
X19953Y4860D02*
X20097D01*
X19953Y4870D02*
X20097D01*
X19953Y4880D02*
X20097D01*
X19953Y4890D02*
X20097D01*
X19953Y5000D02*
X20097D01*
X19953Y5010D02*
X20097D01*
X20243Y5020D02*
X20297D01*
X19953D02*
X20097D01*
X20243Y5030D02*
X20287D01*
X20253Y5040D02*
X20267D01*
X19953Y4810D02*
X20097D01*
X20173Y4800D02*
X20307D01*
X20183Y4820D02*
X20317D01*
X20183Y4830D02*
X20327D01*
X20193Y4840D02*
X20327D01*
X20193Y4850D02*
X20337D01*
X20193Y4860D02*
X20337D01*
X20193Y4870D02*
X20347D01*
X20203Y4880D02*
X20357D01*
X20203Y4890D02*
X20367D01*
X19953Y4900D02*
X20377D01*
X19953Y4910D02*
X20397D01*
X19953Y4920D02*
X20407D01*
X19953Y4930D02*
X20417D01*
X19953Y4940D02*
X20407D01*
X19953Y4950D02*
X20397D01*
X19953Y4960D02*
X20387D01*
X19953Y4970D02*
X20377D01*
X19953Y4980D02*
X20357D01*
X19953Y4990D02*
X20347D01*
X20223Y5000D02*
X20327D01*
X20233Y5010D02*
X20317D01*
X20183Y4810D02*
X20307D01*
X19953Y4370D02*
X20097D01*
X19953Y4380D02*
X20097D01*
X19953Y4390D02*
X20097D01*
X19953Y4400D02*
X20097D01*
X19953Y4410D02*
X20097D01*
X19953Y4420D02*
X20097D01*
X19953Y4430D02*
X20097D01*
X19953Y4440D02*
X20097D01*
X19953Y4450D02*
X20097D01*
X19953Y4460D02*
X20097D01*
X19953Y4470D02*
X20097D01*
X19953Y4480D02*
X20097D01*
X19953Y4490D02*
X20097D01*
X19953Y4500D02*
X20097D01*
X19953Y4510D02*
X20097D01*
X19953Y4520D02*
X20097D01*
X19953Y4530D02*
X20097D01*
X19953Y4540D02*
X20097D01*
X19953Y4550D02*
X20097D01*
X19953Y4560D02*
X20097D01*
X19953Y4570D02*
X20097D01*
X19953Y4580D02*
X20097D01*
X19953Y4590D02*
X20097D01*
X20173Y4600D02*
X20297D01*
X19953D02*
X20097D01*
X20163Y4610D02*
X20287D01*
X19953D02*
X20097D01*
X20163Y4620D02*
X20277D01*
X19953D02*
X20097D01*
X20153Y4630D02*
X20267D01*
X19953D02*
X20097D01*
X20143Y4640D02*
X20257D01*
X19953D02*
X20097D01*
X20143Y4650D02*
X20247D01*
X19953D02*
X20097D01*
X20143Y4660D02*
X20237D01*
X19953D02*
X20097D01*
X20143Y4670D02*
X20237D01*
X19953D02*
X20097D01*
X20143Y4680D02*
X20247D01*
X19953D02*
X20097D01*
X19953Y4310D02*
X20337D01*
X19953Y4320D02*
X20347D01*
X19953Y4330D02*
X20347D01*
X19953Y4340D02*
X20357D01*
X19953Y4350D02*
X20357D01*
X19953Y4360D02*
X20357D01*
X20153Y4370D02*
X20357D01*
X20203Y4380D02*
X20367D01*
X20213Y4390D02*
X20367D01*
X20223Y4400D02*
X20367D01*
X20223Y4410D02*
X20367D01*
X20223Y4420D02*
X20367D01*
X20223Y4430D02*
X20367D01*
X20223Y4440D02*
X20367D01*
X20223Y4450D02*
X20367D01*
X20223Y4460D02*
X20367D01*
X20223Y4470D02*
X20367D01*
X20223Y4480D02*
X20357D01*
X20223Y4490D02*
X20357D01*
X20213Y4500D02*
X20357D01*
X20213Y4510D02*
X20357D01*
X20213Y4520D02*
X20347D01*
X20203Y4530D02*
X20347D01*
X20203Y4540D02*
X20337D01*
X20193Y4550D02*
X20337D01*
X20193Y4560D02*
X20327D01*
X20193Y4570D02*
X20327D01*
X20183Y4580D02*
X20317D01*
X20173Y4590D02*
X20307D01*
X20273Y3980D02*
X20277D01*
X20263Y3990D02*
X20287D01*
X19953D02*
X20097D01*
X19953Y4000D02*
X20097D01*
X19953Y4020D02*
X20097D01*
X19953Y4030D02*
X20097D01*
X19953Y4040D02*
X20097D01*
X19953Y4050D02*
X20097D01*
X19953Y4060D02*
X20097D01*
X19953Y4070D02*
X20097D01*
X19953Y4080D02*
X20097D01*
X19953Y4090D02*
X20097D01*
X19953Y4100D02*
X20097D01*
X19953Y4110D02*
X20097D01*
X19953Y4120D02*
X20097D01*
X19953Y4130D02*
X20097D01*
X19953Y4140D02*
X20097D01*
X19953Y4150D02*
X20097D01*
X19953Y4160D02*
X20097D01*
X19953Y4170D02*
X20097D01*
X19953Y4180D02*
X20097D01*
X19953Y4190D02*
X20097D01*
X19953Y4200D02*
X20097D01*
X19953Y4210D02*
X20097D01*
X19953Y4220D02*
X20097D01*
X20193Y4230D02*
X20197D01*
X19953D02*
X20097D01*
X20183Y4240D02*
X20247D01*
X19953D02*
X20097D01*
X20183Y4250D02*
X20277D01*
X19953D02*
X20097D01*
X20173Y4260D02*
X20297D01*
X19953D02*
X20097D01*
X19953Y4270D02*
X20097D01*
X19953Y4280D02*
X20097D01*
X19953Y4290D02*
X20097D01*
X20323Y4160D02*
X20487D01*
X20333Y4170D02*
X20497D01*
X19953Y4010D02*
X20097D01*
X20253Y4000D02*
X20307D01*
X20233Y4020D02*
X20337D01*
X20223Y4030D02*
X20347D01*
X20223Y4040D02*
X20357D01*
X20223Y4050D02*
X20377D01*
X20233Y4060D02*
X20387D01*
X20243Y4070D02*
X20397D01*
X20253Y4080D02*
X20407D01*
X20263Y4090D02*
X20417D01*
X20273Y4100D02*
X20427D01*
X20283Y4110D02*
X20447D01*
X20293Y4120D02*
X20457D01*
X20303Y4130D02*
X20467D01*
X20313Y4140D02*
X20477D01*
X20313Y4150D02*
X20477D01*
X20173Y4270D02*
X20307D01*
X20163Y4280D02*
X20317D01*
X20143Y4290D02*
X20327D01*
X20243Y4010D02*
X20317D01*
X18963Y4310D02*
X19137D01*
X18973Y4320D02*
X19137D01*
X18973Y4330D02*
X19147D01*
X18983Y4340D02*
X19157D01*
X18983Y4350D02*
X19157D01*
X18993Y4360D02*
X19167D01*
X19003Y4370D02*
X19177D01*
X19003Y4380D02*
X19177D01*
X19013Y4390D02*
X19187D01*
X19013Y4400D02*
X19187D01*
X19023Y4410D02*
X19197D01*
X19023Y4420D02*
X19197D01*
X19033Y4430D02*
X19207D01*
X19033Y4440D02*
X19207D01*
X19043Y4450D02*
X19217D01*
X19043Y4460D02*
X19217D01*
X19053Y4470D02*
X19227D01*
X19053Y4480D02*
X19227D01*
X19053Y4490D02*
X19227D01*
X19063Y4500D02*
X19237D01*
X19063Y4510D02*
X19237D01*
X19063Y4520D02*
X19237D01*
X19103Y4690D02*
X19297D01*
X19103Y4700D02*
X19297D01*
X19103Y4710D02*
X19297D01*
X19103Y4720D02*
X19287D01*
X19103Y4730D02*
X19287D01*
X19113Y4740D02*
X19287D01*
X19113Y4750D02*
X19287D01*
X19113Y4760D02*
X19287D01*
X19113Y4770D02*
X19287D01*
X19113Y4780D02*
X19287D01*
X19113Y4790D02*
X19287D01*
X19113Y4800D02*
X19287D01*
X19113Y4820D02*
X19287D01*
X19113Y4830D02*
X19287D01*
X19113Y4840D02*
X19287D01*
X19113Y4850D02*
X19287D01*
X19113Y4860D02*
X19287D01*
X19113Y4870D02*
X19287D01*
X19113Y4880D02*
X19287D01*
X19113Y4890D02*
X19287D01*
X19113Y4900D02*
X19287D01*
X19113Y4910D02*
X19287D01*
X19113Y4920D02*
X19287D01*
X19113Y4930D02*
X19287D01*
X19113Y4940D02*
X19287D01*
X19113Y4950D02*
X19287D01*
X19113Y4960D02*
X19287D01*
X19113Y4970D02*
X19287D01*
X19113Y4980D02*
X19287D01*
X19113Y4990D02*
X19287D01*
X19113Y5000D02*
X19287D01*
X19113Y5010D02*
X19287D01*
X19113Y4810D02*
X19287D01*
X19323Y4380D02*
X19497D01*
X19323Y4390D02*
X19487D01*
X19313Y4400D02*
X19477D01*
X19313Y4410D02*
X19467D01*
X19303Y4420D02*
X19467D01*
X19303Y4430D02*
X19457D01*
X19303Y4440D02*
X19447D01*
X19293Y4450D02*
X19437D01*
X19293Y4460D02*
X19427D01*
X19283Y4470D02*
X19427D01*
X19283Y4480D02*
X19417D01*
X19283Y4490D02*
X19407D01*
X19273Y4500D02*
X19407D01*
X19273Y4510D02*
X19397D01*
X19263Y4520D02*
X19387D01*
X19263Y4530D02*
X19387D01*
X19073D02*
X19247D01*
X19263Y4540D02*
X19377D01*
X19073D02*
X19247D01*
X19073Y4550D02*
X19367D01*
X19083Y4560D02*
X19367D01*
X19083Y4570D02*
X19357D01*
X19083Y4580D02*
X19357D01*
X19083Y4590D02*
X19347D01*
X19093Y4600D02*
X19347D01*
X19093Y4610D02*
X19337D01*
X19093Y4620D02*
X19337D01*
X19093Y4630D02*
X19327D01*
X19093Y4640D02*
X19327D01*
X19093Y4650D02*
X19317D01*
X19103Y4660D02*
X19317D01*
X19103Y4670D02*
X19307D01*
X19103Y4680D02*
X19307D01*
X19363Y4310D02*
X19567D01*
X19353Y4320D02*
X19557D01*
X19353Y4330D02*
X19547D01*
X19343Y4340D02*
X19537D01*
X19343Y4350D02*
X19527D01*
X19333Y4360D02*
X19517D01*
X19333Y4370D02*
X19507D01*
X18923Y4260D02*
X19097D01*
X18933Y4270D02*
X19107D01*
X18943Y4280D02*
X19107D01*
X18943Y4290D02*
X19117D01*
X19583Y4020D02*
X19607D01*
X19573Y4030D02*
X19617D01*
X19563Y4040D02*
X19627D01*
X19553Y4050D02*
X19637D01*
X19543Y4060D02*
X19647D01*
X19533Y4070D02*
X19657D01*
X19533Y4080D02*
X19667D01*
X19523Y4090D02*
X19677D01*
X19593Y4010D02*
X19597D01*
X19513Y4100D02*
X19687D01*
X19503Y4110D02*
X19697D01*
X19423Y4220D02*
X19687D01*
X19413Y4230D02*
X19677D01*
X19403Y4240D02*
X19657D01*
X19403Y4250D02*
X19647D01*
X19393Y4260D02*
X19627D01*
X19383Y4270D02*
X19617D01*
X19383Y4280D02*
X19607D01*
X19373Y4290D02*
X19597D01*
X18263Y4690D02*
X18367D01*
X18263Y4700D02*
X18357D01*
X18263Y4710D02*
X18337D01*
X18263Y4390D02*
X18587D01*
X18243Y4400D02*
X18587D01*
X18223Y4410D02*
X18597D01*
X18213Y4420D02*
X18607D01*
X18193Y4430D02*
X18617D01*
X18183Y4440D02*
X18617D01*
X18163Y4450D02*
X18547D01*
X18153Y4460D02*
X18477D01*
X18143Y4470D02*
X18417D01*
X18133Y4480D02*
X18377D01*
X18123Y4490D02*
X18337D01*
X18443Y4690D02*
X18467D01*
X18443Y4700D02*
X18457D01*
X18283Y4720D02*
X18327D01*
X18353Y4730D02*
X18487D01*
X18293D02*
X18307D01*
X18353Y4740D02*
X18487D01*
X18353Y4840D02*
X18487D01*
X18353Y4850D02*
X18487D01*
X18353Y4860D02*
X18487D01*
X18353Y4870D02*
X18487D01*
X18353Y4880D02*
X18487D01*
X18353Y4890D02*
X18487D01*
X18353Y4900D02*
X18487D01*
X18353Y4910D02*
X18487D01*
X18353Y4920D02*
X18487D01*
X18343Y5020D02*
X18477D01*
X18353Y5030D02*
X18457D01*
X18363Y5040D02*
X18437D01*
X18363Y5050D02*
X18417D01*
X18373Y5060D02*
X18397D01*
X18323Y4360D02*
X18567D01*
X18303Y4370D02*
X18577D01*
X18283Y4380D02*
X18577D01*
X18423Y4650D02*
X18527D01*
X18283D02*
X18387D01*
X18423Y4660D02*
X18517D01*
X18283D02*
X18387D01*
X18433Y4670D02*
X18497D01*
X18273D02*
X18387D01*
X18433Y4680D02*
X18487D01*
X18273D02*
X18377D01*
X18353Y4020D02*
X18487D01*
X18353Y4030D02*
X18487D01*
X18353Y4040D02*
X18487D01*
X18353Y4050D02*
X18487D01*
X18353Y4160D02*
X18487D01*
X18353Y4170D02*
X18487D01*
X18353Y4180D02*
X18487D01*
X18353Y4190D02*
X18487D01*
X18353Y4200D02*
X18487D01*
X18353Y4210D02*
X18487D01*
X18353Y4220D02*
X18487D01*
X18353Y4230D02*
X18487D01*
X18353Y4240D02*
X18487D01*
X18353Y4250D02*
X18487D01*
X18353Y4260D02*
X18487D01*
X18753Y4000D02*
X18757D01*
X18733Y4020D02*
X18797D01*
X18723Y4030D02*
X18807D01*
X18723Y4080D02*
X18887D01*
X18743Y4010D02*
X18777D01*
X18713Y4040D02*
X18827D01*
X18713Y4050D02*
X18847D01*
X18703Y4060D02*
X18857D01*
X18703Y4070D02*
X18877D01*
X17393Y5490D02*
X18067D01*
X17393Y5500D02*
X18077D01*
X17403Y5510D02*
X18077D01*
X17403Y5520D02*
X18077D01*
X17403Y5530D02*
X18077D01*
X17403Y5540D02*
X18087D01*
X17413Y5550D02*
X18087D01*
X17413Y5560D02*
X18087D01*
X17413Y5570D02*
X18087D01*
X17413Y5580D02*
X18097D01*
X17423Y5590D02*
X18097D01*
X17423Y5600D02*
X18097D01*
X17353Y5320D02*
X18017D01*
X17353Y5330D02*
X18027D01*
X17353Y5340D02*
X18027D01*
X17353Y5350D02*
X18037D01*
X17353Y5360D02*
X18037D01*
X17363Y5370D02*
X18037D01*
X17363Y5380D02*
X18037D01*
X17363Y5390D02*
X18047D01*
X17373Y5400D02*
X18047D01*
X17373Y5410D02*
X18047D01*
X17373Y5420D02*
X18047D01*
X17373Y5430D02*
X18057D01*
X17383Y5440D02*
X18057D01*
X17383Y5450D02*
X18057D01*
X17383Y5460D02*
X18057D01*
X17383Y5470D02*
X18067D01*
X17393Y5480D02*
X18067D01*
X17633Y4730D02*
X17767D01*
X17633Y4740D02*
X17767D01*
X17633Y4840D02*
X17767D01*
X17633Y4850D02*
X17767D01*
X17633Y4860D02*
X17767D01*
X17633Y4870D02*
X17767D01*
X17633Y4880D02*
X17767D01*
X17633Y4890D02*
X17767D01*
X17633Y4900D02*
X17767D01*
X17633Y4910D02*
X17767D01*
X17633Y4920D02*
X17767D01*
X17633Y5020D02*
X17767D01*
X17633Y5030D02*
X17767D01*
X17633Y5040D02*
X17767D01*
X17983Y4710D02*
X18057D01*
X17983Y4720D02*
X17997D01*
X17883Y4730D02*
X18027D01*
X17883Y4740D02*
X18027D01*
X17633Y4750D02*
X18027D01*
X17633Y4760D02*
X18027D01*
X17633Y4770D02*
X18027D01*
X17633Y4780D02*
X18027D01*
X17633Y4790D02*
X18027D01*
X17633Y4800D02*
X18027D01*
X17633Y4820D02*
X18027D01*
X17633Y4830D02*
X18027D01*
X17883Y4840D02*
X18027D01*
X17883Y4850D02*
X18027D01*
X17883Y4860D02*
X18027D01*
X17883Y4870D02*
X18027D01*
X17883Y4880D02*
X18027D01*
X17883Y4890D02*
X18027D01*
X17883Y4900D02*
X18027D01*
X17883Y4910D02*
X18027D01*
X17883Y4920D02*
X18027D01*
X17633Y4930D02*
X18027D01*
X17633Y4940D02*
X18027D01*
X17633Y4950D02*
X18027D01*
X17633Y4960D02*
X18027D01*
X17633Y4970D02*
X18037D01*
X17633Y4980D02*
X18037D01*
X17633Y4990D02*
X18047D01*
X17633Y5000D02*
X18037D01*
X17633Y5010D02*
X18017D01*
X17883Y5020D02*
X18007D01*
X17883Y5030D02*
X17987D01*
X17893Y5040D02*
X17967D01*
X17903Y5050D02*
X17947D01*
X17903Y5060D02*
X17927D01*
X17633Y4810D02*
X18027D01*
X17533Y4360D02*
X17777D01*
X17533Y4370D02*
X17807D01*
X17533Y4380D02*
X17837D01*
X17533Y4390D02*
X17857D01*
X17583Y4400D02*
X17887D01*
X17623Y4310D02*
X18037D01*
X17623Y4320D02*
X18047D01*
X17543Y4330D02*
X18037D01*
X17543Y4340D02*
X18027D01*
X17543Y4350D02*
X18007D01*
X17883Y4360D02*
X17987D01*
X17883Y4370D02*
X17977D01*
X17893Y4380D02*
X17957D01*
X17903Y4390D02*
X17937D01*
X17913Y4400D02*
X17917D01*
X17633Y4410D02*
X17907D01*
X17663Y4420D02*
X17927D01*
X17693Y4430D02*
X17937D01*
X17723Y4440D02*
X17957D01*
X17743Y4450D02*
X17967D01*
X17763Y4460D02*
X17987D01*
X17783Y4470D02*
X17997D01*
X17803Y4480D02*
X18007D01*
X17813Y4490D02*
X18017D01*
X17833Y4500D02*
X18027D01*
X17843Y4510D02*
X18037D01*
X17853Y4520D02*
X18047D01*
X17873Y4530D02*
X18057D01*
X17333Y4310D02*
X17387D01*
X17333Y4320D02*
X17347D01*
X17623Y4020D02*
X17767D01*
X17623Y4030D02*
X17767D01*
X17623Y4040D02*
X17767D01*
X17623Y4050D02*
X17767D01*
X17623Y4160D02*
X17767D01*
X17623Y4170D02*
X17767D01*
X17623Y4180D02*
X17767D01*
X17623Y4190D02*
X17767D01*
X17623Y4200D02*
X17767D01*
X17623Y4210D02*
X17767D01*
X17623Y4220D02*
X17767D01*
X17623Y4230D02*
X17767D01*
X17623Y4240D02*
X17767D01*
X17623Y4250D02*
X17767D01*
X17623Y4260D02*
X17767D01*
X17883Y4020D02*
X18017D01*
X17883Y4030D02*
X18017D01*
X17883Y4040D02*
X18017D01*
X17883Y4050D02*
X18017D01*
X17623Y4060D02*
X18017D01*
X17623Y4070D02*
X18017D01*
X17623Y4080D02*
X18017D01*
X17623Y4090D02*
X18017D01*
X17623Y4100D02*
X18017D01*
X17623Y4110D02*
X18017D01*
X17623Y4120D02*
X18017D01*
X17623Y4130D02*
X18017D01*
X17623Y4140D02*
X18017D01*
X17623Y4150D02*
X18017D01*
X17883Y4160D02*
X18017D01*
X17883Y4170D02*
X18017D01*
X17883Y4180D02*
X18017D01*
X17883Y4190D02*
X18017D01*
X17883Y4200D02*
X18017D01*
X17883Y4210D02*
X18017D01*
X17883Y4220D02*
X18017D01*
X17883Y4230D02*
X18017D01*
X17883Y4240D02*
X18017D01*
X17883Y4250D02*
X18017D01*
X17883Y4260D02*
X18017D01*
X17623Y4270D02*
X18017D01*
X17623Y4280D02*
X18017D01*
X17623Y4290D02*
X18027D01*
X17323Y4240D02*
X17387D01*
X17323Y4250D02*
X17387D01*
X17323Y4260D02*
X17387D01*
X17323Y4270D02*
X17387D01*
X17323Y4280D02*
X17387D01*
X17323Y4290D02*
X17387D01*
X16833Y4690D02*
X16977D01*
X17093D02*
X17247D01*
X16833Y4700D02*
X16977D01*
X16833Y4710D02*
X16977D01*
X16833Y4720D02*
X16977D01*
X16833Y4730D02*
X16977D01*
X16833Y4740D02*
X16977D01*
X16833Y4750D02*
X16977D01*
X16833Y4760D02*
X16977D01*
X16833Y4770D02*
X16977D01*
X16833Y4780D02*
X16977D01*
X16833Y4790D02*
X16977D01*
X16833Y4800D02*
X16977D01*
X16833Y4820D02*
X16977D01*
X16683D02*
X16747D01*
X16833Y4830D02*
X16977D01*
X16683D02*
X16737D01*
X16833Y4840D02*
X16977D01*
X16693D02*
X16727D01*
X16833Y4850D02*
X16977D01*
X16703D02*
X16717D01*
X16833Y4860D02*
X16977D01*
X16833Y4870D02*
X16977D01*
X16833Y4880D02*
X16987D01*
X16833Y4990D02*
X16987D01*
X16833Y5000D02*
X16977D01*
X16833Y5010D02*
X16977D01*
X16843Y5020D02*
X16977D01*
X17123D02*
X17167D01*
X17133Y5030D02*
X17147D01*
X16833Y4810D02*
X16977D01*
X16673D02*
X16757D01*
X17093Y4700D02*
X17247D01*
X17093Y4710D02*
X17247D01*
X17093Y4720D02*
X17247D01*
X17093Y4730D02*
X17247D01*
X17093Y4740D02*
X17247D01*
X17093Y4750D02*
X17247D01*
X17093Y4760D02*
X17247D01*
X17093Y4770D02*
X17247D01*
X17093Y4780D02*
X17247D01*
X17093Y4790D02*
X17247D01*
X17093Y4800D02*
X17247D01*
X17093Y4820D02*
X17247D01*
X17093Y4830D02*
X17247D01*
X17093Y4840D02*
X17247D01*
X17093Y4850D02*
X17247D01*
X17093Y4860D02*
X17247D01*
X17093Y4870D02*
X17247D01*
X17093Y4880D02*
X17247D01*
X16833Y4890D02*
X17257D01*
X16833Y4900D02*
X17257D01*
X16833Y4910D02*
X17267D01*
X16833Y4920D02*
X17277D01*
X16833Y4930D02*
X17287D01*
X16833Y4940D02*
X17287D01*
X16833Y4950D02*
X17267D01*
X16833Y4960D02*
X17257D01*
X16833Y4970D02*
X17237D01*
X16833Y4980D02*
X17227D01*
X17093Y4990D02*
X17207D01*
X17103Y5000D02*
X17197D01*
X17113Y5010D02*
X17177D01*
X17093Y4810D02*
X17247D01*
X16803Y4310D02*
X16937D01*
X16803Y4320D02*
X16947D01*
X16813Y4330D02*
X16947D01*
X16813Y4340D02*
X16947D01*
X16813Y4350D02*
X16957D01*
X16813Y4360D02*
X16957D01*
X16813Y4370D02*
X16957D01*
X16823Y4380D02*
X16957D01*
X16823Y4390D02*
X16967D01*
X16823Y4400D02*
X16967D01*
X16823Y4410D02*
X16967D01*
X16723D02*
X16737D01*
X16823Y4420D02*
X16967D01*
X16713D02*
X16747D01*
X16823Y4430D02*
X16967D01*
X16713D02*
X16757D01*
X16833Y4440D02*
X16967D01*
X16703D02*
X16767D01*
X16833Y4450D02*
X16977D01*
X16703D02*
X16777D01*
X16833Y4460D02*
X16977D01*
X16703D02*
X16787D01*
X16833Y4470D02*
X16977D01*
X16693D02*
X16787D01*
X16833Y4480D02*
X16977D01*
X16693D02*
X16797D01*
X16833Y4490D02*
X16977D01*
X16683D02*
X16807D01*
X16833Y4500D02*
X16977D01*
X16683D02*
X16807D01*
X16833Y4510D02*
X16977D01*
X16673D02*
X16817D01*
X16833Y4520D02*
X16977D01*
X16673D02*
X16807D01*
X16833Y4530D02*
X16977D01*
X16833Y4540D02*
X16977D01*
X16833Y4550D02*
X16977D01*
X16833Y4560D02*
X16977D01*
X16833Y4570D02*
X16977D01*
X16833Y4580D02*
X16977D01*
X16833Y4590D02*
X16977D01*
X16833Y4600D02*
X16977D01*
X16833Y4610D02*
X16977D01*
X16833Y4620D02*
X16977D01*
X16833Y4630D02*
X16977D01*
X16833Y4640D02*
X16977D01*
X16833Y4650D02*
X16977D01*
X16833Y4660D02*
X16977D01*
X16833Y4670D02*
X16977D01*
X16833Y4680D02*
X16977D01*
X17093Y4310D02*
X17247D01*
X17093Y4320D02*
X17247D01*
X17093Y4330D02*
X17247D01*
X17093Y4340D02*
X17247D01*
X17093Y4350D02*
X17247D01*
X17093Y4360D02*
X17247D01*
X17093Y4370D02*
X17247D01*
X17093Y4380D02*
X17247D01*
X17093Y4390D02*
X17247D01*
X17093Y4400D02*
X17247D01*
X17093Y4410D02*
X17247D01*
X17093Y4420D02*
X17247D01*
X17093Y4430D02*
X17247D01*
X17093Y4440D02*
X17247D01*
X17093Y4450D02*
X17247D01*
X17093Y4460D02*
X17247D01*
X17093Y4470D02*
X17247D01*
X17093Y4480D02*
X17247D01*
X17093Y4490D02*
X17247D01*
X17093Y4500D02*
X17247D01*
X17093Y4510D02*
X17247D01*
X17093Y4520D02*
X17247D01*
X17093Y4530D02*
X17247D01*
X17093Y4540D02*
X17247D01*
X17093Y4550D02*
X17247D01*
X17093Y4560D02*
X17247D01*
X17093Y4570D02*
X17247D01*
X17093Y4580D02*
X17247D01*
X17093Y4590D02*
X17247D01*
X17093Y4600D02*
X17247D01*
X17093Y4610D02*
X17247D01*
X17093Y4620D02*
X17247D01*
X17093Y4630D02*
X17247D01*
X17093Y4640D02*
X17247D01*
X17093Y4650D02*
X17247D01*
X17093Y4660D02*
X17247D01*
X17093Y4670D02*
X17247D01*
X17093Y4680D02*
X17247D01*
X16723Y4000D02*
X16737D01*
X16693Y4020D02*
X16757D01*
X16673Y4030D02*
X16767D01*
X16673Y4050D02*
X16787D01*
X16683Y4060D02*
X16797D01*
X16683Y4070D02*
X16807D01*
X16693Y4080D02*
X16817D01*
X16703Y4090D02*
X16827D01*
X16713Y4100D02*
X16827D01*
X16713Y4110D02*
X16837D01*
X16723Y4120D02*
X16847D01*
X16723Y4130D02*
X16857D01*
X16733Y4140D02*
X16857D01*
X16743Y4150D02*
X16867D01*
X16743Y4160D02*
X16877D01*
X16753Y4170D02*
X16877D01*
X16753Y4180D02*
X16887D01*
X16763Y4190D02*
X16887D01*
X16763Y4200D02*
X16897D01*
X16773Y4210D02*
X16897D01*
X16773Y4220D02*
X16907D01*
X16773Y4230D02*
X16907D01*
X16783Y4240D02*
X16917D01*
X16783Y4250D02*
X16917D01*
X16783Y4260D02*
X16927D01*
X16793Y4270D02*
X16927D01*
X16793Y4280D02*
X16927D01*
X16793Y4290D02*
X16937D01*
X16703Y4010D02*
X16747D01*
X17093Y4190D02*
X17257D01*
X17093Y4200D02*
X17247D01*
X17093Y4210D02*
X17247D01*
X17093Y4220D02*
X17247D01*
X17093Y4230D02*
X17247D01*
X17093Y4240D02*
X17247D01*
X17093Y4250D02*
X17247D01*
X17093Y4260D02*
X17247D01*
X17093Y4270D02*
X17247D01*
X17093Y4280D02*
X17247D01*
X17093Y4290D02*
X17247D01*
X15813Y4690D02*
X15957D01*
X15813Y4700D02*
X15957D01*
X15813Y4710D02*
X15957D01*
X15813Y4720D02*
X15957D01*
X15813Y4730D02*
X15957D01*
X15813Y4740D02*
X15957D01*
X15813Y4750D02*
X15957D01*
X15813Y4760D02*
X15957D01*
X15813Y4770D02*
X15957D01*
X15813Y4780D02*
X15957D01*
X15813Y4790D02*
X15957D01*
X15813Y4910D02*
X15957D01*
X15813Y4920D02*
X15957D01*
X15813Y4930D02*
X15957D01*
X15813Y4940D02*
X15957D01*
X15813Y4950D02*
X15957D01*
X15813Y4960D02*
X15957D01*
X15813Y4970D02*
X15957D01*
X15813Y4980D02*
X15957D01*
X15813Y4990D02*
X15957D01*
X15813Y5000D02*
X15957D01*
X15813Y5010D02*
X15957D01*
X15813Y5020D02*
X15957D01*
X15813Y5030D02*
X15957D01*
X15813Y5040D02*
X15957D01*
X15813Y5050D02*
X15957D01*
X15813Y5060D02*
X15957D01*
X15763Y4310D02*
X16037D01*
X15753Y4320D02*
X16047D01*
X15753Y4330D02*
X16057D01*
X15743Y4340D02*
X16057D01*
X15743Y4350D02*
X16067D01*
X15743Y4360D02*
X15887D01*
X15733Y4370D02*
X15877D01*
X15733Y4380D02*
X15867D01*
X15723Y4390D02*
X15867D01*
X15723Y4400D02*
X15857D01*
X15813Y4640D02*
X15967D01*
X15813Y4650D02*
X15957D01*
X15813Y4660D02*
X15957D01*
X15813Y4670D02*
X15957D01*
X15813Y4680D02*
X15957D01*
X16023Y4690D02*
X16047D01*
X16033Y4700D02*
X16037D01*
X16073Y4910D02*
X16177D01*
X16083Y4920D02*
X16167D01*
X16093Y4930D02*
X16147D01*
X16093Y4940D02*
X16137D01*
X16103Y4950D02*
X16117D01*
X16103Y4960D02*
X16107D01*
X15903Y4360D02*
X16067D01*
X15913Y4370D02*
X16077D01*
X15913Y4380D02*
X16077D01*
X15923Y4390D02*
X16087D01*
X15933Y4400D02*
X16087D01*
X15933Y4410D02*
X16097D01*
X15943Y4420D02*
X16097D01*
X15943Y4430D02*
X16107D01*
X15953Y4440D02*
X16107D01*
X15953Y4450D02*
X16117D01*
X15953Y4460D02*
X16117D01*
X15963Y4470D02*
X16127D01*
X15963Y4480D02*
X16127D01*
X15973Y4490D02*
X16137D01*
X15973Y4500D02*
X16137D01*
X15973Y4510D02*
X16137D01*
X15983Y4520D02*
X16147D01*
X15993Y4640D02*
X16117D01*
X16003Y4650D02*
X16107D01*
X16003Y4660D02*
X16097D01*
X16013Y4670D02*
X16077D01*
X16023Y4680D02*
X16067D01*
X16333Y4310D02*
X16427D01*
X16343Y4320D02*
X16437D01*
X16343Y4330D02*
X16447D01*
X16353Y4340D02*
X16447D01*
X16353Y4350D02*
X16457D01*
X16363Y4360D02*
X16467D01*
X16363Y4370D02*
X16467D01*
X16373Y4380D02*
X16477D01*
X16373Y4390D02*
X16487D01*
X16383Y4400D02*
X16487D01*
X16383Y4410D02*
X16497D01*
X15723D02*
X15847D01*
X15723Y4160D02*
X16237D01*
X15733Y4170D02*
X16207D01*
X15743Y4180D02*
X16177D01*
X15763Y4190D02*
X16157D01*
X15773Y4200D02*
X16127D01*
X15783Y4210D02*
X16107D01*
X15793Y4220D02*
X16087D01*
X15803Y4230D02*
X16067D01*
X15803Y4240D02*
X16047D01*
X15793Y4250D02*
X16027D01*
X15793Y4260D02*
X16007D01*
X15783Y4270D02*
X16017D01*
X15773Y4280D02*
X16017D01*
X15773Y4290D02*
X16027D01*
X16113Y3990D02*
X16127D01*
X16103Y4000D02*
X16137D01*
X16063Y4020D02*
X16147D01*
X16043Y4030D02*
X16157D01*
X16023Y4040D02*
X16167D01*
X16013Y4050D02*
X16177D01*
X15993Y4060D02*
X16177D01*
X15983Y4070D02*
X16187D01*
X15963Y4080D02*
X16197D01*
X15953Y4090D02*
X16207D01*
X15943Y4100D02*
X16217D01*
X15923Y4110D02*
X16227D01*
X15913Y4120D02*
X16227D01*
X15903Y4130D02*
X16237D01*
X16383Y4250D02*
X16387D01*
X16373Y4260D02*
X16397D01*
X16353Y4270D02*
X16397D01*
X16333Y4280D02*
X16407D01*
X16323Y4290D02*
X16417D01*
X16083Y4010D02*
X16147D01*
X15343Y4690D02*
X15497D01*
X15343Y4700D02*
X15497D01*
X15343Y4820D02*
X15497D01*
X15343Y4830D02*
X15497D01*
X15343Y4840D02*
X15497D01*
X15343Y4850D02*
X15497D01*
X15343Y4860D02*
X15497D01*
X15343Y4870D02*
X15497D01*
X15343Y4880D02*
X15497D01*
X15343Y4890D02*
X15497D01*
X15343Y4900D02*
X15497D01*
X15343Y4910D02*
X15497D01*
X15343Y4920D02*
X15497D01*
X15343Y4930D02*
X15497D01*
X15343Y4940D02*
X15497D01*
X15343Y4950D02*
X15497D01*
X15343Y4960D02*
X15497D01*
X15343Y4970D02*
X15497D01*
X15343Y4980D02*
X15497D01*
X15343Y4990D02*
X15497D01*
X15343Y5000D02*
X15497D01*
X15343Y5010D02*
X15497D01*
X15343Y5020D02*
X15497D01*
X15343Y5030D02*
X15497D01*
X15343Y5040D02*
X15497D01*
X15343Y5050D02*
X15497D01*
X15343Y5060D02*
X15497D01*
X15523Y4830D02*
X15577D01*
X15523Y4840D02*
X15567D01*
X15533Y4850D02*
X15547D01*
X15213Y4710D02*
X15607D01*
X15213Y4720D02*
X15617D01*
X15203Y4730D02*
X15627D01*
X15203Y4740D02*
X15627D01*
X15203Y4750D02*
X15637D01*
X15203Y4760D02*
X15647D01*
X15203Y4770D02*
X15647D01*
X15203Y4780D02*
X15637D01*
X15193Y4790D02*
X15637D01*
X15343Y4310D02*
X15497D01*
X15343Y4320D02*
X15497D01*
X15343Y4330D02*
X15497D01*
X15343Y4340D02*
X15497D01*
X15223D02*
X15227D01*
X15343Y4350D02*
X15497D01*
X15213D02*
X15257D01*
X15343Y4360D02*
X15497D01*
X15213D02*
X15287D01*
X15343Y4370D02*
X15497D01*
X15213D02*
X15307D01*
X15343Y4380D02*
X15497D01*
X15203D02*
X15327D01*
X15203Y4390D02*
X15497D01*
X15203Y4400D02*
X15497D01*
X15193Y4410D02*
X15497D01*
X15193Y4420D02*
X15497D01*
X15193Y4430D02*
X15497D01*
X15183Y4440D02*
X15497D01*
X15183Y4450D02*
X15497D01*
X15343Y4560D02*
X15497D01*
X15343Y4570D02*
X15497D01*
X15343Y4580D02*
X15497D01*
X15343Y4590D02*
X15497D01*
X15343Y4600D02*
X15497D01*
X15343Y4610D02*
X15497D01*
X15343Y4620D02*
X15497D01*
X15343Y4630D02*
X15497D01*
X15343Y4640D02*
X15497D01*
X15343Y4650D02*
X15497D01*
X15343Y4660D02*
X15497D01*
X15343Y4670D02*
X15497D01*
X15343Y4680D02*
X15497D01*
X15553Y4570D02*
X15587D01*
X15183Y4460D02*
X15517D01*
X15173Y4470D02*
X15537D01*
X15173Y4480D02*
X15557D01*
X15203Y4490D02*
X15577D01*
X15253Y4500D02*
X15597D01*
X15303Y4510D02*
X15597D01*
X15343Y4520D02*
X15597D01*
X15343Y4530D02*
X15597D01*
X15343Y4540D02*
X15597D01*
X15343Y4550D02*
X15597D01*
X15513Y4560D02*
X15587D01*
X14923Y4750D02*
X15007D01*
X14933Y4760D02*
X14997D01*
X14933Y4770D02*
X14987D01*
X14943Y4780D02*
X14967D01*
X14953Y4790D02*
X14957D01*
X15323Y3990D02*
X15377D01*
X15323Y4000D02*
X15417D01*
X15323Y4020D02*
X15457D01*
X15313Y4030D02*
X15467D01*
X15303Y4040D02*
X15477D01*
X15293Y4050D02*
X15477D01*
X15253Y4060D02*
X15487D01*
X15233Y4070D02*
X15487D01*
X15223Y4080D02*
X15497D01*
X15223Y4090D02*
X15497D01*
X15223Y4100D02*
X15497D01*
X15223Y4110D02*
X15497D01*
X15223Y4120D02*
X15497D01*
X15223Y4130D02*
X15497D01*
X15303Y4140D02*
X15497D01*
X15333Y4150D02*
X15497D01*
X15343Y4160D02*
X15497D01*
X15343Y4170D02*
X15497D01*
X15353Y4180D02*
X15497D01*
X15343Y4190D02*
X15497D01*
X15343Y4200D02*
X15497D01*
X15343Y4210D02*
X15497D01*
X15343Y4220D02*
X15497D01*
X15343Y4230D02*
X15497D01*
X15343Y4240D02*
X15497D01*
X15343Y4250D02*
X15497D01*
X15343Y4260D02*
X15497D01*
X15343Y4270D02*
X15497D01*
X15343Y4280D02*
X15497D01*
X15343Y4290D02*
X15497D01*
X15563Y3980D02*
X15567D01*
X15563Y3990D02*
X15597D01*
X15553Y4000D02*
X15627D01*
X15543Y4020D02*
X15687D01*
X15323Y4010D02*
X15437D01*
X15543D02*
X15657D01*
X14923Y4220D02*
X14987D01*
X14923Y4230D02*
X14987D01*
X14923Y4240D02*
X14987D01*
X14933Y4250D02*
X14987D01*
X14933Y4260D02*
X14987D01*
X14933Y4270D02*
X14987D01*
X14933Y4280D02*
X14987D01*
X14943Y4290D02*
X14947D01*
X14153Y4310D02*
X14897D01*
X14153Y4320D02*
X14897D01*
X14153Y4330D02*
X14897D01*
X14153Y4340D02*
X14897D01*
X14153Y4350D02*
X14897D01*
X14153Y4360D02*
X14897D01*
X14153Y4370D02*
X14897D01*
X14153Y4380D02*
X14897D01*
X14153Y4390D02*
X14897D01*
X14153Y4570D02*
X14887D01*
X14263Y4830D02*
X14397D01*
X14253Y4840D02*
X14377D01*
X14253Y4850D02*
X14367D01*
X14263Y4860D02*
X14357D01*
X14153Y4400D02*
X14307D01*
X14153Y4410D02*
X14307D01*
X14153Y4420D02*
X14307D01*
X14153Y4430D02*
X14307D01*
X14153Y4440D02*
X14307D01*
X14153Y4450D02*
X14307D01*
X14153Y4460D02*
X14307D01*
X14153Y4470D02*
X14307D01*
X14153Y4480D02*
X14307D01*
X14153Y4580D02*
X14307D01*
X14153Y4590D02*
X14307D01*
X14153Y4600D02*
X14307D01*
X14323Y4740D02*
X14427D01*
X14313Y4750D02*
X14427D01*
X14313Y4760D02*
X14437D01*
X14303Y4770D02*
X14437D01*
X14303Y4780D02*
X14447D01*
X14293Y4790D02*
X14447D01*
X14283Y4800D02*
X14447D01*
X14273Y4820D02*
X14417D01*
X14483Y4960D02*
X14597D01*
X14473Y4970D02*
X14607D01*
X14463Y4980D02*
X14607D01*
X14453Y4990D02*
X14617D01*
X14443Y5000D02*
X14617D01*
X14433Y5010D02*
X14617D01*
X14433Y5020D02*
X14607D01*
X14423Y5030D02*
X14597D01*
X14413Y5040D02*
X14577D01*
X14413Y5050D02*
X14557D01*
X14423Y5060D02*
X14527D01*
X14433Y5070D02*
X14497D01*
X14433Y5080D02*
X14467D01*
X14883Y5000D02*
X14897D01*
X14273Y4810D02*
X14437D01*
X14613Y4740D02*
X14727D01*
X14623Y4750D02*
X14737D01*
X14623Y4760D02*
X14747D01*
X14633Y4770D02*
X14757D01*
X14633Y4780D02*
X14767D01*
X14643Y4790D02*
X14777D01*
X14643Y4800D02*
X14787D01*
X14653Y4820D02*
X14807D01*
X14653Y4830D02*
X14807D01*
X14663Y4840D02*
X14777D01*
X14663Y4850D02*
X14757D01*
X14663Y4860D02*
X14747D01*
X14643Y4810D02*
X14797D01*
X14753Y4400D02*
X14897D01*
X14753Y4410D02*
X14897D01*
X14753Y4420D02*
X14897D01*
X14753Y4430D02*
X14897D01*
X14753Y4440D02*
X14897D01*
X14753Y4450D02*
X14897D01*
X14753Y4460D02*
X14897D01*
X14753Y4470D02*
X14897D01*
X14753Y4480D02*
X14897D01*
X14753Y4580D02*
X14877D01*
X14763Y4590D02*
X14857D01*
X14773Y4600D02*
X14837D01*
X14773Y4610D02*
X14827D01*
X14783Y4620D02*
X14807D01*
X14133Y4080D02*
X14367D01*
X14153Y4090D02*
X14377D01*
X14173Y4100D02*
X14387D01*
X14193Y4110D02*
X14397D01*
X14213Y4120D02*
X14407D01*
X14233Y4130D02*
X14417D01*
X14243Y4140D02*
X14427D01*
X14253Y4150D02*
X14437D01*
X14153Y4280D02*
X14307D01*
X14153Y4290D02*
X14307D01*
X14273Y4160D02*
X14447D01*
X14283Y4170D02*
X14447D01*
X14293Y4180D02*
X14457D01*
X14293Y4190D02*
X14457D01*
X14303Y4200D02*
X14467D01*
X14313Y4210D02*
X14467D01*
X14323Y4220D02*
X14477D01*
X14323Y4230D02*
X14477D01*
X14333Y4240D02*
X14477D01*
X14333Y4250D02*
X14487D01*
X14343Y4260D02*
X14487D01*
X14343Y4270D02*
X14487D01*
X14343Y4280D02*
X14487D01*
X14343Y4290D02*
X14487D01*
X14753Y4280D02*
X14897D01*
X14753Y4290D02*
X14897D01*
X14573Y4150D02*
X14737D01*
X14573Y4160D02*
X14727D01*
X14573Y4170D02*
X14727D01*
X14573Y4180D02*
X14717D01*
X14573Y4190D02*
X14717D01*
X14573Y4200D02*
X14717D01*
X14573Y4210D02*
X14717D01*
X14573Y4220D02*
X14717D01*
X14573Y4230D02*
X14717D01*
X14573Y4240D02*
X14717D01*
X14573Y4250D02*
X14717D01*
X14573Y4260D02*
X14717D01*
X14573Y4270D02*
X14717D01*
X14573Y4280D02*
X14717D01*
X14573Y4290D02*
X14717D01*
X13363Y7510D02*
X14017D01*
X13363Y7520D02*
X14017D01*
X13363Y7530D02*
X14027D01*
X13363Y7540D02*
X14027D01*
X13373Y7550D02*
X14027D01*
X13373Y7560D02*
X14037D01*
X13373Y7570D02*
X14037D01*
X13373Y7580D02*
X14037D01*
X13383Y7590D02*
X14037D01*
X13383Y7600D02*
X14047D01*
X13383Y7610D02*
X14047D01*
X13393Y7620D02*
X14047D01*
X13393Y7630D02*
X14047D01*
X13393Y7640D02*
X14057D01*
X13393Y7650D02*
X14057D01*
X13403Y7660D02*
X14057D01*
X13403Y7670D02*
X14067D01*
X13403Y7680D02*
X14067D01*
X13403Y7690D02*
X14067D01*
X13413Y7700D02*
X14067D01*
X13413Y7710D02*
X14077D01*
X13413Y7720D02*
X14077D01*
X13413Y7730D02*
X14077D01*
X13423Y7740D02*
X14077D01*
X13423Y7750D02*
X14087D01*
X13423Y7760D02*
X14087D01*
X13433Y7770D02*
X14087D01*
X13433Y7780D02*
X14087D01*
X13433Y7790D02*
X14097D01*
X13433Y7800D02*
X14097D01*
X13443Y7810D02*
X14097D01*
X13323Y7360D02*
X13977D01*
X13323Y7370D02*
X13977D01*
X13323Y7380D02*
X13987D01*
X13323Y7390D02*
X13987D01*
X13333Y7400D02*
X13987D01*
X13333Y7410D02*
X13997D01*
X13333Y7420D02*
X13997D01*
X13333Y7430D02*
X13997D01*
X13343Y7440D02*
X13997D01*
X13343Y7450D02*
X14007D01*
X13343Y7460D02*
X14007D01*
X13343Y7470D02*
X14007D01*
X13353Y7480D02*
X14007D01*
X13353Y7490D02*
X14017D01*
X13423Y4310D02*
X13627D01*
X13423Y4320D02*
X13617D01*
X13413Y4330D02*
X13607D01*
X13413Y4340D02*
X13597D01*
X13403Y4350D02*
X13587D01*
X13403Y4360D02*
X13577D01*
X13393Y4370D02*
X13567D01*
X13393Y4380D02*
X13557D01*
X13393Y4390D02*
X13547D01*
X13383Y4400D02*
X13537D01*
X13713Y4690D02*
X13787D01*
X13723Y4700D02*
X13777D01*
X13733Y4710D02*
X13757D01*
X13743Y4720D02*
X13747D01*
X13623Y4990D02*
X13737D01*
X13623Y5000D02*
X13717D01*
X13633Y5010D02*
X13707D01*
X13643Y5020D02*
X13687D01*
X13643Y5030D02*
X13677D01*
X13653Y5040D02*
X13657D01*
X13693Y4660D02*
X13827D01*
X13703Y4670D02*
X13817D01*
X13713Y4680D02*
X13797D01*
X13463Y4240D02*
X13727D01*
X13453Y4250D02*
X13707D01*
X13453Y4260D02*
X13697D01*
X13443Y4270D02*
X13677D01*
X13443Y4280D02*
X13667D01*
X13433Y4290D02*
X13647D01*
X13723Y3990D02*
X13737D01*
X13713Y4000D02*
X13747D01*
X13673Y4020D02*
X13767D01*
X13663Y4030D02*
X13767D01*
X13653Y4040D02*
X13777D01*
X13633Y4050D02*
X13787D01*
X13623Y4060D02*
X13797D01*
X13613Y4070D02*
X13807D01*
X13603Y4080D02*
X13817D01*
X13593Y4090D02*
X13827D01*
X13583Y4100D02*
X13837D01*
X13573Y4110D02*
X13847D01*
X13563Y4120D02*
X13857D01*
X13553Y4130D02*
X13877D01*
X13543Y4140D02*
X13887D01*
X13533Y4150D02*
X13897D01*
X13523Y4160D02*
X13897D01*
X13513Y4170D02*
X13867D01*
X13503Y4180D02*
X13837D01*
X13503Y4190D02*
X13817D01*
X13493Y4200D02*
X13797D01*
X13483Y4210D02*
X13777D01*
X13473Y4220D02*
X13757D01*
X13473Y4230D02*
X13737D01*
X14063Y3980D02*
X14067D01*
X13693Y4010D02*
X13757D01*
X12523Y5020D02*
X12547D01*
X12523Y5030D02*
X12537D01*
X12893Y3990D02*
X12917D01*
X12883Y4000D02*
X12937D01*
X12873Y4020D02*
X12987D01*
X12863Y4030D02*
X13007D01*
X12853Y4040D02*
X13027D01*
X12853Y4050D02*
X13037D01*
X12853Y4060D02*
X13057D01*
X12873Y4070D02*
X13077D01*
X12883Y4080D02*
X13087D01*
X12883Y4010D02*
X12957D01*
X12903Y4090D02*
X13107D01*
X12923Y4100D02*
X13117D01*
X12933Y4110D02*
X13137D01*
X12943Y4120D02*
X13147D01*
X12963Y4130D02*
X13157D01*
X12973Y4140D02*
X13177D01*
X12983Y4150D02*
X13187D01*
X13003Y4160D02*
X13197D01*
X13013Y4170D02*
X13207D01*
X13023Y4180D02*
X13217D01*
X13033Y4190D02*
X13227D01*
X13043Y4200D02*
X13237D01*
X13053Y4210D02*
X13247D01*
X13063Y4220D02*
X13257D01*
X13073Y4230D02*
X13257D01*
X13083Y4240D02*
X13267D01*
X13093Y4250D02*
X13277D01*
X13093Y4260D02*
X13287D01*
X13103Y4270D02*
X13297D01*
X13113Y4280D02*
X13297D01*
X11743Y7890D02*
X12407D01*
X11743Y7900D02*
X12407D01*
X11743Y7910D02*
X12407D01*
X11753Y7920D02*
X12417D01*
X11753Y7930D02*
X12417D01*
X11753Y7940D02*
X12417D01*
X11763Y7950D02*
X12417D01*
X11763Y7960D02*
X12427D01*
X11763Y7970D02*
X12427D01*
X11763Y7980D02*
X12427D01*
X11773Y7990D02*
X12437D01*
X11773Y8000D02*
X12437D01*
X11723Y7810D02*
X12387D01*
X11723Y7820D02*
X12387D01*
X11723Y7830D02*
X12387D01*
X11733Y7840D02*
X12387D01*
X11733Y7850D02*
X12397D01*
X11733Y7860D02*
X12397D01*
X11733Y7870D02*
X12397D01*
X11743Y7880D02*
X12407D01*
X11863Y4980D02*
X12047D01*
X11863Y4990D02*
X12027D01*
X11853Y5000D02*
X12017D01*
X11843Y5010D02*
X11997D01*
X11843Y5020D02*
X11977D01*
X11833Y5030D02*
X11967D01*
X11843Y5040D02*
X11947D01*
X11853Y5050D02*
X11927D01*
X11863Y5060D02*
X11907D01*
X11953Y4690D02*
X12397D01*
X11953Y4710D02*
X12087D01*
X11953Y4720D02*
X12087D01*
X11953Y4730D02*
X12087D01*
X12273Y4750D02*
X12297D01*
X11953Y4830D02*
X11977D01*
X11943Y4840D02*
X11987D01*
X11943Y4850D02*
X11997D01*
X11933Y4860D02*
X12007D01*
X11933Y4870D02*
X12017D01*
X11923Y4880D02*
X12017D01*
X11923Y4890D02*
X12027D01*
X11913Y4900D02*
X12027D01*
X11913Y4910D02*
X12037D01*
X11903Y4920D02*
X12037D01*
X11893Y4930D02*
X12047D01*
X11893Y4940D02*
X12047D01*
X11883Y4950D02*
X12057D01*
X11883Y4960D02*
X12057D01*
X11873Y4970D02*
X12057D01*
X11873Y5070D02*
X11887D01*
X11953Y4700D02*
X12377D01*
X12243Y4710D02*
X12357D01*
X12253Y4720D02*
X12347D01*
X12253Y4730D02*
X12327D01*
X12263Y4740D02*
X12317D01*
X11953Y4390D02*
X12087D01*
X11953Y4400D02*
X12087D01*
X11953Y4410D02*
X12087D01*
X11953Y4420D02*
X12087D01*
X11953Y4430D02*
X12087D01*
X11953Y4440D02*
X12087D01*
X11953Y4450D02*
X12087D01*
X11953Y4460D02*
X12087D01*
X11953Y4470D02*
X12087D01*
X11953Y4480D02*
X12087D01*
X11953Y4490D02*
X12087D01*
X11953Y4500D02*
X12087D01*
X11953Y4510D02*
X12087D01*
X11953Y4520D02*
X12087D01*
X11953Y4530D02*
X12087D01*
X11953Y4540D02*
X12087D01*
X11953Y4550D02*
X12087D01*
X11953Y4560D02*
X12087D01*
X11953Y4570D02*
X12087D01*
X11953Y4580D02*
X12087D01*
X11953Y4590D02*
X12087D01*
X11953Y4310D02*
X12377D01*
X11953Y4320D02*
X12377D01*
X11953Y4330D02*
X12377D01*
X11953Y4340D02*
X12377D01*
X11953Y4350D02*
X12377D01*
X11953Y4360D02*
X12377D01*
X11953Y4370D02*
X12377D01*
X11953Y4380D02*
X12377D01*
X12243Y4390D02*
X12377D01*
X12243Y4400D02*
X12377D01*
X12243Y4410D02*
X12377D01*
X12243Y4420D02*
X12377D01*
X12243Y4430D02*
X12377D01*
X12243Y4440D02*
X12377D01*
X12243Y4450D02*
X12377D01*
X12243Y4460D02*
X12377D01*
X12243Y4470D02*
X12377D01*
X12243Y4480D02*
X12377D01*
X12243Y4490D02*
X12377D01*
X12243Y4500D02*
X12377D01*
X12243Y4510D02*
X12377D01*
X12243Y4520D02*
X12377D01*
X12243Y4530D02*
X12377D01*
X12243Y4540D02*
X12377D01*
X12243Y4550D02*
X12377D01*
X12243Y4560D02*
X12377D01*
X12243Y4570D02*
X12377D01*
X12243Y4580D02*
X12377D01*
X12243Y4590D02*
X12377D01*
X11953Y4600D02*
X12377D01*
X11953Y4610D02*
X12377D01*
X11953Y4620D02*
X12387D01*
X11953Y4630D02*
X12397D01*
X11953Y4640D02*
X12397D01*
X11953Y4650D02*
X12407D01*
X11953Y4660D02*
X12417D01*
X11953Y4670D02*
X12417D01*
X11953Y4680D02*
X12407D01*
X11953Y4220D02*
X12087D01*
X11953Y4230D02*
X12087D01*
X11953Y4240D02*
X12087D01*
X11953Y4250D02*
X12087D01*
X11953Y4260D02*
X12087D01*
X12253Y4220D02*
X12377D01*
X12243Y4230D02*
X12377D01*
X12243Y4240D02*
X12377D01*
X12243Y4250D02*
X12377D01*
X12243Y4260D02*
X12377D01*
X11953Y4270D02*
X12377D01*
X11953Y4280D02*
X12377D01*
X11953Y4290D02*
X12377D01*
X11273Y4940D02*
X11377D01*
X11273Y4950D02*
X11367D01*
X11283Y4960D02*
X11347D01*
X11293Y4970D02*
X11327D01*
X11293Y4980D02*
X11317D01*
X11353Y4230D02*
X11477D01*
X11363Y4240D02*
X11457D01*
X11373Y4250D02*
X11447D01*
X11373Y4260D02*
X11437D01*
X11383Y4270D02*
X11417D01*
X11383Y4280D02*
X11407D01*
X11393Y4290D02*
X11397D01*
X10163Y4940D02*
X10287D01*
X10173Y4950D02*
X10277D01*
X10183Y4960D02*
X10267D01*
X10193Y4970D02*
X10257D01*
X10123Y4740D02*
X10247D01*
X10133Y4750D02*
X10237D01*
X10143Y4760D02*
X10217D01*
X10153Y4770D02*
X10207D01*
X10163Y4780D02*
X10187D01*
X10163Y4790D02*
X10177D01*
X10203Y4980D02*
X10247D01*
X10213Y4990D02*
X10227D01*
X9373Y4730D02*
X9527D01*
X9373Y4740D02*
X9527D01*
X9373Y4750D02*
X9527D01*
X9373Y4760D02*
X9527D01*
X9373Y4310D02*
X9527D01*
X9373Y4320D02*
X9527D01*
X9373Y4330D02*
X9527D01*
X9373Y4340D02*
X9527D01*
X9373Y4350D02*
X9527D01*
X9373Y4360D02*
X9527D01*
X9373Y4370D02*
X9527D01*
X9373Y4380D02*
X9527D01*
X9373Y4390D02*
X9527D01*
X9373Y4400D02*
X9527D01*
X9373Y4410D02*
X9527D01*
X9373Y4420D02*
X9527D01*
X9373Y4430D02*
X9527D01*
X9373Y4440D02*
X9527D01*
X9373Y4450D02*
X9527D01*
X9373Y4460D02*
X9527D01*
X9373Y4470D02*
X9527D01*
X9373Y4480D02*
X9527D01*
X9373Y4490D02*
X9527D01*
X9373Y4500D02*
X9527D01*
X9373Y4510D02*
X9527D01*
X9373Y4520D02*
X9527D01*
X9373Y4530D02*
X9527D01*
X9373Y4540D02*
X9527D01*
X9373Y4550D02*
X9527D01*
X9373Y4560D02*
X9527D01*
X9373Y4570D02*
X9527D01*
X9373Y4580D02*
X9527D01*
X9373Y4590D02*
X9527D01*
X9373Y4600D02*
X9527D01*
X9373Y4610D02*
X9527D01*
X9373Y4620D02*
X9527D01*
X9713Y4730D02*
X9867D01*
X9713Y4740D02*
X9867D01*
X9723Y4750D02*
X9867D01*
X9723Y4760D02*
X9867D01*
X9723Y4770D02*
X9867D01*
X9723Y4780D02*
X9867D01*
X9723Y4790D02*
X9867D01*
X9723Y4800D02*
X9867D01*
X9723Y4820D02*
X9877D01*
X9723Y4830D02*
X9877D01*
X9733Y4940D02*
X9887D01*
X9733Y4950D02*
X9887D01*
X9733Y4960D02*
X9887D01*
X9743Y4970D02*
X9887D01*
X9743Y4980D02*
X9887D01*
X9743Y4990D02*
X9887D01*
X9743Y5000D02*
X9897D01*
X9743Y5010D02*
X9897D01*
X9743Y5020D02*
X9897D01*
X9743Y5030D02*
X9897D01*
X9743Y5040D02*
X9897D01*
X9743Y5050D02*
X9897D01*
X9743Y5060D02*
X9897D01*
X9723Y4810D02*
X9877D01*
X9743Y4310D02*
X9877D01*
X9743Y4320D02*
X9877D01*
X9743Y4330D02*
X9877D01*
X9743Y4340D02*
X9877D01*
X9743Y4350D02*
X9877D01*
X9743Y4360D02*
X9877D01*
X9743Y4370D02*
X9877D01*
X9743Y4380D02*
X9877D01*
X9683Y4480D02*
X9737D01*
X9683Y4490D02*
X9747D01*
X9673Y4500D02*
X9757D01*
X9673Y4510D02*
X9757D01*
X9663Y4520D02*
X9767D01*
X9663Y4530D02*
X9767D01*
X9653Y4540D02*
X9767D01*
X9653Y4550D02*
X9767D01*
X9643Y4560D02*
X9767D01*
X9633Y4570D02*
X9757D01*
X9633Y4580D02*
X9747D01*
X9623Y4590D02*
X9737D01*
X9623Y4600D02*
X9717D01*
X9613Y4610D02*
X9697D01*
X9623Y4620D02*
X9677D01*
X9963Y4310D02*
X10037D01*
X9973Y4320D02*
X10027D01*
X9983Y4330D02*
X10017D01*
X9993Y4340D02*
X10007D01*
X9943Y4480D02*
X10017D01*
X9953Y4490D02*
X10007D01*
X9963Y4500D02*
X9997D01*
X9973Y4510D02*
X9987D01*
X9593Y4390D02*
X10047D01*
X9593Y4400D02*
X10047D01*
X9583Y4410D02*
X10057D01*
X9583Y4420D02*
X10067D01*
X9583Y4430D02*
X10077D01*
X9573Y4440D02*
X10067D01*
X9573Y4450D02*
X10057D01*
X9573Y4460D02*
X10047D01*
X9563Y4470D02*
X10037D01*
X9813Y4480D02*
X9907D01*
X9823Y4490D02*
X9917D01*
X9833Y4500D02*
X9927D01*
X9833Y4510D02*
X9937D01*
X9843Y4520D02*
X9947D01*
X9843Y4530D02*
X9957D01*
X9853Y4540D02*
X9967D01*
X9853Y4550D02*
X9977D01*
X9863Y4560D02*
X9987D01*
X9863Y4570D02*
X9987D01*
X9863Y4580D02*
X9997D01*
X9873Y4590D02*
X10007D01*
X9873Y4600D02*
X10007D01*
X9873Y4610D02*
X9987D01*
X9883Y4620D02*
X9967D01*
X9373Y4020D02*
X9527D01*
X9373Y4030D02*
X9527D01*
X9373Y4040D02*
X9527D01*
X9373Y4050D02*
X9527D01*
X9373Y4060D02*
X9527D01*
X9373Y4070D02*
X9527D01*
X9373Y4080D02*
X9527D01*
X9373Y4090D02*
X9527D01*
X9373Y4100D02*
X9527D01*
X9373Y4110D02*
X9527D01*
X9373Y4120D02*
X9527D01*
X9373Y4130D02*
X9527D01*
X9373Y4140D02*
X9527D01*
X9373Y4150D02*
X9527D01*
X9373Y4160D02*
X9527D01*
X9373Y4170D02*
X9527D01*
X9373Y4180D02*
X9527D01*
X9373Y4190D02*
X9527D01*
X9373Y4200D02*
X9527D01*
X9373Y4210D02*
X9527D01*
X9373Y4220D02*
X9527D01*
X9373Y4230D02*
X9527D01*
X9373Y4240D02*
X9527D01*
X9373Y4250D02*
X9527D01*
X9373Y4260D02*
X9527D01*
X9373Y4270D02*
X9527D01*
X9373Y4280D02*
X9527D01*
X9373Y4290D02*
X9527D01*
X9743Y4060D02*
X9877D01*
X9743Y4070D02*
X9877D01*
X9743Y4080D02*
X9877D01*
X9743Y4090D02*
X9877D01*
X9743Y4100D02*
X9877D01*
X9743Y4110D02*
X9877D01*
X9743Y4120D02*
X9877D01*
X9743Y4130D02*
X9877D01*
X9743Y4140D02*
X9877D01*
X9743Y4150D02*
X9877D01*
X9743Y4160D02*
X9877D01*
X9743Y4170D02*
X9877D01*
X9743Y4180D02*
X9877D01*
X9743Y4190D02*
X9877D01*
X9743Y4200D02*
X9877D01*
X9733Y4210D02*
X9877D01*
X9963Y4150D02*
X9967D01*
X9573Y4220D02*
X10067D01*
X9573Y4230D02*
X10067D01*
X9573Y4240D02*
X10077D01*
X9563Y4250D02*
X10087D01*
X9563Y4260D02*
X10087D01*
X9563Y4270D02*
X10087D01*
X9563Y4280D02*
X10067D01*
X9553Y4290D02*
X10057D01*
D19*
X13398Y11300D02*
Y11650D01*
X13223Y11475D01*
X13457D01*
X13806Y11650D02*
X13690Y11592D01*
X13573Y11475D01*
Y11358D01*
X13632Y11300D01*
X13748D01*
X13806Y11358D01*
Y11417D01*
X13748Y11475D01*
X13573D01*
X14506Y11650D02*
X14273D01*
Y11475D01*
X14390Y11533D01*
X14448D01*
X14506Y11475D01*
Y11358D01*
X14448Y11300D01*
X14331D01*
X14273Y11358D01*
X14623D02*
X14681Y11300D01*
X14798D01*
X14856Y11358D01*
Y11592D01*
X14798Y11650D01*
X14681D01*
X14623Y11592D01*
Y11533D01*
X14681Y11475D01*
X14856D01*
X15556Y11650D02*
X15439Y11592D01*
X15323Y11475D01*
Y11358D01*
X15381Y11300D01*
X15498D01*
X15556Y11358D01*
Y11417D01*
X15498Y11475D01*
X15323D01*
X15673Y11592D02*
X15731Y11650D01*
X15847D01*
X15906Y11592D01*
Y11533D01*
X15847Y11475D01*
X15789D01*
X15847D01*
X15906Y11417D01*
Y11358D01*
X15847Y11300D01*
X15731D01*
X15673Y11358D01*
X16606Y11650D02*
X16489Y11592D01*
X16372Y11475D01*
Y11358D01*
X16431Y11300D01*
X16547D01*
X16606Y11358D01*
Y11417D01*
X16547Y11475D01*
X16372D01*
X16955Y11650D02*
X16722D01*
Y11475D01*
X16839Y11533D01*
X16897D01*
X16955Y11475D01*
Y11358D01*
X16897Y11300D01*
X16781D01*
X16722Y11358D01*
X17655Y11650D02*
X17539Y11592D01*
X17422Y11475D01*
Y11358D01*
X17480Y11300D01*
X17597D01*
X17655Y11358D01*
Y11417D01*
X17597Y11475D01*
X17422D01*
X17772Y11650D02*
X18005D01*
Y11592D01*
X17772Y11358D01*
Y11300D01*
X13405Y11900D02*
Y12250D01*
X13230Y12075D01*
X13463D01*
X13580Y12250D02*
X13813D01*
Y12192D01*
X13580Y11958D01*
Y11900D01*
X14513Y12250D02*
X14280D01*
Y12075D01*
X14396Y12133D01*
X14455D01*
X14513Y12075D01*
Y11958D01*
X14455Y11900D01*
X14338D01*
X14280Y11958D01*
X14630Y12192D02*
X14688Y12250D01*
X14804D01*
X14863Y12192D01*
Y12133D01*
X14804Y12075D01*
X14863Y12017D01*
Y11958D01*
X14804Y11900D01*
X14688D01*
X14630Y11958D01*
Y12017D01*
X14688Y12075D01*
X14630Y12133D01*
Y12192D01*
X14688Y12075D02*
X14804D01*
X15563Y12250D02*
X15446Y12192D01*
X15329Y12075D01*
Y11958D01*
X15388Y11900D01*
X15504D01*
X15563Y11958D01*
Y12017D01*
X15504Y12075D01*
X15329D01*
X15679Y12192D02*
X15738Y12250D01*
X15854D01*
X15912Y12192D01*
Y11958D01*
X15854Y11900D01*
X15738D01*
X15679Y11958D01*
Y12192D01*
X16612Y12250D02*
X16496Y12192D01*
X16379Y12075D01*
Y11958D01*
X16437Y11900D01*
X16554D01*
X16612Y11958D01*
Y12017D01*
X16554Y12075D01*
X16379D01*
X16904Y11900D02*
Y12250D01*
X16729Y12075D01*
X16962D01*
X17662Y12250D02*
X17545Y12192D01*
X17429Y12075D01*
Y11958D01*
X17487Y11900D01*
X17604D01*
X17662Y11958D01*
Y12017D01*
X17604Y12075D01*
X17429D01*
X18012Y12250D02*
X17895Y12192D01*
X17779Y12075D01*
Y11958D01*
X17837Y11900D01*
X17953D01*
X18012Y11958D01*
Y12017D01*
X17953Y12075D01*
X17779D01*
X20700Y11290D02*
Y11590D01*
X20900Y11290D01*
Y11590D01*
X21000Y11290D02*
Y11590D01*
X21150D01*
X21200Y11540D01*
Y11440D01*
X21150Y11390D01*
X21000D01*
X21100D02*
X21200Y11290D01*
X21500Y11590D02*
X21300D01*
Y11440D01*
X21400D01*
X21300D01*
Y11290D01*
X21800D02*
X21600D01*
X21800Y11490D01*
Y11540D01*
X21750Y11590D01*
X21650D01*
X21600Y11540D01*
X22050Y11290D02*
Y11590D01*
X21900Y11440D01*
X22100D01*
X22200Y11590D02*
Y11290D01*
X22399D01*
X22499Y11540D02*
X22549Y11590D01*
X22649D01*
X22699Y11540D01*
Y11340D01*
X22649Y11290D01*
X22549D01*
X22499Y11340D01*
Y11540D01*
X22799Y11290D02*
X22899D01*
X22849D01*
Y11590D01*
X22799Y11540D01*
X22010Y14730D02*
X22060Y14780D01*
X22160D01*
X22210Y14730D01*
Y14680D01*
X22160Y14630D01*
X22210Y14580D01*
Y14530D01*
X22160Y14480D01*
X22060D01*
X22010Y14530D01*
Y14580D01*
X22060Y14630D01*
X22010Y14680D01*
Y14730D01*
X22060Y14630D02*
X22160D01*
X22310Y14480D02*
X22410D01*
X22360D01*
Y14780D01*
X22310Y14730D01*
X22560Y14430D02*
X22760D01*
X23060Y14730D02*
X23010Y14780D01*
X22910D01*
X22860Y14730D01*
Y14530D01*
X22910Y14480D01*
X23010D01*
X23060Y14530D01*
X23160Y14780D02*
Y14480D01*
Y14630D01*
X23360D01*
Y14780D01*
Y14480D01*
X23460D02*
X23560D01*
X23510D01*
Y14780D01*
X23460Y14730D01*
X21963Y15710D02*
X22013Y15760D01*
X22113D01*
X22163Y15710D01*
Y15660D01*
X22113Y15610D01*
X22163Y15560D01*
Y15510D01*
X22113Y15460D01*
X22013D01*
X21963Y15510D01*
Y15560D01*
X22013Y15610D01*
X21963Y15660D01*
Y15710D01*
X22013Y15610D02*
X22113D01*
X22463Y15460D02*
X22263D01*
X22463Y15660D01*
Y15710D01*
X22413Y15760D01*
X22313D01*
X22263Y15710D01*
X22563Y15410D02*
X22763D01*
X23063Y15710D02*
X23013Y15760D01*
X22913D01*
X22863Y15710D01*
Y15510D01*
X22913Y15460D01*
X23013D01*
X23063Y15510D01*
X23163Y15760D02*
Y15460D01*
Y15610D01*
X23363D01*
Y15760D01*
Y15460D01*
X23663D02*
X23463D01*
X23663Y15660D01*
Y15710D01*
X23613Y15760D01*
X23513D01*
X23463Y15710D01*
X21963Y16690D02*
X22013Y16740D01*
X22113D01*
X22163Y16690D01*
Y16640D01*
X22113Y16590D01*
X22163Y16540D01*
Y16490D01*
X22113Y16440D01*
X22013D01*
X21963Y16490D01*
Y16540D01*
X22013Y16590D01*
X21963Y16640D01*
Y16690D01*
X22013Y16590D02*
X22113D01*
X22463Y16740D02*
X22263D01*
Y16590D01*
X22363Y16640D01*
X22413D01*
X22463Y16590D01*
Y16490D01*
X22413Y16440D01*
X22313D01*
X22263Y16490D01*
X22563Y16390D02*
X22763D01*
X23063Y16690D02*
X23013Y16740D01*
X22913D01*
X22863Y16690D01*
Y16490D01*
X22913Y16440D01*
X23013D01*
X23063Y16490D01*
X23163Y16740D02*
Y16440D01*
Y16590D01*
X23363D01*
Y16740D01*
Y16440D01*
X23463Y16690D02*
X23513Y16740D01*
X23613D01*
X23663Y16690D01*
Y16640D01*
X23613Y16590D01*
X23563D01*
X23613D01*
X23663Y16540D01*
Y16490D01*
X23613Y16440D01*
X23513D01*
X23463Y16490D01*
X21953Y17720D02*
X22003Y17770D01*
X22103D01*
X22153Y17720D01*
Y17670D01*
X22103Y17620D01*
X22153Y17570D01*
Y17520D01*
X22103Y17470D01*
X22003D01*
X21953Y17520D01*
Y17570D01*
X22003Y17620D01*
X21953Y17670D01*
Y17720D01*
X22003Y17620D02*
X22103D01*
X22453Y17770D02*
X22353Y17720D01*
X22253Y17620D01*
Y17520D01*
X22303Y17470D01*
X22403D01*
X22453Y17520D01*
Y17570D01*
X22403Y17620D01*
X22253D01*
X22553Y17420D02*
X22753D01*
X23053Y17720D02*
X23003Y17770D01*
X22903D01*
X22853Y17720D01*
Y17520D01*
X22903Y17470D01*
X23003D01*
X23053Y17520D01*
X23153Y17770D02*
Y17470D01*
Y17620D01*
X23353D01*
Y17770D01*
Y17470D01*
X23603D02*
Y17770D01*
X23453Y17620D01*
X23653D01*
X22300Y18200D02*
X22500D01*
X22400D01*
Y17900D01*
X22600Y18200D02*
X22700D01*
X22650D01*
Y17900D01*
X22600D01*
X22700D01*
X22850D02*
Y18200D01*
X22950Y18100D01*
X23050Y18200D01*
Y17900D01*
X23300D02*
Y18200D01*
X23150Y18050D01*
X23350D01*
X21970Y18500D02*
X22020Y18450D01*
X22120D01*
X22170Y18500D01*
Y18700D01*
X22120Y18750D01*
X22020D01*
X21970Y18700D01*
Y18650D01*
X22020Y18600D01*
X22170D01*
X22470Y18750D02*
X22370Y18700D01*
X22270Y18600D01*
Y18500D01*
X22320Y18450D01*
X22420D01*
X22470Y18500D01*
Y18550D01*
X22420Y18600D01*
X22270D01*
X22570Y18400D02*
X22770D01*
X23070Y18700D02*
X23020Y18750D01*
X22920D01*
X22870Y18700D01*
Y18500D01*
X22920Y18450D01*
X23020D01*
X23070Y18500D01*
X23170Y18750D02*
Y18450D01*
Y18600D01*
X23370D01*
Y18750D01*
Y18450D01*
X23470D02*
X23569D01*
X23519D01*
Y18750D01*
X23470Y18700D01*
X21960Y19540D02*
X22010Y19490D01*
X22110D01*
X22160Y19540D01*
Y19740D01*
X22110Y19790D01*
X22010D01*
X21960Y19740D01*
Y19690D01*
X22010Y19640D01*
X22160D01*
X22260Y19790D02*
X22460D01*
Y19740D01*
X22260Y19540D01*
Y19490D01*
X22560Y19440D02*
X22760D01*
X23060Y19740D02*
X23010Y19790D01*
X22910D01*
X22860Y19740D01*
Y19540D01*
X22910Y19490D01*
X23010D01*
X23060Y19540D01*
X23160Y19790D02*
Y19490D01*
Y19640D01*
X23360D01*
Y19790D01*
Y19490D01*
X23659D02*
X23460D01*
X23659Y19690D01*
Y19740D01*
X23609Y19790D01*
X23510D01*
X23460Y19740D01*
X21970Y20510D02*
X22020Y20460D01*
X22120D01*
X22170Y20510D01*
Y20710D01*
X22120Y20760D01*
X22020D01*
X21970Y20710D01*
Y20660D01*
X22020Y20610D01*
X22170D01*
X22270Y20710D02*
X22320Y20760D01*
X22420D01*
X22470Y20710D01*
Y20660D01*
X22420Y20610D01*
X22470Y20560D01*
Y20510D01*
X22420Y20460D01*
X22320D01*
X22270Y20510D01*
Y20560D01*
X22320Y20610D01*
X22270Y20660D01*
Y20710D01*
X22320Y20610D02*
X22420D01*
X22570Y20410D02*
X22770D01*
X23070Y20710D02*
X23020Y20760D01*
X22920D01*
X22870Y20710D01*
Y20510D01*
X22920Y20460D01*
X23020D01*
X23070Y20510D01*
X23170Y20760D02*
Y20460D01*
Y20610D01*
X23370D01*
Y20760D01*
Y20460D01*
X23470Y20710D02*
X23519Y20760D01*
X23619D01*
X23669Y20710D01*
Y20660D01*
X23619Y20610D01*
X23569D01*
X23619D01*
X23669Y20560D01*
Y20510D01*
X23619Y20460D01*
X23519D01*
X23470Y20510D01*
X22290Y21980D02*
X22490D01*
X22390D01*
Y21680D01*
X22590Y21980D02*
X22690D01*
X22640D01*
Y21680D01*
X22590D01*
X22690D01*
X22840D02*
Y21980D01*
X22940Y21880D01*
X23040Y21980D01*
Y21680D01*
X23140Y21930D02*
X23190Y21980D01*
X23290D01*
X23340Y21930D01*
Y21880D01*
X23290Y21830D01*
X23240D01*
X23290D01*
X23340Y21780D01*
Y21730D01*
X23290Y21680D01*
X23190D01*
X23140Y21730D01*
X21990Y21290D02*
X22040Y21240D01*
X22140D01*
X22190Y21290D01*
Y21490D01*
X22140Y21540D01*
X22040D01*
X21990Y21490D01*
Y21440D01*
X22040Y21390D01*
X22190D01*
X22290Y21290D02*
X22340Y21240D01*
X22440D01*
X22490Y21290D01*
Y21490D01*
X22440Y21540D01*
X22340D01*
X22290Y21490D01*
Y21440D01*
X22340Y21390D01*
X22490D01*
X22590Y21190D02*
X22790D01*
X23090Y21490D02*
X23040Y21540D01*
X22940D01*
X22890Y21490D01*
Y21290D01*
X22940Y21240D01*
X23040D01*
X23090Y21290D01*
X23190Y21540D02*
Y21240D01*
Y21390D01*
X23390D01*
Y21540D01*
Y21240D01*
X23639D02*
Y21540D01*
X23490Y21390D01*
X23689D01*
X5760Y12720D02*
X5810Y12770D01*
X5910D01*
X5960Y12720D01*
Y12670D01*
X5910Y12620D01*
X5860D01*
X5910D01*
X5960Y12570D01*
Y12520D01*
X5910Y12470D01*
X5810D01*
X5760Y12520D01*
X6260Y12770D02*
X6160Y12720D01*
X6060Y12620D01*
Y12520D01*
X6110Y12470D01*
X6210D01*
X6260Y12520D01*
Y12570D01*
X6210Y12620D01*
X6060D01*
X6360Y12420D02*
X6560D01*
X6660Y12770D02*
X6860D01*
X6760D01*
Y12470D01*
X7160Y12770D02*
X6960D01*
Y12620D01*
X7060Y12670D01*
X7110D01*
X7160Y12620D01*
Y12520D01*
X7110Y12470D01*
X7010D01*
X6960Y12520D01*
X7459Y12720D02*
X7409Y12770D01*
X7309D01*
X7260Y12720D01*
Y12520D01*
X7309Y12470D01*
X7409D01*
X7459Y12520D01*
X7559Y12720D02*
X7609Y12770D01*
X7709D01*
X7759Y12720D01*
Y12670D01*
X7709Y12620D01*
X7659D01*
X7709D01*
X7759Y12570D01*
Y12520D01*
X7709Y12470D01*
X7609D01*
X7559Y12520D01*
X7859Y12420D02*
X8059D01*
X8159Y12470D02*
Y12770D01*
X8309D01*
X8359Y12720D01*
Y12620D01*
X8309Y12570D01*
X8159D01*
X8259D02*
X8359Y12470D01*
X5760Y13140D02*
X5810Y13190D01*
X5910D01*
X5960Y13140D01*
Y13090D01*
X5910Y13040D01*
X5860D01*
X5910D01*
X5960Y12990D01*
Y12940D01*
X5910Y12890D01*
X5810D01*
X5760Y12940D01*
X6260Y13190D02*
X6060D01*
Y13040D01*
X6160Y13090D01*
X6210D01*
X6260Y13040D01*
Y12940D01*
X6210Y12890D01*
X6110D01*
X6060Y12940D01*
X6360Y12840D02*
X6560D01*
X6660Y13190D02*
X6860D01*
X6760D01*
Y12890D01*
X7160Y13190D02*
X6960D01*
Y13040D01*
X7060Y13090D01*
X7110D01*
X7160Y13040D01*
Y12940D01*
X7110Y12890D01*
X7010D01*
X6960Y12940D01*
X7459Y13140D02*
X7409Y13190D01*
X7309D01*
X7260Y13140D01*
Y12940D01*
X7309Y12890D01*
X7409D01*
X7459Y12940D01*
X7759Y12890D02*
X7559D01*
X7759Y13090D01*
Y13140D01*
X7709Y13190D01*
X7609D01*
X7559Y13140D01*
X7859Y12840D02*
X8059D01*
X8359Y13140D02*
X8309Y13190D01*
X8209D01*
X8159Y13140D01*
Y12940D01*
X8209Y12890D01*
X8309D01*
X8359Y12940D01*
Y13040D01*
X8259D01*
X5770Y13590D02*
X5820Y13640D01*
X5920D01*
X5970Y13590D01*
Y13540D01*
X5920Y13490D01*
X5870D01*
X5920D01*
X5970Y13440D01*
Y13390D01*
X5920Y13340D01*
X5820D01*
X5770Y13390D01*
X6220Y13340D02*
Y13640D01*
X6070Y13490D01*
X6270D01*
X6370Y13290D02*
X6570D01*
X6670Y13640D02*
X6870D01*
X6770D01*
Y13340D01*
X7170Y13640D02*
X6970D01*
Y13490D01*
X7070Y13540D01*
X7120D01*
X7170Y13490D01*
Y13390D01*
X7120Y13340D01*
X7020D01*
X6970Y13390D01*
X7469Y13590D02*
X7419Y13640D01*
X7319D01*
X7270Y13590D01*
Y13390D01*
X7319Y13340D01*
X7419D01*
X7469Y13390D01*
X7569Y13340D02*
X7669D01*
X7619D01*
Y13640D01*
X7569Y13590D01*
X7819Y13290D02*
X8019D01*
X8119Y13640D02*
Y13340D01*
X8269D01*
X8319Y13390D01*
Y13440D01*
X8269Y13490D01*
X8119D01*
X8269D01*
X8319Y13540D01*
Y13590D01*
X8269Y13640D01*
X8119D01*
X2350Y22130D02*
X2300Y22180D01*
X2200D01*
X2150Y22130D01*
Y21930D01*
X2200Y21880D01*
X2300D01*
X2350Y21930D01*
Y22030D01*
X2250D01*
X2450Y21880D02*
Y22180D01*
X2650Y21880D01*
Y22180D01*
X2750D02*
Y21880D01*
X2900D01*
X2950Y21930D01*
Y22130D01*
X2900Y22180D01*
X2750D01*
X3100Y21870D02*
Y22070D01*
X3200Y22170D01*
X3300Y22070D01*
Y21870D01*
Y22020D01*
X3100D01*
X3400Y22170D02*
Y21870D01*
X3550D01*
X3600Y21920D01*
Y22120D01*
X3550Y22170D01*
X3400D01*
X3900Y22120D02*
X3850Y22170D01*
X3750D01*
X3700Y22120D01*
Y21920D01*
X3750Y21870D01*
X3850D01*
X3900Y21920D01*
X4000Y22120D02*
X4050Y22170D01*
X4150D01*
X4200Y22120D01*
Y22070D01*
X4150Y22020D01*
X4100D01*
X4150D01*
X4200Y21970D01*
Y21920D01*
X4150Y21870D01*
X4050D01*
X4000Y21920D01*
X15570Y25270D02*
Y25570D01*
X15720D01*
X15770Y25520D01*
Y25420D01*
X15720Y25370D01*
X15570D01*
X16070Y25520D02*
X16020Y25570D01*
X15920D01*
X15870Y25520D01*
Y25320D01*
X15920Y25270D01*
X16020D01*
X16070Y25320D01*
Y25420D01*
X15970D01*
X16170Y25220D02*
X16370D01*
X16470Y25270D02*
X16570D01*
X16520D01*
Y25570D01*
X16470Y25520D01*
X16920Y25570D02*
X16720D01*
Y25420D01*
X16820Y25470D01*
X16870D01*
X16920Y25420D01*
Y25320D01*
X16870Y25270D01*
X16770D01*
X16720Y25320D01*
X17319Y25220D02*
X17519D01*
X17619Y25270D02*
X17719D01*
X17669D01*
Y25570D01*
X17619Y25520D01*
X18019Y25270D02*
Y25570D01*
X17869Y25420D01*
X18069D01*
X18469Y25220D02*
X18669D01*
X18769Y25270D02*
X18869D01*
X18819D01*
Y25570D01*
X18769Y25520D01*
X19019D02*
X19069Y25570D01*
X19169D01*
X19219Y25520D01*
Y25470D01*
X19169Y25420D01*
X19119D01*
X19169D01*
X19219Y25370D01*
Y25320D01*
X19169Y25270D01*
X19069D01*
X19019Y25320D01*
X13710Y25970D02*
X13660Y26020D01*
X13560D01*
X13510Y25970D01*
Y25920D01*
X13560Y25870D01*
X13660D01*
X13710Y25820D01*
Y25770D01*
X13660Y25720D01*
X13560D01*
X13510Y25770D01*
X13810Y25720D02*
Y26020D01*
X13960D01*
X14010Y25970D01*
Y25870D01*
X13960Y25820D01*
X13810D01*
X14110Y26020D02*
X14210D01*
X14160D01*
Y25720D01*
X14110D01*
X14210D01*
X14360Y25970D02*
X14410Y26020D01*
X14510D01*
X14560Y25970D01*
Y25920D01*
X14510Y25870D01*
X14460D01*
X14510D01*
X14560Y25820D01*
Y25770D01*
X14510Y25720D01*
X14410D01*
X14360Y25770D01*
X16159Y25720D02*
X16259D01*
X16209D01*
Y26020D01*
X16159Y25970D01*
X16409D02*
X16459Y26020D01*
X16559D01*
X16609Y25970D01*
Y25920D01*
X16559Y25870D01*
X16509D01*
X16559D01*
X16609Y25820D01*
Y25770D01*
X16559Y25720D01*
X16459D01*
X16409Y25770D01*
X16909Y25720D02*
X16709D01*
X16909Y25920D01*
Y25970D01*
X16859Y26020D01*
X16759D01*
X16709Y25970D01*
X17309Y25720D02*
X17409D01*
X17359D01*
Y26020D01*
X17309Y25970D01*
X17759Y25720D02*
X17559D01*
X17759Y25920D01*
Y25970D01*
X17709Y26020D01*
X17609D01*
X17559Y25970D01*
X17859Y25770D02*
X17909Y25720D01*
X18009D01*
X18059Y25770D01*
Y25970D01*
X18009Y26020D01*
X17909D01*
X17859Y25970D01*
Y25920D01*
X17909Y25870D01*
X18059D01*
X18458Y25720D02*
X18558D01*
X18508D01*
Y26020D01*
X18458Y25970D01*
X18908Y25720D02*
X18708D01*
X18908Y25920D01*
Y25970D01*
X18858Y26020D01*
X18758D01*
X18708Y25970D01*
X19008D02*
X19058Y26020D01*
X19158D01*
X19208Y25970D01*
Y25920D01*
X19158Y25870D01*
X19208Y25820D01*
Y25770D01*
X19158Y25720D01*
X19058D01*
X19008Y25770D01*
Y25820D01*
X19058Y25870D01*
X19008Y25920D01*
Y25970D01*
X19058Y25870D02*
X19158D01*
X10480Y27310D02*
X10580D01*
X10530D01*
Y27610D01*
X10480Y27560D01*
X10730D02*
X10780Y27610D01*
X10880D01*
X10930Y27560D01*
Y27510D01*
X10880Y27460D01*
X10830D01*
X10880D01*
X10930Y27410D01*
Y27360D01*
X10880Y27310D01*
X10780D01*
X10730Y27360D01*
X11030D02*
X11080Y27310D01*
X11180D01*
X11230Y27360D01*
Y27560D01*
X11180Y27610D01*
X11080D01*
X11030Y27560D01*
Y27510D01*
X11080Y27460D01*
X11230D01*
X11330Y27260D02*
X11530D01*
X11630Y27610D02*
X11830D01*
X11730D01*
Y27310D01*
X11930Y27610D02*
X12030D01*
X11980D01*
Y27310D01*
X11930D01*
X12030D01*
X12179D02*
Y27610D01*
X12279Y27510D01*
X12379Y27610D01*
Y27310D01*
X12479D02*
X12579D01*
X12529D01*
Y27610D01*
X12479Y27560D01*
X12729D02*
X12779Y27610D01*
X12879D01*
X12929Y27560D01*
Y27360D01*
X12879Y27310D01*
X12779D01*
X12729Y27360D01*
Y27560D01*
X13029Y27260D02*
X13229D01*
X13529Y27560D02*
X13479Y27610D01*
X13379D01*
X13329Y27560D01*
Y27360D01*
X13379Y27310D01*
X13479D01*
X13529Y27360D01*
X13629Y27610D02*
Y27310D01*
Y27460D01*
X13829D01*
Y27610D01*
Y27310D01*
X13929D02*
X14029D01*
X13979D01*
Y27610D01*
X13929Y27560D01*
X10510Y28090D02*
Y27790D01*
X10660D01*
X10710Y27840D01*
Y27890D01*
X10660Y27940D01*
X10510D01*
X10660D01*
X10710Y27990D01*
Y28040D01*
X10660Y28090D01*
X10510D01*
X10810Y27990D02*
Y27840D01*
X10860Y27790D01*
X11010D01*
Y27990D01*
X11110D02*
X11310D01*
X11110Y27790D01*
X11310D01*
X11410Y27990D02*
X11610D01*
X11410Y27790D01*
X11610D01*
X11860D02*
X11760D01*
X11710Y27840D01*
Y27940D01*
X11760Y27990D01*
X11860D01*
X11910Y27940D01*
Y27890D01*
X11710D01*
X12010Y27990D02*
Y27790D01*
Y27890D01*
X12060Y27940D01*
X12109Y27990D01*
X12159D01*
X18520Y26490D02*
X18620D01*
X18570D01*
Y26790D01*
X18520Y26740D01*
X19370Y26490D02*
X19470D01*
X19420D01*
Y26790D01*
X19370Y26740D01*
X18410Y30970D02*
X18460Y31020D01*
X18560D01*
X18610Y30970D01*
Y30770D01*
X18560Y30720D01*
X18460D01*
X18410Y30770D01*
Y30970D01*
X19310D02*
X19360Y31020D01*
X19460D01*
X19510Y30970D01*
Y30770D01*
X19460Y30720D01*
X19360D01*
X19310Y30770D01*
Y30970D01*
X26280Y10610D02*
X26530D01*
X26580Y10660D01*
Y10760D01*
X26530Y10810D01*
X26280D01*
X26330Y11110D02*
X26280Y11060D01*
Y10960D01*
X26330Y10910D01*
X26380D01*
X26430Y10960D01*
Y11060D01*
X26480Y11110D01*
X26530D01*
X26580Y11060D01*
Y10960D01*
X26530Y10910D01*
X26580Y11210D02*
X26380D01*
X26280Y11310D01*
X26380Y11410D01*
X26580D01*
X26430D01*
Y11210D01*
X26580Y11510D02*
X26280D01*
Y11660D01*
X26330Y11710D01*
X26430D01*
X26480Y11660D01*
Y11510D01*
Y11610D02*
X26580Y11710D01*
X26280Y11810D02*
Y12010D01*
Y11910D01*
X26580D01*
X26330Y12110D02*
X26280Y12160D01*
Y12259D01*
X26330Y12309D01*
X26380D01*
X26430Y12259D01*
Y12209D01*
Y12259D01*
X26480Y12309D01*
X26530D01*
X26580Y12259D01*
Y12160D01*
X26530Y12110D01*
X26980Y10320D02*
Y10520D01*
X26880Y10420D02*
X27080D01*
X27130Y10920D02*
X26830D01*
Y11070D01*
X26880Y11120D01*
X26980D01*
X27030Y11070D01*
Y10920D01*
Y11020D02*
X27130Y11120D01*
X26830Y11520D02*
Y11720D01*
Y11620D01*
X27130D01*
X26980Y12119D02*
Y12319D01*
X27040Y18500D02*
X27290D01*
X27340Y18550D01*
Y18650D01*
X27290Y18700D01*
X27040D01*
X27090Y19000D02*
X27040Y18950D01*
Y18850D01*
X27090Y18800D01*
X27140D01*
X27190Y18850D01*
Y18950D01*
X27240Y19000D01*
X27290D01*
X27340Y18950D01*
Y18850D01*
X27290Y18800D01*
X27340Y19100D02*
X27140D01*
X27040Y19200D01*
X27140Y19300D01*
X27340D01*
X27190D01*
Y19100D01*
X27340Y19400D02*
X27040D01*
Y19550D01*
X27090Y19600D01*
X27190D01*
X27240Y19550D01*
Y19400D01*
Y19500D02*
X27340Y19600D01*
X27040Y19700D02*
Y19900D01*
Y19800D01*
X27340D01*
Y20000D02*
Y20099D01*
Y20050D01*
X27040D01*
X27090Y20000D01*
X27740Y18210D02*
Y18410D01*
X27640Y18310D02*
X27840D01*
X27890Y18810D02*
X27590D01*
Y18960D01*
X27640Y19010D01*
X27740D01*
X27790Y18960D01*
Y18810D01*
Y18910D02*
X27890Y19010D01*
X27590Y19410D02*
Y19610D01*
Y19510D01*
X27890D01*
X27740Y20009D02*
Y20209D01*
X26290Y24450D02*
X26540D01*
X26590Y24500D01*
Y24600D01*
X26540Y24650D01*
X26290D01*
X26590Y24750D02*
X26390D01*
X26290Y24850D01*
X26390Y24950D01*
X26590D01*
X26440D01*
Y24750D01*
X26590Y25050D02*
X26290D01*
Y25200D01*
X26340Y25250D01*
X26440D01*
X26490Y25200D01*
Y25050D01*
Y25150D02*
X26590Y25250D01*
X26290Y25350D02*
Y25550D01*
Y25450D01*
X26590D01*
Y25800D02*
X26290D01*
X26440Y25650D01*
Y25850D01*
X26940Y24160D02*
Y24360D01*
X26840Y24260D02*
X27040D01*
X27090Y24760D02*
X26790D01*
Y24910D01*
X26840Y24960D01*
X26940D01*
X26990Y24910D01*
Y24760D01*
Y24860D02*
X27090Y24960D01*
X26790Y25360D02*
Y25560D01*
Y25460D01*
X27090D01*
X26940Y25959D02*
Y26159D01*
Y27880D02*
Y28080D01*
X26840Y27980D02*
X27040D01*
X27090Y28480D02*
X26790D01*
Y28630D01*
X26840Y28680D01*
X26940D01*
X26990Y28630D01*
Y28480D01*
Y28580D02*
X27090Y28680D01*
X26790Y29080D02*
Y29280D01*
Y29180D01*
X27090D01*
X26940Y29679D02*
Y29879D01*
X26250Y28160D02*
X26500D01*
X26550Y28210D01*
Y28310D01*
X26500Y28360D01*
X26250D01*
X26550Y28460D02*
X26350D01*
X26250Y28560D01*
X26350Y28660D01*
X26550D01*
X26400D01*
Y28460D01*
X26550Y28760D02*
X26250D01*
Y28910D01*
X26300Y28960D01*
X26400D01*
X26450Y28910D01*
Y28760D01*
Y28860D02*
X26550Y28960D01*
X26250Y29060D02*
Y29260D01*
Y29160D01*
X26550D01*
X26250Y29560D02*
Y29360D01*
X26400D01*
X26350Y29460D01*
Y29510D01*
X26400Y29560D01*
X26500D01*
X26550Y29510D01*
Y29410D01*
X26500Y29360D01*
X26310Y32010D02*
X26560D01*
X26610Y32060D01*
Y32160D01*
X26560Y32210D01*
X26310D01*
X26360Y32510D02*
X26310Y32460D01*
Y32360D01*
X26360Y32310D01*
X26410D01*
X26460Y32360D01*
Y32460D01*
X26510Y32510D01*
X26560D01*
X26610Y32460D01*
Y32360D01*
X26560Y32310D01*
X26610Y32610D02*
X26410D01*
X26310Y32710D01*
X26410Y32810D01*
X26610D01*
X26460D01*
Y32610D01*
X26610Y32910D02*
X26310D01*
Y33060D01*
X26360Y33110D01*
X26460D01*
X26510Y33060D01*
Y32910D01*
Y33010D02*
X26610Y33110D01*
X26310Y33210D02*
Y33410D01*
Y33310D01*
X26610D01*
Y33709D02*
Y33510D01*
X26410Y33709D01*
X26360D01*
X26310Y33659D01*
Y33560D01*
X26360Y33510D01*
X27010Y31920D02*
Y32120D01*
X26910Y32020D02*
X27110D01*
X27160Y32520D02*
X26860D01*
Y32670D01*
X26910Y32720D01*
X27010D01*
X27060Y32670D01*
Y32520D01*
Y32620D02*
X27160Y32720D01*
X26860Y33120D02*
Y33320D01*
Y33220D01*
X27160D01*
X27010Y33719D02*
Y33919D01*
X23110Y31580D02*
Y31280D01*
Y31430D01*
X23310D01*
Y31580D01*
Y31280D01*
X23710Y31580D02*
Y31280D01*
X23910D01*
X18890Y31430D02*
X19090D01*
X18990Y31530D02*
Y31330D01*
X19490Y31430D02*
X19690D01*
X20290Y31530D02*
X20240Y31580D01*
X20140D01*
X20090Y31530D01*
Y31480D01*
X20140Y31430D01*
X20240D01*
X20290Y31380D01*
Y31330D01*
X20240Y31280D01*
X20140D01*
X20090Y31330D01*
X20390Y31580D02*
Y31280D01*
X20489Y31380D01*
X20589Y31280D01*
Y31580D01*
X20689D02*
Y31280D01*
X20839D01*
X20889Y31330D01*
Y31530D01*
X20839Y31580D01*
X20689D01*
X21489Y31530D02*
X21439Y31580D01*
X21339D01*
X21289Y31530D01*
Y31480D01*
X21339Y31430D01*
X21439D01*
X21489Y31380D01*
Y31330D01*
X21439Y31280D01*
X21339D01*
X21289Y31330D01*
X21789Y31530D02*
X21739Y31580D01*
X21639D01*
X21589Y31530D01*
Y31330D01*
X21639Y31280D01*
X21739D01*
X21789Y31330D01*
X21889Y31580D02*
Y31280D01*
Y31380D01*
X22089Y31580D01*
X21939Y31430D01*
X22089Y31280D01*
X3580Y27000D02*
X3680D01*
X3630D01*
Y26700D01*
X3580D01*
X3680D01*
X4030D02*
X3830D01*
X4030Y26900D01*
Y26950D01*
X3980Y27000D01*
X3880D01*
X3830Y26950D01*
X4330D02*
X4280Y27000D01*
X4180D01*
X4130Y26950D01*
Y26750D01*
X4180Y26700D01*
X4280D01*
X4330Y26750D01*
X4630Y26700D02*
X4430D01*
X4630Y26900D01*
Y26950D01*
X4580Y27000D01*
X4480D01*
X4430Y26950D01*
X3800Y33190D02*
X3900D01*
X3850D01*
Y32890D01*
X3800D01*
X3900D01*
X4250D02*
X4050D01*
X4250Y33090D01*
Y33140D01*
X4200Y33190D01*
X4100D01*
X4050Y33140D01*
X4550D02*
X4500Y33190D01*
X4400D01*
X4350Y33140D01*
Y32940D01*
X4400Y32890D01*
X4500D01*
X4550Y32940D01*
X4650Y32890D02*
X4750D01*
X4700D01*
Y33190D01*
X4650Y33140D01*
X25350Y34670D02*
X25400Y34620D01*
X25500D01*
X25550Y34670D01*
Y34870D01*
X25500Y34920D01*
X25400D01*
X25350Y34870D01*
Y34820D01*
X25400Y34770D01*
X25550D01*
X25850Y34620D02*
X25650D01*
X25850Y34820D01*
Y34870D01*
X25800Y34920D01*
X25700D01*
X25650Y34870D01*
X25950Y34570D02*
X26150D01*
X26250Y34620D02*
Y34920D01*
X26400D01*
X26450Y34870D01*
Y34770D01*
X26400Y34720D01*
X26250D01*
X26750Y34870D02*
X26700Y34920D01*
X26600D01*
X26550Y34870D01*
Y34670D01*
X26600Y34620D01*
X26700D01*
X26750Y34670D01*
Y34770D01*
X26650D01*
X26850Y34920D02*
X27049D01*
Y34870D01*
X26850Y34670D01*
Y34620D01*
X27880Y17850D02*
X27930Y17800D01*
X28030D01*
X28080Y17850D01*
Y18050D01*
X28030Y18100D01*
X27930D01*
X27880Y18050D01*
Y18000D01*
X27930Y17950D01*
X28080D01*
X28180Y17800D02*
X28280D01*
X28230D01*
Y18100D01*
X28180Y18050D01*
X28430Y17750D02*
X28630D01*
X28730Y17800D02*
Y18100D01*
X28880D01*
X28930Y18050D01*
Y17950D01*
X28880Y17900D01*
X28730D01*
X29230Y18050D02*
X29180Y18100D01*
X29080D01*
X29030Y18050D01*
Y17850D01*
X29080Y17800D01*
X29180D01*
X29230Y17850D01*
Y17950D01*
X29130D01*
X29529Y18100D02*
X29430Y18050D01*
X29330Y17950D01*
Y17850D01*
X29380Y17800D01*
X29479D01*
X29529Y17850D01*
Y17900D01*
X29479Y17950D01*
X29330D01*
X27880Y9630D02*
X27930Y9580D01*
X28030D01*
X28080Y9630D01*
Y9830D01*
X28030Y9880D01*
X27930D01*
X27880Y9830D01*
Y9780D01*
X27930Y9730D01*
X28080D01*
X28180Y9830D02*
X28230Y9880D01*
X28330D01*
X28380Y9830D01*
Y9630D01*
X28330Y9580D01*
X28230D01*
X28180Y9630D01*
Y9830D01*
X28480Y9530D02*
X28680D01*
X28780Y9580D02*
Y9880D01*
X28930D01*
X28980Y9830D01*
Y9730D01*
X28930Y9680D01*
X28780D01*
X29280Y9830D02*
X29230Y9880D01*
X29130D01*
X29080Y9830D01*
Y9630D01*
X29130Y9580D01*
X29230D01*
X29280Y9630D01*
Y9730D01*
X29180D01*
X29579Y9880D02*
X29380D01*
Y9730D01*
X29479Y9780D01*
X29529D01*
X29579Y9730D01*
Y9630D01*
X29529Y9580D01*
X29430D01*
X29380Y9630D01*
X18987Y9110D02*
X18937Y9160D01*
Y9260D01*
X18987Y9310D01*
X19037D01*
X19087Y9260D01*
X19137Y9310D01*
X19187D01*
X19237Y9260D01*
Y9160D01*
X19187Y9110D01*
X19137D01*
X19087Y9160D01*
X19037Y9110D01*
X18987D01*
X19087Y9160D02*
Y9260D01*
X19187Y9410D02*
X19237Y9460D01*
Y9560D01*
X19187Y9610D01*
X18987D01*
X18937Y9560D01*
Y9460D01*
X18987Y9410D01*
X19037D01*
X19087Y9460D01*
Y9610D01*
X19287Y9710D02*
Y9910D01*
X19237Y10010D02*
X18937D01*
Y10160D01*
X18987Y10210D01*
X19087D01*
X19137Y10160D01*
Y10010D01*
X18987Y10510D02*
X18937Y10460D01*
Y10360D01*
X18987Y10310D01*
X19187D01*
X19237Y10360D01*
Y10460D01*
X19187Y10510D01*
X19087D01*
Y10410D01*
X19237Y10759D02*
X18937D01*
X19087Y10610D01*
Y10809D01*
X11873Y9330D02*
X11573D01*
X11723Y9180D01*
Y9380D01*
X11923Y9480D02*
Y9680D01*
X11873Y9780D02*
X11573D01*
Y9930D01*
X11623Y9980D01*
X11723D01*
X11773Y9930D01*
Y9780D01*
X11573Y10280D02*
Y10080D01*
X11873D01*
Y10280D01*
X11723Y10080D02*
Y10180D01*
X11573Y10580D02*
Y10380D01*
X11723D01*
X11673Y10480D01*
Y10530D01*
X11723Y10580D01*
X11823D01*
X11873Y10530D01*
Y10430D01*
X11823Y10380D01*
X1990Y9610D02*
X1940Y9660D01*
Y9760D01*
X1990Y9810D01*
X2040D01*
X2090Y9760D01*
Y9710D01*
Y9760D01*
X2140Y9810D01*
X2190D01*
X2240Y9760D01*
Y9660D01*
X2190Y9610D01*
X2290Y9910D02*
Y10110D01*
X2240Y10210D02*
X1940D01*
Y10360D01*
X1990Y10410D01*
X2090D01*
X2140Y10360D01*
Y10210D01*
X1940Y10710D02*
Y10510D01*
X2240D01*
Y10710D01*
X2090Y10510D02*
Y10610D01*
X2240Y10960D02*
X1940D01*
X2090Y10810D01*
Y11010D01*
X2170Y23260D02*
X1970D01*
X2170Y23460D01*
Y23510D01*
X2120Y23560D01*
X2020D01*
X1970Y23510D01*
X2270Y23210D02*
X2470D01*
X2570Y23260D02*
Y23560D01*
X2720D01*
X2770Y23510D01*
Y23410D01*
X2720Y23360D01*
X2570D01*
X3070Y23560D02*
X2870D01*
Y23260D01*
X3070D01*
X2870Y23410D02*
X2970D01*
X3170Y23510D02*
X3220Y23560D01*
X3320D01*
X3370Y23510D01*
Y23460D01*
X3320Y23410D01*
X3270D01*
X3320D01*
X3370Y23360D01*
Y23310D01*
X3320Y23260D01*
X3220D01*
X3170Y23310D01*
X2180Y34480D02*
X2280D01*
X2230D01*
Y34780D01*
X2180Y34730D01*
X2430Y34430D02*
X2630D01*
X2730Y34480D02*
Y34780D01*
X2880D01*
X2930Y34730D01*
Y34630D01*
X2880Y34580D01*
X2730D01*
X3230Y34780D02*
X3030D01*
Y34480D01*
X3230D01*
X3030Y34630D02*
X3130D01*
X3530Y34480D02*
X3330D01*
X3530Y34680D01*
Y34730D01*
X3480Y34780D01*
X3380D01*
X3330Y34730D01*
D20*
X4630Y26320D02*
Y26187D01*
X4697Y26253D02*
X4563D01*
X4697Y25787D02*
X4730Y25820D01*
Y25887D01*
X4697Y25920D01*
X4663D01*
X4630Y25887D01*
Y25820D01*
X4597Y25787D01*
X4563D01*
X4530Y25820D01*
Y25887D01*
X4563Y25920D01*
X4697Y25587D02*
X4730Y25620D01*
Y25687D01*
X4697Y25720D01*
X4563D01*
X4530Y25687D01*
Y25620D01*
X4563Y25587D01*
X4730Y25520D02*
X4530D01*
Y25387D01*
X4697Y24987D02*
X4730Y25020D01*
Y25087D01*
X4697Y25120D01*
X4663D01*
X4630Y25087D01*
Y25020D01*
X4597Y24987D01*
X4563D01*
X4530Y25020D01*
Y25087D01*
X4563Y25120D01*
X4730Y24920D02*
X4530D01*
Y24820D01*
X4563Y24787D01*
X4697D01*
X4730Y24820D01*
Y24920D01*
X4530Y24721D02*
X4663D01*
X4730Y24654D01*
X4663Y24587D01*
X4530D01*
X4630D01*
Y24721D01*
Y24321D02*
Y24187D01*
X4730Y32560D02*
Y32427D01*
X4797Y32493D02*
X4663D01*
X4797Y32027D02*
X4830Y32060D01*
Y32127D01*
X4797Y32160D01*
X4763D01*
X4730Y32127D01*
Y32060D01*
X4697Y32027D01*
X4663D01*
X4630Y32060D01*
Y32127D01*
X4663Y32160D01*
X4797Y31827D02*
X4830Y31860D01*
Y31927D01*
X4797Y31960D01*
X4663D01*
X4630Y31927D01*
Y31860D01*
X4663Y31827D01*
X4830Y31760D02*
X4630D01*
Y31627D01*
X4797Y31227D02*
X4830Y31260D01*
Y31327D01*
X4797Y31360D01*
X4763D01*
X4730Y31327D01*
Y31260D01*
X4697Y31227D01*
X4663D01*
X4630Y31260D01*
Y31327D01*
X4663Y31360D01*
X4830Y31160D02*
X4630D01*
Y31060D01*
X4663Y31027D01*
X4797D01*
X4830Y31060D01*
Y31160D01*
X4630Y30961D02*
X4763D01*
X4830Y30894D01*
X4763Y30827D01*
X4630D01*
X4730D01*
Y30961D01*
Y30561D02*
Y30427D01*
X28170Y3090D02*
Y2790D01*
X28320D01*
X28370Y2840D01*
Y2890D01*
Y2940D01*
X28320Y2990D01*
X28170D01*
X28470D02*
Y2840D01*
X28520Y2790D01*
X28670D01*
Y2740D01*
X28620Y2690D01*
X28570D01*
X28670Y2790D02*
Y2990D01*
X29220Y3090D02*
X29120D01*
X29070Y3040D01*
Y2840D01*
X29120Y2790D01*
X29220D01*
X29270Y2840D01*
Y3040D01*
X29220Y3090D01*
X29370Y2990D02*
Y2840D01*
X29420Y2790D01*
X29569D01*
Y2990D01*
X29669D02*
Y2840D01*
X29719Y2790D01*
X29869D01*
Y2740D01*
X29819Y2690D01*
X29769D01*
X29869Y2790D02*
Y2990D01*
X30169Y3090D02*
X30069D01*
X30119D01*
Y2840D01*
X30069Y2790D01*
X30019D01*
X29969Y2840D01*
X30269Y2990D02*
Y2840D01*
X30319Y2790D01*
X30469D01*
Y2740D01*
X30419Y2690D01*
X30369D01*
X30469Y2790D02*
Y2990D01*
X28070Y3710D02*
Y3410D01*
X28220D01*
X28270Y3460D01*
Y3660D01*
X28220Y3710D01*
X28070D01*
X28520Y3410D02*
X28420D01*
X28370Y3460D01*
Y3560D01*
X28420Y3610D01*
X28520D01*
X28570Y3560D01*
Y3510D01*
X28370D01*
X28670Y3410D02*
X28820D01*
X28870Y3460D01*
X28820Y3510D01*
X28720D01*
X28670Y3560D01*
X28720Y3610D01*
X28870D01*
X28970Y3410D02*
X29070D01*
X29020D01*
Y3610D01*
X28970D01*
X29320Y3310D02*
X29370D01*
X29420Y3360D01*
Y3610D01*
X29270D01*
X29220Y3560D01*
Y3460D01*
X29270Y3410D01*
X29420D01*
X29520D02*
Y3610D01*
X29669D01*
X29719Y3560D01*
Y3410D01*
X29969D02*
X29869D01*
X29819Y3460D01*
Y3560D01*
X29869Y3610D01*
X29969D01*
X30019Y3560D01*
Y3510D01*
X29819D01*
X30319Y3710D02*
Y3410D01*
X30169D01*
X30119Y3460D01*
Y3560D01*
X30169Y3610D01*
X30319D01*
M02*
