M48
;Layer_Color=9474304
;FILE_FORMAT=2:5
INCH,LZ
;TYPE=PLATED
T1F00S00C0.01181
T2F00S00C0.02000
T3F00S00C0.03000
T4F00S00C0.03543
T5F00S00C0.03937
T6F00S00C0.06693
%
T01
X0228Y01077
X02261Y01182
X02266Y01353
X0239673Y01301
X02424Y01266
X02459Y0122
X02496Y01191
X02542Y01296
X02529Y01331
X02559Y01353
X0248Y01355
X02729Y01458
X02798Y01461
X02918Y01179
X02904Y01069
X0281646Y00962
X02715Y009205
X02606Y00953
X0251Y00957
X02467Y01
X02182Y0101
X0209Y01007
X0209246Y0115
X02075Y01216
X02052Y01296
X0206Y0133464
X02164Y01259
X02236Y01396
X02207Y01442
X02162Y01477
X01914Y01484
X01762Y01488
X0185868Y0125758
X0189012Y01177
X0186Y0111338
X01711Y00944
X01608Y00947
X01507Y00944
X01509Y01171
X01523Y01218
X01636Y01212
X01186Y0126
X01143Y0122
X01165Y01352
X01014Y01185
X01009Y00946
X00915Y00943
X008204Y00945
X00746Y00943
X01147Y00966
X0123762Y0109962
X00716Y0134
X00715Y01457
X00585Y0145751
X0061Y01347
X00658Y01286
X00539Y013
X00411Y01298
X0027Y01213
X00288Y01132
X00385Y01017
X00405Y00932
X00325Y00935
X00493Y00923
X00536
X00602
X0065Y01116
X0054Y01147
X0058763Y01712
X0059Y01852
X00621Y02313
X00613Y02361
X00485Y02392
X00505Y02477
X0047Y02497
X00447Y02678
X00526Y02738
X0049Y02813
X00575Y0285203
X00654Y02801
X00638Y02572
X00663Y02539
X00282Y02547
X0029Y02461
Y02327
X00395Y02337
X00443Y02293
X00265Y02783
X00259Y02868
X00264Y02963
X00438Y03009
X0047Y03072
X00705Y02987
X00769Y02911
X0086Y02825
X00915Y0285951
X0107Y02977
X01136Y02996
X01284Y03004
X01331Y03037
X01424Y02933
X0148Y02788
X01397Y02734
X01332Y02778
X0111447Y0274
X0103819Y02673
X00993Y02492
X01151Y02529
X01435Y02565
X01538Y02563
X01572Y02724
X0169327Y02693
X01723Y0279
X01894Y02848
X0196646Y02806
X02085Y0282
X02077Y02991
X01766Y0303535
X01578Y02984
X01777Y02554
X01867Y02559
X01946Y02535
X02031Y02611
X01982Y0231
X0193Y02282
X02094Y02267
X0215181Y02185
X02129Y02155
X0218371Y02112
X0221481Y02134
X02159Y02081
X0195543Y0208743
X01855
X01847Y02045
X01885Y02039
X01884Y02003
X01757Y01997
X01731Y02024
X01664Y02029
X01687Y0206775
X0163Y02057
X0158Y02056
X01513Y02052
X01481Y02056
X01428Y02048
X01456Y02017
X01361Y02022
X0136Y01992
X01362Y01962
X01419Y0192
X01423Y01857
X0143Y017925
X01428Y01727
Y01672
X01429Y01637
X01449Y01612
X01507Y01604
X01573Y01674
X01648Y01736
X01689Y01771
X01723Y01804
X01745Y01833
X01755Y01879
X0175232Y0193237
X01724Y01955
X01522Y01943
X01553Y01893
X01588Y018535
X01812Y01774
X01818Y01699
X01761Y01677
X0175Y01595
X0179Y0152516
X01683Y01549
X01641Y01514
X01933Y0153481
X01925Y0162
Y017605
X01919Y0183
X021Y01817
X02077Y01739
X02171Y01764
X0218Y017925
X02229Y01845
Y0161913
X02181Y0162
X0137Y01604
X01333Y01592
X01329Y01649
X0131925Y01738
X01261Y017
X01225Y0167405
X01258Y01604
X0109319Y016045
X00995Y0154681
X01075Y01762
X01105
X0109Y01787
X0107Y0181266
X0120692Y0181192
X01261Y018355
X01225Y01937
Y01967
Y0210677
X01317Y02126
X01376Y02102
X01366Y02079
X01425Y02127
X0139Y02297
X01365Y02282
X01352Y02337
X01314Y02363
X01292Y02045
X01088Y021268
X01105Y02152
X0079Y02102
X00735Y02217
X00762Y02464
X00773Y02653
X0085Y01877
X00715Y01712
X02273Y01633
X02288Y01602
X0227Y01867
X02315Y01873
X02343Y01852
X02333Y0202
X02408Y0228146
X02446Y02291
X02558Y0230231
X02609Y02279
X0268Y02313
X02713Y02297
X02773Y02261
X02779Y01978
X02743Y01984
X02739Y01931
X0273Y01817
X02762Y0166
X02821Y01637
X02762Y01547
X02901Y0171
X02817Y01993
X0248Y01717
X02435Y0248428
X02543Y02607
X02578Y02645
X02662Y02651
X02664Y02708
X0261Y02716
X02551Y02712
X02596Y02557
X02265Y02562
X02539Y02925
X02529Y02973
X02588Y02977
X02606Y03027
X0261Y02923
X02658Y02931
X0268Y02987
X02746Y03063
X0259Y03269
X02523Y03259
X02501Y03192
X02429Y03259
X0237Y03212
X0231
X02399Y0315
X02312Y03371
X0254Y03377
X02185Y03287
X0216Y03122
X02109Y03146
X0203Y03137
X01839Y03135
X01811Y03155
X01817Y03205
X01886Y03087
X01944Y03396
X01535Y03323
X01464Y03157
X01356Y03167
X01326Y0312
X0078Y03132
X00707Y03328
X00892Y03371
X00655Y03187
X0048Y03107
X0044Y03282
X00418Y03348
X005Y03336
X00265Y032
X00274Y03122
T02
X0078Y01277
X0144Y0145335
X0169Y01197
X0196477Y01212
X00475Y0157562
X00595Y01982
X0095Y01867
X01124Y0227
X0092Y02512
X01605Y02372
X0173264Y02692
X019Y0265565
X0201616Y0223
X02055Y0222459
X02225Y02177
X02255Y02147
T03
X0266Y01062
X02605Y01202
X00415Y02762
X0169166Y02143
X0202776Y0241294
X02115Y02402
X0221Y02897
X02365Y02982
X02695Y0282314
X0271Y02392
X0253Y02402
X02705Y02197
Y0315956
X026675Y03342
X0092Y0311472
X00585Y03252
T04
X0233Y00962
Y01062
X0243Y01462
X0253
X0263
X0223Y01062
X0213
X0203
Y00962
X0213
X0223
X0176
X0166
X0156
X0146
X0136
Y01062
X0146
X0156
X0166
X0176
X01071Y01012
X00971
X00871
X00771
X00671
X00571
X00355Y01422
X00255
Y01522
Y01622
Y01722
Y01822
Y01922
Y02022
Y02122
X00355
Y02022
Y01922
Y01822
Y01722
Y01622
Y01522
X01275Y02462
X01375
X01475
X01575
X01675
X01775
X01875
X0243Y02162
X0253
X0263
Y02062
Y01962
Y01862
Y01762
Y01662
Y01562
X0253
Y01662
Y01762
Y01862
Y01962
Y02062
X0243
Y01962
Y01862
Y01762
Y01662
Y01562
T05
X0134639Y0332885
X0177946
T06
X0145958Y0301815
X0165642
M30
