G04*
G04 #@! TF.GenerationSoftware,Altium Limited,Altium Designer,19.0.12 (326)*
G04*
G04 Layer_Color=2752767*
%FSLAX24Y24*%
%MOIN*%
G70*
G01*
G75*
%ADD86C,0.0020*%
%ADD87C,0.0027*%
D86*
X16484Y30101D02*
Y30261D01*
X16644D01*
Y30101D01*
X16484D01*
X14516D02*
Y30261D01*
X14676D01*
Y30101D01*
X14516D01*
X26300Y14540D02*
X26220Y14700D01*
X26380D01*
X26300Y14540D01*
Y15540D02*
X26220Y15700D01*
X26380D01*
X26300Y15540D01*
Y16540D02*
X26220Y16700D01*
X26380D01*
X26300Y16540D01*
Y17540D02*
X26220Y17700D01*
X26380D01*
X26300Y17540D01*
Y18540D02*
X26220Y18700D01*
X26380D01*
X26300Y18540D01*
Y19540D02*
X26220Y19700D01*
X26380D01*
X26300Y19540D01*
Y20540D02*
X26220Y20700D01*
X26380D01*
X26300Y20540D01*
Y21540D02*
X26220Y21700D01*
X26380D01*
X26300Y21540D01*
X25300Y14540D02*
X25220Y14700D01*
X25380D01*
X25300Y14540D01*
Y15540D02*
X25220Y15700D01*
X25380D01*
X25300Y15540D01*
Y16540D02*
X25220Y16700D01*
X25380D01*
X25300Y16540D01*
Y17540D02*
X25220Y17700D01*
X25380D01*
X25300Y17540D01*
Y18540D02*
X25220Y18700D01*
X25380D01*
X25300Y18540D01*
Y19540D02*
X25220Y19700D01*
X25380D01*
X25300Y19540D01*
Y20540D02*
X25220Y20700D01*
X25380D01*
X25300Y20540D01*
Y21540D02*
X25220Y21700D01*
X25380D01*
X25300Y21540D01*
X24300D02*
X24220Y21700D01*
X24380D01*
X24300Y21540D01*
Y20540D02*
X24220Y20700D01*
X24380D01*
X24300Y20540D01*
Y19540D02*
X24220Y19700D01*
X24380D01*
X24300Y19540D01*
Y18540D02*
X24220Y18700D01*
X24380D01*
X24300Y18540D01*
Y17540D02*
X24220Y17700D01*
X24380D01*
X24300Y17540D01*
Y16540D02*
X24220Y16700D01*
X24380D01*
X24300Y16540D01*
Y15540D02*
X24220Y15700D01*
X24380D01*
X24300Y15540D01*
Y14540D02*
X24220Y14700D01*
X24380D01*
X24300Y14540D01*
X14750Y24540D02*
X14670Y24700D01*
X14830D01*
X14750Y24540D01*
X12750D02*
X12670Y24700D01*
X12830D01*
X12750Y24540D01*
X13750D02*
X13670Y24700D01*
X13830D01*
X13750Y24540D01*
X15750D02*
X15670Y24700D01*
X15830D01*
X15750Y24540D01*
X16750D02*
X16670Y24700D01*
X16830D01*
X16750Y24540D01*
X17750D02*
X17670Y24700D01*
X17830D01*
X17750Y24540D01*
X18750D02*
X18670Y24700D01*
X18830D01*
X18750Y24540D01*
X2550Y21140D02*
X2470Y21300D01*
X2630D01*
X2550Y21140D01*
Y20140D02*
X2470Y20300D01*
X2630D01*
X2550Y20140D01*
Y19140D02*
X2470Y19300D01*
X2630D01*
X2550Y19140D01*
Y18140D02*
X2470Y18300D01*
X2630D01*
X2550Y18140D01*
Y17140D02*
X2470Y17300D01*
X2630D01*
X2550Y17140D01*
Y16140D02*
X2470Y16300D01*
X2630D01*
X2550Y16140D01*
Y15140D02*
X2470Y15300D01*
X2630D01*
X2550Y15140D01*
Y14140D02*
X2470Y14300D01*
X2630D01*
X2550Y14140D01*
X5710Y10040D02*
X5630Y10200D01*
X5790D01*
X5710Y10040D01*
X6710D02*
X6630Y10200D01*
X6790D01*
X6710Y10040D01*
X7710D02*
X7630Y10200D01*
X7790D01*
X7710Y10040D01*
X8710D02*
X8630Y10200D01*
X8790D01*
X8710Y10040D01*
X9710D02*
X9630Y10200D01*
X9790D01*
X9710Y10040D01*
X10710D02*
X10630Y10200D01*
X10790D01*
X10710Y10040D01*
X20300Y9540D02*
X20220Y9700D01*
X20380D01*
X20300Y9540D01*
Y10540D02*
X20220Y10700D01*
X20380D01*
X20300Y10540D01*
X21300Y9540D02*
X21220Y9700D01*
X21380D01*
X21300Y9540D01*
Y10540D02*
X21220Y10700D01*
X21380D01*
X21300Y10540D01*
X22300Y9540D02*
X22220Y9700D01*
X22380D01*
X22300Y9540D01*
Y10540D02*
X22220Y10700D01*
X22380D01*
X22300Y10540D01*
X23300Y9540D02*
X23220Y9700D01*
X23380D01*
X23300Y9540D01*
Y10540D02*
X23220Y10700D01*
X23380D01*
X23300Y10540D01*
X3550Y14140D02*
X3470Y14300D01*
X3630D01*
X3550Y14140D01*
Y15140D02*
X3470Y15300D01*
X3630D01*
X3550Y15140D01*
Y16140D02*
X3470Y16300D01*
X3630D01*
X3550Y16140D01*
Y17140D02*
X3470Y17300D01*
X3630D01*
X3550Y17140D01*
Y18140D02*
X3470Y18300D01*
X3630D01*
X3550Y18140D01*
Y19140D02*
X3470Y19300D01*
X3630D01*
X3550Y19140D01*
Y20140D02*
X3470Y20300D01*
X3630D01*
X3550Y20140D01*
Y21140D02*
X3470Y21300D01*
X3630D01*
X3550Y21140D01*
X13600Y9540D02*
X13520Y9700D01*
X13680D01*
X13600Y9540D01*
Y10540D02*
X13520Y10700D01*
X13680D01*
X13600Y10540D01*
X14600Y9540D02*
X14520Y9700D01*
X14680D01*
X14600Y9540D01*
Y10540D02*
X14520Y10700D01*
X14680D01*
X14600Y10540D01*
X15600Y9540D02*
X15520Y9700D01*
X15680D01*
X15600Y9540D01*
Y10540D02*
X15520Y10700D01*
X15680D01*
X15600Y10540D01*
X16600Y9540D02*
X16520Y9700D01*
X16680D01*
X16600Y9540D01*
Y10540D02*
X16520Y10700D01*
X16680D01*
X16600Y10540D01*
X17600Y9540D02*
X17520Y9700D01*
X17680D01*
X17600Y9540D01*
Y10540D02*
X17520Y10700D01*
X17680D01*
X17600Y10540D01*
X31490Y39290D02*
X31530Y39330D01*
X31570D01*
X31530Y39370D01*
X31570Y39410D01*
X31530D01*
X31490Y39450D01*
X31450Y39410D01*
X31410D01*
X31450Y39370D01*
X31410Y39330D01*
X31450D01*
X31490Y39290D01*
X25374Y26040D02*
X25414Y26120D01*
X25374Y26200D01*
X25454Y26160D01*
X25534Y26200D01*
X25494Y26120D01*
X25534Y26040D01*
X25454Y26080D01*
X25374Y26040D01*
X13620Y15960D02*
X13660Y16040D01*
X13620Y16120D01*
X13700Y16080D01*
X13780Y16120D01*
X13740Y16040D01*
X13780Y15960D01*
X13700Y16000D01*
X13620Y15960D01*
X14170Y21190D02*
X14210Y21270D01*
X14170Y21350D01*
X14250Y21310D01*
X14330Y21350D01*
X14290Y21270D01*
X14330Y21190D01*
X14250Y21230D01*
X14170Y21190D01*
X12170Y20988D02*
X12210Y21068D01*
X12170Y21148D01*
X12250Y21108D01*
X12330Y21148D01*
X12290Y21068D01*
X12330Y20988D01*
X12250Y21028D01*
X12170Y20988D01*
X10820Y17790D02*
X10860Y17870D01*
X10820Y17950D01*
X10900Y17910D01*
X10980Y17950D01*
X10940Y17870D01*
X10980Y17790D01*
X10900Y17830D01*
X10820Y17790D01*
X19170Y17525D02*
X19210Y17605D01*
X19170Y17685D01*
X19250Y17645D01*
X19330Y17685D01*
X19290Y17605D01*
X19330Y17525D01*
X19250Y17565D01*
X19170Y17525D01*
X13820Y22890D02*
X13860Y22970D01*
X13820Y23050D01*
X13900Y23010D01*
X13980Y23050D01*
X13940Y22970D01*
X13980Y22890D01*
X13900Y22930D01*
X13820Y22890D01*
X10800Y21188D02*
X10840Y21268D01*
X10800Y21348D01*
X10880Y21308D01*
X10960Y21348D01*
X10920Y21268D01*
X10960Y21188D01*
X10880Y21228D01*
X10800Y21188D01*
X10670Y17540D02*
X10710Y17620D01*
X10670Y17700D01*
X10750Y17660D01*
X10830Y17700D01*
X10790Y17620D01*
X10830Y17540D01*
X10750Y17580D01*
X10670Y17540D01*
X18821Y11690D02*
X18861Y11770D01*
X18821Y11850D01*
X18901Y11810D01*
X18981Y11850D01*
X18941Y11770D01*
X18981Y11690D01*
X18901Y11730D01*
X18821Y11690D01*
X19474Y20794D02*
X19514Y20874D01*
X19474Y20954D01*
X19554Y20914D01*
X19634Y20954D01*
X19594Y20874D01*
X19634Y20794D01*
X19554Y20834D01*
X19474Y20794D01*
X12170Y16660D02*
X12210Y16740D01*
X12170Y16820D01*
X12250Y16780D01*
X12330Y16820D01*
X12290Y16740D01*
X12330Y16660D01*
X12250Y16700D01*
X12170Y16660D01*
X27220Y18090D02*
X27260Y18170D01*
X27220Y18250D01*
X27300Y18210D01*
X27380Y18250D01*
X27340Y18170D01*
X27380Y18090D01*
X27300Y18130D01*
X27220Y18090D01*
X16877Y21390D02*
Y21350D01*
X16957D01*
Y21390D01*
X16997D01*
Y21470D01*
X16957D01*
Y21510D01*
X16877D01*
Y21470D01*
X16837D01*
Y21390D01*
X16877D01*
X12170Y19290D02*
X12210Y19370D01*
X12170Y19450D01*
X12250Y19410D01*
X12330Y19450D01*
X12290Y19370D01*
X12330Y19290D01*
X12250Y19330D01*
X12170Y19290D01*
X14320Y14453D02*
X14360D01*
X14400Y14493D01*
X14440Y14453D01*
X14480D01*
Y14493D01*
X14440Y14533D01*
X14480Y14573D01*
Y14613D01*
X14440D01*
X14400Y14573D01*
X14360Y14613D01*
X14320D01*
Y14573D01*
X14360Y14533D01*
X14320Y14493D01*
Y14453D01*
X19220Y22740D02*
X19260Y22820D01*
X19220Y22900D01*
X19300Y22860D01*
X19380Y22900D01*
X19340Y22820D01*
X19380Y22740D01*
X19300Y22780D01*
X19220Y22740D01*
X21720Y17845D02*
X21760Y17925D01*
X21720Y18005D01*
X21800Y17965D01*
X21880Y18005D01*
X21840Y17925D01*
X21880Y17845D01*
X21800Y17885D01*
X21720Y17845D01*
X12170Y19590D02*
X12210Y19670D01*
X12170Y19750D01*
X12250Y19710D01*
X12330Y19750D01*
X12290Y19670D01*
X12330Y19590D01*
X12250Y19630D01*
X12170Y19590D01*
X20920Y18090D02*
X20960Y18170D01*
X20920Y18250D01*
X21000Y18210D01*
X21080Y18250D01*
X21040Y18170D01*
X21080Y18090D01*
X21000Y18130D01*
X20920Y18090D01*
X10970Y21440D02*
X11010Y21520D01*
X10970Y21600D01*
X11050Y21560D01*
X11130Y21600D01*
X11090Y21520D01*
X11130Y21440D01*
X11050Y21480D01*
X10970Y21440D01*
X20820Y9990D02*
X20860Y10070D01*
X20820Y10150D01*
X20900Y10110D01*
X20980Y10150D01*
X20940Y10070D01*
X20980Y9990D01*
X20900Y10030D01*
X20820Y9990D01*
X11989Y18039D02*
X12029Y18119D01*
X11989Y18199D01*
X12069Y18159D01*
X12149Y18199D01*
X12109Y18119D01*
X12149Y18039D01*
X12069Y18079D01*
X11989Y18039D01*
X21630Y17560D02*
X21670Y17640D01*
X21630Y17720D01*
X21710Y17680D01*
X21790Y17720D01*
X21750Y17640D01*
X21790Y17560D01*
X21710Y17600D01*
X21630Y17560D01*
X10970Y17540D02*
X11010Y17620D01*
X10970Y17700D01*
X11050Y17660D01*
X11130Y17700D01*
X11090Y17620D01*
X11130Y17540D01*
X11050Y17580D01*
X10970Y17540D01*
X13570Y22740D02*
X13610Y22820D01*
X13570Y22900D01*
X13650Y22860D01*
X13730Y22900D01*
X13690Y22820D01*
X13730Y22740D01*
X13650Y22780D01*
X13570Y22740D01*
X22470Y21390D02*
X22510D01*
X22550Y21430D01*
X22590Y21390D01*
X22630D01*
Y21430D01*
X22590Y21470D01*
X22630Y21510D01*
Y21550D01*
X22590D01*
X22550Y21510D01*
X22510Y21550D01*
X22470D01*
Y21510D01*
X22510Y21470D01*
X22470Y21430D01*
Y21390D01*
X22068Y21260D02*
X22108Y21340D01*
X22068Y21420D01*
X22148Y21380D01*
X22228Y21420D01*
X22188Y21340D01*
X22228Y21260D01*
X22148Y21300D01*
X22068Y21260D01*
X15050Y20440D02*
X15090Y20520D01*
X15050Y20600D01*
X15130Y20560D01*
X15210Y20600D01*
X15170Y20520D01*
X15210Y20440D01*
X15130Y20480D01*
X15050Y20440D01*
X13580Y20710D02*
X13620Y20790D01*
X13580Y20870D01*
X13660Y20830D01*
X13740Y20870D01*
X13700Y20790D01*
X13740Y20710D01*
X13660Y20750D01*
X13580Y20710D01*
X13680Y20940D02*
X13720Y21020D01*
X13680Y21100D01*
X13760Y21060D01*
X13840Y21100D01*
X13800Y21020D01*
X13840Y20940D01*
X13760Y20980D01*
X13680Y20940D01*
X13090Y21180D02*
X13130Y21260D01*
X13090Y21340D01*
X13170Y21300D01*
X13250Y21340D01*
X13210Y21260D01*
X13250Y21180D01*
X13170Y21220D01*
X13090Y21180D01*
X12840Y20370D02*
X12880Y20450D01*
X12840Y20530D01*
X12920Y20490D01*
X13000Y20530D01*
X12960Y20450D01*
X13000Y20370D01*
X12920Y20410D01*
X12840Y20370D01*
X12530Y18275D02*
X12570Y18355D01*
X12530Y18435D01*
X12610Y18395D01*
X12690Y18435D01*
X12650Y18355D01*
X12690Y18275D01*
X12610Y18315D01*
X12530Y18275D01*
Y16920D02*
X12570Y17000D01*
X12530Y17080D01*
X12610Y17040D01*
X12690Y17080D01*
X12650Y17000D01*
X12690Y16920D01*
X12610Y16960D01*
X12530Y16920D01*
X12500Y15960D02*
X12540Y16040D01*
X12500Y16120D01*
X12580Y16080D01*
X12660Y16120D01*
X12620Y16040D01*
X12660Y15960D01*
X12580Y16000D01*
X12500Y15960D01*
X13250Y15840D02*
X13290Y15920D01*
X13250Y16000D01*
X13330Y15960D01*
X13410Y16000D01*
X13370Y15920D01*
X13410Y15840D01*
X13330Y15880D01*
X13250Y15840D01*
X13210Y16410D02*
X13250Y16490D01*
X13210Y16570D01*
X13290Y16530D01*
X13370Y16570D01*
X13330Y16490D01*
X13370Y16410D01*
X13290Y16450D01*
X13210Y16410D01*
X13113Y17300D02*
X13153Y17380D01*
X13113Y17460D01*
X13193Y17420D01*
X13273Y17460D01*
X13233Y17380D01*
X13273Y17300D01*
X13193Y17340D01*
X13113Y17300D01*
X19110Y18220D02*
X19150Y18300D01*
X19110Y18380D01*
X19190Y18340D01*
X19270Y18380D01*
X19230Y18300D01*
X19270Y18220D01*
X19190Y18260D01*
X19110Y18220D01*
X18040Y17660D02*
X18080Y17740D01*
X18040Y17820D01*
X18120Y17780D01*
X18200Y17820D01*
X18160Y17740D01*
X18200Y17660D01*
X18120Y17700D01*
X18040Y17660D01*
X18100Y16910D02*
X18140Y16990D01*
X18100Y17070D01*
X18180Y17030D01*
X18260Y17070D01*
X18220Y16990D01*
X18260Y16910D01*
X18180Y16950D01*
X18100Y16910D01*
X19060Y14760D02*
X19100Y14840D01*
X19060Y14920D01*
X19140Y14880D01*
X19220Y14920D01*
X19180Y14840D01*
X19220Y14760D01*
X19140Y14800D01*
X19060Y14760D01*
X19170Y16120D02*
X19210Y16200D01*
X19170Y16280D01*
X19250Y16240D01*
X19330Y16280D01*
X19290Y16200D01*
X19330Y16120D01*
X19250Y16160D01*
X19170Y16120D01*
X19250Y15268D02*
X19290Y15348D01*
X19250Y15428D01*
X19330Y15388D01*
X19410Y15428D01*
X19370Y15348D01*
X19410Y15268D01*
X19330Y15308D01*
X19250Y15268D01*
X17820Y15172D02*
X17860Y15252D01*
X17820Y15332D01*
X17900Y15292D01*
X17980Y15332D01*
X17940Y15252D01*
X17980Y15172D01*
X17900Y15212D01*
X17820Y15172D01*
X17540Y14800D02*
X17580Y14880D01*
X17540Y14960D01*
X17620Y14920D01*
X17700Y14960D01*
X17660Y14880D01*
X17700Y14800D01*
X17620Y14840D01*
X17540Y14800D01*
X16330Y15060D02*
X16370Y15140D01*
X16330Y15220D01*
X16410Y15180D01*
X16490Y15220D01*
X16450Y15140D01*
X16490Y15060D01*
X16410Y15100D01*
X16330Y15060D01*
X16750Y15410D02*
X16790Y15490D01*
X16750Y15570D01*
X16830Y15530D01*
X16910Y15570D01*
X16870Y15490D01*
X16910Y15410D01*
X16830Y15450D01*
X16750Y15410D01*
X17420Y15870D02*
X17460Y15950D01*
X17420Y16030D01*
X17500Y15990D01*
X17580Y16030D01*
X17540Y15950D01*
X17580Y15870D01*
X17500Y15910D01*
X17420Y15870D01*
X17530Y16690D02*
X17570Y16770D01*
X17530Y16850D01*
X17610Y16810D01*
X17690Y16850D01*
X17650Y16770D01*
X17690Y16690D01*
X17610Y16730D01*
X17530Y16690D01*
X15800Y18455D02*
X15840Y18535D01*
X15800Y18615D01*
X15880Y18575D01*
X15960Y18615D01*
X15920Y18535D01*
X15960Y18455D01*
X15880Y18495D01*
X15800Y18455D01*
X15450Y18850D02*
X15490Y18930D01*
X15450Y19010D01*
X15530Y18970D01*
X15610Y19010D01*
X15570Y18930D01*
X15610Y18850D01*
X15530Y18890D01*
X15450Y18850D01*
X15140Y19350D02*
X15180Y19430D01*
X15140Y19510D01*
X15220Y19470D01*
X15300Y19510D01*
X15260Y19430D01*
X15300Y19350D01*
X15220Y19390D01*
X15140Y19350D01*
X18760Y19950D02*
X18800Y20030D01*
X18760Y20110D01*
X18840Y20070D01*
X18920Y20110D01*
X18880Y20030D01*
X18920Y19950D01*
X18840Y19990D01*
X18760Y19950D01*
X18770Y20310D02*
X18810Y20390D01*
X18770Y20470D01*
X18850Y20430D01*
X18930Y20470D01*
X18890Y20390D01*
X18930Y20310D01*
X18850Y20350D01*
X18770Y20310D01*
X18470Y20794D02*
X18510Y20874D01*
X18470Y20954D01*
X18550Y20914D01*
X18630Y20954D01*
X18590Y20874D01*
X18630Y20794D01*
X18550Y20834D01*
X18470Y20794D01*
X18390Y20370D02*
X18430Y20450D01*
X18390Y20530D01*
X18470Y20490D01*
X18550Y20530D01*
X18510Y20450D01*
X18550Y20370D01*
X18470Y20410D01*
X18390Y20370D01*
X16790Y20597D02*
X16830Y20677D01*
X16790Y20757D01*
X16870Y20717D01*
X16950Y20757D01*
X16910Y20677D01*
X16950Y20597D01*
X16870Y20637D01*
X16790Y20597D01*
X14110Y19120D02*
X14150Y19200D01*
X14110Y19280D01*
X14190Y19240D01*
X14270Y19280D01*
X14230Y19200D01*
X14270Y19120D01*
X14190Y19160D01*
X14110Y19120D01*
X17443Y19244D02*
X17483Y19324D01*
X17443Y19404D01*
X17523Y19364D01*
X17603Y19404D01*
X17563Y19324D01*
X17603Y19244D01*
X17523Y19284D01*
X17443Y19244D01*
X17160Y19470D02*
X17200Y19550D01*
X17160Y19630D01*
X17240Y19590D01*
X17320Y19630D01*
X17280Y19550D01*
X17320Y19470D01*
X17240Y19510D01*
X17160Y19470D01*
X17230Y20160D02*
X17270Y20240D01*
X17230Y20320D01*
X17310Y20280D01*
X17390Y20320D01*
X17350Y20240D01*
X17390Y20160D01*
X17310Y20200D01*
X17230Y20160D01*
X16220Y20490D02*
X16260Y20570D01*
X16220Y20650D01*
X16300Y20610D01*
X16380Y20650D01*
X16340Y20570D01*
X16380Y20490D01*
X16300Y20530D01*
X16220Y20490D01*
X15720Y20480D02*
X15760Y20560D01*
X15720Y20640D01*
X15800Y20600D01*
X15880Y20640D01*
X15840Y20560D01*
X15880Y20480D01*
X15800Y20520D01*
X15720Y20480D01*
X14480Y20090D02*
X14520Y20170D01*
X14480Y20250D01*
X14560Y20210D01*
X14640Y20250D01*
X14600Y20170D01*
X14640Y20090D01*
X14560Y20130D01*
X14480Y20090D01*
X14200Y20400D02*
X14240Y20480D01*
X14200Y20560D01*
X14280Y20520D01*
X14360Y20560D01*
X14320Y20480D01*
X14360Y20400D01*
X14280Y20440D01*
X14200Y20400D01*
X14730Y20480D02*
X14770Y20560D01*
X14730Y20640D01*
X14810Y20600D01*
X14890Y20640D01*
X14850Y20560D01*
X14890Y20480D01*
X14810Y20520D01*
X14730Y20480D01*
X16560Y20210D02*
X16600Y20290D01*
X16560Y20370D01*
X16640Y20330D01*
X16720Y20370D01*
X16680Y20290D01*
X16720Y20210D01*
X16640Y20250D01*
X16560Y20210D01*
X17490Y19890D02*
X17530Y19970D01*
X17490Y20050D01*
X17570Y20010D01*
X17650Y20050D01*
X17610Y19970D01*
X17650Y19890D01*
X17570Y19930D01*
X17490Y19890D01*
X17470Y18710D02*
X17510Y18790D01*
X17470Y18870D01*
X17550Y18830D01*
X17630Y18870D01*
X17590Y18790D01*
X17630Y18710D01*
X17550Y18750D01*
X17470Y18710D01*
X17370Y18250D02*
X17410Y18330D01*
X17370Y18410D01*
X17450Y18370D01*
X17530Y18410D01*
X17490Y18330D01*
X17530Y18250D01*
X17450Y18290D01*
X17370Y18250D01*
X17150Y17960D02*
X17190Y18040D01*
X17150Y18120D01*
X17230Y18080D01*
X17310Y18120D01*
X17270Y18040D01*
X17310Y17960D01*
X17230Y18000D01*
X17150Y17960D01*
X16810Y17630D02*
X16850Y17710D01*
X16810Y17790D01*
X16890Y17750D01*
X16970Y17790D01*
X16930Y17710D01*
X16970Y17630D01*
X16890Y17670D01*
X16810Y17630D01*
X16400Y17280D02*
X16440Y17360D01*
X16400Y17440D01*
X16480Y17400D01*
X16560Y17440D01*
X16520Y17360D01*
X16560Y17280D01*
X16480Y17320D01*
X16400Y17280D01*
X15650Y16660D02*
X15690Y16740D01*
X15650Y16820D01*
X15730Y16780D01*
X15810Y16820D01*
X15770Y16740D01*
X15810Y16660D01*
X15730Y16700D01*
X15650Y16660D01*
X14990Y15960D02*
X15030Y16040D01*
X14990Y16120D01*
X15070Y16080D01*
X15150Y16120D01*
X15110Y16040D01*
X15150Y15960D01*
X15070Y16000D01*
X14990Y15960D01*
X14410Y16040D02*
X14450Y16120D01*
X14410Y16200D01*
X14490Y16160D01*
X14570Y16200D01*
X14530Y16120D01*
X14570Y16040D01*
X14490Y16080D01*
X14410Y16040D01*
X14210Y16290D02*
X14250Y16370D01*
X14210Y16450D01*
X14290Y16410D01*
X14370Y16450D01*
X14330Y16370D01*
X14370Y16290D01*
X14290Y16330D01*
X14210Y16290D01*
X14200Y16640D02*
X14240Y16720D01*
X14200Y16800D01*
X14280Y16760D01*
X14360Y16800D01*
X14320Y16720D01*
X14360Y16640D01*
X14280Y16680D01*
X14200Y16640D01*
Y17190D02*
X14240Y17270D01*
X14200Y17350D01*
X14280Y17310D01*
X14360Y17350D01*
X14320Y17270D01*
X14360Y17190D01*
X14280Y17230D01*
X14200Y17190D01*
X14220Y17845D02*
X14260Y17925D01*
X14220Y18005D01*
X14300Y17965D01*
X14380Y18005D01*
X14340Y17925D01*
X14380Y17845D01*
X14300Y17885D01*
X14220Y17845D01*
X14150Y18490D02*
X14190Y18570D01*
X14150Y18650D01*
X14230Y18610D01*
X14310Y18650D01*
X14270Y18570D01*
X14310Y18490D01*
X14230Y18530D01*
X14150Y18490D01*
X13540Y19540D02*
X13580Y19620D01*
X13540Y19700D01*
X13620Y19660D01*
X13700Y19700D01*
X13660Y19620D01*
X13700Y19540D01*
X13620Y19580D01*
X13540Y19540D01*
X13520Y19840D02*
X13560Y19920D01*
X13520Y20000D01*
X13600Y19960D01*
X13680Y20000D01*
X13640Y19920D01*
X13680Y19840D01*
X13600Y19880D01*
X13520Y19840D01*
X13530Y20140D02*
X13570Y20220D01*
X13530Y20300D01*
X13610Y20260D01*
X13690Y20300D01*
X13650Y20220D01*
X13690Y20140D01*
X13610Y20180D01*
X13530Y20140D01*
X27540Y16520D02*
X27580Y16600D01*
X27540Y16680D01*
X27620Y16640D01*
X27700Y16680D01*
X27660Y16600D01*
X27700Y16520D01*
X27620Y16560D01*
X27540Y16520D01*
X28930Y17020D02*
X28970Y17100D01*
X28930Y17180D01*
X29010Y17140D01*
X29090Y17180D01*
X29050Y17100D01*
X29090Y17020D01*
X29010Y17060D01*
X28930Y17020D01*
X28960Y10610D02*
X29000Y10690D01*
X28960Y10770D01*
X29040Y10730D01*
X29120Y10770D01*
X29080Y10690D01*
X29120Y10610D01*
X29040Y10650D01*
X28960Y10610D01*
X29100Y11710D02*
X29140Y11790D01*
X29100Y11870D01*
X29180Y11830D01*
X29260Y11870D01*
X29220Y11790D01*
X29260Y11710D01*
X29180Y11750D01*
X29100Y11710D01*
X27210Y14500D02*
X27250Y14580D01*
X27210Y14660D01*
X27290Y14620D01*
X27370Y14660D01*
X27330Y14580D01*
X27370Y14500D01*
X27290Y14540D01*
X27210Y14500D01*
X27540Y15390D02*
X27580Y15470D01*
X27540Y15550D01*
X27620Y15510D01*
X27700Y15550D01*
X27660Y15470D01*
X27700Y15390D01*
X27620Y15430D01*
X27540Y15390D01*
X28130Y16290D02*
X28170Y16370D01*
X28130Y16450D01*
X28210Y16410D01*
X28290Y16450D01*
X28250Y16370D01*
X28290Y16290D01*
X28210Y16330D01*
X28130Y16290D01*
X27900Y14530D02*
X27940Y14610D01*
X27900Y14690D01*
X27980Y14650D01*
X28060Y14690D01*
X28020Y14610D01*
X28060Y14530D01*
X27980Y14570D01*
X27900Y14530D01*
X22530Y11740D02*
X22570Y11820D01*
X22530Y11900D01*
X22610Y11860D01*
X22690Y11900D01*
X22650Y11820D01*
X22690Y11740D01*
X22610Y11780D01*
X22530Y11740D01*
X25980Y9450D02*
X26020Y9530D01*
X25980Y9610D01*
X26060Y9570D01*
X26140Y9610D01*
X26100Y9530D01*
X26140Y9450D01*
X26060Y9490D01*
X25980Y9450D01*
X25020Y9490D02*
X25060Y9570D01*
X25020Y9650D01*
X25100Y9610D01*
X25180Y9650D01*
X25140Y9570D01*
X25180Y9490D01*
X25100Y9530D01*
X25020Y9490D01*
X24590Y9920D02*
X24630Y10000D01*
X24590Y10080D01*
X24670Y10040D01*
X24750Y10080D01*
X24710Y10000D01*
X24750Y9920D01*
X24670Y9960D01*
X24590Y9920D01*
X13240Y27700D02*
X13280Y27780D01*
X13240Y27860D01*
X13320Y27820D01*
X13400Y27860D01*
X13360Y27780D01*
X13400Y27700D01*
X13320Y27740D01*
X13240Y27700D01*
X11780Y12520D02*
X11820Y12600D01*
X11780Y12680D01*
X11860Y12640D01*
X11940Y12680D01*
X11900Y12600D01*
X11940Y12520D01*
X11860Y12560D01*
X11780Y12520D01*
X11350Y12120D02*
X11390Y12200D01*
X11350Y12280D01*
X11430Y12240D01*
X11510Y12280D01*
X11470Y12200D01*
X11510Y12120D01*
X11430Y12160D01*
X11350Y12120D01*
X10060Y11770D02*
X10100Y11850D01*
X10060Y11930D01*
X10140Y11890D01*
X10220Y11930D01*
X10180Y11850D01*
X10220Y11770D01*
X10140Y11810D01*
X10060Y11770D01*
X6420Y11080D02*
X6460Y11160D01*
X6420Y11240D01*
X6500Y11200D01*
X6580Y11240D01*
X6540Y11160D01*
X6580Y11080D01*
X6500Y11120D01*
X6420Y11080D01*
X6020Y13390D02*
X6060Y13470D01*
X6020Y13550D01*
X6100Y13510D01*
X6180Y13550D01*
X6140Y13470D01*
X6180Y13390D01*
X6100Y13430D01*
X6020Y13390D01*
X7080Y13320D02*
X7120Y13400D01*
X7080Y13480D01*
X7160Y13440D01*
X7240Y13480D01*
X7200Y13400D01*
X7240Y13320D01*
X7160Y13360D01*
X7080Y13320D01*
X6500Y12780D02*
X6540Y12860D01*
X6500Y12940D01*
X6580Y12900D01*
X6660Y12940D01*
X6620Y12860D01*
X6660Y12780D01*
X6580Y12820D01*
X6500Y12780D01*
X5310Y12920D02*
X5350Y13000D01*
X5310Y13080D01*
X5390Y13040D01*
X5470Y13080D01*
X5430Y13000D01*
X5470Y12920D01*
X5390Y12960D01*
X5310Y12920D01*
X4030Y12900D02*
X4070Y12980D01*
X4030Y13060D01*
X4110Y13020D01*
X4190Y13060D01*
X4150Y12980D01*
X4190Y12900D01*
X4110Y12940D01*
X4030Y12900D01*
X2620Y12050D02*
X2660Y12130D01*
X2620Y12210D01*
X2700Y12170D01*
X2780Y12210D01*
X2740Y12130D01*
X2780Y12050D01*
X2700Y12090D01*
X2620Y12050D01*
X2800Y11240D02*
X2840Y11320D01*
X2800Y11400D01*
X2880Y11360D01*
X2960Y11400D01*
X2920Y11320D01*
X2960Y11240D01*
X2880Y11280D01*
X2800Y11240D01*
X3170Y9270D02*
X3210Y9350D01*
X3170Y9430D01*
X3250Y9390D01*
X3330Y9430D01*
X3290Y9350D01*
X3330Y9270D01*
X3250Y9310D01*
X3170Y9270D01*
X3970Y9240D02*
X4010Y9320D01*
X3970Y9400D01*
X4050Y9360D01*
X4130Y9400D01*
X4090Y9320D01*
X4130Y9240D01*
X4050Y9280D01*
X3970Y9240D01*
X4850Y9150D02*
X4890Y9230D01*
X4850Y9310D01*
X4930Y9270D01*
X5010Y9310D01*
X4970Y9230D01*
X5010Y9150D01*
X4930Y9190D01*
X4850Y9150D01*
X5280D02*
X5320Y9230D01*
X5280Y9310D01*
X5360Y9270D01*
X5440Y9310D01*
X5400Y9230D01*
X5440Y9150D01*
X5360Y9190D01*
X5280Y9150D01*
X5940D02*
X5980Y9230D01*
X5940Y9310D01*
X6020Y9270D01*
X6100Y9310D01*
X6060Y9230D01*
X6100Y9150D01*
X6020Y9190D01*
X5940Y9150D01*
X7380Y9350D02*
X7420Y9430D01*
X7380Y9510D01*
X7460Y9470D01*
X7540Y9510D01*
X7500Y9430D01*
X7540Y9350D01*
X7460Y9390D01*
X7380Y9350D01*
X8124Y9370D02*
X8164Y9450D01*
X8124Y9530D01*
X8204Y9490D01*
X8284Y9530D01*
X8244Y9450D01*
X8284Y9370D01*
X8204Y9410D01*
X8124Y9370D01*
X9070Y9350D02*
X9110Y9430D01*
X9070Y9510D01*
X9150Y9470D01*
X9230Y9510D01*
X9190Y9430D01*
X9230Y9350D01*
X9150Y9390D01*
X9070Y9350D01*
X10010Y9380D02*
X10050Y9460D01*
X10010Y9540D01*
X10090Y9500D01*
X10170Y9540D01*
X10130Y9460D01*
X10170Y9380D01*
X10090Y9420D01*
X10010Y9380D01*
X11390Y9580D02*
X11430Y9660D01*
X11390Y9740D01*
X11470Y9700D01*
X11550Y9740D01*
X11510Y9660D01*
X11550Y9580D01*
X11470Y9620D01*
X11390Y9580D01*
X17030Y9360D02*
X17070Y9440D01*
X17030Y9520D01*
X17110Y9480D01*
X17190Y9520D01*
X17150Y9440D01*
X17190Y9360D01*
X17110Y9400D01*
X17030Y9360D01*
X16000Y9390D02*
X16040Y9470D01*
X16000Y9550D01*
X16080Y9510D01*
X16160Y9550D01*
X16120Y9470D01*
X16160Y9390D01*
X16080Y9430D01*
X16000Y9390D01*
X14990Y9360D02*
X15030Y9440D01*
X14990Y9520D01*
X15070Y9480D01*
X15150Y9520D01*
X15110Y9440D01*
X15150Y9360D01*
X15070Y9400D01*
X14990Y9360D01*
X16280Y12040D02*
X16320Y12120D01*
X16280Y12200D01*
X16360Y12160D01*
X16440Y12200D01*
X16400Y12120D01*
X16440Y12040D01*
X16360Y12080D01*
X16280Y12040D01*
X15010Y11630D02*
X15050Y11710D01*
X15010Y11790D01*
X15090Y11750D01*
X15170Y11790D01*
X15130Y11710D01*
X15170Y11630D01*
X15090Y11670D01*
X15010Y11630D01*
X15150Y12100D02*
X15190Y12180D01*
X15150Y12260D01*
X15230Y12220D01*
X15310Y12260D01*
X15270Y12180D01*
X15310Y12100D01*
X15230Y12140D01*
X15150Y12100D01*
X21740Y10020D02*
X21780Y10100D01*
X21740Y10180D01*
X21820Y10140D01*
X21900Y10180D01*
X21860Y10100D01*
X21900Y10020D01*
X21820Y10060D01*
X21740Y10020D01*
X20440Y12880D02*
X20480Y12960D01*
X20440Y13040D01*
X20520Y13000D01*
X20600Y13040D01*
X20560Y12960D01*
X20600Y12880D01*
X20520Y12920D01*
X20440Y12880D01*
X20845Y11420D02*
X20885Y11500D01*
X20845Y11580D01*
X20925Y11540D01*
X21005Y11580D01*
X20965Y11500D01*
X21005Y11420D01*
X20925Y11460D01*
X20845Y11420D01*
X20670Y12080D02*
X20710Y12160D01*
X20670Y12240D01*
X20750Y12200D01*
X20830Y12240D01*
X20790Y12160D01*
X20830Y12080D01*
X20750Y12120D01*
X20670Y12080D01*
X21560Y12510D02*
X21600Y12590D01*
X21560Y12670D01*
X21640Y12630D01*
X21720Y12670D01*
X21680Y12590D01*
X21720Y12510D01*
X21640Y12550D01*
X21560Y12510D01*
X25340Y12880D02*
X25380Y12960D01*
X25340Y13040D01*
X25420Y13000D01*
X25500Y13040D01*
X25460Y12960D01*
X25500Y12880D01*
X25420Y12920D01*
X25340Y12880D01*
X25510Y13450D02*
X25550Y13530D01*
X25510Y13610D01*
X25590Y13570D01*
X25670Y13610D01*
X25630Y13530D01*
X25670Y13450D01*
X25590Y13490D01*
X25510Y13450D01*
X25210Y13230D02*
X25250Y13310D01*
X25210Y13390D01*
X25290Y13350D01*
X25370Y13390D01*
X25330Y13310D01*
X25370Y13230D01*
X25290Y13270D01*
X25210Y13230D01*
X24720Y13470D02*
X24760Y13550D01*
X24720Y13630D01*
X24800Y13590D01*
X24880Y13630D01*
X24840Y13550D01*
X24880Y13470D01*
X24800Y13510D01*
X24720Y13470D01*
X24880Y11830D02*
X24920Y11910D01*
X24880Y11990D01*
X24960Y11950D01*
X25040Y11990D01*
X25000Y11910D01*
X25040Y11830D01*
X24960Y11870D01*
X24880Y11830D01*
X24510Y12120D02*
X24550Y12200D01*
X24510Y12280D01*
X24590Y12240D01*
X24670Y12280D01*
X24630Y12200D01*
X24670Y12120D01*
X24590Y12160D01*
X24510Y12120D01*
X24160Y12580D02*
X24200Y12660D01*
X24160Y12740D01*
X24240Y12700D01*
X24320Y12740D01*
X24280Y12660D01*
X24320Y12580D01*
X24240Y12620D01*
X24160Y12580D01*
X23887Y12930D02*
X23927Y13010D01*
X23887Y13090D01*
X23967Y13050D01*
X24047Y13090D01*
X24007Y13010D01*
X24047Y12930D01*
X23967Y12970D01*
X23887Y12930D01*
X22580Y13450D02*
X22620Y13530D01*
X22580Y13610D01*
X22660Y13570D01*
X22740Y13610D01*
X22700Y13530D01*
X22740Y13450D01*
X22660Y13490D01*
X22580Y13450D01*
X22280Y13880D02*
X22320Y13960D01*
X22280Y14040D01*
X22360Y14000D01*
X22440Y14040D01*
X22400Y13960D01*
X22440Y13880D01*
X22360Y13920D01*
X22280Y13880D01*
X21990Y14340D02*
X22030Y14420D01*
X21990Y14500D01*
X22070Y14460D01*
X22150Y14500D01*
X22110Y14420D01*
X22150Y14340D01*
X22070Y14380D01*
X21990Y14340D01*
X21540Y14690D02*
X21580Y14770D01*
X21540Y14850D01*
X21620Y14810D01*
X21700Y14850D01*
X21660Y14770D01*
X21700Y14690D01*
X21620Y14730D01*
X21540Y14690D01*
X22800Y15940D02*
X22840Y16020D01*
X22800Y16100D01*
X22880Y16060D01*
X22960Y16100D01*
X22920Y16020D01*
X22960Y15940D01*
X22880Y15980D01*
X22800Y15940D01*
X21730Y16120D02*
X21770Y16200D01*
X21730Y16280D01*
X21810Y16240D01*
X21890Y16280D01*
X21850Y16200D01*
X21890Y16120D01*
X21810Y16160D01*
X21730Y16120D01*
X22210Y16111D02*
X22250Y16191D01*
X22210Y16271D01*
X22290Y16231D01*
X22370Y16271D01*
X22330Y16191D01*
X22370Y16111D01*
X22290Y16151D01*
X22210Y16111D01*
X22650Y16250D02*
X22690Y16330D01*
X22650Y16410D01*
X22730Y16370D01*
X22810Y16410D01*
X22770Y16330D01*
X22810Y16250D01*
X22730Y16290D01*
X22650Y16250D01*
X20690Y17310D02*
X20730Y17390D01*
X20690Y17470D01*
X20770Y17430D01*
X20850Y17470D01*
X20810Y17390D01*
X20850Y17310D01*
X20770Y17350D01*
X20690Y17310D01*
X24000Y22735D02*
X24040Y22815D01*
X24000Y22895D01*
X24080Y22855D01*
X24160Y22895D01*
X24120Y22815D01*
X24160Y22735D01*
X24080Y22775D01*
X24000Y22735D01*
X24380Y22830D02*
X24420Y22910D01*
X24380Y22990D01*
X24460Y22950D01*
X24540Y22990D01*
X24500Y22910D01*
X24540Y22830D01*
X24460Y22870D01*
X24380Y22830D01*
X25500Y22943D02*
X25540Y23023D01*
X25500Y23103D01*
X25580Y23063D01*
X25660Y23103D01*
X25620Y23023D01*
X25660Y22943D01*
X25580Y22983D01*
X25500Y22943D01*
X26010Y22710D02*
X26050Y22790D01*
X26010Y22870D01*
X26090Y22830D01*
X26170Y22870D01*
X26130Y22790D01*
X26170Y22710D01*
X26090Y22750D01*
X26010Y22710D01*
X26720Y23050D02*
X26760Y23130D01*
X26720Y23210D01*
X26800Y23170D01*
X26880Y23210D01*
X26840Y23130D01*
X26880Y23050D01*
X26800Y23090D01*
X26720Y23050D01*
X27050Y22890D02*
X27090Y22970D01*
X27050Y23050D01*
X27130Y23010D01*
X27210Y23050D01*
X27170Y22970D01*
X27210Y22890D01*
X27130Y22930D01*
X27050Y22890D01*
X27650Y22530D02*
X27690Y22610D01*
X27650Y22690D01*
X27730Y22650D01*
X27810Y22690D01*
X27770Y22610D01*
X27810Y22530D01*
X27730Y22570D01*
X27650Y22530D01*
X28090Y19850D02*
X28130Y19930D01*
X28090Y20010D01*
X28170Y19970D01*
X28250Y20010D01*
X28210Y19930D01*
X28250Y19850D01*
X28170Y19890D01*
X28090Y19850D01*
X27710Y19700D02*
X27750Y19780D01*
X27710Y19860D01*
X27790Y19820D01*
X27870Y19860D01*
X27830Y19780D01*
X27870Y19700D01*
X27790Y19740D01*
X27710Y19700D01*
X27310Y19230D02*
X27350Y19310D01*
X27310Y19390D01*
X27390Y19350D01*
X27470Y19390D01*
X27430Y19310D01*
X27470Y19230D01*
X27390Y19270D01*
X27310Y19230D01*
X27350Y19760D02*
X27390Y19840D01*
X27350Y19920D01*
X27430Y19880D01*
X27510Y19920D01*
X27470Y19840D01*
X27510Y19760D01*
X27430Y19800D01*
X27350Y19760D01*
X23350Y18440D02*
X23390Y18520D01*
X23350Y18600D01*
X23430Y18560D01*
X23510Y18600D01*
X23470Y18520D01*
X23510Y18440D01*
X23430Y18480D01*
X23350Y18440D01*
X23070Y18650D02*
X23110Y18730D01*
X23070Y18810D01*
X23150Y18770D01*
X23230Y18810D01*
X23190Y18730D01*
X23230Y18650D01*
X23150Y18690D01*
X23070Y18650D01*
X22620Y18590D02*
X22660Y18670D01*
X22620Y18750D01*
X22700Y18710D01*
X22780Y18750D01*
X22740Y18670D01*
X22780Y18590D01*
X22700Y18630D01*
X22620Y18590D01*
X22210Y18370D02*
X22250Y18450D01*
X22210Y18530D01*
X22290Y18490D01*
X22370Y18530D01*
X22330Y18450D01*
X22370Y18370D01*
X22290Y18410D01*
X22210Y18370D01*
X23250Y20120D02*
X23290Y20200D01*
X23250Y20280D01*
X23330Y20240D01*
X23410Y20280D01*
X23370Y20200D01*
X23410Y20120D01*
X23330Y20160D01*
X23250Y20120D01*
X21510Y20730D02*
X21550Y20810D01*
X21510Y20890D01*
X21590Y20850D01*
X21670Y20890D01*
X21630Y20810D01*
X21670Y20730D01*
X21590Y20770D01*
X21510Y20730D01*
X21438Y21770D02*
X21478Y21850D01*
X21438Y21930D01*
X21518Y21890D01*
X21598Y21930D01*
X21558Y21850D01*
X21598Y21770D01*
X21518Y21810D01*
X21438Y21770D01*
X20860Y22590D02*
X20900Y22670D01*
X20860Y22750D01*
X20940Y22710D01*
X21020Y22750D01*
X20980Y22670D01*
X21020Y22590D01*
X20940Y22630D01*
X20860Y22590D01*
X13060Y23550D02*
X13100Y23630D01*
X13060Y23710D01*
X13140Y23670D01*
X13220Y23710D01*
X13180Y23630D01*
X13220Y23550D01*
X13140Y23590D01*
X13060Y23550D01*
X13440Y23290D02*
X13480Y23370D01*
X13440Y23450D01*
X13520Y23410D01*
X13600Y23450D01*
X13560Y23370D01*
X13600Y23290D01*
X13520Y23330D01*
X13440Y23290D01*
X17690Y25460D02*
X17730Y25540D01*
X17690Y25620D01*
X17770Y25580D01*
X17850Y25620D01*
X17810Y25540D01*
X17850Y25460D01*
X17770Y25500D01*
X17690Y25460D01*
X18590Y25510D02*
X18630Y25590D01*
X18590Y25670D01*
X18670Y25630D01*
X18750Y25670D01*
X18710Y25590D01*
X18750Y25510D01*
X18670Y25550D01*
X18590Y25510D01*
X19740Y23020D02*
X19780Y23100D01*
X19740Y23180D01*
X19820Y23140D01*
X19900Y23180D01*
X19860Y23100D01*
X19900Y23020D01*
X19820Y23060D01*
X19740Y23020D01*
X21210Y21470D02*
X21250Y21550D01*
X21210Y21630D01*
X21290Y21590D01*
X21370Y21630D01*
X21330Y21550D01*
X21370Y21470D01*
X21290Y21510D01*
X21210Y21470D01*
X21757Y21040D02*
X21797Y21120D01*
X21757Y21200D01*
X21837Y21160D01*
X21917Y21200D01*
X21877Y21120D01*
X21917Y21040D01*
X21837Y21080D01*
X21757Y21040D01*
X25350Y25990D02*
X25390Y26070D01*
X25350Y26150D01*
X25430Y26110D01*
X25510Y26150D01*
X25470Y26070D01*
X25510Y25990D01*
X25430Y26030D01*
X25350Y25990D01*
X25880Y25490D02*
X25920Y25570D01*
X25880Y25650D01*
X25960Y25610D01*
X26040Y25650D01*
X26000Y25570D01*
X26040Y25490D01*
X25960Y25530D01*
X25880Y25490D01*
X26540Y26430D02*
X26580Y26510D01*
X26540Y26590D01*
X26620Y26550D01*
X26700Y26590D01*
X26660Y26510D01*
X26700Y26430D01*
X26620Y26470D01*
X26540Y26430D01*
X26560Y27000D02*
X26600Y27080D01*
X26560Y27160D01*
X26640Y27120D01*
X26720Y27160D01*
X26680Y27080D01*
X26720Y27000D01*
X26640Y27040D01*
X26560Y27000D01*
X26020Y27080D02*
X26060Y27160D01*
X26020Y27240D01*
X26100Y27200D01*
X26180Y27240D01*
X26140Y27160D01*
X26180Y27080D01*
X26100Y27120D01*
X26020Y27080D01*
X25430Y27040D02*
X25470Y27120D01*
X25430Y27200D01*
X25510Y27160D01*
X25590Y27200D01*
X25550Y27120D01*
X25590Y27040D01*
X25510Y27080D01*
X25430Y27040D01*
X27380Y30550D02*
X27420Y30630D01*
X27380Y30710D01*
X27460Y30670D01*
X27540Y30710D01*
X27500Y30630D01*
X27540Y30550D01*
X27460Y30590D01*
X27380Y30550D01*
X25210Y29650D02*
X25250Y29730D01*
X25210Y29810D01*
X25290Y29770D01*
X25370Y29810D01*
X25330Y29730D01*
X25370Y29650D01*
X25290Y29690D01*
X25210Y29650D01*
X25800Y29690D02*
X25840Y29770D01*
X25800Y29850D01*
X25880Y29810D01*
X25960Y29850D01*
X25920Y29770D01*
X25960Y29690D01*
X25880Y29730D01*
X25800Y29690D01*
X26720Y29790D02*
X26760Y29870D01*
X26720Y29950D01*
X26800Y29910D01*
X26880Y29950D01*
X26840Y29870D01*
X26880Y29790D01*
X26800Y29830D01*
X26720Y29790D01*
X26500Y29230D02*
X26540Y29310D01*
X26500Y29390D01*
X26580Y29350D01*
X26660Y29390D01*
X26620Y29310D01*
X26660Y29230D01*
X26580Y29270D01*
X26500Y29230D01*
X26020Y29150D02*
X26060Y29230D01*
X26020Y29310D01*
X26100Y29270D01*
X26180Y29310D01*
X26140Y29230D01*
X26180Y29150D01*
X26100Y29190D01*
X26020Y29150D01*
X25310Y29170D02*
X25350Y29250D01*
X25310Y29330D01*
X25390Y29290D01*
X25470Y29330D01*
X25430Y29250D01*
X25470Y29170D01*
X25390Y29210D01*
X25310Y29170D01*
X25980Y30190D02*
X26020Y30270D01*
X25980Y30350D01*
X26060Y30310D01*
X26140Y30350D01*
X26100Y30270D01*
X26140Y30190D01*
X26060Y30230D01*
X25980Y30190D01*
X24930Y31840D02*
X24970Y31920D01*
X24930Y32000D01*
X25010Y31960D01*
X25090Y32000D01*
X25050Y31920D01*
X25090Y31840D01*
X25010Y31880D01*
X24930Y31840D01*
X23910Y31420D02*
X23950Y31500D01*
X23910Y31580D01*
X23990Y31540D01*
X24070Y31580D01*
X24030Y31500D01*
X24070Y31420D01*
X23990Y31460D01*
X23910Y31420D01*
X25820Y32610D02*
X25860Y32690D01*
X25820Y32770D01*
X25900Y32730D01*
X25980Y32770D01*
X25940Y32690D01*
X25980Y32610D01*
X25900Y32650D01*
X25820Y32610D01*
X25150Y32510D02*
X25190Y32590D01*
X25150Y32670D01*
X25230Y32630D01*
X25310Y32670D01*
X25270Y32590D01*
X25310Y32510D01*
X25230Y32550D01*
X25150Y32510D01*
X24210D02*
X24250Y32590D01*
X24210Y32670D01*
X24290Y32630D01*
X24370Y32670D01*
X24330Y32590D01*
X24370Y32510D01*
X24290Y32550D01*
X24210Y32510D01*
X23040Y33630D02*
X23080Y33710D01*
X23040Y33790D01*
X23120Y33750D01*
X23200Y33790D01*
X23160Y33710D01*
X23200Y33630D01*
X23120Y33670D01*
X23040Y33630D01*
X21770Y32790D02*
X21810Y32870D01*
X21770Y32950D01*
X21850Y32910D01*
X21930Y32950D01*
X21890Y32870D01*
X21930Y32790D01*
X21850Y32830D01*
X21770Y32790D01*
X21010Y31380D02*
X21050Y31460D01*
X21010Y31540D01*
X21090Y31500D01*
X21170Y31540D01*
X21130Y31460D01*
X21170Y31380D01*
X21090Y31420D01*
X21010Y31380D01*
X20690Y29830D02*
X20730Y29910D01*
X20690Y29990D01*
X20770Y29950D01*
X20850Y29990D01*
X20810Y29910D01*
X20850Y29830D01*
X20770Y29870D01*
X20690Y29830D01*
X20770Y28120D02*
X20810Y28200D01*
X20770Y28280D01*
X20850Y28240D01*
X20930Y28280D01*
X20890Y28200D01*
X20930Y28120D01*
X20850Y28160D01*
X20770Y28120D01*
X20230Y26030D02*
X20270Y26110D01*
X20230Y26190D01*
X20310Y26150D01*
X20390Y26190D01*
X20350Y26110D01*
X20390Y26030D01*
X20310Y26070D01*
X20230Y26030D01*
X19380Y25270D02*
X19420Y25350D01*
X19380Y25430D01*
X19460Y25390D01*
X19540Y25430D01*
X19500Y25350D01*
X19540Y25270D01*
X19460Y25310D01*
X19380Y25270D01*
X14270Y25570D02*
X14310Y25650D01*
X14270Y25730D01*
X14350Y25690D01*
X14430Y25730D01*
X14390Y25650D01*
X14430Y25570D01*
X14350Y25610D01*
X14270Y25570D01*
X15300Y25550D02*
X15340Y25630D01*
X15300Y25710D01*
X15380Y25670D01*
X15460Y25710D01*
X15420Y25630D01*
X15460Y25550D01*
X15380Y25590D01*
X15300Y25550D01*
X16853Y26850D02*
X16893Y26930D01*
X16853Y27010D01*
X16933Y26970D01*
X17013Y27010D01*
X16973Y26930D01*
X17013Y26850D01*
X16933Y26890D01*
X16853Y26850D01*
X17150Y27820D02*
X17190Y27900D01*
X17150Y27980D01*
X17230Y27940D01*
X17310Y27980D01*
X17270Y27900D01*
X17310Y27820D01*
X17230Y27860D01*
X17150Y27820D01*
X14720Y27800D02*
X14760Y27880D01*
X14720Y27960D01*
X14800Y27920D01*
X14880Y27960D01*
X14840Y27880D01*
X14880Y27800D01*
X14800Y27840D01*
X14720Y27800D01*
X13890Y27260D02*
X13930Y27340D01*
X13890Y27420D01*
X13970Y27380D01*
X14050Y27420D01*
X14010Y27340D01*
X14050Y27260D01*
X13970Y27300D01*
X13890Y27260D01*
X15640Y27160D02*
X15680Y27240D01*
X15640Y27320D01*
X15720Y27280D01*
X15800Y27320D01*
X15760Y27240D01*
X15800Y27160D01*
X15720Y27200D01*
X15640Y27160D01*
X19585Y27980D02*
X19625Y28060D01*
X19585Y28140D01*
X19665Y28100D01*
X19745Y28140D01*
X19705Y28060D01*
X19745Y27980D01*
X19665Y28020D01*
X19585Y27980D01*
X18860Y28400D02*
X18900Y28480D01*
X18860Y28560D01*
X18940Y28520D01*
X19020Y28560D01*
X18980Y28480D01*
X19020Y28400D01*
X18940Y28440D01*
X18860Y28400D01*
X18780Y30790D02*
X18820Y30870D01*
X18780Y30950D01*
X18860Y30910D01*
X18940Y30950D01*
X18900Y30870D01*
X18940Y30790D01*
X18860Y30830D01*
X18780Y30790D01*
X17580Y30273D02*
X17620Y30353D01*
X17580Y30433D01*
X17660Y30393D01*
X17740Y30433D01*
X17700Y30353D01*
X17740Y30273D01*
X17660Y30313D01*
X17580Y30273D01*
X18310Y31270D02*
X18350Y31350D01*
X18310Y31430D01*
X18390Y31390D01*
X18470Y31430D01*
X18430Y31350D01*
X18470Y31270D01*
X18390Y31310D01*
X18310Y31270D01*
X18030Y31470D02*
X18070Y31550D01*
X18030Y31630D01*
X18110Y31590D01*
X18190Y31630D01*
X18150Y31550D01*
X18190Y31470D01*
X18110Y31510D01*
X18030Y31470D01*
X18090Y31970D02*
X18130Y32050D01*
X18090Y32130D01*
X18170Y32090D01*
X18250Y32130D01*
X18210Y32050D01*
X18250Y31970D01*
X18170Y32010D01*
X18090Y31970D01*
X19360Y33880D02*
X19400Y33960D01*
X19360Y34040D01*
X19440Y34000D01*
X19520Y34040D01*
X19480Y33960D01*
X19520Y33880D01*
X19440Y33920D01*
X19360Y33880D01*
X8840Y33630D02*
X8880Y33710D01*
X8840Y33790D01*
X8920Y33750D01*
X9000Y33790D01*
X8960Y33710D01*
X9000Y33630D01*
X8920Y33670D01*
X8840Y33630D01*
X15270Y33150D02*
X15310Y33230D01*
X15270Y33310D01*
X15350Y33270D01*
X15430Y33310D01*
X15390Y33230D01*
X15430Y33150D01*
X15350Y33190D01*
X15270Y33150D01*
X14560Y31490D02*
X14600Y31570D01*
X14560Y31650D01*
X14640Y31610D01*
X14720Y31650D01*
X14680Y31570D01*
X14720Y31490D01*
X14640Y31530D01*
X14560Y31490D01*
X15700Y29760D02*
X15740Y29840D01*
X15700Y29920D01*
X15780Y29880D01*
X15860Y29920D01*
X15820Y29840D01*
X15860Y29760D01*
X15780Y29800D01*
X15700Y29760D01*
X14160Y29250D02*
X14200Y29330D01*
X14160Y29410D01*
X14240Y29370D01*
X14320Y29410D01*
X14280Y29330D01*
X14320Y29250D01*
X14240Y29290D01*
X14160Y29250D01*
X13230Y30290D02*
X13270Y30370D01*
X13230Y30450D01*
X13310Y30410D01*
X13390Y30450D01*
X13350Y30370D01*
X13390Y30290D01*
X13310Y30330D01*
X13230Y30290D01*
X13480Y31590D02*
X13520Y31670D01*
X13480Y31750D01*
X13560Y31710D01*
X13640Y31750D01*
X13600Y31670D01*
X13640Y31590D01*
X13560Y31630D01*
X13480Y31590D01*
X13180Y31120D02*
X13220Y31200D01*
X13180Y31280D01*
X13260Y31240D01*
X13340Y31280D01*
X13300Y31200D01*
X13340Y31120D01*
X13260Y31160D01*
X13180Y31120D01*
X12760Y29960D02*
X12800Y30040D01*
X12760Y30120D01*
X12840Y30080D01*
X12920Y30120D01*
X12880Y30040D01*
X12920Y29960D01*
X12840Y30000D01*
X12760Y29960D01*
X11280Y29880D02*
X11320Y29960D01*
X11280Y30040D01*
X11360Y30000D01*
X11440Y30040D01*
X11400Y29960D01*
X11440Y29880D01*
X11360Y29920D01*
X11280Y29880D01*
X10620Y29690D02*
X10660Y29770D01*
X10620Y29850D01*
X10700Y29810D01*
X10780Y29850D01*
X10740Y29770D01*
X10780Y29690D01*
X10700Y29730D01*
X10620Y29690D01*
X10302Y26650D02*
X10342Y26730D01*
X10302Y26810D01*
X10382Y26770D01*
X10462Y26810D01*
X10422Y26730D01*
X10462Y26650D01*
X10382Y26690D01*
X10302Y26650D01*
X11065Y27320D02*
X11105Y27400D01*
X11065Y27480D01*
X11145Y27440D01*
X11225Y27480D01*
X11185Y27400D01*
X11225Y27320D01*
X11145Y27360D01*
X11065Y27320D01*
X11430Y25210D02*
X11470Y25290D01*
X11430Y25370D01*
X11510Y25330D01*
X11590Y25370D01*
X11550Y25290D01*
X11590Y25210D01*
X11510Y25250D01*
X11430Y25210D01*
X9850Y24840D02*
X9890Y24920D01*
X9850Y25000D01*
X9930Y24960D01*
X10010Y25000D01*
X9970Y24920D01*
X10010Y24840D01*
X9930Y24880D01*
X9850Y24840D01*
X7650Y26450D02*
X7690Y26530D01*
X7650Y26610D01*
X7730Y26570D01*
X7810Y26610D01*
X7770Y26530D01*
X7810Y26450D01*
X7730Y26490D01*
X7650Y26450D01*
X6300Y25640D02*
X6340Y25720D01*
X6300Y25800D01*
X6380Y25760D01*
X6460Y25800D01*
X6420Y25720D01*
X6460Y25640D01*
X6380Y25680D01*
X6300Y25640D01*
X6550Y25310D02*
X6590Y25390D01*
X6550Y25470D01*
X6630Y25430D01*
X6710Y25470D01*
X6670Y25390D01*
X6710Y25310D01*
X6630Y25350D01*
X6550Y25310D01*
X7540Y24560D02*
X7580Y24640D01*
X7540Y24720D01*
X7620Y24680D01*
X7700Y24720D01*
X7660Y24640D01*
X7700Y24560D01*
X7620Y24600D01*
X7540Y24560D01*
X6130Y23050D02*
X6170Y23130D01*
X6130Y23210D01*
X6210Y23170D01*
X6290Y23210D01*
X6250Y23130D01*
X6290Y23050D01*
X6210Y23090D01*
X6130Y23050D01*
X6050Y23530D02*
X6090Y23610D01*
X6050Y23690D01*
X6130Y23650D01*
X6210Y23690D01*
X6170Y23610D01*
X6210Y23530D01*
X6130Y23570D01*
X6050Y23530D01*
X4350Y22850D02*
X4390Y22930D01*
X4350Y23010D01*
X4430Y22970D01*
X4510Y23010D01*
X4470Y22930D01*
X4510Y22850D01*
X4430Y22890D01*
X4350Y22850D01*
X2820Y24530D02*
X2860Y24610D01*
X2820Y24690D01*
X2900Y24650D01*
X2980Y24690D01*
X2940Y24610D01*
X2980Y24530D01*
X2900Y24570D01*
X2820Y24530D01*
X2740Y25390D02*
X2780Y25470D01*
X2740Y25550D01*
X2820Y25510D01*
X2900Y25550D01*
X2860Y25470D01*
X2900Y25390D01*
X2820Y25430D01*
X2740Y25390D01*
X4390Y26700D02*
X4430Y26780D01*
X4390Y26860D01*
X4470Y26820D01*
X4550Y26860D01*
X4510Y26780D01*
X4550Y26700D01*
X4470Y26740D01*
X4390Y26700D01*
X8520Y28170D02*
X8560Y28250D01*
X8520Y28330D01*
X8600Y28290D01*
X8680Y28330D01*
X8640Y28250D01*
X8680Y28170D01*
X8600Y28210D01*
X8520Y28170D01*
X7610Y29030D02*
X7650Y29110D01*
X7610Y29190D01*
X7690Y29150D01*
X7770Y29190D01*
X7730Y29110D01*
X7770Y29030D01*
X7690Y29070D01*
X7610Y29030D01*
X4300Y30010D02*
X4340Y30090D01*
X4300Y30170D01*
X4380Y30130D01*
X4460Y30170D01*
X4420Y30090D01*
X4460Y30010D01*
X4380Y30050D01*
X4300Y30010D01*
X6460Y27930D02*
X6500Y28010D01*
X6460Y28090D01*
X6540Y28050D01*
X6620Y28090D01*
X6580Y28010D01*
X6620Y27930D01*
X6540Y27970D01*
X6460Y27930D01*
X5180Y27300D02*
X5220Y27380D01*
X5180Y27460D01*
X5260Y27420D01*
X5340Y27460D01*
X5300Y27380D01*
X5340Y27300D01*
X5260Y27340D01*
X5180Y27300D01*
X4820Y28050D02*
X4860Y28130D01*
X4820Y28210D01*
X4900Y28170D01*
X4980Y28210D01*
X4940Y28130D01*
X4980Y28050D01*
X4900Y28090D01*
X4820Y28050D01*
X2570Y27750D02*
X2610Y27830D01*
X2570Y27910D01*
X2650Y27870D01*
X2730Y27910D01*
X2690Y27830D01*
X2730Y27750D01*
X2650Y27790D01*
X2570Y27750D01*
X2510Y28600D02*
X2550Y28680D01*
X2510Y28760D01*
X2590Y28720D01*
X2670Y28760D01*
X2630Y28680D01*
X2670Y28600D01*
X2590Y28640D01*
X2510Y28600D01*
X2560Y29550D02*
X2600Y29630D01*
X2560Y29710D01*
X2640Y29670D01*
X2720Y29710D01*
X2680Y29630D01*
X2720Y29550D01*
X2640Y29590D01*
X2560Y29550D01*
X2660Y31140D02*
X2700Y31220D01*
X2660Y31300D01*
X2740Y31260D01*
X2820Y31300D01*
X2780Y31220D01*
X2820Y31140D01*
X2740Y31180D01*
X2660Y31140D01*
X2570Y31920D02*
X2610Y32000D01*
X2570Y32080D01*
X2650Y32040D01*
X2730Y32080D01*
X2690Y32000D01*
X2730Y31920D01*
X2650Y31960D01*
X2570Y31920D01*
X4320Y32740D02*
X4360Y32820D01*
X4320Y32900D01*
X4400Y32860D01*
X4480Y32900D01*
X4440Y32820D01*
X4480Y32740D01*
X4400Y32780D01*
X4320Y32740D01*
X4100Y33400D02*
X4140Y33480D01*
X4100Y33560D01*
X4180Y33520D01*
X4260Y33560D01*
X4220Y33480D01*
X4260Y33400D01*
X4180Y33440D01*
X4100Y33400D01*
X4920Y33280D02*
X4960Y33360D01*
X4920Y33440D01*
X5000Y33400D01*
X5080Y33440D01*
X5040Y33360D01*
X5080Y33280D01*
X5000Y33320D01*
X4920Y33280D01*
X6990Y33200D02*
X7030Y33280D01*
X6990Y33360D01*
X7070Y33320D01*
X7150Y33360D01*
X7110Y33280D01*
X7150Y33200D01*
X7070Y33240D01*
X6990Y33200D01*
X7720Y12690D02*
X7760D01*
X7800Y12730D01*
X7840Y12690D01*
X7880D01*
Y12730D01*
X7840Y12770D01*
X7880Y12810D01*
Y12850D01*
X7840D01*
X7800Y12810D01*
X7760Y12850D01*
X7720D01*
Y12810D01*
X7760Y12770D01*
X7720Y12730D01*
Y12690D01*
X18507Y12496D02*
X18547Y12576D01*
X18507Y12656D01*
X18587Y12616D01*
X18667Y12656D01*
X18627Y12576D01*
X18667Y12496D01*
X18587Y12536D01*
X18507Y12496D01*
X18520Y11054D02*
X18560Y11134D01*
X18520Y11214D01*
X18600Y11174D01*
X18680Y11214D01*
X18640Y11134D01*
X18680Y11054D01*
X18600Y11094D01*
X18520Y11054D01*
X20520Y13266D02*
X20560Y13346D01*
X20520Y13426D01*
X20600Y13386D01*
X20680Y13426D01*
X20640Y13346D01*
X20680Y13266D01*
X20600Y13306D01*
X20520Y13266D01*
X28085Y9540D02*
X28125Y9620D01*
X28085Y9700D01*
X28165Y9660D01*
X28245Y9700D01*
X28205Y9620D01*
X28245Y9540D01*
X28165Y9580D01*
X28085Y9540D01*
X27070Y9125D02*
X27110Y9205D01*
X27070Y9285D01*
X27150Y9245D01*
X27230Y9285D01*
X27190Y9205D01*
X27230Y9125D01*
X27150Y9165D01*
X27070Y9125D01*
X24720Y17090D02*
X24760Y17170D01*
X24720Y17250D01*
X24800Y17210D01*
X24880Y17250D01*
X24840Y17170D01*
X24880Y17090D01*
X24800Y17130D01*
X24720Y17090D01*
X25320Y33690D02*
X25360Y33770D01*
X25320Y33850D01*
X25400Y33810D01*
X25480Y33850D01*
X25440Y33770D01*
X25480Y33690D01*
X25400Y33730D01*
X25320Y33690D01*
X11570Y13440D02*
X11610Y13520D01*
X11570Y13600D01*
X11650Y13560D01*
X11730Y13600D01*
X11690Y13520D01*
X11730Y13440D01*
X11650Y13480D01*
X11570Y13440D01*
X12296Y10916D02*
X12336Y10996D01*
X12296Y11076D01*
X12376Y11036D01*
X12456Y11076D01*
X12416Y10996D01*
X12456Y10916D01*
X12376Y10956D01*
X12296Y10916D01*
X5320Y11390D02*
X5360Y11470D01*
X5320Y11550D01*
X5400Y11510D01*
X5480Y11550D01*
X5440Y11470D01*
X5480Y11390D01*
X5400Y11430D01*
X5320Y11390D01*
X3770Y10090D02*
X3810Y10170D01*
X3770Y10250D01*
X3850Y10210D01*
X3930Y10250D01*
X3890Y10170D01*
X3930Y10090D01*
X3850Y10130D01*
X3770Y10090D01*
X4770Y23840D02*
X4810Y23920D01*
X4770Y24000D01*
X4850Y23960D01*
X4930Y24000D01*
X4890Y23920D01*
X4930Y23840D01*
X4850Y23880D01*
X4770Y23840D01*
X3870Y23290D02*
X3910Y23370D01*
X3870Y23450D01*
X3950Y23410D01*
X4030Y23450D01*
X3990Y23370D01*
X4030Y23290D01*
X3950Y23330D01*
X3870Y23290D01*
X2820Y23190D02*
X2860Y23270D01*
X2820Y23350D01*
X2900Y23310D01*
X2980Y23350D01*
X2940Y23270D01*
X2980Y23190D01*
X2900Y23230D01*
X2820Y23190D01*
X6970Y29790D02*
X7010Y29870D01*
X6970Y29950D01*
X7050Y29910D01*
X7130Y29950D01*
X7090Y29870D01*
X7130Y29790D01*
X7050Y29830D01*
X6970Y29790D01*
X5670Y28440D02*
X5710Y28520D01*
X5670Y28600D01*
X5750Y28560D01*
X5830Y28600D01*
X5790Y28520D01*
X5830Y28440D01*
X5750Y28480D01*
X5670Y28440D01*
X6470Y31790D02*
X6510Y31870D01*
X6470Y31950D01*
X6550Y31910D01*
X6630Y31950D01*
X6590Y31870D01*
X6630Y31790D01*
X6550Y31830D01*
X6470Y31790D01*
X26635Y33380D02*
Y33340D01*
X26715D01*
Y33380D01*
X26755D01*
Y33460D01*
X26715D01*
Y33500D01*
X26635D01*
Y33460D01*
X26595D01*
Y33380D01*
X26635D01*
X27010Y31556D02*
Y31516D01*
X27090D01*
Y31556D01*
X27130D01*
Y31636D01*
X27090D01*
Y31676D01*
X27010D01*
Y31636D01*
X26970D01*
Y31556D01*
X27010D01*
X26910Y28191D02*
Y28151D01*
X26990D01*
Y28191D01*
X27030D01*
Y28271D01*
X26990D01*
Y28311D01*
X26910D01*
Y28271D01*
X26870D01*
Y28191D01*
X26910D01*
X27060Y23880D02*
Y23840D01*
X27140D01*
Y23880D01*
X27180D01*
Y23960D01*
X27140D01*
Y24000D01*
X27060D01*
Y23960D01*
X27020D01*
Y23880D01*
X27060D01*
X25260Y23980D02*
Y23940D01*
X25340D01*
Y23980D01*
X25380D01*
Y24060D01*
X25340D01*
Y24100D01*
X25260D01*
Y24060D01*
X25220D01*
Y23980D01*
X25260D01*
X24270Y24763D02*
X24310Y24843D01*
X24270Y24923D01*
X24350Y24883D01*
X24430Y24923D01*
X24390Y24843D01*
X24430Y24763D01*
X24350Y24803D01*
X24270Y24763D01*
X27010Y21930D02*
Y21890D01*
X27090D01*
Y21930D01*
X27130D01*
Y22010D01*
X27090D01*
Y22050D01*
X27010D01*
Y22010D01*
X26970D01*
Y21930D01*
X27010D01*
X26010Y11980D02*
Y11940D01*
X26090D01*
Y11980D01*
X26130D01*
Y12060D01*
X26090D01*
Y12100D01*
X26010D01*
Y12060D01*
X25970D01*
Y11980D01*
X26010D01*
X26560Y10580D02*
Y10540D01*
X26640D01*
Y10580D01*
X26680D01*
Y10660D01*
X26640D01*
Y10700D01*
X26560D01*
Y10660D01*
X26520D01*
Y10580D01*
X26560D01*
X4620Y30640D02*
X4660Y30720D01*
X4620Y30800D01*
X4700Y30760D01*
X4780Y30800D01*
X4740Y30720D01*
X4780Y30640D01*
X4700Y30680D01*
X4620Y30640D01*
X4720Y30990D02*
X4760Y31070D01*
X4720Y31150D01*
X4800Y31110D01*
X4880Y31150D01*
X4840Y31070D01*
X4880Y30990D01*
X4800Y31030D01*
X4720Y30990D01*
X20238Y24089D02*
Y24049D01*
X20318D01*
Y24089D01*
X20358D01*
Y24169D01*
X20318D01*
Y24209D01*
X20238D01*
Y24169D01*
X20198D01*
Y24089D01*
X20238D01*
X22170Y21690D02*
X22210D01*
X22250Y21730D01*
X22290Y21690D01*
X22330D01*
Y21730D01*
X22290Y21770D01*
X22330Y21810D01*
Y21850D01*
X22290D01*
X22250Y21810D01*
X22210Y21850D01*
X22170D01*
Y21810D01*
X22210Y21770D01*
X22170Y21730D01*
Y21690D01*
X21110Y23980D02*
Y23940D01*
X21190D01*
Y23980D01*
X21230D01*
Y24060D01*
X21190D01*
Y24100D01*
X21110D01*
Y24060D01*
X21070D01*
Y23980D01*
X21110D01*
X22060Y28930D02*
Y28890D01*
X22140D01*
Y28930D01*
X22180D01*
Y29010D01*
X22140D01*
Y29050D01*
X22060D01*
Y29010D01*
X22020D01*
Y28930D01*
X22060D01*
X23610Y29780D02*
Y29740D01*
X23690D01*
Y29780D01*
X23730D01*
Y29860D01*
X23690D01*
Y29900D01*
X23610D01*
Y29860D01*
X23570D01*
Y29780D01*
X23610D01*
X20470Y22166D02*
X20510D01*
X20550Y22206D01*
X20590Y22166D01*
X20630D01*
Y22206D01*
X20590Y22246D01*
X20630Y22286D01*
Y22326D01*
X20590D01*
X20550Y22286D01*
X20510Y22326D01*
X20470D01*
Y22286D01*
X20510Y22246D01*
X20470Y22206D01*
Y22166D01*
X20082Y22220D02*
X20122D01*
X20162Y22260D01*
X20202Y22220D01*
X20242D01*
Y22260D01*
X20202Y22300D01*
X20242Y22340D01*
Y22380D01*
X20202D01*
X20162Y22340D01*
X20122Y22380D01*
X20082D01*
Y22340D01*
X20122Y22300D01*
X20082Y22260D01*
Y22220D01*
X9120Y25040D02*
X9160D01*
X9200Y25080D01*
X9240Y25040D01*
X9280D01*
Y25080D01*
X9240Y25120D01*
X9280Y25160D01*
Y25200D01*
X9240D01*
X9200Y25160D01*
X9160Y25200D01*
X9120D01*
Y25160D01*
X9160Y25120D01*
X9120Y25080D01*
Y25040D01*
X11160Y22620D02*
X11200D01*
X11240Y22660D01*
X11280Y22620D01*
X11320D01*
Y22660D01*
X11280Y22700D01*
X11320Y22740D01*
Y22780D01*
X11280D01*
X11240Y22740D01*
X11200Y22780D01*
X11160D01*
Y22740D01*
X11200Y22700D01*
X11160Y22660D01*
Y22620D01*
X17246Y26840D02*
X17286D01*
X17326Y26880D01*
X17366Y26840D01*
X17406D01*
Y26880D01*
X17366Y26920D01*
X17406Y26960D01*
Y27000D01*
X17366D01*
X17326Y26960D01*
X17286Y27000D01*
X17246D01*
Y26960D01*
X17286Y26920D01*
X17246Y26880D01*
Y26840D01*
X15970Y23640D02*
X16010D01*
X16050Y23680D01*
X16090Y23640D01*
X16130D01*
Y23680D01*
X16090Y23720D01*
X16130Y23760D01*
Y23800D01*
X16090D01*
X16050Y23760D01*
X16010Y23800D01*
X15970D01*
Y23760D01*
X16010Y23720D01*
X15970Y23680D01*
Y23640D01*
X18920Y26476D02*
X18960D01*
X19000Y26516D01*
X19040Y26476D01*
X19080D01*
Y26516D01*
X19040Y26556D01*
X19080Y26596D01*
Y26636D01*
X19040D01*
X19000Y26596D01*
X18960Y26636D01*
X18920D01*
Y26596D01*
X18960Y26556D01*
X18920Y26516D01*
Y26476D01*
X23620Y32040D02*
X23660Y32120D01*
X23620Y32200D01*
X23700Y32160D01*
X23780Y32200D01*
X23740Y32120D01*
X23780Y32040D01*
X23700Y32080D01*
X23620Y32040D01*
X23020D02*
X23060Y32120D01*
X23020Y32200D01*
X23100Y32160D01*
X23180Y32200D01*
X23140Y32120D01*
X23180Y32040D01*
X23100Y32080D01*
X23020Y32040D01*
X22570Y25540D02*
X22610Y25620D01*
X22570Y25700D01*
X22650Y25660D01*
X22730Y25700D01*
X22690Y25620D01*
X22730Y25540D01*
X22650Y25580D01*
X22570Y25540D01*
X19568Y12040D02*
X19608D01*
X19648Y12080D01*
X19688Y12040D01*
X19728D01*
Y12080D01*
X19688Y12120D01*
X19728Y12160D01*
Y12200D01*
X19688D01*
X19648Y12160D01*
X19608Y12200D01*
X19568D01*
Y12160D01*
X19608Y12120D01*
X19568Y12080D01*
Y12040D01*
X16820Y11890D02*
X16860D01*
X16900Y11930D01*
X16940Y11890D01*
X16980D01*
Y11930D01*
X16940Y11970D01*
X16980Y12010D01*
Y12050D01*
X16940D01*
X16900Y12010D01*
X16860Y12050D01*
X16820D01*
Y12010D01*
X16860Y11970D01*
X16820Y11930D01*
Y11890D01*
X9870Y15388D02*
X9910Y15468D01*
X9870Y15548D01*
X9950Y15508D01*
X10030Y15548D01*
X9990Y15468D01*
X10030Y15388D01*
X9950Y15428D01*
X9870Y15388D01*
X9420Y18590D02*
X9460D01*
X9500Y18630D01*
X9540Y18590D01*
X9580D01*
Y18630D01*
X9540Y18670D01*
X9580Y18710D01*
Y18750D01*
X9540D01*
X9500Y18710D01*
X9460Y18750D01*
X9420D01*
Y18710D01*
X9460Y18670D01*
X9420Y18630D01*
Y18590D01*
X10620Y18047D02*
X10660Y18127D01*
X10620Y18207D01*
X10700Y18167D01*
X10780Y18207D01*
X10740Y18127D01*
X10780Y18047D01*
X10700Y18087D01*
X10620Y18047D01*
X10852Y15965D02*
X10892Y16045D01*
X10852Y16125D01*
X10932Y16085D01*
X11012Y16125D01*
X10972Y16045D01*
X11012Y15965D01*
X10932Y16005D01*
X10852Y15965D01*
X22720Y10690D02*
X22760Y10770D01*
X22720Y10850D01*
X22800Y10810D01*
X22880Y10850D01*
X22840Y10770D01*
X22880Y10690D01*
X22800Y10730D01*
X22720Y10690D01*
X21520Y31140D02*
X21560Y31220D01*
X21520Y31300D01*
X21600Y31260D01*
X21680Y31300D01*
X21640Y31220D01*
X21680Y31140D01*
X21600Y31180D01*
X21520Y31140D01*
X20220Y31290D02*
X20260Y31370D01*
X20220Y31450D01*
X20300Y31410D01*
X20380Y31450D01*
X20340Y31370D01*
X20380Y31290D01*
X20300Y31330D01*
X20220Y31290D01*
X9070Y28515D02*
X9110Y28595D01*
X9070Y28675D01*
X9150Y28635D01*
X9230Y28675D01*
X9190Y28595D01*
X9230Y28515D01*
X9150Y28555D01*
X9070Y28515D01*
X7720Y31240D02*
X7760Y31320D01*
X7720Y31400D01*
X7800Y31360D01*
X7880Y31400D01*
X7840Y31320D01*
X7880Y31240D01*
X7800Y31280D01*
X7720Y31240D01*
X9160Y31107D02*
Y31067D01*
X9240D01*
Y31107D01*
X9280D01*
Y31187D01*
X9240D01*
Y31227D01*
X9160D01*
Y31187D01*
X9120D01*
Y31107D01*
X9160D01*
X5810Y32480D02*
Y32440D01*
X5890D01*
Y32480D01*
X5930D01*
Y32560D01*
X5890D01*
Y32600D01*
X5810D01*
Y32560D01*
X5770D01*
Y32480D01*
X5810D01*
X4110Y27580D02*
Y27540D01*
X4190D01*
Y27580D01*
X4230D01*
Y27660D01*
X4190D01*
Y27700D01*
X4110D01*
Y27660D01*
X4070D01*
Y27580D01*
X4110D01*
X4970Y24690D02*
X5010Y24770D01*
X4970Y24850D01*
X5050Y24810D01*
X5130Y24850D01*
X5090Y24770D01*
X5130Y24690D01*
X5050Y24730D01*
X4970Y24690D01*
X4620Y24890D02*
X4660Y24970D01*
X4620Y25050D01*
X4700Y25010D01*
X4780Y25050D01*
X4740Y24970D01*
X4780Y24890D01*
X4700Y24930D01*
X4620Y24890D01*
X7820Y20940D02*
X7860Y21020D01*
X7820Y21100D01*
X7900Y21060D01*
X7980Y21100D01*
X7940Y21020D01*
X7980Y20940D01*
X7900Y20980D01*
X7820Y20940D01*
X7270Y22090D02*
X7310Y22170D01*
X7270Y22250D01*
X7350Y22210D01*
X7430Y22250D01*
X7390Y22170D01*
X7430Y22090D01*
X7350Y22130D01*
X7270Y22090D01*
X5870Y19740D02*
X5910D01*
X5950Y19780D01*
X5990Y19740D01*
X6030D01*
Y19780D01*
X5990Y19820D01*
X6030Y19860D01*
Y19900D01*
X5990D01*
X5950Y19860D01*
X5910Y19900D01*
X5870D01*
Y19860D01*
X5910Y19820D01*
X5870Y19780D01*
Y19740D01*
X4670Y15676D02*
X4710D01*
X4750Y15716D01*
X4790Y15676D01*
X4830D01*
Y15716D01*
X4790Y15756D01*
X4830Y15796D01*
Y15836D01*
X4790D01*
X4750Y15796D01*
X4710Y15836D01*
X4670D01*
Y15796D01*
X4710Y15756D01*
X4670Y15716D01*
Y15676D01*
X7070Y14490D02*
X7110Y14570D01*
X7070Y14650D01*
X7150Y14610D01*
X7230Y14650D01*
X7190Y14570D01*
X7230Y14490D01*
X7150Y14530D01*
X7070Y14490D01*
Y17040D02*
X7110Y17120D01*
X7070Y17200D01*
X7150Y17160D01*
X7230Y17200D01*
X7190Y17120D01*
X7230Y17040D01*
X7150Y17080D01*
X7070Y17040D01*
X8420Y18690D02*
X8460Y18770D01*
X8420Y18850D01*
X8500Y18810D01*
X8580Y18850D01*
X8540Y18770D01*
X8580Y18690D01*
X8500Y18730D01*
X8420Y18690D01*
X5796Y17040D02*
X5836Y17120D01*
X5796Y17200D01*
X5876Y17160D01*
X5956Y17200D01*
X5916Y17120D01*
X5956Y17040D01*
X5876Y17080D01*
X5796Y17040D01*
X5820Y18440D02*
X5860Y18520D01*
X5820Y18600D01*
X5900Y18560D01*
X5980Y18600D01*
X5940Y18520D01*
X5980Y18440D01*
X5900Y18480D01*
X5820Y18440D01*
X5770Y14495D02*
X5810Y14575D01*
X5770Y14655D01*
X5850Y14615D01*
X5930Y14655D01*
X5890Y14575D01*
X5930Y14495D01*
X5850Y14535D01*
X5770Y14495D01*
D87*
X17875Y33289D02*
G03*
X17875Y33289I-80J0D01*
G01*
X13544D02*
G03*
X13544Y33289I-80J0D01*
G01*
M02*
