G04*
G04 #@! TF.GenerationSoftware,Altium Limited,Altium Designer,19.0.12 (326)*
G04*
G04 Layer_Color=16711935*
%FSLAX25Y25*%
%MOIN*%
G70*
G01*
G75*
%ADD38R,0.02800X0.03162*%
%ADD39R,0.03162X0.02800*%
%ADD49R,0.06706X0.06706*%
%ADD50C,0.06706*%
%ADD51R,0.06706X0.06706*%
%ADD52C,0.10642*%
%ADD53C,0.08674*%
%ADD54C,0.16548*%
%ADD55C,0.05800*%
%ADD76R,0.06784X0.07587*%
%ADD77R,0.12611X0.12611*%
%ADD78O,0.03162X0.06509*%
%ADD79R,0.05800X0.04737*%
%ADD80R,0.04343X0.04540*%
%ADD81R,0.04343X0.04540*%
%ADD82R,0.13595X0.09265*%
%ADD83R,0.04343X0.09265*%
D38*
X190300Y134466D02*
D03*
X186500D02*
D03*
X119700Y333966D02*
D03*
X115900D02*
D03*
X32150Y186828D02*
D03*
X35950D02*
D03*
X135300Y346766D02*
D03*
X131500D02*
D03*
X193800Y143466D02*
D03*
X197600D02*
D03*
X190000Y148466D02*
D03*
X193800D02*
D03*
X102743Y312366D02*
D03*
X106543D02*
D03*
X68100Y188828D02*
D03*
X64300D02*
D03*
X67800Y183966D02*
D03*
X64000D02*
D03*
D39*
X177290Y156166D02*
D03*
Y159966D02*
D03*
X104406Y336266D02*
D03*
Y332466D02*
D03*
X180800Y141566D02*
D03*
Y145366D02*
D03*
X109800Y336266D02*
D03*
Y332466D02*
D03*
X186800Y143766D02*
D03*
Y139966D02*
D03*
D49*
X197469Y201561D02*
D03*
X41300Y210966D02*
D03*
X26266Y199417D02*
D03*
X177469Y271561D02*
D03*
X187469Y201561D02*
D03*
X16028Y199466D02*
D03*
X6266Y199417D02*
D03*
X223154Y322824D02*
D03*
D50*
X197469Y211561D02*
D03*
Y221561D02*
D03*
Y231561D02*
D03*
Y241561D02*
D03*
Y251561D02*
D03*
Y261561D02*
D03*
Y271561D02*
D03*
X13300Y360966D02*
D03*
X23300D02*
D03*
X33300D02*
D03*
X41300Y220966D02*
D03*
Y230966D02*
D03*
Y240966D02*
D03*
Y250966D02*
D03*
Y260966D02*
D03*
X13300Y350966D02*
D03*
X23300D02*
D03*
X33300D02*
D03*
X80300Y151466D02*
D03*
X90300Y141466D02*
D03*
Y151466D02*
D03*
X100300Y141466D02*
D03*
Y151466D02*
D03*
X110300Y141466D02*
D03*
Y151466D02*
D03*
X120300Y141466D02*
D03*
Y151466D02*
D03*
X130300Y141466D02*
D03*
Y151466D02*
D03*
X140300Y141466D02*
D03*
Y151466D02*
D03*
X150300Y141466D02*
D03*
Y151466D02*
D03*
X26266Y269417D02*
D03*
Y259417D02*
D03*
Y249417D02*
D03*
Y239417D02*
D03*
Y229417D02*
D03*
Y219417D02*
D03*
Y209417D02*
D03*
X177469Y261561D02*
D03*
Y251561D02*
D03*
Y241561D02*
D03*
Y231561D02*
D03*
Y221561D02*
D03*
Y211561D02*
D03*
Y201561D02*
D03*
X187469Y211561D02*
D03*
Y221561D02*
D03*
Y231561D02*
D03*
Y241561D02*
D03*
Y251561D02*
D03*
Y261561D02*
D03*
Y271561D02*
D03*
X16028Y209466D02*
D03*
Y219466D02*
D03*
Y229466D02*
D03*
Y239466D02*
D03*
Y249466D02*
D03*
Y259466D02*
D03*
Y269466D02*
D03*
X105800Y125966D02*
D03*
X95800D02*
D03*
X115800D02*
D03*
X125800D02*
D03*
X135800D02*
D03*
X145800D02*
D03*
X6266Y209417D02*
D03*
Y219417D02*
D03*
Y229417D02*
D03*
Y239417D02*
D03*
Y249417D02*
D03*
Y259417D02*
D03*
Y269417D02*
D03*
X223154Y352824D02*
D03*
Y342824D02*
D03*
Y332824D02*
D03*
D51*
X43300Y360966D02*
D03*
Y350966D02*
D03*
X80300Y141466D02*
D03*
X85800Y125966D02*
D03*
D52*
X125143Y321281D02*
D03*
X105457D02*
D03*
D53*
X136954Y360651D02*
D03*
X93646D02*
D03*
D54*
X200615Y373927D02*
D03*
X201009Y29045D02*
D03*
X28961D02*
D03*
X28961Y373927D02*
D03*
D55*
X199824Y134055D02*
D03*
X144882Y316142D02*
D03*
X139370Y341535D02*
D03*
X142421Y352953D02*
D03*
X154733Y358233D02*
D03*
X166300Y358858D02*
D03*
X183563Y357776D02*
D03*
X201673Y357283D02*
D03*
X156622Y168602D02*
D03*
X159843Y163287D02*
D03*
X151800Y193966D02*
D03*
X149705Y246555D02*
D03*
X144095Y250966D02*
D03*
X93307Y248228D02*
D03*
X51083Y221063D02*
D03*
X57185Y230020D02*
D03*
X190354Y283465D02*
D03*
X191535Y294193D02*
D03*
X179429Y300787D02*
D03*
X151476Y319094D02*
D03*
X138287Y310925D02*
D03*
X144783Y325787D02*
D03*
X139075Y319488D02*
D03*
X135335Y329134D02*
D03*
X88090Y368012D02*
D03*
X69390Y366831D02*
D03*
X79232Y318996D02*
D03*
X65203Y320669D02*
D03*
X86319Y334941D02*
D03*
X95177Y314075D02*
D03*
X84646Y321366D02*
D03*
X92618Y320177D02*
D03*
X84449Y314567D02*
D03*
X55807Y304724D02*
D03*
X54429Y298130D02*
D03*
X26575Y289665D02*
D03*
X17815Y289961D02*
D03*
X6299Y289665D02*
D03*
X4724Y299288D02*
D03*
Y340354D02*
D03*
X7972Y374311D02*
D03*
X8760Y380906D02*
D03*
X18012Y389370D02*
D03*
X33563Y391929D02*
D03*
X52559Y376083D02*
D03*
X182087Y380610D02*
D03*
X220472Y371063D02*
D03*
X217717Y379626D02*
D03*
X206988Y390158D02*
D03*
X189370Y392126D02*
D03*
X182677Y370571D02*
D03*
X201969Y329232D02*
D03*
X183169Y333760D02*
D03*
X185138Y314173D02*
D03*
X181398Y346752D02*
D03*
X191142Y343025D02*
D03*
X203642Y341535D02*
D03*
X194193Y336516D02*
D03*
X189370Y325787D02*
D03*
X196161Y319685D02*
D03*
X199213Y307480D02*
D03*
X196161Y300197D02*
D03*
X187598Y306496D02*
D03*
X182087Y293406D02*
D03*
X148327Y276673D02*
D03*
X154035Y281890D02*
D03*
X171063Y283169D02*
D03*
X223721Y254626D02*
D03*
X223228Y244291D02*
D03*
X224508Y218012D02*
D03*
X223721Y205966D02*
D03*
X225000Y178937D02*
D03*
X117028Y221763D02*
D03*
X83661Y229528D02*
D03*
X127264Y226279D02*
D03*
X181398Y191240D02*
D03*
X195177D02*
D03*
X224213Y167866D02*
D03*
X208661Y160630D02*
D03*
X225394Y126575D02*
D03*
X171653Y140847D02*
D03*
X173524Y128839D02*
D03*
X162755Y132776D02*
D03*
X160274Y124705D02*
D03*
X61455Y131595D02*
D03*
X6004Y174311D02*
D03*
X5807Y152165D02*
D03*
X52121Y126378D02*
D03*
X15157Y128347D02*
D03*
X35728Y147047D02*
D03*
X38189Y138287D02*
D03*
X36909Y125886D02*
D03*
X74729Y352372D02*
D03*
X86737Y352076D02*
D03*
X208784Y351781D02*
D03*
X90800Y188466D02*
D03*
X85800Y194661D02*
D03*
X106800Y190966D02*
D03*
X112517Y199159D02*
D03*
X113300Y211561D02*
D03*
X119300Y201561D02*
D03*
Y211561D02*
D03*
X131800Y201203D02*
D03*
X135800Y192466D02*
D03*
X125800Y200966D02*
D03*
X107301Y211561D02*
D03*
X101246Y211466D02*
D03*
X119800Y189966D02*
D03*
X124300Y117466D02*
D03*
X157000Y152766D02*
D03*
X98900Y164566D02*
D03*
X133000Y172566D02*
D03*
X153900Y205866D02*
D03*
X74800Y171761D02*
D03*
X149800Y159966D02*
D03*
X144409Y163966D02*
D03*
X81800Y199466D02*
D03*
X94300Y193966D02*
D03*
X106300Y159966D02*
D03*
X68372Y125738D02*
D03*
X173300Y180966D02*
D03*
X118800Y242966D02*
D03*
X138300Y240966D02*
D03*
X131300Y238466D02*
D03*
X121800Y249466D02*
D03*
X108034Y254466D02*
D03*
X106300Y241466D02*
D03*
X96100Y234261D02*
D03*
X104243Y234966D02*
D03*
X103300Y250966D02*
D03*
X168800Y323966D02*
D03*
X218800Y219966D02*
D03*
X206655Y185466D02*
D03*
X61300Y152966D02*
D03*
X36800Y174466D02*
D03*
X41509Y187913D02*
D03*
X8300Y186749D02*
D03*
X22300Y283466D02*
D03*
X63300Y211244D02*
D03*
X44800Y273466D02*
D03*
X160800D02*
D03*
X78909Y264966D02*
D03*
X58800Y274966D02*
D03*
X51300Y259966D02*
D03*
X56300Y289466D02*
D03*
X85040Y291966D02*
D03*
X88405Y297966D02*
D03*
X95300Y299288D02*
D03*
X102300D02*
D03*
X119800Y291966D02*
D03*
X118800Y299288D02*
D03*
X48300Y329466D02*
D03*
X143300Y336966D02*
D03*
X84279Y210566D02*
D03*
X144800Y192466D02*
D03*
Y199966D02*
D03*
X140800Y205966D02*
D03*
X134972Y207543D02*
D03*
X170300Y174966D02*
D03*
X84300Y253946D02*
D03*
X114548Y279591D02*
D03*
X177800Y150466D02*
D03*
X184800Y148966D02*
D03*
X90800Y286966D02*
D03*
X177290Y164966D02*
D03*
X47500Y314966D02*
D03*
X8800Y324466D02*
D03*
X172800Y331861D02*
D03*
X60300Y329147D02*
D03*
X119800Y284466D02*
D03*
X161009Y346466D02*
D03*
X68800Y340466D02*
D03*
X115800Y320466D02*
D03*
D76*
X43800Y178966D02*
D03*
X26083D02*
D03*
D77*
X50800Y161966D02*
D03*
X26300D02*
D03*
Y137466D02*
D03*
X50800D02*
D03*
D78*
X183800Y177194D02*
D03*
X188800D02*
D03*
X193800D02*
D03*
X198800D02*
D03*
X183800Y155738D02*
D03*
X188800D02*
D03*
X193800D02*
D03*
X198800D02*
D03*
D79*
X92300Y331966D02*
D03*
Y339166D02*
D03*
D80*
X65300Y168466D02*
D03*
X61560Y177718D02*
D03*
D81*
X69040D02*
D03*
D82*
X114800Y368002D02*
D03*
D83*
X105745Y344931D02*
D03*
X114800D02*
D03*
X123855D02*
D03*
M02*
