G04*
G04 #@! TF.GenerationSoftware,Altium Limited,Altium Designer,19.0.12 (326)*
G04*
G04 Layer_Color=2752767*
%FSLAX25Y25*%
%MOIN*%
G70*
G01*
G75*
%ADD84C,0.00200*%
%ADD85C,0.00267*%
D84*
X196669Y200761D02*
Y202361D01*
X198269D01*
Y200761D01*
X196669D01*
Y210761D02*
Y212361D01*
X198269D01*
Y210761D01*
X196669D01*
Y220761D02*
Y222361D01*
X198269D01*
Y220761D01*
X196669D01*
Y230761D02*
Y232361D01*
X198269D01*
Y230761D01*
X196669D01*
Y240761D02*
Y242361D01*
X198269D01*
Y240761D01*
X196669D01*
Y250761D02*
Y252361D01*
X198269D01*
Y250761D01*
X196669D01*
Y260761D02*
Y262361D01*
X198269D01*
Y260761D01*
X196669D01*
Y270761D02*
Y272361D01*
X198269D01*
Y270761D01*
X196669D01*
X12500Y360166D02*
Y361766D01*
X14100D01*
Y360166D01*
X12500D01*
X22500D02*
Y361766D01*
X24100D01*
Y360166D01*
X22500D01*
X32500D02*
Y361766D01*
X34100D01*
Y360166D01*
X32500D01*
X42500D02*
Y361766D01*
X44100D01*
Y360166D01*
X42500D01*
X40500Y210166D02*
Y211766D01*
X42100D01*
Y210166D01*
X40500D01*
Y220166D02*
Y221766D01*
X42100D01*
Y220166D01*
X40500D01*
Y230166D02*
Y231766D01*
X42100D01*
Y230166D01*
X40500D01*
Y240166D02*
Y241766D01*
X42100D01*
Y240166D01*
X40500D01*
Y250166D02*
Y251766D01*
X42100D01*
Y250166D01*
X40500D01*
Y260166D02*
Y261766D01*
X42100D01*
Y260166D01*
X40500D01*
X12500Y350166D02*
Y351766D01*
X14100D01*
Y350166D01*
X12500D01*
X22500D02*
Y351766D01*
X24100D01*
Y350166D01*
X22500D01*
X32500D02*
Y351766D01*
X34100D01*
Y350166D01*
X32500D01*
X42500D02*
Y351766D01*
X44100D01*
Y350166D01*
X42500D01*
X79500Y140666D02*
Y142266D01*
X81100D01*
Y140666D01*
X79500D01*
Y150666D02*
Y152266D01*
X81100D01*
Y150666D01*
X79500D01*
X89500Y140666D02*
Y142266D01*
X91100D01*
Y140666D01*
X89500D01*
Y150666D02*
Y152266D01*
X91100D01*
Y150666D01*
X89500D01*
X99500Y140666D02*
Y142266D01*
X101100D01*
Y140666D01*
X99500D01*
Y150666D02*
Y152266D01*
X101100D01*
Y150666D01*
X99500D01*
X109500Y140666D02*
Y142266D01*
X111100D01*
Y140666D01*
X109500D01*
Y150666D02*
Y152266D01*
X111100D01*
Y150666D01*
X109500D01*
X119500Y140666D02*
Y142266D01*
X121100D01*
Y140666D01*
X119500D01*
Y150666D02*
Y152266D01*
X121100D01*
Y150666D01*
X119500D01*
X129500Y140666D02*
Y142266D01*
X131100D01*
Y140666D01*
X129500D01*
Y150666D02*
Y152266D01*
X131100D01*
Y150666D01*
X129500D01*
X139500Y140666D02*
Y142266D01*
X141100D01*
Y140666D01*
X139500D01*
Y150666D02*
Y152266D01*
X141100D01*
Y150666D01*
X139500D01*
X149500Y140666D02*
Y142266D01*
X151100D01*
Y140666D01*
X149500D01*
Y150666D02*
Y152266D01*
X151100D01*
Y150666D01*
X149500D01*
X25466Y268617D02*
Y270217D01*
X27066D01*
Y268617D01*
X25466D01*
Y258617D02*
Y260217D01*
X27066D01*
Y258617D01*
X25466D01*
Y248617D02*
Y250217D01*
X27066D01*
Y248617D01*
X25466D01*
Y238617D02*
Y240217D01*
X27066D01*
Y238617D01*
X25466D01*
Y228617D02*
Y230217D01*
X27066D01*
Y228617D01*
X25466D01*
Y218617D02*
Y220217D01*
X27066D01*
Y218617D01*
X25466D01*
Y208617D02*
Y210217D01*
X27066D01*
Y208617D01*
X25466D01*
Y198617D02*
Y200217D01*
X27066D01*
Y198617D01*
X25466D01*
X176669Y270761D02*
Y272361D01*
X178269D01*
Y270761D01*
X176669D01*
Y260761D02*
Y262361D01*
X178269D01*
Y260761D01*
X176669D01*
Y250761D02*
Y252361D01*
X178269D01*
Y250761D01*
X176669D01*
Y240761D02*
Y242361D01*
X178269D01*
Y240761D01*
X176669D01*
Y230761D02*
Y232361D01*
X178269D01*
Y230761D01*
X176669D01*
Y220761D02*
Y222361D01*
X178269D01*
Y220761D01*
X176669D01*
Y210761D02*
Y212361D01*
X178269D01*
Y210761D01*
X176669D01*
Y200761D02*
Y202361D01*
X178269D01*
Y200761D01*
X176669D01*
X186669D02*
Y202361D01*
X188269D01*
Y200761D01*
X186669D01*
Y210761D02*
Y212361D01*
X188269D01*
Y210761D01*
X186669D01*
Y220761D02*
Y222361D01*
X188269D01*
Y220761D01*
X186669D01*
Y230761D02*
Y232361D01*
X188269D01*
Y230761D01*
X186669D01*
Y240761D02*
Y242361D01*
X188269D01*
Y240761D01*
X186669D01*
Y250761D02*
Y252361D01*
X188269D01*
Y250761D01*
X186669D01*
Y260761D02*
Y262361D01*
X188269D01*
Y260761D01*
X186669D01*
Y270761D02*
Y272361D01*
X188269D01*
Y270761D01*
X186669D01*
X15228Y198666D02*
Y200266D01*
X16828D01*
Y198666D01*
X15228D01*
Y208666D02*
Y210266D01*
X16828D01*
Y208666D01*
X15228D01*
Y218666D02*
Y220266D01*
X16828D01*
Y218666D01*
X15228D01*
Y228666D02*
Y230266D01*
X16828D01*
Y228666D01*
X15228D01*
Y238666D02*
Y240266D01*
X16828D01*
Y238666D01*
X15228D01*
Y248666D02*
Y250266D01*
X16828D01*
Y248666D01*
X15228D01*
Y258666D02*
Y260266D01*
X16828D01*
Y258666D01*
X15228D01*
Y268666D02*
Y270266D01*
X16828D01*
Y268666D01*
X15228D01*
X105000Y125166D02*
Y126766D01*
X106600D01*
Y125166D01*
X105000D01*
X85000D02*
Y126766D01*
X86600D01*
Y125166D01*
X85000D01*
X95000D02*
Y126766D01*
X96600D01*
Y125166D01*
X95000D01*
X115000D02*
Y126766D01*
X116600D01*
Y125166D01*
X115000D01*
X125000D02*
Y126766D01*
X126600D01*
Y125166D01*
X125000D01*
X135000D02*
Y126766D01*
X136600D01*
Y125166D01*
X135000D01*
X145000D02*
Y126766D01*
X146600D01*
Y125166D01*
X145000D01*
X136954Y359851D02*
X136154Y361451D01*
X137754D01*
X136954Y359851D01*
X93646D02*
X92846Y361451D01*
X94446D01*
X93646Y359851D01*
X5466Y198617D02*
Y200217D01*
X7066D01*
Y198617D01*
X5466D01*
Y208617D02*
Y210217D01*
X7066D01*
Y208617D01*
X5466D01*
Y218617D02*
Y220217D01*
X7066D01*
Y218617D01*
X5466D01*
Y228617D02*
Y230217D01*
X7066D01*
Y228617D01*
X5466D01*
Y238617D02*
Y240217D01*
X7066D01*
Y238617D01*
X5466D01*
Y248617D02*
Y250217D01*
X7066D01*
Y248617D01*
X5466D01*
Y258617D02*
Y260217D01*
X7066D01*
Y258617D01*
X5466D01*
Y268617D02*
Y270217D01*
X7066D01*
Y268617D01*
X5466D01*
X222354Y352024D02*
Y353624D01*
X223954D01*
Y352024D01*
X222354D01*
Y342024D02*
Y343624D01*
X223954D01*
Y342024D01*
X222354D01*
Y332024D02*
Y333624D01*
X223954D01*
Y332024D01*
X222354D01*
Y322024D02*
Y323624D01*
X223954D01*
Y322024D01*
X222354D01*
X200615Y373127D02*
X201015Y373527D01*
X201415D01*
X201015Y373927D01*
X201415Y374327D01*
X201015D01*
X200615Y374727D01*
X200215Y374327D01*
X199815D01*
X200215Y373927D01*
X199815Y373527D01*
X200215D01*
X200615Y373127D01*
X201009Y28245D02*
X201409Y28645D01*
X201809D01*
X201409Y29045D01*
X201809Y29445D01*
X201409D01*
X201009Y29845D01*
X200609Y29445D01*
X200209D01*
X200609Y29045D01*
X200209Y28645D01*
X200609D01*
X201009Y28245D01*
X28961D02*
X29361Y28645D01*
X29761D01*
X29361Y29045D01*
X29761Y29445D01*
X29361D01*
X28961Y29845D01*
X28561Y29445D01*
X28161D01*
X28561Y29045D01*
X28161Y28645D01*
X28561D01*
X28961Y28245D01*
X28961Y373127D02*
X29361Y373527D01*
X29761D01*
X29361Y373927D01*
X29761Y374327D01*
X29361D01*
X28961Y374727D01*
X28561Y374327D01*
X28161D01*
X28561Y373927D01*
X28161Y373527D01*
X28561D01*
X28961Y373127D01*
X199024Y133255D02*
X199424Y134055D01*
X199024Y134855D01*
X199824Y134455D01*
X200624Y134855D01*
X200224Y134055D01*
X200624Y133255D01*
X199824Y133655D01*
X199024Y133255D01*
X144082Y315342D02*
X144482Y316142D01*
X144082Y316942D01*
X144882Y316542D01*
X145682Y316942D01*
X145282Y316142D01*
X145682Y315342D01*
X144882Y315742D01*
X144082Y315342D01*
X138570Y340735D02*
X138970Y341535D01*
X138570Y342335D01*
X139370Y341935D01*
X140170Y342335D01*
X139770Y341535D01*
X140170Y340735D01*
X139370Y341135D01*
X138570Y340735D01*
X141621Y352153D02*
X142021Y352953D01*
X141621Y353753D01*
X142421Y353353D01*
X143221Y353753D01*
X142821Y352953D01*
X143221Y352153D01*
X142421Y352553D01*
X141621Y352153D01*
X153933Y357433D02*
X154333Y358233D01*
X153933Y359033D01*
X154733Y358633D01*
X155533Y359033D01*
X155133Y358233D01*
X155533Y357433D01*
X154733Y357833D01*
X153933Y357433D01*
X165500Y358058D02*
X165900Y358858D01*
X165500Y359658D01*
X166300Y359258D01*
X167100Y359658D01*
X166700Y358858D01*
X167100Y358058D01*
X166300Y358458D01*
X165500Y358058D01*
X182763Y356976D02*
X183163Y357776D01*
X182763Y358576D01*
X183563Y358176D01*
X184363Y358576D01*
X183963Y357776D01*
X184363Y356976D01*
X183563Y357376D01*
X182763Y356976D01*
X200873Y356484D02*
X201273Y357283D01*
X200873Y358084D01*
X201673Y357683D01*
X202473Y358084D01*
X202073Y357283D01*
X202473Y356484D01*
X201673Y356884D01*
X200873Y356484D01*
X155822Y167802D02*
X156222Y168602D01*
X155822Y169402D01*
X156622Y169002D01*
X157422Y169402D01*
X157022Y168602D01*
X157422Y167802D01*
X156622Y168202D01*
X155822Y167802D01*
X159043Y162487D02*
X159442Y163287D01*
X159043Y164087D01*
X159843Y163687D01*
X160643Y164087D01*
X160242Y163287D01*
X160643Y162487D01*
X159843Y162887D01*
X159043Y162487D01*
X151000Y193166D02*
X151400Y193966D01*
X151000Y194766D01*
X151800Y194366D01*
X152600Y194766D01*
X152200Y193966D01*
X152600Y193166D01*
X151800Y193566D01*
X151000Y193166D01*
X148905Y245755D02*
X149305Y246555D01*
X148905Y247355D01*
X149705Y246955D01*
X150505Y247355D01*
X150105Y246555D01*
X150505Y245755D01*
X149705Y246155D01*
X148905Y245755D01*
X143295Y250166D02*
X143694Y250966D01*
X143295Y251766D01*
X144095Y251366D01*
X144895Y251766D01*
X144494Y250966D01*
X144895Y250166D01*
X144095Y250566D01*
X143295Y250166D01*
X92507Y247428D02*
X92907Y248228D01*
X92507Y249028D01*
X93307Y248628D01*
X94107Y249028D01*
X93707Y248228D01*
X94107Y247428D01*
X93307Y247828D01*
X92507Y247428D01*
X50283Y220263D02*
X50683Y221063D01*
X50283Y221863D01*
X51083Y221463D01*
X51883Y221863D01*
X51483Y221063D01*
X51883Y220263D01*
X51083Y220663D01*
X50283Y220263D01*
X56385Y229220D02*
X56785Y230020D01*
X56385Y230820D01*
X57185Y230420D01*
X57985Y230820D01*
X57585Y230020D01*
X57985Y229220D01*
X57185Y229620D01*
X56385Y229220D01*
X189554Y282665D02*
X189954Y283465D01*
X189554Y284265D01*
X190354Y283865D01*
X191154Y284265D01*
X190754Y283465D01*
X191154Y282665D01*
X190354Y283065D01*
X189554Y282665D01*
X190735Y293393D02*
X191135Y294193D01*
X190735Y294993D01*
X191535Y294593D01*
X192335Y294993D01*
X191935Y294193D01*
X192335Y293393D01*
X191535Y293793D01*
X190735Y293393D01*
X178629Y299987D02*
X179029Y300787D01*
X178629Y301587D01*
X179429Y301187D01*
X180229Y301587D01*
X179829Y300787D01*
X180229Y299987D01*
X179429Y300387D01*
X178629Y299987D01*
X150676Y318295D02*
X151076Y319094D01*
X150676Y319895D01*
X151476Y319495D01*
X152276Y319895D01*
X151876Y319094D01*
X152276Y318295D01*
X151476Y318694D01*
X150676Y318295D01*
X137487Y310125D02*
X137887Y310925D01*
X137487Y311725D01*
X138287Y311325D01*
X139087Y311725D01*
X138687Y310925D01*
X139087Y310125D01*
X138287Y310525D01*
X137487Y310125D01*
X143983Y324987D02*
X144384Y325787D01*
X143983Y326587D01*
X144783Y326187D01*
X145583Y326587D01*
X145184Y325787D01*
X145583Y324987D01*
X144783Y325387D01*
X143983Y324987D01*
X138275Y318688D02*
X138675Y319488D01*
X138275Y320288D01*
X139075Y319888D01*
X139875Y320288D01*
X139475Y319488D01*
X139875Y318688D01*
X139075Y319088D01*
X138275Y318688D01*
X134535Y328334D02*
X134935Y329134D01*
X134535Y329934D01*
X135335Y329534D01*
X136135Y329934D01*
X135735Y329134D01*
X136135Y328334D01*
X135335Y328734D01*
X134535Y328334D01*
X87291Y367212D02*
X87691Y368012D01*
X87291Y368812D01*
X88090Y368412D01*
X88890Y368812D01*
X88490Y368012D01*
X88890Y367212D01*
X88090Y367612D01*
X87291Y367212D01*
X68590Y366031D02*
X68990Y366831D01*
X68590Y367631D01*
X69390Y367231D01*
X70190Y367631D01*
X69790Y366831D01*
X70190Y366031D01*
X69390Y366431D01*
X68590Y366031D01*
X78432Y318196D02*
X78832Y318996D01*
X78432Y319796D01*
X79232Y319396D01*
X80032Y319796D01*
X79632Y318996D01*
X80032Y318196D01*
X79232Y318596D01*
X78432Y318196D01*
X64403Y319869D02*
X64803Y320669D01*
X64403Y321469D01*
X65203Y321069D01*
X66003Y321469D01*
X65603Y320669D01*
X66003Y319869D01*
X65203Y320269D01*
X64403Y319869D01*
X85519Y334141D02*
X85919Y334941D01*
X85519Y335741D01*
X86319Y335341D01*
X87119Y335741D01*
X86719Y334941D01*
X87119Y334141D01*
X86319Y334541D01*
X85519Y334141D01*
X94377Y313275D02*
X94777Y314075D01*
X94377Y314875D01*
X95177Y314475D01*
X95977Y314875D01*
X95577Y314075D01*
X95977Y313275D01*
X95177Y313675D01*
X94377Y313275D01*
X83846Y320566D02*
X84246Y321366D01*
X83846Y322166D01*
X84646Y321766D01*
X85446Y322166D01*
X85046Y321366D01*
X85446Y320566D01*
X84646Y320966D01*
X83846Y320566D01*
X91818Y319377D02*
X92218Y320177D01*
X91818Y320977D01*
X92618Y320577D01*
X93418Y320977D01*
X93018Y320177D01*
X93418Y319377D01*
X92618Y319777D01*
X91818Y319377D01*
X83649Y313767D02*
X84049Y314567D01*
X83649Y315367D01*
X84449Y314967D01*
X85249Y315367D01*
X84849Y314567D01*
X85249Y313767D01*
X84449Y314167D01*
X83649Y313767D01*
X55007Y303924D02*
X55407Y304724D01*
X55007Y305524D01*
X55807Y305124D01*
X56607Y305524D01*
X56207Y304724D01*
X56607Y303924D01*
X55807Y304324D01*
X55007Y303924D01*
X53629Y297330D02*
X54029Y298130D01*
X53629Y298930D01*
X54429Y298530D01*
X55229Y298930D01*
X54829Y298130D01*
X55229Y297330D01*
X54429Y297730D01*
X53629Y297330D01*
X25775Y288865D02*
X26175Y289665D01*
X25775Y290465D01*
X26575Y290065D01*
X27375Y290465D01*
X26975Y289665D01*
X27375Y288865D01*
X26575Y289265D01*
X25775Y288865D01*
X17015Y289161D02*
X17415Y289961D01*
X17015Y290761D01*
X17815Y290361D01*
X18615Y290761D01*
X18215Y289961D01*
X18615Y289161D01*
X17815Y289561D01*
X17015Y289161D01*
X5499Y288865D02*
X5899Y289665D01*
X5499Y290465D01*
X6299Y290065D01*
X7099Y290465D01*
X6699Y289665D01*
X7099Y288865D01*
X6299Y289265D01*
X5499Y288865D01*
X3924Y298487D02*
X4324Y299288D01*
X3924Y300087D01*
X4724Y299688D01*
X5524Y300087D01*
X5124Y299288D01*
X5524Y298487D01*
X4724Y298887D01*
X3924Y298487D01*
Y339554D02*
X4324Y340354D01*
X3924Y341154D01*
X4724Y340754D01*
X5524Y341154D01*
X5124Y340354D01*
X5524Y339554D01*
X4724Y339954D01*
X3924Y339554D01*
X7172Y373511D02*
X7572Y374311D01*
X7172Y375111D01*
X7972Y374711D01*
X8772Y375111D01*
X8372Y374311D01*
X8772Y373511D01*
X7972Y373911D01*
X7172Y373511D01*
X7960Y380105D02*
X8360Y380906D01*
X7960Y381705D01*
X8760Y381306D01*
X9560Y381705D01*
X9160Y380906D01*
X9560Y380105D01*
X8760Y380505D01*
X7960Y380105D01*
X17212Y388570D02*
X17612Y389370D01*
X17212Y390170D01*
X18012Y389770D01*
X18812Y390170D01*
X18412Y389370D01*
X18812Y388570D01*
X18012Y388970D01*
X17212Y388570D01*
X32763Y391129D02*
X33163Y391929D01*
X32763Y392729D01*
X33563Y392329D01*
X34363Y392729D01*
X33963Y391929D01*
X34363Y391129D01*
X33563Y391529D01*
X32763Y391129D01*
X51759Y375283D02*
X52159Y376083D01*
X51759Y376883D01*
X52559Y376483D01*
X53359Y376883D01*
X52959Y376083D01*
X53359Y375283D01*
X52559Y375683D01*
X51759Y375283D01*
X181287Y379810D02*
X181687Y380610D01*
X181287Y381410D01*
X182087Y381010D01*
X182887Y381410D01*
X182487Y380610D01*
X182887Y379810D01*
X182087Y380210D01*
X181287Y379810D01*
X219672Y370263D02*
X220072Y371063D01*
X219672Y371863D01*
X220472Y371463D01*
X221272Y371863D01*
X220872Y371063D01*
X221272Y370263D01*
X220472Y370663D01*
X219672Y370263D01*
X216916Y378826D02*
X217317Y379626D01*
X216916Y380426D01*
X217717Y380026D01*
X218516Y380426D01*
X218116Y379626D01*
X218516Y378826D01*
X217717Y379226D01*
X216916Y378826D01*
X206188Y389357D02*
X206588Y390158D01*
X206188Y390957D01*
X206988Y390558D01*
X207788Y390957D01*
X207388Y390158D01*
X207788Y389357D01*
X206988Y389757D01*
X206188Y389357D01*
X188570Y391326D02*
X188970Y392126D01*
X188570Y392926D01*
X189370Y392526D01*
X190170Y392926D01*
X189770Y392126D01*
X190170Y391326D01*
X189370Y391726D01*
X188570Y391326D01*
X181877Y369771D02*
X182277Y370571D01*
X181877Y371371D01*
X182677Y370971D01*
X183477Y371371D01*
X183077Y370571D01*
X183477Y369771D01*
X182677Y370171D01*
X181877Y369771D01*
X201168Y328432D02*
X201569Y329232D01*
X201168Y330032D01*
X201969Y329632D01*
X202768Y330032D01*
X202368Y329232D01*
X202768Y328432D01*
X201969Y328832D01*
X201168Y328432D01*
X182369Y332960D02*
X182769Y333760D01*
X182369Y334560D01*
X183169Y334160D01*
X183969Y334560D01*
X183569Y333760D01*
X183969Y332960D01*
X183169Y333360D01*
X182369Y332960D01*
X184338Y313373D02*
X184738Y314173D01*
X184338Y314973D01*
X185138Y314573D01*
X185938Y314973D01*
X185538Y314173D01*
X185938Y313373D01*
X185138Y313773D01*
X184338Y313373D01*
X180598Y345952D02*
X180998Y346752D01*
X180598Y347552D01*
X181398Y347152D01*
X182198Y347552D01*
X181798Y346752D01*
X182198Y345952D01*
X181398Y346352D01*
X180598Y345952D01*
X190342Y342225D02*
X190742Y343025D01*
X190342Y343825D01*
X191142Y343425D01*
X191942Y343825D01*
X191542Y343025D01*
X191942Y342225D01*
X191142Y342625D01*
X190342Y342225D01*
X202842Y340735D02*
X203242Y341535D01*
X202842Y342335D01*
X203642Y341935D01*
X204442Y342335D01*
X204042Y341535D01*
X204442Y340735D01*
X203642Y341135D01*
X202842Y340735D01*
X193393Y335716D02*
X193793Y336516D01*
X193393Y337316D01*
X194193Y336916D01*
X194993Y337316D01*
X194593Y336516D01*
X194993Y335716D01*
X194193Y336116D01*
X193393Y335716D01*
X188570Y324987D02*
X188970Y325787D01*
X188570Y326587D01*
X189370Y326187D01*
X190170Y326587D01*
X189770Y325787D01*
X190170Y324987D01*
X189370Y325387D01*
X188570Y324987D01*
X195361Y318885D02*
X195761Y319685D01*
X195361Y320485D01*
X196161Y320085D01*
X196961Y320485D01*
X196561Y319685D01*
X196961Y318885D01*
X196161Y319285D01*
X195361Y318885D01*
X198413Y306680D02*
X198813Y307480D01*
X198413Y308280D01*
X199213Y307880D01*
X200013Y308280D01*
X199613Y307480D01*
X200013Y306680D01*
X199213Y307080D01*
X198413Y306680D01*
X195361Y299397D02*
X195761Y300197D01*
X195361Y300997D01*
X196161Y300597D01*
X196961Y300997D01*
X196561Y300197D01*
X196961Y299397D01*
X196161Y299797D01*
X195361Y299397D01*
X186798Y305696D02*
X187198Y306496D01*
X186798Y307296D01*
X187598Y306896D01*
X188398Y307296D01*
X187998Y306496D01*
X188398Y305696D01*
X187598Y306096D01*
X186798Y305696D01*
X181287Y292605D02*
X181687Y293406D01*
X181287Y294205D01*
X182087Y293806D01*
X182887Y294205D01*
X182487Y293406D01*
X182887Y292605D01*
X182087Y293005D01*
X181287Y292605D01*
X147527Y275873D02*
X147927Y276673D01*
X147527Y277473D01*
X148327Y277073D01*
X149127Y277473D01*
X148727Y276673D01*
X149127Y275873D01*
X148327Y276273D01*
X147527Y275873D01*
X153235Y281090D02*
X153635Y281890D01*
X153235Y282690D01*
X154035Y282290D01*
X154835Y282690D01*
X154435Y281890D01*
X154835Y281090D01*
X154035Y281490D01*
X153235Y281090D01*
X170263Y282369D02*
X170663Y283169D01*
X170263Y283969D01*
X171063Y283569D01*
X171863Y283969D01*
X171463Y283169D01*
X171863Y282369D01*
X171063Y282769D01*
X170263Y282369D01*
X222920Y253826D02*
X223321Y254626D01*
X222920Y255426D01*
X223721Y255026D01*
X224520Y255426D01*
X224120Y254626D01*
X224520Y253826D01*
X223721Y254226D01*
X222920Y253826D01*
X222428Y243491D02*
X222828Y244291D01*
X222428Y245091D01*
X223228Y244691D01*
X224028Y245091D01*
X223628Y244291D01*
X224028Y243491D01*
X223228Y243891D01*
X222428Y243491D01*
X223708Y217212D02*
X224108Y218012D01*
X223708Y218812D01*
X224508Y218412D01*
X225308Y218812D01*
X224908Y218012D01*
X225308Y217212D01*
X224508Y217612D01*
X223708Y217212D01*
X222920Y205166D02*
X223321Y205966D01*
X222920Y206766D01*
X223721Y206366D01*
X224520Y206766D01*
X224120Y205966D01*
X224520Y205166D01*
X223721Y205566D01*
X222920Y205166D01*
X224200Y178137D02*
X224600Y178937D01*
X224200Y179737D01*
X225000Y179337D01*
X225800Y179737D01*
X225400Y178937D01*
X225800Y178137D01*
X225000Y178537D01*
X224200Y178137D01*
X116228Y220963D02*
X116628Y221763D01*
X116228Y222563D01*
X117028Y222163D01*
X117828Y222563D01*
X117428Y221763D01*
X117828Y220963D01*
X117028Y221363D01*
X116228Y220963D01*
X82861Y228728D02*
X83261Y229528D01*
X82861Y230328D01*
X83661Y229928D01*
X84461Y230328D01*
X84061Y229528D01*
X84461Y228728D01*
X83661Y229128D01*
X82861Y228728D01*
X126464Y225480D02*
X126864Y226279D01*
X126464Y227080D01*
X127264Y226679D01*
X128064Y227080D01*
X127664Y226279D01*
X128064Y225480D01*
X127264Y225880D01*
X126464Y225480D01*
X180598Y190440D02*
X180998Y191240D01*
X180598Y192040D01*
X181398Y191640D01*
X182198Y192040D01*
X181798Y191240D01*
X182198Y190440D01*
X181398Y190840D01*
X180598Y190440D01*
X194377D02*
X194777Y191240D01*
X194377Y192040D01*
X195177Y191640D01*
X195977Y192040D01*
X195577Y191240D01*
X195977Y190440D01*
X195177Y190840D01*
X194377Y190440D01*
X223413Y167066D02*
X223813Y167866D01*
X223413Y168666D01*
X224213Y168266D01*
X225013Y168666D01*
X224613Y167866D01*
X225013Y167066D01*
X224213Y167466D01*
X223413Y167066D01*
X207861Y159830D02*
X208261Y160630D01*
X207861Y161430D01*
X208661Y161030D01*
X209461Y161430D01*
X209061Y160630D01*
X209461Y159830D01*
X208661Y160230D01*
X207861Y159830D01*
X224594Y125775D02*
X224994Y126575D01*
X224594Y127375D01*
X225394Y126975D01*
X226194Y127375D01*
X225794Y126575D01*
X226194Y125775D01*
X225394Y126175D01*
X224594Y125775D01*
X170853Y140047D02*
X171254Y140847D01*
X170853Y141647D01*
X171653Y141246D01*
X172453Y141647D01*
X172054Y140847D01*
X172453Y140047D01*
X171653Y140446D01*
X170853Y140047D01*
X172724Y128039D02*
X173124Y128839D01*
X172724Y129639D01*
X173524Y129239D01*
X174324Y129639D01*
X173924Y128839D01*
X174324Y128039D01*
X173524Y128439D01*
X172724Y128039D01*
X161955Y131976D02*
X162355Y132776D01*
X161955Y133576D01*
X162755Y133176D01*
X163555Y133576D01*
X163155Y132776D01*
X163555Y131976D01*
X162755Y132376D01*
X161955Y131976D01*
X159474Y123905D02*
X159874Y124705D01*
X159474Y125505D01*
X160274Y125105D01*
X161074Y125505D01*
X160674Y124705D01*
X161074Y123905D01*
X160274Y124305D01*
X159474Y123905D01*
X60655Y130795D02*
X61055Y131595D01*
X60655Y132395D01*
X61455Y131994D01*
X62255Y132395D01*
X61855Y131595D01*
X62255Y130795D01*
X61455Y131194D01*
X60655Y130795D01*
X5204Y173511D02*
X5604Y174311D01*
X5204Y175111D01*
X6004Y174711D01*
X6804Y175111D01*
X6404Y174311D01*
X6804Y173511D01*
X6004Y173911D01*
X5204Y173511D01*
X5007Y151365D02*
X5407Y152165D01*
X5007Y152965D01*
X5807Y152565D01*
X6607Y152965D01*
X6207Y152165D01*
X6607Y151365D01*
X5807Y151765D01*
X5007Y151365D01*
X51321Y125578D02*
X51721Y126378D01*
X51321Y127178D01*
X52121Y126778D01*
X52921Y127178D01*
X52521Y126378D01*
X52921Y125578D01*
X52121Y125978D01*
X51321Y125578D01*
X14357Y127547D02*
X14758Y128347D01*
X14357Y129147D01*
X15157Y128746D01*
X15958Y129147D01*
X15558Y128347D01*
X15958Y127547D01*
X15157Y127946D01*
X14357Y127547D01*
X34928Y146247D02*
X35328Y147047D01*
X34928Y147847D01*
X35728Y147447D01*
X36528Y147847D01*
X36128Y147047D01*
X36528Y146247D01*
X35728Y146647D01*
X34928Y146247D01*
X37389Y137487D02*
X37789Y138287D01*
X37389Y139087D01*
X38189Y138687D01*
X38989Y139087D01*
X38589Y138287D01*
X38989Y137487D01*
X38189Y137887D01*
X37389Y137487D01*
X36109Y125086D02*
X36509Y125886D01*
X36109Y126686D01*
X36909Y126286D01*
X37709Y126686D01*
X37309Y125886D01*
X37709Y125086D01*
X36909Y125486D01*
X36109Y125086D01*
X73929Y351572D02*
X74329Y352372D01*
X73929Y353172D01*
X74729Y352772D01*
X75529Y353172D01*
X75129Y352372D01*
X75529Y351572D01*
X74729Y351972D01*
X73929Y351572D01*
X85937Y351276D02*
X86337Y352076D01*
X85937Y352876D01*
X86737Y352476D01*
X87537Y352876D01*
X87137Y352076D01*
X87537Y351276D01*
X86737Y351676D01*
X85937Y351276D01*
X207984Y350981D02*
X208384Y351781D01*
X207984Y352581D01*
X208784Y352181D01*
X209584Y352581D01*
X209184Y351781D01*
X209584Y350981D01*
X208784Y351381D01*
X207984Y350981D01*
X90000Y187666D02*
X90400Y188466D01*
X90000Y189266D01*
X90800Y188866D01*
X91600Y189266D01*
X91200Y188466D01*
X91600Y187666D01*
X90800Y188066D01*
X90000Y187666D01*
X85000Y193861D02*
X85400Y194661D01*
X85000Y195461D01*
X85800Y195062D01*
X86600Y195461D01*
X86200Y194661D01*
X86600Y193861D01*
X85800Y194262D01*
X85000Y193861D01*
X106000Y190166D02*
X106400Y190966D01*
X106000Y191766D01*
X106800Y191366D01*
X107600Y191766D01*
X107200Y190966D01*
X107600Y190166D01*
X106800Y190566D01*
X106000Y190166D01*
X111717Y198359D02*
X112117Y199159D01*
X111717Y199959D01*
X112517Y199559D01*
X113317Y199959D01*
X112917Y199159D01*
X113317Y198359D01*
X112517Y198759D01*
X111717Y198359D01*
X112500Y210761D02*
X112900Y211561D01*
X112500Y212361D01*
X113300Y211961D01*
X114100Y212361D01*
X113700Y211561D01*
X114100Y210761D01*
X113300Y211161D01*
X112500Y210761D01*
X118500Y200761D02*
X118900Y201561D01*
X118500Y202361D01*
X119300Y201961D01*
X120100Y202361D01*
X119700Y201561D01*
X120100Y200761D01*
X119300Y201161D01*
X118500Y200761D01*
Y210761D02*
X118900Y211561D01*
X118500Y212361D01*
X119300Y211961D01*
X120100Y212361D01*
X119700Y211561D01*
X120100Y210761D01*
X119300Y211161D01*
X118500Y210761D01*
X131000Y200402D02*
X131400Y201203D01*
X131000Y202003D01*
X131800Y201603D01*
X132600Y202003D01*
X132200Y201203D01*
X132600Y200402D01*
X131800Y200802D01*
X131000Y200402D01*
X135000Y191666D02*
X135400Y192466D01*
X135000Y193266D01*
X135800Y192866D01*
X136600Y193266D01*
X136200Y192466D01*
X136600Y191666D01*
X135800Y192066D01*
X135000Y191666D01*
X125000Y200166D02*
X125400Y200966D01*
X125000Y201766D01*
X125800Y201366D01*
X126600Y201766D01*
X126200Y200966D01*
X126600Y200166D01*
X125800Y200566D01*
X125000Y200166D01*
X106501Y210761D02*
X106901Y211561D01*
X106501Y212361D01*
X107301Y211961D01*
X108101Y212361D01*
X107701Y211561D01*
X108101Y210761D01*
X107301Y211161D01*
X106501Y210761D01*
X100446Y210666D02*
X100846Y211466D01*
X100446Y212266D01*
X101246Y211866D01*
X102046Y212266D01*
X101646Y211466D01*
X102046Y210666D01*
X101246Y211066D01*
X100446Y210666D01*
X119000Y189166D02*
X119400Y189966D01*
X119000Y190766D01*
X119800Y190366D01*
X120600Y190766D01*
X120200Y189966D01*
X120600Y189166D01*
X119800Y189566D01*
X119000Y189166D01*
X123500Y116666D02*
X123900Y117466D01*
X123500Y118266D01*
X124300Y117866D01*
X125100Y118266D01*
X124700Y117466D01*
X125100Y116666D01*
X124300Y117066D01*
X123500Y116666D01*
X156200Y151966D02*
X156600Y152766D01*
X156200Y153566D01*
X157000Y153166D01*
X157800Y153566D01*
X157400Y152766D01*
X157800Y151966D01*
X157000Y152366D01*
X156200Y151966D01*
X98100Y163766D02*
X98500Y164566D01*
X98100Y165366D01*
X98900Y164966D01*
X99700Y165366D01*
X99300Y164566D01*
X99700Y163766D01*
X98900Y164166D01*
X98100Y163766D01*
X132200Y171766D02*
X132600Y172566D01*
X132200Y173366D01*
X133000Y172966D01*
X133800Y173366D01*
X133400Y172566D01*
X133800Y171766D01*
X133000Y172166D01*
X132200Y171766D01*
X153100Y205066D02*
X153500Y205866D01*
X153100Y206666D01*
X153900Y206266D01*
X154700Y206666D01*
X154300Y205866D01*
X154700Y205066D01*
X153900Y205466D01*
X153100Y205066D01*
X74000Y170961D02*
X74400Y171761D01*
X74000Y172561D01*
X74800Y172161D01*
X75600Y172561D01*
X75200Y171761D01*
X75600Y170961D01*
X74800Y171361D01*
X74000Y170961D01*
X149000Y159166D02*
X149400Y159966D01*
X149000Y160766D01*
X149800Y160366D01*
X150600Y160766D01*
X150200Y159966D01*
X150600Y159166D01*
X149800Y159566D01*
X149000Y159166D01*
X143609Y163166D02*
X144009Y163966D01*
X143609Y164766D01*
X144409Y164366D01*
X145209Y164766D01*
X144809Y163966D01*
X145209Y163166D01*
X144409Y163566D01*
X143609Y163166D01*
X81000Y198666D02*
X81400Y199466D01*
X81000Y200266D01*
X81800Y199866D01*
X82600Y200266D01*
X82200Y199466D01*
X82600Y198666D01*
X81800Y199066D01*
X81000Y198666D01*
X93500Y193166D02*
X93900Y193966D01*
X93500Y194766D01*
X94300Y194366D01*
X95100Y194766D01*
X94700Y193966D01*
X95100Y193166D01*
X94300Y193566D01*
X93500Y193166D01*
X105500Y159166D02*
X105900Y159966D01*
X105500Y160766D01*
X106300Y160366D01*
X107100Y160766D01*
X106700Y159966D01*
X107100Y159166D01*
X106300Y159566D01*
X105500Y159166D01*
X67572Y124938D02*
X67972Y125738D01*
X67572Y126538D01*
X68372Y126138D01*
X69172Y126538D01*
X68772Y125738D01*
X69172Y124938D01*
X68372Y125338D01*
X67572Y124938D01*
X172500Y180166D02*
X172900Y180966D01*
X172500Y181766D01*
X173300Y181366D01*
X174100Y181766D01*
X173700Y180966D01*
X174100Y180166D01*
X173300Y180566D01*
X172500Y180166D01*
X118000Y242166D02*
X118400Y242966D01*
X118000Y243766D01*
X118800Y243366D01*
X119600Y243766D01*
X119200Y242966D01*
X119600Y242166D01*
X118800Y242566D01*
X118000Y242166D01*
X137500Y240166D02*
X137900Y240966D01*
X137500Y241766D01*
X138300Y241366D01*
X139100Y241766D01*
X138700Y240966D01*
X139100Y240166D01*
X138300Y240566D01*
X137500Y240166D01*
X130500Y237666D02*
X130900Y238466D01*
X130500Y239266D01*
X131300Y238866D01*
X132100Y239266D01*
X131700Y238466D01*
X132100Y237666D01*
X131300Y238066D01*
X130500Y237666D01*
X121000Y248666D02*
X121400Y249466D01*
X121000Y250266D01*
X121800Y249866D01*
X122600Y250266D01*
X122200Y249466D01*
X122600Y248666D01*
X121800Y249066D01*
X121000Y248666D01*
X107234Y253666D02*
X107634Y254466D01*
X107234Y255266D01*
X108034Y254866D01*
X108834Y255266D01*
X108434Y254466D01*
X108834Y253666D01*
X108034Y254066D01*
X107234Y253666D01*
X105500Y240666D02*
X105900Y241466D01*
X105500Y242266D01*
X106300Y241866D01*
X107100Y242266D01*
X106700Y241466D01*
X107100Y240666D01*
X106300Y241066D01*
X105500Y240666D01*
X95300Y233461D02*
X95700Y234261D01*
X95300Y235061D01*
X96100Y234661D01*
X96900Y235061D01*
X96500Y234261D01*
X96900Y233461D01*
X96100Y233861D01*
X95300Y233461D01*
X103443Y234166D02*
X103843Y234966D01*
X103443Y235766D01*
X104243Y235366D01*
X105043Y235766D01*
X104643Y234966D01*
X105043Y234166D01*
X104243Y234566D01*
X103443Y234166D01*
X102500Y250166D02*
X102900Y250966D01*
X102500Y251766D01*
X103300Y251366D01*
X104100Y251766D01*
X103700Y250966D01*
X104100Y250166D01*
X103300Y250566D01*
X102500Y250166D01*
X168000Y323166D02*
X168400Y323966D01*
X168000Y324766D01*
X168800Y324366D01*
X169600Y324766D01*
X169200Y323966D01*
X169600Y323166D01*
X168800Y323566D01*
X168000Y323166D01*
X218000Y219166D02*
X218400Y219966D01*
X218000Y220766D01*
X218800Y220366D01*
X219600Y220766D01*
X219200Y219966D01*
X219600Y219166D01*
X218800Y219566D01*
X218000Y219166D01*
X205855Y184666D02*
X206255Y185466D01*
X205855Y186266D01*
X206655Y185866D01*
X207455Y186266D01*
X207055Y185466D01*
X207455Y184666D01*
X206655Y185066D01*
X205855Y184666D01*
X60500Y152166D02*
X60900Y152966D01*
X60500Y153766D01*
X61300Y153366D01*
X62100Y153766D01*
X61700Y152966D01*
X62100Y152166D01*
X61300Y152566D01*
X60500Y152166D01*
X36000Y173666D02*
X36400Y174466D01*
X36000Y175266D01*
X36800Y174866D01*
X37600Y175266D01*
X37200Y174466D01*
X37600Y173666D01*
X36800Y174066D01*
X36000Y173666D01*
X40709Y187113D02*
X41109Y187913D01*
X40709Y188713D01*
X41509Y188313D01*
X42309Y188713D01*
X41909Y187913D01*
X42309Y187113D01*
X41509Y187513D01*
X40709Y187113D01*
X7500Y185950D02*
X7900Y186749D01*
X7500Y187549D01*
X8300Y187150D01*
X9100Y187549D01*
X8700Y186749D01*
X9100Y185950D01*
X8300Y186349D01*
X7500Y185950D01*
X21500Y282666D02*
X21900Y283466D01*
X21500Y284266D01*
X22300Y283866D01*
X23100Y284266D01*
X22700Y283466D01*
X23100Y282666D01*
X22300Y283066D01*
X21500Y282666D01*
X62500Y210443D02*
X62900Y211244D01*
X62500Y212043D01*
X63300Y211644D01*
X64100Y212043D01*
X63700Y211244D01*
X64100Y210443D01*
X63300Y210843D01*
X62500Y210443D01*
X44000Y272666D02*
X44400Y273466D01*
X44000Y274266D01*
X44800Y273866D01*
X45600Y274266D01*
X45200Y273466D01*
X45600Y272666D01*
X44800Y273066D01*
X44000Y272666D01*
X160000D02*
X160400Y273466D01*
X160000Y274266D01*
X160800Y273866D01*
X161600Y274266D01*
X161200Y273466D01*
X161600Y272666D01*
X160800Y273066D01*
X160000Y272666D01*
X78109Y264166D02*
X78509Y264966D01*
X78109Y265766D01*
X78909Y265366D01*
X79709Y265766D01*
X79309Y264966D01*
X79709Y264166D01*
X78909Y264566D01*
X78109Y264166D01*
X58000Y274166D02*
X58400Y274966D01*
X58000Y275766D01*
X58800Y275366D01*
X59600Y275766D01*
X59200Y274966D01*
X59600Y274166D01*
X58800Y274566D01*
X58000Y274166D01*
X50500Y259166D02*
X50900Y259966D01*
X50500Y260766D01*
X51300Y260366D01*
X52100Y260766D01*
X51700Y259966D01*
X52100Y259166D01*
X51300Y259566D01*
X50500Y259166D01*
X55500Y288666D02*
X55900Y289466D01*
X55500Y290266D01*
X56300Y289866D01*
X57100Y290266D01*
X56700Y289466D01*
X57100Y288666D01*
X56300Y289066D01*
X55500Y288666D01*
X84240Y291166D02*
X84640Y291966D01*
X84240Y292766D01*
X85040Y292366D01*
X85840Y292766D01*
X85440Y291966D01*
X85840Y291166D01*
X85040Y291566D01*
X84240Y291166D01*
X87605Y297166D02*
X88005Y297966D01*
X87605Y298766D01*
X88405Y298366D01*
X89205Y298766D01*
X88805Y297966D01*
X89205Y297166D01*
X88405Y297566D01*
X87605Y297166D01*
X94500Y298487D02*
X94900Y299288D01*
X94500Y300087D01*
X95300Y299688D01*
X96100Y300087D01*
X95700Y299288D01*
X96100Y298487D01*
X95300Y298887D01*
X94500Y298487D01*
X101500D02*
X101900Y299288D01*
X101500Y300087D01*
X102300Y299688D01*
X103100Y300087D01*
X102700Y299288D01*
X103100Y298487D01*
X102300Y298887D01*
X101500Y298487D01*
X119000Y291166D02*
X119400Y291966D01*
X119000Y292766D01*
X119800Y292366D01*
X120600Y292766D01*
X120200Y291966D01*
X120600Y291166D01*
X119800Y291566D01*
X119000Y291166D01*
X118000Y298487D02*
X118400Y299288D01*
X118000Y300087D01*
X118800Y299688D01*
X119600Y300087D01*
X119200Y299288D01*
X119600Y298487D01*
X118800Y298887D01*
X118000Y298487D01*
X47500Y328666D02*
X47900Y329466D01*
X47500Y330266D01*
X48300Y329866D01*
X49100Y330266D01*
X48700Y329466D01*
X49100Y328666D01*
X48300Y329066D01*
X47500Y328666D01*
X142500Y336166D02*
X142900Y336966D01*
X142500Y337766D01*
X143300Y337366D01*
X144100Y337766D01*
X143700Y336966D01*
X144100Y336166D01*
X143300Y336566D01*
X142500Y336166D01*
X83479Y209767D02*
X83879Y210566D01*
X83479Y211367D01*
X84279Y210966D01*
X85079Y211367D01*
X84679Y210566D01*
X85079Y209767D01*
X84279Y210167D01*
X83479Y209767D01*
X144000Y191666D02*
X144400Y192466D01*
X144000Y193266D01*
X144800Y192866D01*
X145600Y193266D01*
X145200Y192466D01*
X145600Y191666D01*
X144800Y192066D01*
X144000Y191666D01*
Y199166D02*
X144400Y199966D01*
X144000Y200766D01*
X144800Y200366D01*
X145600Y200766D01*
X145200Y199966D01*
X145600Y199166D01*
X144800Y199566D01*
X144000Y199166D01*
X140000Y205166D02*
X140400Y205966D01*
X140000Y206766D01*
X140800Y206366D01*
X141600Y206766D01*
X141200Y205966D01*
X141600Y205166D01*
X140800Y205566D01*
X140000Y205166D01*
X134172Y206744D02*
X134572Y207543D01*
X134172Y208344D01*
X134972Y207944D01*
X135772Y208344D01*
X135372Y207543D01*
X135772Y206744D01*
X134972Y207143D01*
X134172Y206744D01*
X169500Y174166D02*
X169900Y174966D01*
X169500Y175766D01*
X170300Y175366D01*
X171100Y175766D01*
X170700Y174966D01*
X171100Y174166D01*
X170300Y174566D01*
X169500Y174166D01*
X83500Y253147D02*
X83900Y253946D01*
X83500Y254747D01*
X84300Y254346D01*
X85100Y254747D01*
X84700Y253946D01*
X85100Y253147D01*
X84300Y253547D01*
X83500Y253147D01*
X113748Y278791D02*
X114148Y279591D01*
X113748Y280392D01*
X114548Y279992D01*
X115348Y280392D01*
X114948Y279591D01*
X115348Y278791D01*
X114548Y279191D01*
X113748Y278791D01*
X177000Y149666D02*
X177400Y150466D01*
X177000Y151266D01*
X177800Y150866D01*
X178600Y151266D01*
X178200Y150466D01*
X178600Y149666D01*
X177800Y150066D01*
X177000Y149666D01*
X184000Y148166D02*
X184400Y148966D01*
X184000Y149766D01*
X184800Y149366D01*
X185600Y149766D01*
X185200Y148966D01*
X185600Y148166D01*
X184800Y148566D01*
X184000Y148166D01*
X90000Y286166D02*
X90400Y286966D01*
X90000Y287766D01*
X90800Y287366D01*
X91600Y287766D01*
X91200Y286966D01*
X91600Y286166D01*
X90800Y286566D01*
X90000Y286166D01*
X176490Y164166D02*
X176890Y164966D01*
X176490Y165766D01*
X177290Y165366D01*
X178090Y165766D01*
X177690Y164966D01*
X178090Y164166D01*
X177290Y164566D01*
X176490Y164166D01*
X46700Y314166D02*
X47100Y314966D01*
X46700Y315766D01*
X47500Y315366D01*
X48300Y315766D01*
X47900Y314966D01*
X48300Y314166D01*
X47500Y314566D01*
X46700Y314166D01*
X8000Y323666D02*
X8400Y324466D01*
X8000Y325266D01*
X8800Y324866D01*
X9600Y325266D01*
X9200Y324466D01*
X9600Y323666D01*
X8800Y324066D01*
X8000Y323666D01*
X172000Y331061D02*
X172400Y331861D01*
X172000Y332661D01*
X172800Y332261D01*
X173600Y332661D01*
X173200Y331861D01*
X173600Y331061D01*
X172800Y331461D01*
X172000Y331061D01*
X59500Y328347D02*
X59900Y329147D01*
X59500Y329947D01*
X60300Y329547D01*
X61100Y329947D01*
X60700Y329147D01*
X61100Y328347D01*
X60300Y328747D01*
X59500Y328347D01*
X119000Y283666D02*
X119400Y284466D01*
X119000Y285266D01*
X119800Y284866D01*
X120600Y285266D01*
X120200Y284466D01*
X120600Y283666D01*
X119800Y284066D01*
X119000Y283666D01*
X160209Y345666D02*
X160609Y346466D01*
X160209Y347266D01*
X161009Y346866D01*
X161809Y347266D01*
X161409Y346466D01*
X161809Y345666D01*
X161009Y346066D01*
X160209Y345666D01*
X68000Y339666D02*
X68400Y340466D01*
X68000Y341266D01*
X68800Y340866D01*
X69600Y341266D01*
X69200Y340466D01*
X69600Y339666D01*
X68800Y340066D01*
X68000Y339666D01*
X115000Y319666D02*
X115400Y320466D01*
X115000Y321266D01*
X115800Y320866D01*
X116600Y321266D01*
X116200Y320466D01*
X116600Y319666D01*
X115800Y320066D01*
X115000Y319666D01*
D85*
X125943Y321281D02*
G03*
X125943Y321281I-800J0D01*
G01*
X106257D02*
G03*
X106257Y321281I-800J0D01*
G01*
M02*
