G04*
G04 #@! TF.GenerationSoftware,Altium Limited,Altium Designer,19.0.12 (326)*
G04*
G04 Layer_Color=8388736*
%FSLAX25Y25*%
%MOIN*%
G70*
G01*
G75*
%ADD34R,0.04737X0.11430*%
%ADD35R,0.03162X0.07493*%
%ADD36R,0.07493X0.03162*%
%ADD37R,0.11430X0.04737*%
%ADD38R,0.02800X0.03162*%
%ADD39R,0.03162X0.02800*%
%ADD40R,0.05131X0.05131*%
%ADD41O,0.01981X0.06509*%
%ADD42O,0.06509X0.01981*%
%ADD43R,0.03753X0.07887*%
%ADD44R,0.03800X0.03800*%
%ADD45R,0.03800X0.03800*%
%ADD46O,0.06509X0.03162*%
%ADD47R,0.08280X0.08083*%
%ADD48R,0.07493X0.10249*%
%ADD49R,0.06706X0.06706*%
%ADD50C,0.06706*%
%ADD51R,0.06706X0.06706*%
%ADD52C,0.10642*%
%ADD53C,0.08674*%
%ADD54C,0.16548*%
%ADD55C,0.05800*%
D34*
X201673Y122146D02*
D03*
X182185D02*
D03*
D35*
X189469Y134744D02*
D03*
X194390D02*
D03*
D36*
X211202Y283050D02*
D03*
Y287971D02*
D03*
Y297813D02*
D03*
Y292892D02*
D03*
Y244106D02*
D03*
Y249027D02*
D03*
Y258870D02*
D03*
Y253948D02*
D03*
Y166219D02*
D03*
Y171140D02*
D03*
Y180983D02*
D03*
Y176061D02*
D03*
Y127274D02*
D03*
Y132195D02*
D03*
Y142038D02*
D03*
Y137117D02*
D03*
X18898Y160683D02*
D03*
Y155761D02*
D03*
Y145919D02*
D03*
Y150840D02*
D03*
X211202Y205163D02*
D03*
Y210084D02*
D03*
Y219926D02*
D03*
Y215005D02*
D03*
D37*
X223800Y275766D02*
D03*
Y305097D02*
D03*
Y236823D02*
D03*
Y266153D02*
D03*
Y158935D02*
D03*
Y188266D02*
D03*
Y119991D02*
D03*
Y149321D02*
D03*
X6300Y167966D02*
D03*
Y138635D02*
D03*
X223800Y197879D02*
D03*
Y227210D02*
D03*
D38*
X162500Y261561D02*
D03*
X166300D02*
D03*
X154587Y173819D02*
D03*
X150787D02*
D03*
X105654Y173466D02*
D03*
X101854D02*
D03*
X128800Y169466D02*
D03*
X125000D02*
D03*
X158533Y298043D02*
D03*
X154733D02*
D03*
X74300Y312176D02*
D03*
X78100D02*
D03*
X74300Y292954D02*
D03*
X78100D02*
D03*
X158533Y307654D02*
D03*
X154733D02*
D03*
X74300Y307371D02*
D03*
X78100D02*
D03*
X74300Y302565D02*
D03*
X78100D02*
D03*
X64200Y204734D02*
D03*
X60400D02*
D03*
X158533Y302849D02*
D03*
X154733D02*
D03*
X78100Y297760D02*
D03*
X74300D02*
D03*
X158533Y312460D02*
D03*
X154733D02*
D03*
X60400Y195466D02*
D03*
X64200D02*
D03*
X158533Y293237D02*
D03*
X154733D02*
D03*
X155009Y331966D02*
D03*
X158809D02*
D03*
X107800Y299288D02*
D03*
X111600D02*
D03*
X71200Y328966D02*
D03*
X67400D02*
D03*
X105457Y279773D02*
D03*
X109257D02*
D03*
X81200Y328966D02*
D03*
X77400D02*
D03*
X100700Y279466D02*
D03*
X96900D02*
D03*
X37900Y342616D02*
D03*
X41700D02*
D03*
X49100Y309585D02*
D03*
X45300D02*
D03*
X14000Y342616D02*
D03*
X17800D02*
D03*
X163209Y331966D02*
D03*
X167009D02*
D03*
X60400Y200115D02*
D03*
X64200D02*
D03*
D39*
X169021Y213466D02*
D03*
Y209666D02*
D03*
X67800Y226387D02*
D03*
Y230187D02*
D03*
X69300Y184666D02*
D03*
Y188466D02*
D03*
X69931Y205166D02*
D03*
Y208966D02*
D03*
X167175Y232939D02*
D03*
Y229139D02*
D03*
X22800Y338666D02*
D03*
Y342466D02*
D03*
X33300Y338566D02*
D03*
Y342366D02*
D03*
X45800Y323966D02*
D03*
Y320166D02*
D03*
X132491Y289412D02*
D03*
Y285612D02*
D03*
X10300Y318766D02*
D03*
Y314966D02*
D03*
X67800Y253027D02*
D03*
Y256827D02*
D03*
X75800Y127724D02*
D03*
Y123924D02*
D03*
X65564Y275361D02*
D03*
Y271561D02*
D03*
X209670Y362214D02*
D03*
Y358414D02*
D03*
X74884Y275390D02*
D03*
Y271590D02*
D03*
X70200Y275390D02*
D03*
Y271590D02*
D03*
X10300Y309866D02*
D03*
Y306066D02*
D03*
X79580Y275361D02*
D03*
Y271561D02*
D03*
D40*
X166009Y337868D02*
D03*
X156009Y368064D02*
D03*
Y337868D02*
D03*
X166009Y368064D02*
D03*
D41*
X152249Y263690D02*
D03*
X150280D02*
D03*
X148312D02*
D03*
X146343D02*
D03*
X144375D02*
D03*
X142406D02*
D03*
X140438D02*
D03*
X138469D02*
D03*
X136501D02*
D03*
X134532D02*
D03*
X132564D02*
D03*
X130595D02*
D03*
X128627D02*
D03*
X126658D02*
D03*
X124690D02*
D03*
X122721D02*
D03*
X120753D02*
D03*
X118784D02*
D03*
X116816D02*
D03*
X114847D02*
D03*
X112879D02*
D03*
X110910D02*
D03*
X108942D02*
D03*
X106973D02*
D03*
X105005D02*
D03*
X103036D02*
D03*
X101068D02*
D03*
X99099D02*
D03*
X97131D02*
D03*
X95162D02*
D03*
X93194D02*
D03*
X91225D02*
D03*
X89257D02*
D03*
X87288D02*
D03*
X85320D02*
D03*
X83351D02*
D03*
Y179242D02*
D03*
X85320D02*
D03*
X87288D02*
D03*
X89257D02*
D03*
X91225D02*
D03*
X93194D02*
D03*
X95162D02*
D03*
X97131D02*
D03*
X99099D02*
D03*
X101068D02*
D03*
X103036D02*
D03*
X105005D02*
D03*
X106973D02*
D03*
X108942D02*
D03*
X110910D02*
D03*
X112879D02*
D03*
X114847D02*
D03*
X116816D02*
D03*
X118784D02*
D03*
X120753D02*
D03*
X122721D02*
D03*
X124690D02*
D03*
X126658D02*
D03*
X128627D02*
D03*
X130595D02*
D03*
X132564D02*
D03*
X134532D02*
D03*
X136501D02*
D03*
X138469D02*
D03*
X140438D02*
D03*
X142406D02*
D03*
X144375D02*
D03*
X146343D02*
D03*
X148312D02*
D03*
X150280D02*
D03*
X152249D02*
D03*
D42*
X75576Y255915D02*
D03*
Y253946D02*
D03*
Y251978D02*
D03*
Y250009D02*
D03*
Y248041D02*
D03*
Y246072D02*
D03*
Y244104D02*
D03*
Y242135D02*
D03*
Y240167D02*
D03*
Y238198D02*
D03*
Y236230D02*
D03*
Y234261D02*
D03*
Y232293D02*
D03*
Y230324D02*
D03*
Y228356D02*
D03*
Y226387D02*
D03*
Y224419D02*
D03*
Y222450D02*
D03*
Y220482D02*
D03*
Y218513D02*
D03*
Y216545D02*
D03*
Y214576D02*
D03*
Y212608D02*
D03*
Y210639D02*
D03*
Y208671D02*
D03*
Y206702D02*
D03*
Y204734D02*
D03*
Y202765D02*
D03*
Y200797D02*
D03*
Y198828D02*
D03*
Y196860D02*
D03*
Y194891D02*
D03*
Y192923D02*
D03*
Y190954D02*
D03*
Y188986D02*
D03*
Y187017D02*
D03*
X160024D02*
D03*
Y188986D02*
D03*
Y190954D02*
D03*
Y192923D02*
D03*
Y194891D02*
D03*
Y196860D02*
D03*
Y198828D02*
D03*
Y200797D02*
D03*
Y202765D02*
D03*
Y204734D02*
D03*
Y206702D02*
D03*
Y208671D02*
D03*
Y210639D02*
D03*
Y212608D02*
D03*
Y214576D02*
D03*
Y216545D02*
D03*
Y218513D02*
D03*
Y220482D02*
D03*
Y222450D02*
D03*
Y224419D02*
D03*
Y226387D02*
D03*
Y228356D02*
D03*
Y230324D02*
D03*
Y232293D02*
D03*
Y234261D02*
D03*
Y236230D02*
D03*
Y238198D02*
D03*
Y240167D02*
D03*
Y242135D02*
D03*
Y244104D02*
D03*
Y246072D02*
D03*
Y248041D02*
D03*
Y250009D02*
D03*
Y251978D02*
D03*
Y253946D02*
D03*
Y255915D02*
D03*
D43*
X54654Y185773D02*
D03*
Y199159D02*
D03*
X48946D02*
D03*
Y185773D02*
D03*
D44*
X163792Y312460D02*
D03*
X169242Y312453D02*
D03*
X163792Y306711D02*
D03*
X169242Y306705D02*
D03*
X63650Y312058D02*
D03*
X69100Y312051D02*
D03*
Y300731D02*
D03*
X63650Y300738D02*
D03*
X112517Y312466D02*
D03*
X117967Y312460D02*
D03*
X69100Y289412D02*
D03*
X63650Y289418D02*
D03*
X69100Y295072D02*
D03*
X63650Y295078D02*
D03*
X163792Y300963D02*
D03*
X169242Y300957D02*
D03*
X163792Y295215D02*
D03*
X169242Y295208D02*
D03*
X163792Y289466D02*
D03*
X169242Y289460D02*
D03*
X69100Y306392D02*
D03*
X63650Y306398D02*
D03*
D45*
X167015Y223963D02*
D03*
X167009Y218513D02*
D03*
D46*
X39028Y297466D02*
D03*
Y302466D02*
D03*
Y307466D02*
D03*
Y312466D02*
D03*
Y317466D02*
D03*
Y322466D02*
D03*
Y327466D02*
D03*
X17572Y297466D02*
D03*
Y302466D02*
D03*
Y307466D02*
D03*
Y312466D02*
D03*
Y317466D02*
D03*
Y322466D02*
D03*
Y327466D02*
D03*
D47*
X60583Y337029D02*
D03*
X78300Y365966D02*
D03*
Y337029D02*
D03*
X60583Y365966D02*
D03*
D48*
X112741Y289466D02*
D03*
X98174D02*
D03*
D49*
X197469Y201561D02*
D03*
X41300Y210966D02*
D03*
X26266Y199417D02*
D03*
X177469Y271561D02*
D03*
X187469Y201561D02*
D03*
X16028Y199466D02*
D03*
X6266Y199417D02*
D03*
X223154Y322824D02*
D03*
D50*
X197469Y211561D02*
D03*
Y221561D02*
D03*
Y231561D02*
D03*
Y241561D02*
D03*
Y251561D02*
D03*
Y261561D02*
D03*
Y271561D02*
D03*
X13300Y360966D02*
D03*
X23300D02*
D03*
X33300D02*
D03*
X41300Y220966D02*
D03*
Y230966D02*
D03*
Y240966D02*
D03*
Y250966D02*
D03*
Y260966D02*
D03*
X13300Y350966D02*
D03*
X23300D02*
D03*
X33300D02*
D03*
X80300Y151466D02*
D03*
X90300Y141466D02*
D03*
Y151466D02*
D03*
X100300Y141466D02*
D03*
Y151466D02*
D03*
X110300Y141466D02*
D03*
Y151466D02*
D03*
X120300Y141466D02*
D03*
Y151466D02*
D03*
X130300Y141466D02*
D03*
Y151466D02*
D03*
X140300Y141466D02*
D03*
Y151466D02*
D03*
X150300Y141466D02*
D03*
Y151466D02*
D03*
X26266Y269417D02*
D03*
Y259417D02*
D03*
Y249417D02*
D03*
Y239417D02*
D03*
Y229417D02*
D03*
Y219417D02*
D03*
Y209417D02*
D03*
X177469Y261561D02*
D03*
Y251561D02*
D03*
Y241561D02*
D03*
Y231561D02*
D03*
Y221561D02*
D03*
Y211561D02*
D03*
Y201561D02*
D03*
X187469Y211561D02*
D03*
Y221561D02*
D03*
Y231561D02*
D03*
Y241561D02*
D03*
Y251561D02*
D03*
Y261561D02*
D03*
Y271561D02*
D03*
X16028Y209466D02*
D03*
Y219466D02*
D03*
Y229466D02*
D03*
Y239466D02*
D03*
Y249466D02*
D03*
Y259466D02*
D03*
Y269466D02*
D03*
X105800Y125966D02*
D03*
X95800D02*
D03*
X115800D02*
D03*
X125800D02*
D03*
X135800D02*
D03*
X145800D02*
D03*
X6266Y209417D02*
D03*
Y219417D02*
D03*
Y229417D02*
D03*
Y239417D02*
D03*
Y249417D02*
D03*
Y259417D02*
D03*
Y269417D02*
D03*
X223154Y352824D02*
D03*
Y342824D02*
D03*
Y332824D02*
D03*
D51*
X43300Y360966D02*
D03*
Y350966D02*
D03*
X80300Y141466D02*
D03*
X85800Y125966D02*
D03*
D52*
X125143Y321281D02*
D03*
X105457D02*
D03*
D53*
X136954Y360651D02*
D03*
X93646D02*
D03*
D54*
X200615Y373927D02*
D03*
X201009Y29045D02*
D03*
X28961D02*
D03*
X28961Y373927D02*
D03*
D55*
X199824Y134055D02*
D03*
X144882Y316142D02*
D03*
X139370Y341535D02*
D03*
X142421Y352953D02*
D03*
X154733Y358233D02*
D03*
X166300Y358858D02*
D03*
X183563Y357776D02*
D03*
X201673Y357283D02*
D03*
X156622Y168602D02*
D03*
X159843Y163287D02*
D03*
X151800Y193966D02*
D03*
X149705Y246555D02*
D03*
X144095Y250966D02*
D03*
X93307Y248228D02*
D03*
X51083Y221063D02*
D03*
X57185Y230020D02*
D03*
X190354Y283465D02*
D03*
X191535Y294193D02*
D03*
X179429Y300787D02*
D03*
X151476Y319094D02*
D03*
X138287Y310925D02*
D03*
X144783Y325787D02*
D03*
X139075Y319488D02*
D03*
X135335Y329134D02*
D03*
X88090Y368012D02*
D03*
X69390Y366831D02*
D03*
X79232Y318996D02*
D03*
X65203Y320669D02*
D03*
X86319Y334941D02*
D03*
X95177Y314075D02*
D03*
X84646Y321366D02*
D03*
X92618Y320177D02*
D03*
X84449Y314567D02*
D03*
X55807Y304724D02*
D03*
X54429Y298130D02*
D03*
X26575Y289665D02*
D03*
X17815Y289961D02*
D03*
X6299Y289665D02*
D03*
X4724Y299288D02*
D03*
Y340354D02*
D03*
X7972Y374311D02*
D03*
X8760Y380906D02*
D03*
X18012Y389370D02*
D03*
X33563Y391929D02*
D03*
X52559Y376083D02*
D03*
X182087Y380610D02*
D03*
X220472Y371063D02*
D03*
X217717Y379626D02*
D03*
X206988Y390158D02*
D03*
X189370Y392126D02*
D03*
X182677Y370571D02*
D03*
X201969Y329232D02*
D03*
X183169Y333760D02*
D03*
X185138Y314173D02*
D03*
X181398Y346752D02*
D03*
X191142Y343025D02*
D03*
X203642Y341535D02*
D03*
X194193Y336516D02*
D03*
X189370Y325787D02*
D03*
X196161Y319685D02*
D03*
X199213Y307480D02*
D03*
X196161Y300197D02*
D03*
X187598Y306496D02*
D03*
X182087Y293406D02*
D03*
X148327Y276673D02*
D03*
X154035Y281890D02*
D03*
X171063Y283169D02*
D03*
X223721Y254626D02*
D03*
X223228Y244291D02*
D03*
X224508Y218012D02*
D03*
X223721Y205966D02*
D03*
X225000Y178937D02*
D03*
X117028Y221763D02*
D03*
X83661Y229528D02*
D03*
X127264Y226279D02*
D03*
X181398Y191240D02*
D03*
X195177D02*
D03*
X224213Y167866D02*
D03*
X208661Y160630D02*
D03*
X225394Y126575D02*
D03*
X171653Y140847D02*
D03*
X173524Y128839D02*
D03*
X162755Y132776D02*
D03*
X160274Y124705D02*
D03*
X61455Y131595D02*
D03*
X6004Y174311D02*
D03*
X5807Y152165D02*
D03*
X52121Y126378D02*
D03*
X15157Y128347D02*
D03*
X35728Y147047D02*
D03*
X38189Y138287D02*
D03*
X36909Y125886D02*
D03*
X74729Y352372D02*
D03*
X86737Y352076D02*
D03*
X208784Y351781D02*
D03*
X90800Y188466D02*
D03*
X85800Y194661D02*
D03*
X106800Y190966D02*
D03*
X112517Y199159D02*
D03*
X113300Y211561D02*
D03*
X119300Y201561D02*
D03*
Y211561D02*
D03*
X131800Y201203D02*
D03*
X135800Y192466D02*
D03*
X125800Y200966D02*
D03*
X107301Y211561D02*
D03*
X101246Y211466D02*
D03*
X119800Y189966D02*
D03*
X124300Y117466D02*
D03*
X157000Y152766D02*
D03*
X98900Y164566D02*
D03*
X133000Y172566D02*
D03*
X153900Y205866D02*
D03*
X74800Y171761D02*
D03*
X149800Y159966D02*
D03*
X144409Y163966D02*
D03*
X81800Y199466D02*
D03*
X94300Y193966D02*
D03*
X106300Y159966D02*
D03*
X68372Y125738D02*
D03*
X173300Y180966D02*
D03*
X118800Y242966D02*
D03*
X138300Y240966D02*
D03*
X131300Y238466D02*
D03*
X121800Y249466D02*
D03*
X108034Y254466D02*
D03*
X106300Y241466D02*
D03*
X96100Y234261D02*
D03*
X104243Y234966D02*
D03*
X103300Y250966D02*
D03*
X168800Y323966D02*
D03*
X218800Y219966D02*
D03*
X206655Y185466D02*
D03*
X61300Y152966D02*
D03*
X36800Y174466D02*
D03*
X41509Y187913D02*
D03*
X8300Y186749D02*
D03*
X22300Y283466D02*
D03*
X63300Y211244D02*
D03*
X44800Y273466D02*
D03*
X160800D02*
D03*
X78909Y264966D02*
D03*
X58800Y274966D02*
D03*
X51300Y259966D02*
D03*
X56300Y289466D02*
D03*
X85040Y291966D02*
D03*
X88405Y297966D02*
D03*
X95300Y299288D02*
D03*
X102300D02*
D03*
X119800Y291966D02*
D03*
X118800Y299288D02*
D03*
X48300Y329466D02*
D03*
X143300Y336966D02*
D03*
X84279Y210566D02*
D03*
X144800Y192466D02*
D03*
Y199966D02*
D03*
X140800Y205966D02*
D03*
X134972Y207543D02*
D03*
X170300Y174966D02*
D03*
X84300Y253946D02*
D03*
X114548Y279591D02*
D03*
X177800Y150466D02*
D03*
X184800Y148966D02*
D03*
X90800Y286966D02*
D03*
X177290Y164966D02*
D03*
X47500Y314966D02*
D03*
X8800Y324466D02*
D03*
X172800Y331861D02*
D03*
X60300Y329147D02*
D03*
X119800Y284466D02*
D03*
X161009Y346466D02*
D03*
X68800Y340466D02*
D03*
X115800Y320466D02*
D03*
M02*
